G04 #@! TF.GenerationSoftware,KiCad,Pcbnew,8.0.8*
G04 #@! TF.CreationDate,2025-07-30T13:33:19+02:00*
G04 #@! TF.ProjectId,overlord,6f766572-6c6f-4726-942e-6b696361645f,rev?*
G04 #@! TF.SameCoordinates,Original*
G04 #@! TF.FileFunction,Legend,Bot*
G04 #@! TF.FilePolarity,Positive*
%FSLAX46Y46*%
G04 Gerber Fmt 4.6, Leading zero omitted, Abs format (unit mm)*
G04 Created by KiCad (PCBNEW 8.0.8) date 2025-07-30 13:33:19*
%MOMM*%
%LPD*%
G01*
G04 APERTURE LIST*
%ADD10C,0.152400*%
%ADD11C,0.508000*%
%ADD12C,6.100000*%
%ADD13C,4.000000*%
%ADD14R,1.200000X1.200000*%
%ADD15C,1.200000*%
%ADD16C,1.397000*%
%ADD17C,3.759200*%
%ADD18C,2.082800*%
%ADD19C,0.800000*%
%ADD20C,5.400000*%
%ADD21C,1.431000*%
%ADD22C,2.025000*%
G04 APERTURE END LIST*
D10*
G36*
X134141551Y-96450914D02*
G01*
X135749988Y-96450914D01*
X135749988Y-94193719D01*
X134132270Y-94193719D01*
X134282626Y-94317159D01*
X134206520Y-94822986D01*
X134294692Y-95270341D01*
X134294692Y-95533000D01*
X134223226Y-95735331D01*
X134278914Y-96082449D01*
X134240146Y-96267333D01*
X134150002Y-96438078D01*
X134141551Y-96450914D01*
G37*
G36*
X133349863Y-94134319D02*
G01*
X129988202Y-94134319D01*
X129988202Y-96354389D01*
X133389772Y-96389657D01*
X133243430Y-96272224D01*
X133208788Y-96158555D01*
X133208788Y-96101939D01*
X133265404Y-96021193D01*
X133683987Y-96061102D01*
X133878893Y-96027689D01*
X133878893Y-95904249D01*
X133923443Y-95540425D01*
X133265404Y-95399350D01*
X132830114Y-95399350D01*
X132661196Y-95378004D01*
X132399465Y-95424410D01*
X132233331Y-95369650D01*
X132095969Y-95399350D01*
X131863938Y-95399350D01*
X131863938Y-95630453D01*
X131787832Y-95798443D01*
X131636548Y-95798443D01*
X131491761Y-95675003D01*
X131532598Y-95111632D01*
X131532598Y-94909301D01*
X131583645Y-94729014D01*
X131643973Y-94668918D01*
X131778551Y-94668918D01*
X131869438Y-94832546D01*
X131916841Y-95015107D01*
X132233331Y-94988192D01*
X132401321Y-95055945D01*
X132806911Y-94997473D01*
X133134538Y-94997473D01*
X133810212Y-95118129D01*
X133864971Y-95062442D01*
X133837127Y-94881458D01*
X133837127Y-94486077D01*
X133509500Y-94486077D01*
X133332663Y-94413778D01*
X133312738Y-94376559D01*
X133312738Y-94228987D01*
X133349863Y-94134319D01*
G37*
G36*
X131595711Y-94107403D02*
G01*
X135690588Y-93987676D01*
X135690588Y-92466482D01*
X129928802Y-92644682D01*
X129928802Y-94134319D01*
X131674601Y-94134319D01*
X131515675Y-94018681D01*
X131417874Y-93855563D01*
X131413799Y-93813188D01*
X131446283Y-93657264D01*
X131362752Y-93357480D01*
X131392628Y-93150983D01*
X131437698Y-92960012D01*
X131536311Y-92827522D01*
X131634692Y-92827522D01*
X131658823Y-92849797D01*
X131775183Y-93010333D01*
X131942987Y-93103979D01*
X132142316Y-93146789D01*
X132290875Y-93154221D01*
X132395752Y-93108743D01*
X132723380Y-93176496D01*
X132894024Y-93094778D01*
X132947057Y-93086468D01*
X133433394Y-93145868D01*
X133580037Y-93105031D01*
X133822277Y-93105031D01*
X133859173Y-92913456D01*
X133926865Y-92733492D01*
X133966136Y-92708722D01*
X134039458Y-92708722D01*
X134166508Y-92859413D01*
X134228975Y-93037097D01*
X134235292Y-93058625D01*
X134235292Y-93450292D01*
X134235292Y-93496699D01*
X134263136Y-93529183D01*
X134234389Y-93721206D01*
X134160487Y-93894997D01*
X134094217Y-93926419D01*
X133919730Y-93823398D01*
X133828821Y-93657967D01*
X133703351Y-93520721D01*
X133662640Y-93509692D01*
X133441747Y-93540320D01*
X133038013Y-93540320D01*
X132743799Y-93540320D01*
X131960463Y-93540320D01*
X131768341Y-93627564D01*
X131830526Y-93685107D01*
X131791772Y-93866740D01*
X131687206Y-94022164D01*
X131595711Y-94107403D01*
G37*
G36*
X131655110Y-92500823D02*
G01*
X133890030Y-92500823D01*
X133803987Y-92336012D01*
X133748027Y-92180620D01*
X133541056Y-92180620D01*
X133368425Y-92149064D01*
X133334085Y-92188045D01*
X133329444Y-92188045D01*
X133291391Y-92149992D01*
X133151244Y-92203823D01*
X132430093Y-92203823D01*
X131799898Y-92160202D01*
X131799898Y-92284570D01*
X131711527Y-92454945D01*
X131655110Y-92500823D01*
G37*
G36*
X134007902Y-92440495D02*
G01*
X135690588Y-92440495D01*
X135619123Y-89771214D01*
X134104427Y-89771214D01*
X134146192Y-89944773D01*
X134146192Y-90172163D01*
X134119277Y-90405121D01*
X134146192Y-90438534D01*
X134104089Y-90630470D01*
X133965537Y-90759234D01*
X133926227Y-90775442D01*
X133819493Y-90743886D01*
X133662916Y-90855305D01*
X133482253Y-90931268D01*
X133275014Y-91002814D01*
X133065375Y-91066971D01*
X132972117Y-91093789D01*
X132972117Y-91163398D01*
X133016667Y-91215373D01*
X133208755Y-91250525D01*
X133403052Y-91294147D01*
X133576926Y-91365932D01*
X133581893Y-91378722D01*
X133797638Y-91386455D01*
X133992925Y-91415025D01*
X134166513Y-91492357D01*
X134216729Y-91598687D01*
X134146192Y-91959727D01*
X134146192Y-92365317D01*
X134007902Y-92440495D01*
G37*
G36*
X133815780Y-89827829D02*
G01*
X131638404Y-89827829D01*
X131700821Y-90009741D01*
X131740941Y-90195815D01*
X131748851Y-90243628D01*
X132378118Y-90243628D01*
X132461649Y-90220425D01*
X132491349Y-90251053D01*
X133100198Y-90135038D01*
X133118760Y-90135038D01*
X133154957Y-90164738D01*
X133727609Y-90115547D01*
X133789793Y-90115547D01*
X133789793Y-90051507D01*
X133808294Y-89863880D01*
X133815780Y-89827829D01*
G37*
G36*
X131443498Y-89883516D02*
G01*
X129876827Y-89883516D01*
X129945508Y-92560223D01*
X131653254Y-92560223D01*
X131509968Y-92428128D01*
X131434188Y-92249490D01*
X131424936Y-92189902D01*
X131452780Y-91807515D01*
X131413799Y-91704493D01*
X131428996Y-91515162D01*
X131513049Y-91343807D01*
X131605920Y-91312826D01*
X131639332Y-91312826D01*
X131749032Y-91464943D01*
X131793751Y-91655091D01*
X131815676Y-91793593D01*
X132765145Y-91867843D01*
X132809695Y-91864131D01*
X132814336Y-91835359D01*
X132797630Y-91846496D01*
X132847748Y-91902184D01*
X133307169Y-91821437D01*
X133322947Y-91821437D01*
X133358216Y-91852065D01*
X133522494Y-91809371D01*
X133522494Y-91693356D01*
X133430609Y-91693356D01*
X133233058Y-91650166D01*
X133050402Y-91606910D01*
X132830031Y-91549134D01*
X132636140Y-91491243D01*
X132431015Y-91418715D01*
X132239481Y-91331442D01*
X132091328Y-91229295D01*
X132174419Y-91049105D01*
X132325193Y-90923931D01*
X132397609Y-90912805D01*
X132617791Y-90844704D01*
X132810101Y-90781939D01*
X133011293Y-90710989D01*
X133195235Y-90636855D01*
X133362442Y-90539982D01*
X133378635Y-90517424D01*
X133052863Y-90517424D01*
X132883945Y-90490509D01*
X132788348Y-90557334D01*
X132779067Y-90557334D01*
X132746583Y-90523921D01*
X132197134Y-90604668D01*
X132085759Y-90570327D01*
X132053275Y-90609308D01*
X132046778Y-90609308D01*
X132009653Y-90575896D01*
X131760916Y-90618590D01*
X131674923Y-90789498D01*
X131628195Y-90837627D01*
X131514036Y-90837627D01*
X131363680Y-90676133D01*
X131363680Y-90448743D01*
X131419367Y-90376350D01*
X131359039Y-90380990D01*
X131363680Y-90375422D01*
X131373112Y-90174923D01*
X131408578Y-89980389D01*
X131443498Y-89883516D01*
G37*
G36*
X131504755Y-89694179D02*
G01*
X131409027Y-89534057D01*
X131384099Y-89477927D01*
X131384099Y-88519176D01*
X131384099Y-87852784D01*
X131459570Y-87678478D01*
X131622626Y-87563209D01*
X131996660Y-87563209D01*
X132175196Y-87626837D01*
X132243210Y-87801034D01*
X132245397Y-87852784D01*
X132067291Y-87939882D01*
X131868579Y-87949308D01*
X131770198Y-87949308D01*
X131770198Y-88374389D01*
X131734001Y-88637047D01*
X131759988Y-88899706D01*
X132299228Y-88899706D01*
X132432877Y-88883928D01*
X132494133Y-88949825D01*
X132547036Y-88733572D01*
X132547036Y-88687166D01*
X132364196Y-88451423D01*
X132493626Y-88311044D01*
X132695536Y-88288073D01*
X132890461Y-88294691D01*
X133085874Y-88327103D01*
X133195794Y-88426364D01*
X133195794Y-88591569D01*
X133021423Y-88662397D01*
X132885801Y-88687166D01*
X132885801Y-88747494D01*
X132962083Y-88922964D01*
X133145792Y-89001568D01*
X133348006Y-89018506D01*
X133655215Y-89018506D01*
X133708118Y-89018506D01*
X133755452Y-88871863D01*
X133730393Y-88831953D01*
X133730393Y-88488548D01*
X133791649Y-88068108D01*
X133365641Y-88068108D01*
X133255194Y-87900118D01*
X133255194Y-87767396D01*
X133428750Y-87698353D01*
X133617303Y-87685011D01*
X133803715Y-87682009D01*
X133970777Y-87741409D01*
X134135124Y-87840551D01*
X134175892Y-87951165D01*
X134175892Y-88245380D01*
X134116492Y-88338192D01*
X134116492Y-88469057D01*
X134143408Y-88464417D01*
X134134127Y-88663035D01*
X134084936Y-88761416D01*
X134081224Y-88832881D01*
X134042242Y-89306224D01*
X134116492Y-89478855D01*
X134049707Y-89652675D01*
X134015327Y-89671904D01*
X133961496Y-89671904D01*
X133789793Y-89605080D01*
X133688280Y-89449329D01*
X133529919Y-89382330D01*
X133391628Y-89411102D01*
X132762361Y-89309008D01*
X132762361Y-89365624D01*
X132746583Y-89380474D01*
X132357699Y-89322002D01*
X131972528Y-89322002D01*
X131770198Y-89343349D01*
X131770198Y-89589301D01*
X131631907Y-89698820D01*
X135620051Y-89875163D01*
X135725857Y-87447194D01*
X129989130Y-87196601D01*
X129886108Y-89622714D01*
X131504755Y-89694179D01*
G37*
G36*
X131586429Y-85918576D02*
G01*
X131458667Y-85778293D01*
X131398020Y-85692114D01*
X131398020Y-84763063D01*
X131294999Y-84069755D01*
X131363103Y-83892745D01*
X131507089Y-83768695D01*
X131536311Y-83750481D01*
X131898279Y-83750481D01*
X132081329Y-83815128D01*
X132172691Y-83992116D01*
X132182284Y-84044696D01*
X132023200Y-84151913D01*
X131835618Y-84166161D01*
X131812891Y-84166280D01*
X131711726Y-84166280D01*
X131761845Y-84572798D01*
X131736785Y-84846594D01*
X131781335Y-85116678D01*
X132313150Y-85116678D01*
X132466290Y-85072128D01*
X132529402Y-85138953D01*
X132564671Y-84904138D01*
X132564671Y-84856803D01*
X132353987Y-84619204D01*
X132448810Y-84454089D01*
X132629924Y-84409452D01*
X132689967Y-84407592D01*
X132887062Y-84414165D01*
X133084651Y-84446359D01*
X133195794Y-84544954D01*
X133195794Y-84712016D01*
X133020752Y-84800138D01*
X132909004Y-84829888D01*
X132909004Y-84882791D01*
X133011787Y-85050669D01*
X133194511Y-85105486D01*
X133376778Y-85116678D01*
X133672849Y-85079553D01*
X133722968Y-85079553D01*
X133767518Y-84959825D01*
X133730393Y-84919916D01*
X133730393Y-84549595D01*
X133730393Y-84106880D01*
X133326660Y-84106880D01*
X133200435Y-84000146D01*
X133200435Y-83842365D01*
X133367823Y-83753059D01*
X133577059Y-83734615D01*
X133729465Y-83731918D01*
X133892815Y-83750481D01*
X134064680Y-83834898D01*
X134141551Y-83989937D01*
X134141551Y-84258164D01*
X134086792Y-84359329D01*
X134086792Y-84502260D01*
X134156401Y-84499476D01*
X134156401Y-84699950D01*
X134086792Y-84807613D01*
X134086792Y-84877222D01*
X134086792Y-85329218D01*
X134175892Y-85491639D01*
X134112783Y-85669465D01*
X134080295Y-85691186D01*
X134027392Y-85691186D01*
X133849193Y-85639211D01*
X133735276Y-85488768D01*
X133584678Y-85440592D01*
X133452884Y-85471221D01*
X132826401Y-85426671D01*
X132826401Y-85474005D01*
X132813408Y-85485142D01*
X132419884Y-85485142D01*
X132019863Y-85485142D01*
X131829598Y-85530620D01*
X131829598Y-85771932D01*
X131721007Y-85889804D01*
X135701726Y-85770076D01*
X135630260Y-83352316D01*
X129875899Y-83523091D01*
X129947364Y-85918576D01*
X131586429Y-85918576D01*
G37*
G36*
X131844448Y-83369022D02*
G01*
X134156401Y-83369022D01*
X134021167Y-83235922D01*
X133967993Y-83099867D01*
X133826047Y-82960156D01*
X133669992Y-82842299D01*
X133502408Y-82728980D01*
X133343772Y-82628438D01*
X133163296Y-82519108D01*
X132960979Y-82400990D01*
X132911789Y-82400990D01*
X132313150Y-82853914D01*
X131844448Y-83369022D01*
G37*
G36*
X134146192Y-83331897D02*
G01*
X135779688Y-83331897D01*
X135779688Y-80999525D01*
X134195383Y-80999525D01*
X134257991Y-81182554D01*
X134304020Y-81372239D01*
X134324392Y-81478436D01*
X134324392Y-81687264D01*
X134216729Y-81831123D01*
X134033248Y-81782926D01*
X133925299Y-81660348D01*
X133277469Y-82152253D01*
X133431860Y-82264820D01*
X133594398Y-82374716D01*
X133772539Y-82478506D01*
X133957091Y-82542611D01*
X133967993Y-82542993D01*
X134049566Y-82373266D01*
X134060805Y-82365722D01*
X134176820Y-82365722D01*
X134245584Y-82542409D01*
X134271532Y-82749442D01*
X134281698Y-82866908D01*
X134250142Y-82961576D01*
X134286339Y-83149057D01*
X134175309Y-83302227D01*
X134146192Y-83331897D01*
G37*
G36*
X133973561Y-80999525D02*
G01*
X131738642Y-80999525D01*
X131841968Y-81160197D01*
X131870435Y-81296524D01*
X132063346Y-81361778D01*
X132230604Y-81452379D01*
X132403435Y-81557541D01*
X132563594Y-81661084D01*
X132743215Y-81781885D01*
X132840323Y-81848757D01*
X132920142Y-81848757D01*
X133108313Y-81737478D01*
X133285336Y-81626968D01*
X133451211Y-81517230D01*
X133605938Y-81408261D01*
X133776893Y-81278516D01*
X133931796Y-81149881D01*
X133973561Y-80999525D01*
G37*
G36*
X131660679Y-81038506D02*
G01*
X130047602Y-81038506D01*
X130047602Y-83405219D01*
X131825885Y-83405219D01*
X131687991Y-83270188D01*
X131603096Y-83089817D01*
X131581789Y-82991276D01*
X131617950Y-82790590D01*
X131663942Y-82607121D01*
X131716367Y-82484521D01*
X131875342Y-82581374D01*
X131888997Y-82672002D01*
X131992947Y-82672002D01*
X132570240Y-82218150D01*
X132570240Y-82153181D01*
X132041210Y-81805135D01*
X131974385Y-81805135D01*
X131942669Y-81989980D01*
X131860646Y-82157275D01*
X131786904Y-82187522D01*
X131640284Y-82065149D01*
X131596675Y-81882438D01*
X131591998Y-81840404D01*
X131591998Y-81631576D01*
X131629123Y-81586098D01*
X131591998Y-81544333D01*
X131591998Y-81335505D01*
X131621577Y-81148974D01*
X131660679Y-81038506D01*
G37*
G36*
X133845480Y-80851025D02*
G01*
X135512389Y-80851025D01*
X135512389Y-78618890D01*
X129750602Y-78618890D01*
X129750602Y-80851025D01*
X133863115Y-80851025D01*
X133697553Y-80763938D01*
X133632940Y-80707166D01*
X133558922Y-80530359D01*
X133372721Y-80472344D01*
X133336869Y-80471423D01*
X133306241Y-80494626D01*
X132569311Y-80494626D01*
X132522905Y-80451004D01*
X132480212Y-80494626D01*
X132056060Y-80494626D01*
X132022647Y-80471423D01*
X131581789Y-80471423D01*
X131512730Y-80650498D01*
X131450923Y-80748004D01*
X131279157Y-80662352D01*
X131201411Y-80490667D01*
X131176199Y-80358192D01*
X131179299Y-80165157D01*
X131193076Y-79969903D01*
X131253694Y-79792400D01*
X131264371Y-79790181D01*
X131364608Y-79790181D01*
X131474239Y-79943800D01*
X131475055Y-80051911D01*
X131661607Y-80092749D01*
X131953966Y-80092749D01*
X132082975Y-80063049D01*
X132081119Y-80092749D01*
X132177644Y-80092749D01*
X132361412Y-80052840D01*
X132361412Y-79985087D01*
X132329856Y-79950746D01*
X132329856Y-79700153D01*
X132361412Y-79305701D01*
X132397919Y-79097757D01*
X132507439Y-78940887D01*
X132689973Y-78835091D01*
X132904543Y-78785059D01*
X133124329Y-78772030D01*
X133323232Y-78805872D01*
X133507180Y-78856953D01*
X133634796Y-78968792D01*
X133801276Y-79067897D01*
X133891586Y-79252620D01*
X133947716Y-79461972D01*
X133967993Y-79569288D01*
X133967993Y-80361904D01*
X134000477Y-80646838D01*
X133897629Y-80804503D01*
X133845480Y-80851025D01*
G37*
G36*
X133475159Y-80033349D02*
G01*
X133219926Y-80033349D01*
X133096485Y-80066761D01*
X132873736Y-79998080D01*
X132741014Y-80033349D01*
X132709458Y-79442135D01*
X132845373Y-79306927D01*
X133024266Y-79246359D01*
X133191154Y-79233307D01*
X133374530Y-79265153D01*
X133514551Y-79394529D01*
X133539200Y-79459769D01*
X133506715Y-79490397D01*
X133572612Y-79831018D01*
X133508868Y-80009441D01*
X133475159Y-80033349D01*
G37*
G36*
X133581893Y-77332512D02*
G01*
X133442262Y-77192677D01*
X133237089Y-77131595D01*
X133023367Y-77094767D01*
X132852389Y-77074493D01*
X132826401Y-77099553D01*
X132679758Y-77014165D01*
X132627783Y-77339937D01*
X132657483Y-77545980D01*
X132756792Y-77545980D01*
X132935526Y-77469250D01*
X133134536Y-77415651D01*
X133321937Y-77376670D01*
X133542032Y-77338733D01*
X133581893Y-77332512D01*
G37*
G36*
X131611489Y-75897634D02*
G01*
X130005836Y-75802037D01*
X129898174Y-78497306D01*
X131382242Y-78497306D01*
X131327262Y-78317301D01*
X131325627Y-78306112D01*
X131413799Y-77933935D01*
X131442902Y-77741039D01*
X131590142Y-77636008D01*
X131752881Y-77746327D01*
X131842591Y-77892170D01*
X132003824Y-77788104D01*
X132179007Y-77724063D01*
X132215697Y-77721395D01*
X132215697Y-77633223D01*
X132334496Y-77119043D01*
X132334496Y-76922281D01*
X131920554Y-76774710D01*
X131773867Y-76890580D01*
X131651398Y-76923209D01*
X131631907Y-76922281D01*
X131502898Y-76835966D01*
X131502898Y-75958890D01*
X131611489Y-75897634D01*
G37*
G36*
X131580861Y-78536287D02*
G01*
X135641398Y-78700565D01*
X135747204Y-76034996D01*
X131817532Y-75876287D01*
X131877203Y-76063307D01*
X131888997Y-76228974D01*
X132027868Y-76369845D01*
X132201456Y-76463970D01*
X132399153Y-76554471D01*
X132592029Y-76634768D01*
X132815764Y-76722084D01*
X132876520Y-76745010D01*
X133083496Y-76749301D01*
X133273195Y-76762173D01*
X133499251Y-76792685D01*
X133694591Y-76838453D01*
X133895574Y-76917117D01*
X134073404Y-77042979D01*
X134182125Y-77203167D01*
X134193526Y-77233202D01*
X134113708Y-77496789D01*
X134143408Y-77667564D01*
X134141551Y-77687983D01*
X134104427Y-77726036D01*
X134133198Y-77862470D01*
X134017138Y-78018109D01*
X133899311Y-78102853D01*
X133772623Y-77952730D01*
X133731053Y-77757798D01*
X133730393Y-77725107D01*
X133730393Y-77616517D01*
X131881572Y-78256922D01*
X131580861Y-78536287D01*
G37*
G36*
X131529814Y-75658178D02*
G01*
X133935508Y-75844731D01*
X133794289Y-75721435D01*
X133704339Y-75543680D01*
X133683059Y-75428932D01*
X133437106Y-75410369D01*
X133365641Y-75328694D01*
X133361928Y-75402944D01*
X132468146Y-75300851D01*
X131673673Y-75300851D01*
X131667176Y-75373244D01*
X131695948Y-75408513D01*
X131687595Y-75525456D01*
X131545440Y-75647871D01*
X131529814Y-75658178D01*
G37*
G36*
X133884461Y-75841018D02*
G01*
X135556011Y-75970027D01*
X135742563Y-73553195D01*
X134035745Y-73419546D01*
X134136461Y-73578070D01*
X134188048Y-73758714D01*
X134202840Y-73949487D01*
X134197239Y-74083154D01*
X134135055Y-74261353D01*
X134074727Y-74320753D01*
X133954999Y-74311472D01*
X133831094Y-74164828D01*
X133789793Y-73994054D01*
X133100198Y-73994054D01*
X132986039Y-73985701D01*
X132962836Y-74009832D01*
X132947057Y-73994054D01*
X132707602Y-73994054D01*
X132700177Y-74101716D01*
X132883146Y-74239761D01*
X133057323Y-74376038D01*
X133222708Y-74510548D01*
X133379302Y-74643290D01*
X133527103Y-74774265D01*
X133666113Y-74903473D01*
X133719256Y-74954661D01*
X133915008Y-75002557D01*
X134062081Y-75134949D01*
X134107211Y-75257229D01*
X134076583Y-75639616D01*
X133884461Y-75841018D01*
G37*
G36*
X134043170Y-73420474D02*
G01*
X130005836Y-73106768D01*
X129819284Y-75523600D01*
X131450923Y-75650753D01*
X131358256Y-75481153D01*
X131328411Y-75365819D01*
X131447211Y-74680865D01*
X131558412Y-74524418D01*
X131637476Y-74486887D01*
X131776995Y-74618337D01*
X131789688Y-74645596D01*
X131775766Y-74833077D01*
X131992019Y-74850711D01*
X132060700Y-74932386D01*
X132063484Y-74859992D01*
X132164650Y-74898974D01*
X132213840Y-74901758D01*
X132246325Y-74873914D01*
X132364196Y-74915680D01*
X132503415Y-74890620D01*
X133092773Y-74969511D01*
X133228279Y-74981576D01*
X131617057Y-73765736D01*
X131629123Y-73611667D01*
X131783732Y-73507199D01*
X131793401Y-73491939D01*
X132434734Y-73575470D01*
X132687183Y-73595889D01*
X132722452Y-73637655D01*
X132900651Y-73580111D01*
X133128969Y-73666426D01*
X133305313Y-73609811D01*
X133512242Y-73614392D01*
X133717516Y-73588085D01*
X133908651Y-73518275D01*
X134043170Y-73420474D01*
G37*
G36*
X133275919Y-71408107D02*
G01*
X133475275Y-71473678D01*
X133664852Y-71581975D01*
X133800263Y-71722575D01*
X133881510Y-71895477D01*
X133908593Y-72100683D01*
X133966136Y-72352204D01*
X133933652Y-72510914D01*
X132404106Y-72423670D01*
X132211056Y-72495135D01*
X131948397Y-72470076D01*
X131948397Y-72098827D01*
X131969182Y-71945001D01*
X132061559Y-71757260D01*
X132203012Y-71609259D01*
X132369291Y-71494491D01*
X132539612Y-71407375D01*
X132636136Y-71437075D01*
X132887658Y-71392526D01*
X133014810Y-71418513D01*
X133138251Y-71379532D01*
X133275919Y-71408107D01*
G37*
G36*
X135852082Y-73116978D02*
G01*
X130132989Y-73399127D01*
X130080911Y-72274242D01*
X131579004Y-72274242D01*
X131679242Y-72897013D01*
X131679242Y-73028806D01*
X131680172Y-73054850D01*
X131785048Y-73210718D01*
X131801348Y-73210258D01*
X131948397Y-73092847D01*
X131948397Y-72856175D01*
X132103394Y-72833900D01*
X132200847Y-72846894D01*
X132516408Y-72824619D01*
X133445459Y-72824619D01*
X133537344Y-72804200D01*
X133767518Y-72816266D01*
X133944789Y-72790278D01*
X133956957Y-72826805D01*
X134052303Y-73006788D01*
X134219514Y-73091918D01*
X134235292Y-73091918D01*
X134362445Y-72946203D01*
X134362445Y-72816266D01*
X134326248Y-72785638D01*
X134326248Y-72728094D01*
X134343882Y-72709532D01*
X134294692Y-72659413D01*
X134294692Y-72180502D01*
X134244473Y-72003689D01*
X134176118Y-71794992D01*
X134106168Y-71617213D01*
X134016487Y-71438468D01*
X133886746Y-71269384D01*
X133712759Y-71191123D01*
X133382347Y-71012923D01*
X132880233Y-71012923D01*
X132752152Y-71041695D01*
X132618502Y-71017564D01*
X132437518Y-71017564D01*
X132264985Y-71094787D01*
X132090469Y-71180290D01*
X131929835Y-71299713D01*
X131861415Y-71360592D01*
X131727163Y-71491218D01*
X131617986Y-71648687D01*
X131617986Y-71695094D01*
X131657895Y-71728506D01*
X131579004Y-72274242D01*
X130080911Y-72274242D01*
X130021614Y-70993433D01*
X135739779Y-70744696D01*
X135852082Y-73116978D01*
G37*
G36*
X131504755Y-70667662D02*
G01*
X131409027Y-70507540D01*
X131384099Y-70451409D01*
X131384099Y-69492658D01*
X131384099Y-68826266D01*
X131459570Y-68651960D01*
X131622626Y-68536692D01*
X131996660Y-68536692D01*
X132175196Y-68600319D01*
X132243210Y-68774516D01*
X132245397Y-68826266D01*
X132067291Y-68913364D01*
X131868579Y-68922791D01*
X131770198Y-68922791D01*
X131770198Y-69347871D01*
X131734001Y-69610530D01*
X131759988Y-69873188D01*
X132299228Y-69873188D01*
X132432877Y-69857410D01*
X132494133Y-69923307D01*
X132547036Y-69707054D01*
X132547036Y-69660648D01*
X132364196Y-69424905D01*
X132493626Y-69284527D01*
X132695536Y-69261556D01*
X132890461Y-69268173D01*
X133085874Y-69300585D01*
X133195794Y-69399846D01*
X133195794Y-69565052D01*
X133021423Y-69635879D01*
X132885801Y-69660648D01*
X132885801Y-69720976D01*
X132962083Y-69896446D01*
X133145792Y-69975050D01*
X133348006Y-69991988D01*
X133655215Y-69991988D01*
X133708118Y-69991988D01*
X133755452Y-69845345D01*
X133730393Y-69805435D01*
X133730393Y-69462030D01*
X133791649Y-69041590D01*
X133365641Y-69041590D01*
X133255194Y-68873600D01*
X133255194Y-68740879D01*
X133428750Y-68671835D01*
X133617303Y-68658493D01*
X133803715Y-68655491D01*
X133970777Y-68714891D01*
X134135124Y-68814034D01*
X134175892Y-68924647D01*
X134175892Y-69218862D01*
X134116492Y-69311674D01*
X134116492Y-69442539D01*
X134143408Y-69437899D01*
X134134127Y-69636517D01*
X134084936Y-69734898D01*
X134081224Y-69806364D01*
X134042242Y-70279706D01*
X134116492Y-70452337D01*
X134049707Y-70626157D01*
X134015327Y-70645387D01*
X133961496Y-70645387D01*
X133789793Y-70578562D01*
X133688280Y-70422811D01*
X133529919Y-70355812D01*
X133391628Y-70384584D01*
X132762361Y-70282491D01*
X132762361Y-70339106D01*
X132746583Y-70353956D01*
X132357699Y-70295484D01*
X131972528Y-70295484D01*
X131770198Y-70316831D01*
X131770198Y-70562784D01*
X131631907Y-70672302D01*
X135620051Y-70848646D01*
X135725857Y-68420676D01*
X129989130Y-68170083D01*
X129886108Y-70596196D01*
X131504755Y-70667662D01*
G37*
G36*
X131834238Y-68280530D02*
G01*
X135833519Y-68152449D01*
X135743491Y-65799657D01*
X130016974Y-66024263D01*
X130108858Y-68378911D01*
X131786904Y-68312086D01*
X131637806Y-68196564D01*
X131568795Y-68035505D01*
X131621698Y-67693956D01*
X131579933Y-67457285D01*
X131642334Y-67278811D01*
X131795257Y-67181632D01*
X131914199Y-67338718D01*
X131972243Y-67523944D01*
X131978097Y-67546385D01*
X132330784Y-67496266D01*
X132599011Y-67519469D01*
X132825473Y-67465638D01*
X132505271Y-67203907D01*
X132342059Y-67097987D01*
X132149416Y-66967774D01*
X131985312Y-66850149D01*
X131820316Y-66720819D01*
X131681185Y-66591585D01*
X131591998Y-66439134D01*
X131591998Y-66377878D01*
X131639332Y-66201535D01*
X131829031Y-66262617D01*
X132010233Y-66371207D01*
X132194683Y-66503174D01*
X132364138Y-66635896D01*
X132553055Y-66792749D01*
X132707514Y-66926224D01*
X132761433Y-66973733D01*
X132798021Y-66764905D01*
X132842354Y-66583921D01*
X132908659Y-66396846D01*
X133004198Y-66229784D01*
X133158687Y-66104488D01*
X133270972Y-66082735D01*
X133472134Y-66086332D01*
X133662660Y-66099253D01*
X133856059Y-66132364D01*
X133928083Y-66157913D01*
X134083127Y-66271390D01*
X134158490Y-66448415D01*
X134211172Y-66658349D01*
X134246695Y-66867147D01*
X134276330Y-67112259D01*
X134294692Y-67319923D01*
X134294692Y-67727368D01*
X134285175Y-67925102D01*
X134214655Y-68099035D01*
X134197239Y-68102330D01*
X134163826Y-68102330D01*
X133987848Y-68027153D01*
X133938293Y-67835959D01*
X133649646Y-67876796D01*
X133249625Y-67876796D01*
X133145676Y-67894431D01*
X132779995Y-67894431D01*
X132344706Y-67894431D01*
X132031000Y-67983530D01*
X131954022Y-68161578D01*
X131834238Y-68280530D01*
G37*
G36*
X133849193Y-67367257D02*
G01*
X133841768Y-67389532D01*
X133262619Y-67389532D01*
X133225821Y-67206590D01*
X133225494Y-67166782D01*
X133195794Y-67180704D01*
X133231991Y-67172351D01*
X133166094Y-67056336D01*
X133185295Y-66851279D01*
X133263297Y-66677346D01*
X133436102Y-66589465D01*
X133473303Y-66587634D01*
X133573540Y-66587634D01*
X133741516Y-66697268D01*
X133810429Y-66892174D01*
X133839502Y-67102307D01*
X133848924Y-67319292D01*
X133849193Y-67367257D01*
G37*
G36*
X129365988Y-99816286D02*
G01*
X129293595Y-102226621D01*
X123568933Y-102055847D01*
X123620932Y-100255288D01*
X125176442Y-100255288D01*
X125178298Y-101146286D01*
X125255506Y-101309215D01*
X125392966Y-101482328D01*
X125575926Y-101621496D01*
X125755054Y-101708392D01*
X125963302Y-101773563D01*
X126200669Y-101817011D01*
X126397804Y-101835340D01*
X126611320Y-101841450D01*
X126816993Y-101820173D01*
X127059755Y-101776501D01*
X127266553Y-101715339D01*
X127474474Y-101614292D01*
X127626200Y-101485919D01*
X127734095Y-101295798D01*
X127762192Y-101107305D01*
X127803958Y-100860425D01*
X127803958Y-100393579D01*
X127880992Y-100300766D01*
X127860805Y-100156211D01*
X127741893Y-100009398D01*
X127558005Y-99970355D01*
X126977928Y-99970355D01*
X126811794Y-100026970D01*
X126811794Y-100089154D01*
X126839766Y-100232723D01*
X126978933Y-100357150D01*
X127165409Y-100386154D01*
X127299109Y-100457687D01*
X127373715Y-100629960D01*
X127405793Y-100819587D01*
X127405793Y-100941171D01*
X127402679Y-100989125D01*
X127327936Y-101160857D01*
X127180786Y-101284761D01*
X126993928Y-101371381D01*
X126795393Y-101429755D01*
X126608535Y-101467417D01*
X126573267Y-101464632D01*
X126223364Y-101425651D01*
X126006184Y-101425651D01*
X125835859Y-101367756D01*
X125663576Y-101262037D01*
X125544642Y-101104136D01*
X125504997Y-100904974D01*
X125538410Y-100874346D01*
X125519847Y-100676656D01*
X125519847Y-100550431D01*
X125533769Y-100438071D01*
X125615778Y-100257216D01*
X125742597Y-100105861D01*
X125742597Y-100033467D01*
X125644216Y-99915595D01*
X125628438Y-99915595D01*
X125451474Y-99981325D01*
X125312238Y-100108761D01*
X125193148Y-100259001D01*
X125176442Y-100255288D01*
X123620932Y-100255288D01*
X123638542Y-99645512D01*
X129365988Y-99816286D01*
G37*
G36*
X125445598Y-99680780D02*
G01*
X127696295Y-99680780D01*
X127603498Y-99517046D01*
X127545939Y-99359650D01*
X127335256Y-99359650D01*
X127160769Y-99328094D01*
X127128284Y-99368003D01*
X127123644Y-99368003D01*
X127084662Y-99328094D01*
X126945444Y-99383781D01*
X126222436Y-99383781D01*
X125594097Y-99344800D01*
X125594097Y-99465456D01*
X125503460Y-99634630D01*
X125445598Y-99680780D01*
G37*
G36*
X127820664Y-99617668D02*
G01*
X129490357Y-99617668D01*
X129413323Y-96942818D01*
X127897698Y-96942818D01*
X127940392Y-97119161D01*
X127940392Y-97344695D01*
X127915332Y-97579510D01*
X127956170Y-97614779D01*
X127913179Y-97805345D01*
X127771704Y-97935006D01*
X127731564Y-97951688D01*
X127622974Y-97920131D01*
X127464265Y-98031550D01*
X127281033Y-98107513D01*
X127070813Y-98179059D01*
X126858142Y-98243216D01*
X126763532Y-98270034D01*
X126763532Y-98343355D01*
X126813651Y-98391618D01*
X127004793Y-98426803D01*
X127198133Y-98470570D01*
X127371150Y-98542939D01*
X127376093Y-98555896D01*
X127592784Y-98563694D01*
X127788927Y-98592505D01*
X127963277Y-98670489D01*
X128013713Y-98777717D01*
X127940392Y-99138757D01*
X127940392Y-99543418D01*
X127820664Y-99617668D01*
G37*
G36*
X127609980Y-97007787D02*
G01*
X125425179Y-97007787D01*
X125488059Y-97189699D01*
X125529240Y-97375773D01*
X125537482Y-97423586D01*
X126168605Y-97423586D01*
X126250280Y-97398526D01*
X126281836Y-97429154D01*
X126893469Y-97309427D01*
X126912032Y-97309427D01*
X126943588Y-97340055D01*
X127523665Y-97291792D01*
X127583993Y-97291792D01*
X127583993Y-97227752D01*
X127603889Y-97036399D01*
X127609980Y-97007787D01*
G37*
G36*
X125225632Y-97066258D02*
G01*
X123684020Y-97066258D01*
X123761055Y-99740180D01*
X125435388Y-99740180D01*
X125303715Y-99591404D01*
X125244035Y-99414627D01*
X125235842Y-99351297D01*
X125235842Y-98987473D01*
X125207998Y-98890020D01*
X125223269Y-98697996D01*
X125307728Y-98524205D01*
X125401048Y-98492783D01*
X125435388Y-98492783D01*
X125543881Y-98645195D01*
X125588656Y-98835709D01*
X125610803Y-98974479D01*
X126561201Y-99046873D01*
X126605751Y-99046873D01*
X126612248Y-99014388D01*
X126594614Y-99025526D01*
X126643804Y-99080285D01*
X127100441Y-98999538D01*
X127118075Y-98999538D01*
X127155200Y-99031094D01*
X127316693Y-98988401D01*
X127316693Y-98872385D01*
X127224809Y-98872385D01*
X127026901Y-98829361D01*
X126843873Y-98786255D01*
X126622979Y-98728653D01*
X126428538Y-98670907D01*
X126222683Y-98598519D01*
X126030213Y-98511356D01*
X125880887Y-98409252D01*
X125963559Y-98227478D01*
X126114470Y-98101202D01*
X126187168Y-98089978D01*
X126407785Y-98021021D01*
X126600472Y-97957546D01*
X126802054Y-97885911D01*
X126986344Y-97811256D01*
X127153841Y-97714238D01*
X127170050Y-97691813D01*
X126844279Y-97691813D01*
X126671648Y-97668610D01*
X126579764Y-97734507D01*
X126570482Y-97734507D01*
X126537070Y-97699238D01*
X125983909Y-97781841D01*
X125877175Y-97748429D01*
X125841906Y-97788338D01*
X125836337Y-97788338D01*
X125800140Y-97753997D01*
X125551404Y-97799475D01*
X125465148Y-97969660D01*
X125417754Y-98017584D01*
X125304523Y-98017584D01*
X125173658Y-97857947D01*
X125173658Y-97624988D01*
X125212639Y-97543314D01*
X125157879Y-97570229D01*
X125173658Y-97554451D01*
X125179799Y-97353554D01*
X125202893Y-97160811D01*
X125225632Y-97066258D01*
G37*
G36*
X129373413Y-96906621D02*
G01*
X123613483Y-97082965D01*
X123584504Y-96133495D01*
X125026086Y-96133495D01*
X125026086Y-96154842D01*
X125067365Y-96280734D01*
X125140187Y-96463037D01*
X125234214Y-96636396D01*
X125370851Y-96790494D01*
X125559757Y-96859287D01*
X125616372Y-96859287D01*
X125683197Y-96691297D01*
X125683197Y-96656028D01*
X125666665Y-96586825D01*
X125558172Y-96429708D01*
X125418682Y-96289420D01*
X125376916Y-96047180D01*
X125414354Y-95870442D01*
X125481461Y-95673335D01*
X125592931Y-95506183D01*
X125767656Y-95433690D01*
X126018249Y-95344591D01*
X126215208Y-95370286D01*
X126377550Y-95484489D01*
X126425695Y-95669434D01*
X126420620Y-95855489D01*
X126396459Y-96073559D01*
X126344484Y-96262200D01*
X126217796Y-96423997D01*
X126217796Y-96472260D01*
X126234792Y-96586999D01*
X126334911Y-96746232D01*
X126489736Y-96854646D01*
X127359387Y-96651388D01*
X127457768Y-96681087D01*
X127642928Y-96663395D01*
X127811143Y-96581292D01*
X127880992Y-96398010D01*
X127784467Y-96256935D01*
X127831801Y-96217954D01*
X127811615Y-96082912D01*
X127714858Y-95911674D01*
X127762192Y-95343662D01*
X127762192Y-95192378D01*
X127581208Y-95018819D01*
X127462408Y-95018819D01*
X127422122Y-95110443D01*
X127381972Y-95299415D01*
X127350474Y-95482662D01*
X127321334Y-95670362D01*
X127441062Y-96233732D01*
X126836854Y-96354388D01*
X126745898Y-96354388D01*
X126705060Y-96164123D01*
X126740561Y-96011215D01*
X126752394Y-95816077D01*
X126752394Y-95596112D01*
X126728901Y-95497847D01*
X126633461Y-95336187D01*
X126504249Y-95175796D01*
X126376505Y-95037382D01*
X125977412Y-94988191D01*
X125842342Y-94999161D01*
X125658370Y-95045503D01*
X125485101Y-95117143D01*
X125302667Y-95217438D01*
X125199586Y-95344247D01*
X125106601Y-95526735D01*
X125061297Y-95707313D01*
X125051145Y-95905177D01*
X125093839Y-95905177D01*
X125026086Y-96133495D01*
X123584504Y-96133495D01*
X123546658Y-94893523D01*
X129306588Y-94719964D01*
X129373413Y-96906621D01*
G37*
G36*
X129365988Y-90976845D02*
G01*
X129293595Y-93387180D01*
X123568933Y-93216405D01*
X123620932Y-91415847D01*
X125176442Y-91415847D01*
X125178298Y-92306845D01*
X125255506Y-92469774D01*
X125392966Y-92642886D01*
X125575926Y-92782054D01*
X125755054Y-92868950D01*
X125963302Y-92934121D01*
X126200669Y-92977569D01*
X126397804Y-92995899D01*
X126611320Y-93002009D01*
X126816993Y-92980732D01*
X127059755Y-92937059D01*
X127266553Y-92875897D01*
X127474474Y-92774851D01*
X127626200Y-92646477D01*
X127734095Y-92456357D01*
X127762192Y-92267863D01*
X127803958Y-92020983D01*
X127803958Y-91554137D01*
X127880992Y-91461325D01*
X127860805Y-91316770D01*
X127741893Y-91169956D01*
X127558005Y-91130913D01*
X126977928Y-91130913D01*
X126811794Y-91187528D01*
X126811794Y-91249713D01*
X126839766Y-91393282D01*
X126978933Y-91517708D01*
X127165409Y-91546712D01*
X127299109Y-91618245D01*
X127373715Y-91790518D01*
X127405793Y-91980145D01*
X127405793Y-92101729D01*
X127402679Y-92149684D01*
X127327936Y-92321415D01*
X127180786Y-92445319D01*
X126993928Y-92531939D01*
X126795393Y-92590314D01*
X126608535Y-92627975D01*
X126573267Y-92625191D01*
X126223364Y-92586210D01*
X126006184Y-92586210D01*
X125835859Y-92528314D01*
X125663576Y-92422595D01*
X125544642Y-92264694D01*
X125504997Y-92065533D01*
X125538410Y-92034905D01*
X125519847Y-91837214D01*
X125519847Y-91710990D01*
X125533769Y-91598629D01*
X125615778Y-91417775D01*
X125742597Y-91266419D01*
X125742597Y-91194025D01*
X125644216Y-91076154D01*
X125628438Y-91076154D01*
X125451474Y-91141884D01*
X125312238Y-91269319D01*
X125193148Y-91419559D01*
X125176442Y-91415847D01*
X123620932Y-91415847D01*
X123638542Y-90806070D01*
X129365988Y-90976845D01*
G37*
G36*
X127769617Y-90871039D02*
G01*
X129365988Y-90871039D01*
X129365988Y-88762344D01*
X127804886Y-88762344D01*
X127834053Y-88950288D01*
X127911620Y-89118743D01*
X127882058Y-89319739D01*
X127824398Y-89501651D01*
X127779826Y-89534542D01*
X127714858Y-89534542D01*
X127548107Y-89449676D01*
X127509743Y-89370264D01*
X126651229Y-89704388D01*
X126651229Y-89768429D01*
X126784299Y-89897902D01*
X126929476Y-90016520D01*
X127101477Y-90140113D01*
X127270258Y-90250008D01*
X127393727Y-90325302D01*
X127461107Y-90134928D01*
X127540299Y-89961698D01*
X127589561Y-89890941D01*
X127750646Y-90000272D01*
X127798389Y-90070069D01*
X127798389Y-90290962D01*
X127821592Y-90419043D01*
X127813014Y-90610502D01*
X127784590Y-90804697D01*
X127769617Y-90871039D01*
G37*
G36*
X127497677Y-88740069D02*
G01*
X123604202Y-88665819D01*
X123604202Y-90773586D01*
X127388159Y-90845979D01*
X127260360Y-90696465D01*
X127105355Y-90563141D01*
X126935769Y-90445618D01*
X126814579Y-90372637D01*
X126673228Y-90239727D01*
X126515996Y-90098510D01*
X126355851Y-89965600D01*
X126190747Y-89850411D01*
X126071152Y-89805554D01*
X125783434Y-89829685D01*
X125687838Y-89796272D01*
X125488291Y-89828757D01*
X125488291Y-89983753D01*
X125460352Y-90171616D01*
X125361138Y-90245484D01*
X125182221Y-90170948D01*
X125099408Y-90008813D01*
X125148598Y-89509482D01*
X125148598Y-89258889D01*
X125295242Y-89101108D01*
X125345360Y-89101108D01*
X125458910Y-89251348D01*
X125556472Y-89433057D01*
X125579247Y-89477926D01*
X126108277Y-89477926D01*
X126344020Y-89518764D01*
X126453539Y-89408317D01*
X126630042Y-89309341D01*
X126832194Y-89204180D01*
X127013817Y-89119638D01*
X127204666Y-89045407D01*
X127389960Y-88996331D01*
X127497677Y-88986021D01*
X127497677Y-88740069D01*
G37*
G36*
X125207998Y-88654681D02*
G01*
X125119536Y-88486822D01*
X125087342Y-88386454D01*
X125118898Y-88030055D01*
X125118898Y-87997570D01*
X125118898Y-87544646D01*
X125162520Y-87159475D01*
X125231955Y-86987236D01*
X125355396Y-86847322D01*
X125514036Y-86708432D01*
X125656281Y-86599817D01*
X125877175Y-86599817D01*
X125877175Y-86534849D01*
X125905946Y-86534849D01*
X126091767Y-86572155D01*
X126191808Y-86729755D01*
X126393211Y-86729755D01*
X126500873Y-86806789D01*
X126648909Y-86687815D01*
X126819219Y-86602834D01*
X127011805Y-86551845D01*
X127198590Y-86535114D01*
X127226665Y-86534849D01*
X127643392Y-86753886D01*
X127719034Y-86932085D01*
X127801173Y-86991485D01*
X127862081Y-87174844D01*
X127890273Y-87259713D01*
X127890273Y-87385009D01*
X127906051Y-87521443D01*
X127821998Y-87692493D01*
X127820664Y-87737696D01*
X127820664Y-87813802D01*
X127898183Y-87984193D01*
X127928700Y-88168378D01*
X127939924Y-88377582D01*
X127940392Y-88436572D01*
X127816023Y-88518247D01*
X127654182Y-88417836D01*
X127643392Y-88357682D01*
X126975144Y-88357682D01*
X126797872Y-88388310D01*
X125685053Y-88289929D01*
X125685053Y-88326126D01*
X125667419Y-88326126D01*
X125631222Y-88285288D01*
X125474369Y-88369748D01*
X125474369Y-88429147D01*
X125504997Y-88463488D01*
X125504997Y-88482979D01*
X125474369Y-88654681D01*
X129425388Y-88654681D01*
X129425388Y-86278687D01*
X123663602Y-86278687D01*
X123663602Y-88654681D01*
X125207998Y-88654681D01*
G37*
G36*
X127465193Y-87935386D02*
G01*
X127361243Y-87935386D01*
X127377021Y-87965086D01*
X127367740Y-87933530D01*
X127168193Y-87967870D01*
X126977000Y-87934458D01*
X126752394Y-87991074D01*
X126752394Y-87978080D01*
X126787663Y-87943739D01*
X126752394Y-87766468D01*
X126752394Y-87741408D01*
X126787663Y-87601262D01*
X126752394Y-87564137D01*
X126752394Y-87542790D01*
X126765446Y-87355433D01*
X126823454Y-87165922D01*
X126961222Y-87025942D01*
X127123644Y-86991485D01*
X127186756Y-86991485D01*
X127369132Y-87066199D01*
X127475625Y-87236932D01*
X127494893Y-87290341D01*
X127494168Y-87476169D01*
X127490716Y-87683415D01*
X127480855Y-87872393D01*
X127465193Y-87935386D01*
G37*
G36*
X126218724Y-87947452D02*
G01*
X126218724Y-87951164D01*
X126022890Y-87951164D01*
X125819631Y-87919608D01*
X125632744Y-87913328D01*
X125530985Y-87881555D01*
X125530985Y-87676440D01*
X125559309Y-87469488D01*
X125599160Y-87267448D01*
X125662244Y-87076631D01*
X125789003Y-86958073D01*
X126092499Y-86958073D01*
X126205049Y-87120784D01*
X126268358Y-87307660D01*
X126277196Y-87412853D01*
X126218724Y-87947452D01*
G37*
G36*
X125120755Y-86078212D02*
G01*
X125025027Y-85918090D01*
X125000099Y-85861960D01*
X125000099Y-84903209D01*
X125000099Y-84236817D01*
X125075570Y-84062511D01*
X125238626Y-83947242D01*
X125612660Y-83947242D01*
X125791196Y-84010870D01*
X125859210Y-84185067D01*
X125861397Y-84236817D01*
X125683291Y-84323915D01*
X125484579Y-84333341D01*
X125386198Y-84333341D01*
X125386198Y-84758422D01*
X125350001Y-85021080D01*
X125375988Y-85283739D01*
X125915228Y-85283739D01*
X126048877Y-85267961D01*
X126110133Y-85333858D01*
X126163036Y-85117605D01*
X126163036Y-85071199D01*
X125980196Y-84835456D01*
X126109626Y-84695077D01*
X126311536Y-84672106D01*
X126506461Y-84678724D01*
X126701874Y-84711135D01*
X126811794Y-84810397D01*
X126811794Y-84975602D01*
X126637423Y-85046430D01*
X126501801Y-85071199D01*
X126501801Y-85131527D01*
X126578083Y-85306997D01*
X126761792Y-85385601D01*
X126964006Y-85402539D01*
X127271215Y-85402539D01*
X127324118Y-85402539D01*
X127371452Y-85255896D01*
X127346393Y-85215986D01*
X127346393Y-84872581D01*
X127407649Y-84452141D01*
X126981641Y-84452141D01*
X126871194Y-84284151D01*
X126871194Y-84151429D01*
X127044750Y-84082386D01*
X127233303Y-84069044D01*
X127419715Y-84066042D01*
X127586777Y-84125442D01*
X127751124Y-84224584D01*
X127791892Y-84335198D01*
X127791892Y-84629413D01*
X127732492Y-84722225D01*
X127732492Y-84853090D01*
X127759408Y-84848450D01*
X127750127Y-85047068D01*
X127700936Y-85145449D01*
X127697224Y-85216914D01*
X127658242Y-85690257D01*
X127732492Y-85862888D01*
X127665707Y-86036708D01*
X127631327Y-86055937D01*
X127577496Y-86055937D01*
X127405793Y-85989113D01*
X127304280Y-85833362D01*
X127145919Y-85766363D01*
X127007628Y-85795135D01*
X126378361Y-85693041D01*
X126378361Y-85749657D01*
X126362583Y-85764507D01*
X125973699Y-85706035D01*
X125588528Y-85706035D01*
X125386198Y-85727382D01*
X125386198Y-85973334D01*
X125247907Y-86082853D01*
X129236051Y-86259196D01*
X129341857Y-83831227D01*
X123605130Y-83580634D01*
X123502108Y-86006747D01*
X125120755Y-86078212D01*
G37*
G36*
X125450238Y-83691080D02*
G01*
X129449519Y-83563000D01*
X129359491Y-81210208D01*
X123632974Y-81434814D01*
X123724858Y-83789462D01*
X125402904Y-83722637D01*
X125253806Y-83607114D01*
X125184795Y-83446056D01*
X125237698Y-83104507D01*
X125195933Y-82867836D01*
X125258334Y-82689361D01*
X125411257Y-82592183D01*
X125530199Y-82749269D01*
X125588243Y-82934495D01*
X125594097Y-82956935D01*
X125946784Y-82906817D01*
X126215011Y-82930020D01*
X126441473Y-82876189D01*
X126121271Y-82614458D01*
X125958059Y-82508538D01*
X125765416Y-82378325D01*
X125601312Y-82260700D01*
X125436316Y-82131370D01*
X125297185Y-82002136D01*
X125207998Y-81849685D01*
X125207998Y-81788429D01*
X125255332Y-81612085D01*
X125445031Y-81673167D01*
X125626233Y-81781758D01*
X125810683Y-81913725D01*
X125980138Y-82046447D01*
X126169055Y-82203300D01*
X126323514Y-82336775D01*
X126377433Y-82384284D01*
X126414021Y-82175456D01*
X126458354Y-81994472D01*
X126524659Y-81807397D01*
X126620198Y-81640335D01*
X126774687Y-81515039D01*
X126886972Y-81493286D01*
X127088134Y-81496883D01*
X127278660Y-81509804D01*
X127472059Y-81542915D01*
X127544083Y-81568464D01*
X127699127Y-81681941D01*
X127774490Y-81858966D01*
X127827172Y-82068899D01*
X127862695Y-82277698D01*
X127892330Y-82522810D01*
X127910692Y-82730473D01*
X127910692Y-83137919D01*
X127901175Y-83335653D01*
X127830655Y-83509585D01*
X127813239Y-83512881D01*
X127779826Y-83512881D01*
X127603848Y-83437704D01*
X127554293Y-83246510D01*
X127265646Y-83287347D01*
X126865625Y-83287347D01*
X126761676Y-83304981D01*
X126395995Y-83304981D01*
X125960706Y-83304981D01*
X125647000Y-83394081D01*
X125570022Y-83572128D01*
X125450238Y-83691080D01*
G37*
G36*
X127465193Y-82777808D02*
G01*
X127457768Y-82800083D01*
X126878619Y-82800083D01*
X126841821Y-82617141D01*
X126841494Y-82577333D01*
X126811794Y-82591255D01*
X126847991Y-82582902D01*
X126782094Y-82466886D01*
X126801295Y-82261829D01*
X126879297Y-82087897D01*
X127052102Y-82000015D01*
X127089303Y-81998184D01*
X127189540Y-81998184D01*
X127357516Y-82107819D01*
X127426429Y-82302725D01*
X127455502Y-82512858D01*
X127464924Y-82729843D01*
X127465193Y-82777808D01*
G37*
G36*
X129425388Y-81240836D02*
G01*
X123663602Y-81240836D01*
X123663602Y-79108010D01*
X125110545Y-79108010D01*
X125129126Y-79199046D01*
X125300810Y-79280641D01*
X125289843Y-79378916D01*
X125207998Y-79548868D01*
X125207998Y-80189273D01*
X125258304Y-80334737D01*
X125337333Y-80506433D01*
X125455328Y-80685282D01*
X125594669Y-80824387D01*
X125755355Y-80923748D01*
X125937386Y-80983365D01*
X126140762Y-81003237D01*
X126168605Y-81003237D01*
X126325458Y-80968896D01*
X126514795Y-81003237D01*
X126541711Y-81003237D01*
X126691776Y-80994376D01*
X126879196Y-80958380D01*
X127066434Y-80894694D01*
X127253490Y-80803318D01*
X127440366Y-80684253D01*
X127589735Y-80569064D01*
X127738989Y-80436154D01*
X127862429Y-79832874D01*
X127691655Y-79248157D01*
X127737608Y-79228488D01*
X127794676Y-79046754D01*
X127747844Y-78994348D01*
X127584408Y-78894864D01*
X127390015Y-78864842D01*
X127310182Y-78868641D01*
X127124237Y-78933470D01*
X127049394Y-79108010D01*
X127049394Y-79194325D01*
X127099744Y-79244589D01*
X127231306Y-79380414D01*
X127361243Y-79526593D01*
X127465193Y-79699224D01*
X127496749Y-79795749D01*
X127483788Y-79960944D01*
X127422093Y-80159631D01*
X127309591Y-80320302D01*
X127146281Y-80442955D01*
X126965863Y-80517829D01*
X126533357Y-80650550D01*
X126511083Y-80628275D01*
X126494376Y-80646838D01*
X126447042Y-80646838D01*
X126354230Y-80616210D01*
X126174174Y-80646838D01*
X126140506Y-80646237D01*
X125954562Y-80617392D01*
X125772435Y-80529057D01*
X125627791Y-80381830D01*
X125533644Y-80208765D01*
X125476226Y-80031492D01*
X125498577Y-79897307D01*
X125544675Y-79702995D01*
X125614588Y-79518215D01*
X125732576Y-79353966D01*
X125919868Y-79280641D01*
X126150043Y-79246300D01*
X126211299Y-79296419D01*
X126211299Y-79603628D01*
X126221218Y-79727271D01*
X126310768Y-79907407D01*
X126493448Y-79967452D01*
X126574195Y-79824521D01*
X126574195Y-79570215D01*
X126633595Y-79105226D01*
X126633322Y-79093078D01*
X126535108Y-78925559D01*
X126354230Y-78864842D01*
X126230789Y-78864842D01*
X126048587Y-78868844D01*
X125861784Y-78885105D01*
X125676700Y-78928882D01*
X125485507Y-78895470D01*
X125361138Y-78895470D01*
X125189834Y-78936151D01*
X125110545Y-79108010D01*
X123663602Y-79108010D01*
X123663602Y-78567843D01*
X129425388Y-78567843D01*
X129425388Y-81240836D01*
G37*
G36*
X125120755Y-78389643D02*
G01*
X125025027Y-78229521D01*
X125000099Y-78173390D01*
X125000099Y-77214639D01*
X125000099Y-76548247D01*
X125075570Y-76373941D01*
X125238626Y-76258673D01*
X125612660Y-76258673D01*
X125791196Y-76322300D01*
X125859210Y-76496497D01*
X125861397Y-76548247D01*
X125683291Y-76635346D01*
X125484579Y-76644772D01*
X125386198Y-76644772D01*
X125386198Y-77069852D01*
X125350001Y-77332511D01*
X125375988Y-77595170D01*
X125915228Y-77595170D01*
X126048877Y-77579392D01*
X126110133Y-77645288D01*
X126163036Y-77429036D01*
X126163036Y-77382630D01*
X125980196Y-77146886D01*
X126109626Y-77006508D01*
X126311536Y-76983537D01*
X126506461Y-76990154D01*
X126701874Y-77022566D01*
X126811794Y-77121827D01*
X126811794Y-77287033D01*
X126637423Y-77357860D01*
X126501801Y-77382630D01*
X126501801Y-77442958D01*
X126578083Y-77618427D01*
X126761792Y-77697031D01*
X126964006Y-77713970D01*
X127271215Y-77713970D01*
X127324118Y-77713970D01*
X127371452Y-77567326D01*
X127346393Y-77527417D01*
X127346393Y-77184011D01*
X127407649Y-76763572D01*
X126981641Y-76763572D01*
X126871194Y-76595582D01*
X126871194Y-76462860D01*
X127044750Y-76393816D01*
X127233303Y-76380475D01*
X127419715Y-76377473D01*
X127586777Y-76436873D01*
X127751124Y-76536015D01*
X127791892Y-76646628D01*
X127791892Y-76940843D01*
X127732492Y-77033656D01*
X127732492Y-77164521D01*
X127759408Y-77159880D01*
X127750127Y-77358498D01*
X127700936Y-77456880D01*
X127697224Y-77528345D01*
X127658242Y-78001688D01*
X127732492Y-78174318D01*
X127665707Y-78348138D01*
X127631327Y-78367368D01*
X127577496Y-78367368D01*
X127405793Y-78300543D01*
X127304280Y-78144793D01*
X127145919Y-78077794D01*
X127007628Y-78106565D01*
X126378361Y-78004472D01*
X126378361Y-78061087D01*
X126362583Y-78075937D01*
X125973699Y-78017466D01*
X125588528Y-78017466D01*
X125386198Y-78038813D01*
X125386198Y-78284765D01*
X125247907Y-78394284D01*
X129236051Y-78570627D01*
X129341857Y-76142658D01*
X123605130Y-75892064D01*
X123502108Y-78318177D01*
X125120755Y-78389643D01*
G37*
G36*
X127197893Y-74748617D02*
G01*
X127058262Y-74608782D01*
X126853089Y-74547700D01*
X126639367Y-74510873D01*
X126468389Y-74490599D01*
X126442401Y-74515658D01*
X126295758Y-74430271D01*
X126243783Y-74756042D01*
X126273483Y-74962085D01*
X126372792Y-74962085D01*
X126551526Y-74885356D01*
X126750536Y-74831757D01*
X126937937Y-74792775D01*
X127158032Y-74754838D01*
X127197893Y-74748617D01*
G37*
G36*
X125227489Y-73313739D02*
G01*
X123621836Y-73218143D01*
X123514174Y-75913411D01*
X124998242Y-75913411D01*
X124943262Y-75733406D01*
X124941627Y-75722218D01*
X125029799Y-75350041D01*
X125058902Y-75157144D01*
X125206142Y-75052113D01*
X125368881Y-75162433D01*
X125458591Y-75308275D01*
X125619824Y-75204209D01*
X125795007Y-75140169D01*
X125831697Y-75137501D01*
X125831697Y-75049329D01*
X125950496Y-74535149D01*
X125950496Y-74338387D01*
X125536554Y-74190815D01*
X125389867Y-74306686D01*
X125267398Y-74339315D01*
X125247907Y-74338387D01*
X125118898Y-74252071D01*
X125118898Y-73374995D01*
X125227489Y-73313739D01*
G37*
G36*
X125196861Y-75952392D02*
G01*
X129257398Y-76116670D01*
X129363204Y-73451101D01*
X125433532Y-73292392D01*
X125493203Y-73479413D01*
X125504997Y-73645079D01*
X125643868Y-73785951D01*
X125817456Y-73880075D01*
X126015153Y-73970576D01*
X126208029Y-74050874D01*
X126431764Y-74138190D01*
X126492520Y-74161115D01*
X126699496Y-74165406D01*
X126889195Y-74178278D01*
X127115251Y-74208790D01*
X127310591Y-74254558D01*
X127511574Y-74333222D01*
X127689404Y-74459084D01*
X127798125Y-74619273D01*
X127809526Y-74649308D01*
X127729708Y-74912895D01*
X127759408Y-75083669D01*
X127757551Y-75104088D01*
X127720427Y-75142141D01*
X127749198Y-75278575D01*
X127633138Y-75434214D01*
X127515311Y-75518959D01*
X127388623Y-75368835D01*
X127347053Y-75173904D01*
X127346393Y-75141213D01*
X127346393Y-75032623D01*
X125497572Y-75673027D01*
X125196861Y-75952392D01*
G37*
G36*
X125450238Y-73310955D02*
G01*
X129449519Y-73182874D01*
X129359491Y-70830083D01*
X123632974Y-71054688D01*
X123724858Y-73409336D01*
X125402904Y-73342511D01*
X125253806Y-73226989D01*
X125184795Y-73065930D01*
X125237698Y-72724381D01*
X125195933Y-72487710D01*
X125258334Y-72309236D01*
X125411257Y-72212057D01*
X125530199Y-72369143D01*
X125588243Y-72554369D01*
X125594097Y-72576810D01*
X125946784Y-72526691D01*
X126215011Y-72549894D01*
X126441473Y-72496063D01*
X126121271Y-72234332D01*
X125958059Y-72128412D01*
X125765416Y-71998199D01*
X125601312Y-71880574D01*
X125436316Y-71751244D01*
X125297185Y-71622011D01*
X125207998Y-71469559D01*
X125207998Y-71408303D01*
X125255332Y-71231960D01*
X125445031Y-71293042D01*
X125626233Y-71401632D01*
X125810683Y-71533600D01*
X125980138Y-71666321D01*
X126169055Y-71823174D01*
X126323514Y-71956650D01*
X126377433Y-72004158D01*
X126414021Y-71795330D01*
X126458354Y-71614346D01*
X126524659Y-71427272D01*
X126620198Y-71260209D01*
X126774687Y-71134913D01*
X126886972Y-71113160D01*
X127088134Y-71116757D01*
X127278660Y-71129679D01*
X127472059Y-71162789D01*
X127544083Y-71188338D01*
X127699127Y-71301816D01*
X127774490Y-71478840D01*
X127827172Y-71688774D01*
X127862695Y-71897572D01*
X127892330Y-72142684D01*
X127910692Y-72350348D01*
X127910692Y-72757794D01*
X127901175Y-72955527D01*
X127830655Y-73129460D01*
X127813239Y-73132755D01*
X127779826Y-73132755D01*
X127603848Y-73057578D01*
X127554293Y-72866384D01*
X127265646Y-72907221D01*
X126865625Y-72907221D01*
X126761676Y-72924856D01*
X126395995Y-72924856D01*
X125960706Y-72924856D01*
X125647000Y-73013956D01*
X125570022Y-73192003D01*
X125450238Y-73310955D01*
G37*
G36*
X127465193Y-72397682D02*
G01*
X127457768Y-72419957D01*
X126878619Y-72419957D01*
X126841821Y-72237015D01*
X126841494Y-72197207D01*
X126811794Y-72211129D01*
X126847991Y-72202776D01*
X126782094Y-72086761D01*
X126801295Y-71881704D01*
X126879297Y-71707771D01*
X127052102Y-71619890D01*
X127089303Y-71618059D01*
X127189540Y-71618059D01*
X127357516Y-71727693D01*
X127426429Y-71922599D01*
X127455502Y-72132732D01*
X127464924Y-72349717D01*
X127465193Y-72397682D01*
G37*
G36*
X127197893Y-68188645D02*
G01*
X127058262Y-68048810D01*
X126853089Y-67987728D01*
X126639367Y-67950901D01*
X126468389Y-67930627D01*
X126442401Y-67955686D01*
X126295758Y-67870299D01*
X126243783Y-68196070D01*
X126273483Y-68402113D01*
X126372792Y-68402113D01*
X126551526Y-68325384D01*
X126750536Y-68271785D01*
X126937937Y-68232803D01*
X127158032Y-68194866D01*
X127197893Y-68188645D01*
G37*
G36*
X125227489Y-66753767D02*
G01*
X123621836Y-66658171D01*
X123514174Y-69353439D01*
X124998242Y-69353439D01*
X124943262Y-69173434D01*
X124941627Y-69162246D01*
X125029799Y-68790069D01*
X125058902Y-68597172D01*
X125206142Y-68492141D01*
X125368881Y-68602461D01*
X125458591Y-68748303D01*
X125619824Y-68644237D01*
X125795007Y-68580197D01*
X125831697Y-68577528D01*
X125831697Y-68489357D01*
X125950496Y-67975177D01*
X125950496Y-67778415D01*
X125536554Y-67630843D01*
X125389867Y-67746714D01*
X125267398Y-67779343D01*
X125247907Y-67778415D01*
X125118898Y-67692099D01*
X125118898Y-66815023D01*
X125227489Y-66753767D01*
G37*
G36*
X125196861Y-69392420D02*
G01*
X129257398Y-69556698D01*
X129363204Y-66891129D01*
X125433532Y-66732420D01*
X125493203Y-66919441D01*
X125504997Y-67085107D01*
X125643868Y-67225979D01*
X125817456Y-67320103D01*
X126015153Y-67410604D01*
X126208029Y-67490902D01*
X126431764Y-67578218D01*
X126492520Y-67601143D01*
X126699496Y-67605434D01*
X126889195Y-67618306D01*
X127115251Y-67648818D01*
X127310591Y-67694586D01*
X127511574Y-67773250D01*
X127689404Y-67899112D01*
X127798125Y-68059301D01*
X127809526Y-68089336D01*
X127729708Y-68352923D01*
X127759408Y-68523697D01*
X127757551Y-68544116D01*
X127720427Y-68582169D01*
X127749198Y-68718603D01*
X127633138Y-68874242D01*
X127515311Y-68958987D01*
X127388623Y-68808863D01*
X127347053Y-68613932D01*
X127346393Y-68581241D01*
X127346393Y-68472651D01*
X125497572Y-69113055D01*
X125196861Y-69392420D01*
G37*
G36*
X125145814Y-66514311D02*
G01*
X127551508Y-66700864D01*
X127410289Y-66577569D01*
X127320339Y-66399813D01*
X127299059Y-66285065D01*
X127053106Y-66266503D01*
X126981641Y-66184828D01*
X126977928Y-66259078D01*
X126084146Y-66156984D01*
X125289673Y-66156984D01*
X125283176Y-66229378D01*
X125311948Y-66264646D01*
X125303595Y-66381590D01*
X125161440Y-66504004D01*
X125145814Y-66514311D01*
G37*
G36*
X127500461Y-66697152D02*
G01*
X129172011Y-66826161D01*
X129358563Y-64409329D01*
X127651745Y-64275679D01*
X127752461Y-64434203D01*
X127804048Y-64614847D01*
X127818840Y-64805620D01*
X127813239Y-64939287D01*
X127751055Y-65117487D01*
X127690727Y-65176886D01*
X127570999Y-65167605D01*
X127447094Y-65020962D01*
X127405793Y-64850187D01*
X126716198Y-64850187D01*
X126602039Y-64841834D01*
X126578836Y-64865965D01*
X126563057Y-64850187D01*
X126323602Y-64850187D01*
X126316177Y-64957850D01*
X126499146Y-65095894D01*
X126673323Y-65232171D01*
X126838708Y-65366681D01*
X126995302Y-65499424D01*
X127143103Y-65630399D01*
X127282113Y-65759606D01*
X127335256Y-65810794D01*
X127531008Y-65858691D01*
X127678081Y-65991082D01*
X127723211Y-66113362D01*
X127692583Y-66495749D01*
X127500461Y-66697152D01*
G37*
G36*
X127659170Y-64276607D02*
G01*
X123621836Y-63962902D01*
X123435284Y-66379734D01*
X125066923Y-66506886D01*
X124974256Y-66337287D01*
X124944411Y-66221953D01*
X125063211Y-65536998D01*
X125174412Y-65380551D01*
X125253476Y-65343020D01*
X125392995Y-65474470D01*
X125405688Y-65501729D01*
X125391766Y-65689210D01*
X125608019Y-65706845D01*
X125676700Y-65788519D01*
X125679484Y-65716126D01*
X125780650Y-65755107D01*
X125829840Y-65757891D01*
X125862325Y-65730048D01*
X125980196Y-65771813D01*
X126119415Y-65746754D01*
X126708773Y-65825644D01*
X126844279Y-65837710D01*
X125233057Y-64621869D01*
X125245123Y-64467801D01*
X125399732Y-64363332D01*
X125409401Y-64348073D01*
X126050734Y-64431604D01*
X126303183Y-64452023D01*
X126338452Y-64493788D01*
X126516651Y-64436244D01*
X126744969Y-64522560D01*
X126921313Y-64465944D01*
X127128242Y-64470525D01*
X127333516Y-64444219D01*
X127524651Y-64374408D01*
X127659170Y-64276607D01*
G37*
G36*
X126891919Y-62264240D02*
G01*
X127091275Y-62329812D01*
X127280852Y-62438108D01*
X127416263Y-62578708D01*
X127497510Y-62751611D01*
X127524593Y-62956817D01*
X127582136Y-63208338D01*
X127549652Y-63367047D01*
X126020106Y-63279803D01*
X125827056Y-63351269D01*
X125564397Y-63326210D01*
X125564397Y-62954960D01*
X125585182Y-62801135D01*
X125677559Y-62613393D01*
X125819012Y-62465393D01*
X125985291Y-62350625D01*
X126155612Y-62263509D01*
X126252136Y-62293209D01*
X126503658Y-62248659D01*
X126630810Y-62274646D01*
X126754251Y-62235665D01*
X126891919Y-62264240D01*
G37*
G36*
X129468082Y-63973111D02*
G01*
X123748989Y-64255261D01*
X123696911Y-63130376D01*
X125195004Y-63130376D01*
X125295242Y-63753146D01*
X125295242Y-63884940D01*
X125296172Y-63910983D01*
X125401048Y-64066852D01*
X125417348Y-64066391D01*
X125564397Y-63948980D01*
X125564397Y-63712309D01*
X125719394Y-63690034D01*
X125816847Y-63703027D01*
X126132408Y-63680753D01*
X127061459Y-63680753D01*
X127153344Y-63660334D01*
X127383518Y-63672399D01*
X127560789Y-63646412D01*
X127572957Y-63682939D01*
X127668303Y-63862921D01*
X127835514Y-63948052D01*
X127851292Y-63948052D01*
X127978445Y-63802337D01*
X127978445Y-63672399D01*
X127942248Y-63641771D01*
X127942248Y-63584228D01*
X127959882Y-63565665D01*
X127910692Y-63515547D01*
X127910692Y-63036635D01*
X127860473Y-62859822D01*
X127792118Y-62651125D01*
X127722168Y-62473346D01*
X127632487Y-62294601D01*
X127502746Y-62125518D01*
X127328759Y-62047256D01*
X126998347Y-61869057D01*
X126496233Y-61869057D01*
X126368152Y-61897829D01*
X126234502Y-61873697D01*
X126053518Y-61873697D01*
X125880985Y-61950920D01*
X125706469Y-62036423D01*
X125545835Y-62155847D01*
X125477415Y-62216726D01*
X125343163Y-62347352D01*
X125233986Y-62504821D01*
X125233986Y-62551227D01*
X125273895Y-62584639D01*
X125195004Y-63130376D01*
X123696911Y-63130376D01*
X123637614Y-61849566D01*
X129355779Y-61600829D01*
X129468082Y-63973111D01*
G37*
G36*
X119878346Y-97939622D02*
G01*
X120131723Y-97906210D01*
X120256092Y-97939622D01*
X120380460Y-97906210D01*
X120516304Y-97940930D01*
X120713018Y-98015438D01*
X120900082Y-98132306D01*
X121033699Y-98279127D01*
X121113869Y-98455901D01*
X121140593Y-98662630D01*
X121173077Y-98913223D01*
X121133168Y-99065435D01*
X119624968Y-98910439D01*
X119433775Y-98972623D01*
X119180397Y-98937354D01*
X119180397Y-98570746D01*
X119201508Y-98417551D01*
X119295336Y-98233696D01*
X119439009Y-98091951D01*
X119607898Y-97984666D01*
X119780893Y-97905282D01*
X119878346Y-97939622D01*
G37*
G36*
X123041388Y-99805149D02*
G01*
X117279602Y-99805149D01*
X117279602Y-98725742D01*
X118759030Y-98725742D01*
X118823998Y-99341088D01*
X118823998Y-99467312D01*
X118825782Y-99500855D01*
X118938157Y-99652009D01*
X118977950Y-99650472D01*
X119146057Y-99553628D01*
X119146057Y-99319741D01*
X119302909Y-99280760D01*
X119402219Y-99312316D01*
X119714996Y-99281688D01*
X120632909Y-99374500D01*
X120726650Y-99342944D01*
X120953112Y-99375428D01*
X121133168Y-99339231D01*
X121143413Y-99377107D01*
X121221028Y-99553044D01*
X121389330Y-99652009D01*
X121406964Y-99652009D01*
X121544326Y-99517431D01*
X121544326Y-99386566D01*
X121512770Y-99356866D01*
X121512770Y-99300250D01*
X121535045Y-99279832D01*
X121496992Y-99228785D01*
X121496992Y-98758227D01*
X121470047Y-98638307D01*
X121413896Y-98421677D01*
X121354728Y-98235994D01*
X121276526Y-98047411D01*
X121159126Y-97864629D01*
X120975387Y-97767920D01*
X120658897Y-97551667D01*
X120164207Y-97551667D01*
X120034270Y-97583223D01*
X119901549Y-97551667D01*
X119722421Y-97551667D01*
X119546734Y-97613869D01*
X119369027Y-97683508D01*
X119205457Y-97784626D01*
X119122346Y-97840893D01*
X118958855Y-97962274D01*
X118823998Y-98111325D01*
X118823998Y-98157731D01*
X118857411Y-98190215D01*
X118759030Y-98725742D01*
X117279602Y-98725742D01*
X117279602Y-97398527D01*
X123041388Y-97398527D01*
X123041388Y-99805149D01*
G37*
G36*
X121385617Y-97254668D02*
G01*
X122981988Y-97254668D01*
X122981988Y-95145973D01*
X121420886Y-95145973D01*
X121450053Y-95333917D01*
X121527620Y-95502372D01*
X121498058Y-95703368D01*
X121440398Y-95885280D01*
X121395826Y-95918171D01*
X121330858Y-95918171D01*
X121164107Y-95833305D01*
X121125743Y-95753893D01*
X120267229Y-96088017D01*
X120267229Y-96152058D01*
X120400299Y-96281531D01*
X120545476Y-96400149D01*
X120717477Y-96523742D01*
X120886258Y-96633637D01*
X121009727Y-96708931D01*
X121077107Y-96518557D01*
X121156299Y-96345327D01*
X121205561Y-96274570D01*
X121366646Y-96383901D01*
X121414389Y-96453698D01*
X121414389Y-96674591D01*
X121437592Y-96802672D01*
X121429014Y-96994131D01*
X121400590Y-97188326D01*
X121385617Y-97254668D01*
G37*
G36*
X121113677Y-95123698D02*
G01*
X117220202Y-95049448D01*
X117220202Y-97157215D01*
X121004159Y-97229608D01*
X120876360Y-97080094D01*
X120721355Y-96946770D01*
X120551769Y-96829247D01*
X120430579Y-96756266D01*
X120289228Y-96623356D01*
X120131996Y-96482139D01*
X119971851Y-96349229D01*
X119806747Y-96234040D01*
X119687152Y-96189183D01*
X119399434Y-96213314D01*
X119303838Y-96179901D01*
X119104291Y-96212386D01*
X119104291Y-96367382D01*
X119076352Y-96555246D01*
X118977138Y-96629113D01*
X118798221Y-96554577D01*
X118715408Y-96392442D01*
X118764598Y-95893111D01*
X118764598Y-95642518D01*
X118911242Y-95484737D01*
X118961360Y-95484737D01*
X119074910Y-95634977D01*
X119172472Y-95816686D01*
X119195247Y-95861555D01*
X119724277Y-95861555D01*
X119960020Y-95902393D01*
X120069539Y-95791946D01*
X120246042Y-95692970D01*
X120448194Y-95587809D01*
X120629817Y-95503267D01*
X120820666Y-95429036D01*
X121005960Y-95379960D01*
X121113677Y-95369650D01*
X121113677Y-95123698D01*
G37*
G36*
X118761814Y-94861039D02*
G01*
X121167508Y-95047592D01*
X121026289Y-94924296D01*
X120936339Y-94746541D01*
X120915059Y-94631793D01*
X120669106Y-94613230D01*
X120597641Y-94531555D01*
X120593928Y-94605805D01*
X119700146Y-94503712D01*
X118905673Y-94503712D01*
X118899176Y-94576105D01*
X118927948Y-94611374D01*
X118919595Y-94728317D01*
X118777440Y-94850732D01*
X118761814Y-94861039D01*
G37*
G36*
X121116461Y-95043879D02*
G01*
X122788011Y-95172888D01*
X122974563Y-92756056D01*
X121267745Y-92622407D01*
X121368461Y-92780931D01*
X121420048Y-92961575D01*
X121434840Y-93152348D01*
X121429239Y-93286014D01*
X121367055Y-93464214D01*
X121306727Y-93523614D01*
X121186999Y-93514333D01*
X121063094Y-93367689D01*
X121021793Y-93196915D01*
X120332198Y-93196915D01*
X120218039Y-93188562D01*
X120194836Y-93212693D01*
X120179057Y-93196915D01*
X119939602Y-93196915D01*
X119932177Y-93304577D01*
X120115146Y-93442622D01*
X120289323Y-93578899D01*
X120454708Y-93713409D01*
X120611302Y-93846151D01*
X120759103Y-93977126D01*
X120898113Y-94106334D01*
X120951256Y-94157522D01*
X121147008Y-94205418D01*
X121294081Y-94337810D01*
X121339211Y-94460090D01*
X121308583Y-94842476D01*
X121116461Y-95043879D01*
G37*
G36*
X121275170Y-92623335D02*
G01*
X117237836Y-92309629D01*
X117051284Y-94726461D01*
X118682923Y-94853614D01*
X118590256Y-94684014D01*
X118560411Y-94568680D01*
X118679211Y-93883726D01*
X118790412Y-93727279D01*
X118869476Y-93689748D01*
X119008995Y-93821198D01*
X119021688Y-93848457D01*
X119007766Y-94035938D01*
X119224019Y-94053572D01*
X119292700Y-94135247D01*
X119295484Y-94062853D01*
X119396650Y-94101834D01*
X119445840Y-94104619D01*
X119478325Y-94076775D01*
X119596196Y-94118541D01*
X119735415Y-94093481D01*
X120324773Y-94172372D01*
X120460279Y-94184437D01*
X118849057Y-92968596D01*
X118861123Y-92814528D01*
X119015732Y-92710060D01*
X119025401Y-92694800D01*
X119666734Y-92778331D01*
X119919183Y-92798750D01*
X119954452Y-92840516D01*
X120132651Y-92782972D01*
X120360969Y-92869287D01*
X120537313Y-92812672D01*
X120744242Y-92817253D01*
X120949516Y-92790946D01*
X121140651Y-92721136D01*
X121275170Y-92623335D01*
G37*
G36*
X120813893Y-91219085D02*
G01*
X120674262Y-91079250D01*
X120469089Y-91018168D01*
X120255367Y-90981340D01*
X120084389Y-90961067D01*
X120058401Y-90986126D01*
X119911758Y-90900739D01*
X119859783Y-91226510D01*
X119889483Y-91432553D01*
X119988792Y-91432553D01*
X120167526Y-91355824D01*
X120366536Y-91302224D01*
X120553937Y-91263243D01*
X120774032Y-91225306D01*
X120813893Y-91219085D01*
G37*
G36*
X118843489Y-89784207D02*
G01*
X117237836Y-89688610D01*
X117130174Y-92383879D01*
X118614242Y-92383879D01*
X118559262Y-92203874D01*
X118557627Y-92192686D01*
X118645799Y-91820509D01*
X118674902Y-91627612D01*
X118822142Y-91522581D01*
X118984881Y-91632901D01*
X119074591Y-91778743D01*
X119235824Y-91674677D01*
X119411007Y-91610637D01*
X119447697Y-91607968D01*
X119447697Y-91519797D01*
X119566496Y-91005617D01*
X119566496Y-90808855D01*
X119152554Y-90661283D01*
X119005867Y-90777153D01*
X118883398Y-90809783D01*
X118863907Y-90808855D01*
X118734898Y-90722539D01*
X118734898Y-89845463D01*
X118843489Y-89784207D01*
G37*
G36*
X118812861Y-92422860D02*
G01*
X122873398Y-92587138D01*
X122979204Y-89921569D01*
X119049532Y-89762860D01*
X119109203Y-89949881D01*
X119120997Y-90115547D01*
X119259868Y-90256419D01*
X119433456Y-90350543D01*
X119631153Y-90441044D01*
X119824029Y-90521341D01*
X120047764Y-90608657D01*
X120108520Y-90631583D01*
X120315496Y-90635874D01*
X120505195Y-90648746D01*
X120731251Y-90679258D01*
X120926591Y-90725026D01*
X121127574Y-90803690D01*
X121305404Y-90929552D01*
X121414125Y-91089741D01*
X121425526Y-91119776D01*
X121345708Y-91383363D01*
X121375408Y-91554137D01*
X121373551Y-91574556D01*
X121336427Y-91612609D01*
X121365198Y-91749043D01*
X121249138Y-91904682D01*
X121131311Y-91989427D01*
X121004623Y-91839303D01*
X120963053Y-91644372D01*
X120962393Y-91611681D01*
X120962393Y-91503091D01*
X119113572Y-92143495D01*
X118812861Y-92422860D01*
G37*
G36*
X118887110Y-89722023D02*
G01*
X121122030Y-89722023D01*
X121035987Y-89557212D01*
X120980027Y-89401820D01*
X120773056Y-89401820D01*
X120600425Y-89370264D01*
X120566085Y-89409245D01*
X120561444Y-89409245D01*
X120523391Y-89371192D01*
X120383244Y-89425024D01*
X119662093Y-89425024D01*
X119031898Y-89381402D01*
X119031898Y-89505770D01*
X118943527Y-89676145D01*
X118887110Y-89722023D01*
G37*
G36*
X121239902Y-89661695D02*
G01*
X122922588Y-89661695D01*
X122851123Y-86992414D01*
X121336427Y-86992414D01*
X121378192Y-87165973D01*
X121378192Y-87393363D01*
X121351277Y-87626322D01*
X121378192Y-87659734D01*
X121336089Y-87851670D01*
X121197537Y-87980434D01*
X121158227Y-87996643D01*
X121051493Y-87965086D01*
X120894916Y-88076505D01*
X120714253Y-88152468D01*
X120507014Y-88224014D01*
X120297375Y-88288171D01*
X120204117Y-88314989D01*
X120204117Y-88384598D01*
X120248667Y-88436573D01*
X120440755Y-88471725D01*
X120635052Y-88515347D01*
X120808926Y-88587132D01*
X120813893Y-88599922D01*
X121029638Y-88607655D01*
X121224925Y-88636225D01*
X121398513Y-88713557D01*
X121448729Y-88819887D01*
X121378192Y-89180927D01*
X121378192Y-89586517D01*
X121239902Y-89661695D01*
G37*
G36*
X121047780Y-87049029D02*
G01*
X118870404Y-87049029D01*
X118932821Y-87230941D01*
X118972941Y-87417015D01*
X118980851Y-87464828D01*
X119610118Y-87464828D01*
X119693649Y-87441625D01*
X119723349Y-87472253D01*
X120332198Y-87356238D01*
X120350760Y-87356238D01*
X120386957Y-87385938D01*
X120959609Y-87336747D01*
X121021793Y-87336747D01*
X121021793Y-87272707D01*
X121040294Y-87085080D01*
X121047780Y-87049029D01*
G37*
G36*
X118675498Y-87104716D02*
G01*
X117108827Y-87104716D01*
X117177508Y-89781423D01*
X118885254Y-89781423D01*
X118741968Y-89649328D01*
X118666188Y-89470690D01*
X118656936Y-89411102D01*
X118684780Y-89028715D01*
X118645799Y-88925693D01*
X118660996Y-88736362D01*
X118745049Y-88565007D01*
X118837920Y-88534026D01*
X118871332Y-88534026D01*
X118981032Y-88686144D01*
X119025751Y-88876291D01*
X119047676Y-89014793D01*
X119997145Y-89089043D01*
X120041695Y-89085331D01*
X120046336Y-89056559D01*
X120029630Y-89067696D01*
X120079748Y-89123384D01*
X120539169Y-89042637D01*
X120554947Y-89042637D01*
X120590216Y-89073265D01*
X120754494Y-89030571D01*
X120754494Y-88914556D01*
X120662609Y-88914556D01*
X120465058Y-88871366D01*
X120282402Y-88828110D01*
X120062031Y-88770334D01*
X119868140Y-88712443D01*
X119663015Y-88639915D01*
X119471481Y-88552642D01*
X119323328Y-88450495D01*
X119406419Y-88270306D01*
X119557193Y-88145131D01*
X119629609Y-88134005D01*
X119849791Y-88065904D01*
X120042101Y-88003139D01*
X120243293Y-87932189D01*
X120427235Y-87858055D01*
X120594442Y-87761182D01*
X120610635Y-87738624D01*
X120284863Y-87738624D01*
X120115945Y-87711709D01*
X120020348Y-87778534D01*
X120011067Y-87778534D01*
X119978583Y-87745121D01*
X119429134Y-87825868D01*
X119317759Y-87791527D01*
X119285275Y-87830509D01*
X119278778Y-87830509D01*
X119241653Y-87797096D01*
X118992916Y-87839790D01*
X118906923Y-88010699D01*
X118860195Y-88058827D01*
X118746036Y-88058827D01*
X118595680Y-87897333D01*
X118595680Y-87669943D01*
X118651367Y-87597550D01*
X118591039Y-87602190D01*
X118595680Y-87596622D01*
X118605112Y-87396123D01*
X118640578Y-87201589D01*
X118675498Y-87104716D01*
G37*
G36*
X118827711Y-86984989D02*
G01*
X122922588Y-86865261D01*
X122922588Y-85344068D01*
X117160802Y-85522267D01*
X117160802Y-87011904D01*
X118906601Y-87011904D01*
X118747675Y-86896266D01*
X118649874Y-86733148D01*
X118645799Y-86690774D01*
X118678283Y-86534849D01*
X118594752Y-86235065D01*
X118624628Y-86028568D01*
X118669698Y-85837597D01*
X118768311Y-85705107D01*
X118866692Y-85705107D01*
X118890823Y-85727382D01*
X119007183Y-85887918D01*
X119174987Y-85981565D01*
X119374316Y-86024374D01*
X119522875Y-86031807D01*
X119627752Y-85986328D01*
X119955380Y-86054081D01*
X120126024Y-85972363D01*
X120179057Y-85964054D01*
X120665394Y-86023453D01*
X120812037Y-85982616D01*
X121054277Y-85982616D01*
X121091173Y-85791041D01*
X121158865Y-85611077D01*
X121198136Y-85586308D01*
X121271458Y-85586308D01*
X121398508Y-85736998D01*
X121460975Y-85914683D01*
X121467292Y-85936210D01*
X121467292Y-86327878D01*
X121467292Y-86374284D01*
X121495136Y-86406768D01*
X121466389Y-86598792D01*
X121392487Y-86772583D01*
X121326217Y-86804005D01*
X121151730Y-86700983D01*
X121060821Y-86535552D01*
X120935351Y-86398306D01*
X120894640Y-86387278D01*
X120673747Y-86417906D01*
X120270013Y-86417906D01*
X119975799Y-86417906D01*
X119192463Y-86417906D01*
X119000341Y-86505149D01*
X119062526Y-86562693D01*
X119023772Y-86744325D01*
X118919206Y-86899749D01*
X118827711Y-86984989D01*
G37*
G36*
X119076448Y-85431311D02*
G01*
X121388401Y-85431311D01*
X121253167Y-85298211D01*
X121199993Y-85162155D01*
X121058047Y-85022445D01*
X120901992Y-84904588D01*
X120734408Y-84791269D01*
X120575772Y-84690727D01*
X120395296Y-84581397D01*
X120192979Y-84463279D01*
X120143789Y-84463279D01*
X119545150Y-84916203D01*
X119076448Y-85431311D01*
G37*
G36*
X121378192Y-85394186D02*
G01*
X123011688Y-85394186D01*
X123011688Y-83061813D01*
X121427383Y-83061813D01*
X121489991Y-83244842D01*
X121536020Y-83434527D01*
X121556392Y-83540725D01*
X121556392Y-83749552D01*
X121448729Y-83893412D01*
X121265248Y-83845214D01*
X121157299Y-83722637D01*
X120509469Y-84214542D01*
X120663860Y-84327109D01*
X120826398Y-84437004D01*
X121004539Y-84540794D01*
X121189091Y-84604900D01*
X121199993Y-84605282D01*
X121281566Y-84435555D01*
X121292805Y-84428010D01*
X121408820Y-84428010D01*
X121477584Y-84604698D01*
X121503532Y-84811731D01*
X121513698Y-84929197D01*
X121482142Y-85023865D01*
X121518339Y-85211346D01*
X121407309Y-85364516D01*
X121378192Y-85394186D01*
G37*
G36*
X121205561Y-83061813D02*
G01*
X118970642Y-83061813D01*
X119073968Y-83222486D01*
X119102435Y-83358813D01*
X119295346Y-83424067D01*
X119462604Y-83514668D01*
X119635435Y-83619829D01*
X119795594Y-83723373D01*
X119975215Y-83844174D01*
X120072323Y-83911046D01*
X120152142Y-83911046D01*
X120340313Y-83799766D01*
X120517336Y-83689257D01*
X120683211Y-83579518D01*
X120837938Y-83470550D01*
X121008893Y-83340805D01*
X121163796Y-83212169D01*
X121205561Y-83061813D01*
G37*
G36*
X118892679Y-83100795D02*
G01*
X117279602Y-83100795D01*
X117279602Y-85467508D01*
X119057885Y-85467508D01*
X118919991Y-85332477D01*
X118835096Y-85152106D01*
X118813789Y-85053565D01*
X118849950Y-84852878D01*
X118895942Y-84669409D01*
X118948367Y-84546810D01*
X119107342Y-84643663D01*
X119120997Y-84734291D01*
X119224947Y-84734291D01*
X119802240Y-84280439D01*
X119802240Y-84215470D01*
X119273210Y-83867424D01*
X119206385Y-83867424D01*
X119174669Y-84052269D01*
X119092646Y-84219563D01*
X119018904Y-84249811D01*
X118872284Y-84127438D01*
X118828675Y-83944727D01*
X118823998Y-83902693D01*
X118823998Y-83693865D01*
X118861123Y-83648387D01*
X118823998Y-83606622D01*
X118823998Y-83397794D01*
X118853577Y-83211263D01*
X118892679Y-83100795D01*
G37*
G36*
X118736755Y-82935589D02*
G01*
X118641027Y-82775467D01*
X118616099Y-82719336D01*
X118616099Y-81760585D01*
X118616099Y-81094193D01*
X118691570Y-80919887D01*
X118854626Y-80804619D01*
X119228660Y-80804619D01*
X119407196Y-80868246D01*
X119475210Y-81042443D01*
X119477397Y-81094193D01*
X119299291Y-81181292D01*
X119100579Y-81190718D01*
X119002198Y-81190718D01*
X119002198Y-81615798D01*
X118966001Y-81878457D01*
X118991988Y-82141116D01*
X119531228Y-82141116D01*
X119664877Y-82125338D01*
X119726133Y-82191234D01*
X119779036Y-81974982D01*
X119779036Y-81928576D01*
X119596196Y-81692832D01*
X119725626Y-81552454D01*
X119927536Y-81529483D01*
X120122461Y-81536100D01*
X120317874Y-81568512D01*
X120427794Y-81667773D01*
X120427794Y-81832979D01*
X120253423Y-81903806D01*
X120117801Y-81928576D01*
X120117801Y-81988904D01*
X120194083Y-82164373D01*
X120377792Y-82242977D01*
X120580006Y-82259915D01*
X120887215Y-82259915D01*
X120940118Y-82259915D01*
X120987452Y-82113272D01*
X120962393Y-82073363D01*
X120962393Y-81729957D01*
X121023649Y-81309518D01*
X120597641Y-81309518D01*
X120487194Y-81141527D01*
X120487194Y-81008806D01*
X120660750Y-80939762D01*
X120849303Y-80926420D01*
X121035715Y-80923419D01*
X121202777Y-80982818D01*
X121367124Y-81081961D01*
X121407892Y-81192574D01*
X121407892Y-81486789D01*
X121348492Y-81579601D01*
X121348492Y-81710467D01*
X121375408Y-81705826D01*
X121366127Y-81904444D01*
X121316936Y-82002825D01*
X121313224Y-82074291D01*
X121274242Y-82547633D01*
X121348492Y-82720264D01*
X121281707Y-82894084D01*
X121247327Y-82913314D01*
X121193496Y-82913314D01*
X121021793Y-82846489D01*
X120920280Y-82690738D01*
X120761919Y-82623740D01*
X120623628Y-82652511D01*
X119994361Y-82550418D01*
X119994361Y-82607033D01*
X119978583Y-82621883D01*
X119589699Y-82563412D01*
X119204528Y-82563412D01*
X119002198Y-82584758D01*
X119002198Y-82830711D01*
X118863907Y-82940229D01*
X122852051Y-83116573D01*
X122957857Y-80688603D01*
X117221130Y-80438010D01*
X117118108Y-82864123D01*
X118736755Y-82935589D01*
G37*
G36*
X121370767Y-80569804D02*
G01*
X123018185Y-80638485D01*
X123112854Y-78315393D01*
X117357564Y-78074081D01*
X117260111Y-80397173D01*
X121317864Y-80568876D01*
X121170293Y-80452860D01*
X121082324Y-80272442D01*
X120900889Y-80178070D01*
X120691352Y-80128931D01*
X120544738Y-80110383D01*
X120513182Y-80141939D01*
X120505757Y-80141939D01*
X120473272Y-80102958D01*
X120198548Y-80152148D01*
X120017912Y-80097679D01*
X119877418Y-80082539D01*
X119748408Y-80110383D01*
X119395722Y-80026852D01*
X119181325Y-80055624D01*
X119083516Y-80220878D01*
X118992916Y-80310857D01*
X118962288Y-80310857D01*
X118808036Y-80197699D01*
X118767687Y-80003881D01*
X118764598Y-79909908D01*
X118811004Y-79780899D01*
X118811004Y-79342825D01*
X118862051Y-79173907D01*
X118834207Y-79067173D01*
X118834207Y-78981786D01*
X118910314Y-78919601D01*
X118842561Y-78918673D01*
X118853698Y-78869483D01*
X118864564Y-78663831D01*
X118904706Y-78477681D01*
X119013361Y-78312214D01*
X119162763Y-78264347D01*
X119187822Y-78264347D01*
X119281563Y-78320962D01*
X119484183Y-78336276D01*
X119668261Y-78407343D01*
X119744696Y-78565987D01*
X119744696Y-78690355D01*
X119723349Y-78707061D01*
X119596196Y-78768317D01*
X119337250Y-78728408D01*
X119274138Y-78722839D01*
X119260100Y-78928186D01*
X119230717Y-79127584D01*
X119181193Y-79309873D01*
X119149769Y-79385519D01*
X119208241Y-79690871D01*
X119493175Y-79667668D01*
X119786461Y-79746559D01*
X120606922Y-79746559D01*
X120748925Y-79787396D01*
X120784193Y-79753984D01*
X120797187Y-79753984D01*
X120831528Y-79776259D01*
X120940118Y-79776259D01*
X121081193Y-79743774D01*
X121284452Y-79423572D01*
X121299302Y-79425428D01*
X121465757Y-79515543D01*
X121540324Y-79691335D01*
X121556392Y-79876496D01*
X121556392Y-80076971D01*
X121538264Y-80265079D01*
X121468655Y-80449891D01*
X121370767Y-80569804D01*
G37*
G36*
X121373551Y-76776566D02*
G01*
X122981988Y-76776566D01*
X122981988Y-74519371D01*
X121364270Y-74519371D01*
X121514626Y-74642811D01*
X121438520Y-75148638D01*
X121526692Y-75595994D01*
X121526692Y-75858652D01*
X121455226Y-76060983D01*
X121510914Y-76408101D01*
X121472146Y-76592985D01*
X121382002Y-76763731D01*
X121373551Y-76776566D01*
G37*
G36*
X120581863Y-74459971D02*
G01*
X117220202Y-74459971D01*
X117220202Y-76680041D01*
X120621772Y-76715310D01*
X120475430Y-76597877D01*
X120440788Y-76484207D01*
X120440788Y-76427592D01*
X120497404Y-76346845D01*
X120915987Y-76386754D01*
X121110893Y-76353342D01*
X121110893Y-76229901D01*
X121155443Y-75866077D01*
X120497404Y-75725003D01*
X120062114Y-75725003D01*
X119893196Y-75703656D01*
X119631465Y-75750062D01*
X119465331Y-75695303D01*
X119327969Y-75725003D01*
X119095938Y-75725003D01*
X119095938Y-75956105D01*
X119019832Y-76124095D01*
X118868548Y-76124095D01*
X118723761Y-76000655D01*
X118764598Y-75437285D01*
X118764598Y-75234954D01*
X118815645Y-75054666D01*
X118875973Y-74994570D01*
X119010551Y-74994570D01*
X119101438Y-75158199D01*
X119148841Y-75340760D01*
X119465331Y-75313844D01*
X119633321Y-75381597D01*
X120038911Y-75323125D01*
X120366538Y-75323125D01*
X121042212Y-75443781D01*
X121096971Y-75388094D01*
X121069127Y-75207110D01*
X121069127Y-74811730D01*
X120741500Y-74811730D01*
X120564663Y-74739430D01*
X120544738Y-74702211D01*
X120544738Y-74554640D01*
X120581863Y-74459971D01*
G37*
G36*
X118879685Y-71719225D02*
G01*
X117250830Y-71650543D01*
X117137599Y-74313328D01*
X118831423Y-74386649D01*
X118751253Y-74205905D01*
X118711173Y-74021549D01*
X118689420Y-73840913D01*
X118724689Y-73809357D01*
X118699630Y-73572686D01*
X118763670Y-73397967D01*
X118816573Y-73339727D01*
X118875973Y-73339727D01*
X118997582Y-73491029D01*
X119087222Y-73661626D01*
X119127494Y-73747173D01*
X119644459Y-73747173D01*
X119911758Y-73747173D01*
X119858855Y-73312811D01*
X119952595Y-72681688D01*
X119791613Y-72579395D01*
X119602983Y-72561090D01*
X119495959Y-72559176D01*
X119181325Y-72559176D01*
X119050371Y-72704246D01*
X118892315Y-72803961D01*
X118884326Y-72806056D01*
X118711695Y-72509057D01*
X118798939Y-72126670D01*
X118764598Y-72084905D01*
X118764598Y-71996733D01*
X118809554Y-71810891D01*
X118879685Y-71719225D01*
G37*
G36*
X118875973Y-74387578D02*
G01*
X121235261Y-74487815D01*
X121122144Y-74338095D01*
X120978403Y-74199633D01*
X120805313Y-74112953D01*
X120727578Y-74103572D01*
X120326629Y-74103572D01*
X120140631Y-74111566D01*
X119956308Y-74145338D01*
X119941458Y-74143481D01*
X119904333Y-74107285D01*
X119693649Y-74135128D01*
X119663949Y-74132344D01*
X119462547Y-74103572D01*
X119091297Y-74103572D01*
X119023167Y-74281141D01*
X118875973Y-74387578D01*
G37*
G36*
X121180502Y-74484102D02*
G01*
X122891032Y-74556496D01*
X123001479Y-71894640D01*
X121323433Y-71852874D01*
X121453602Y-71998357D01*
X121495466Y-72196862D01*
X121496992Y-72252895D01*
X121456154Y-72417173D01*
X121478429Y-72682616D01*
X121423314Y-72864388D01*
X121356845Y-72915575D01*
X121289092Y-72915575D01*
X121113445Y-72826475D01*
X121036222Y-72642707D01*
X121020865Y-72559176D01*
X120828743Y-72559176D01*
X120293217Y-72559176D01*
X120321060Y-72793063D01*
X120229176Y-73424186D01*
X120255163Y-73687773D01*
X120773984Y-73687773D01*
X120909490Y-73760167D01*
X121059715Y-73629454D01*
X121158561Y-73451602D01*
X121174933Y-73414905D01*
X121253824Y-73450174D01*
X121369375Y-73606794D01*
X121398263Y-73802570D01*
X121407290Y-74000793D01*
X121407892Y-74076656D01*
X121381023Y-74272618D01*
X121279985Y-74428705D01*
X121180502Y-74484102D01*
G37*
G36*
X121261249Y-71822246D02*
G01*
X118956720Y-71724793D01*
X119053316Y-71889286D01*
X119090772Y-72085184D01*
X119091297Y-72113677D01*
X119211953Y-72113677D01*
X119511737Y-72162867D01*
X119557215Y-72168436D01*
X119589699Y-72136880D01*
X120073251Y-72232476D01*
X120073251Y-72189783D01*
X120875150Y-72154514D01*
X121040355Y-72202777D01*
X121161446Y-72054132D01*
X121243201Y-71868326D01*
X121261249Y-71822246D01*
G37*
G36*
X118827711Y-71644975D02*
G01*
X122922588Y-71525247D01*
X122922588Y-70004054D01*
X117160802Y-70182253D01*
X117160802Y-71671890D01*
X118906601Y-71671890D01*
X118747675Y-71556252D01*
X118649874Y-71393134D01*
X118645799Y-71350760D01*
X118678283Y-71194835D01*
X118594752Y-70895051D01*
X118624628Y-70688554D01*
X118669698Y-70497583D01*
X118768311Y-70365093D01*
X118866692Y-70365093D01*
X118890823Y-70387368D01*
X119007183Y-70547905D01*
X119174987Y-70641551D01*
X119374316Y-70684360D01*
X119522875Y-70691793D01*
X119627752Y-70646315D01*
X119955380Y-70714068D01*
X120126024Y-70632349D01*
X120179057Y-70624040D01*
X120665394Y-70683439D01*
X120812037Y-70642602D01*
X121054277Y-70642602D01*
X121091173Y-70451027D01*
X121158865Y-70271063D01*
X121198136Y-70246294D01*
X121271458Y-70246294D01*
X121398508Y-70396984D01*
X121460975Y-70574669D01*
X121467292Y-70596196D01*
X121467292Y-70987864D01*
X121467292Y-71034270D01*
X121495136Y-71066754D01*
X121466389Y-71258778D01*
X121392487Y-71432569D01*
X121326217Y-71463991D01*
X121151730Y-71360969D01*
X121060821Y-71195538D01*
X120935351Y-71058292D01*
X120894640Y-71047264D01*
X120673747Y-71077892D01*
X120270013Y-71077892D01*
X119975799Y-71077892D01*
X119192463Y-71077892D01*
X119000341Y-71165135D01*
X119062526Y-71222679D01*
X119023772Y-71404311D01*
X118919206Y-71559735D01*
X118827711Y-71644975D01*
G37*
G36*
X118761814Y-69861123D02*
G01*
X121167508Y-70047675D01*
X121026289Y-69924380D01*
X120936339Y-69746625D01*
X120915059Y-69631876D01*
X120669106Y-69613314D01*
X120597641Y-69531639D01*
X120593928Y-69605889D01*
X119700146Y-69503795D01*
X118905673Y-69503795D01*
X118899176Y-69576189D01*
X118927948Y-69611458D01*
X118919595Y-69728401D01*
X118777440Y-69850815D01*
X118761814Y-69861123D01*
G37*
G36*
X121116461Y-70043963D02*
G01*
X122788011Y-70172972D01*
X122974563Y-67756140D01*
X121267745Y-67622490D01*
X121368461Y-67781014D01*
X121420048Y-67961659D01*
X121434840Y-68152431D01*
X121429239Y-68286098D01*
X121367055Y-68464298D01*
X121306727Y-68523698D01*
X121186999Y-68514416D01*
X121063094Y-68367773D01*
X121021793Y-68196998D01*
X120332198Y-68196998D01*
X120218039Y-68188645D01*
X120194836Y-68212777D01*
X120179057Y-68196998D01*
X119939602Y-68196998D01*
X119932177Y-68304661D01*
X120115146Y-68442705D01*
X120289323Y-68578983D01*
X120454708Y-68713492D01*
X120611302Y-68846235D01*
X120759103Y-68977210D01*
X120898113Y-69106417D01*
X120951256Y-69157606D01*
X121147008Y-69205502D01*
X121294081Y-69337893D01*
X121339211Y-69460174D01*
X121308583Y-69842560D01*
X121116461Y-70043963D01*
G37*
G36*
X121275170Y-67623419D02*
G01*
X117237836Y-67309713D01*
X117051284Y-69726545D01*
X118682923Y-69853698D01*
X118590256Y-69684098D01*
X118560411Y-69568764D01*
X118679211Y-68883809D01*
X118790412Y-68727363D01*
X118869476Y-68689832D01*
X119008995Y-68821282D01*
X119021688Y-68848541D01*
X119007766Y-69036021D01*
X119224019Y-69053656D01*
X119292700Y-69135331D01*
X119295484Y-69062937D01*
X119396650Y-69101918D01*
X119445840Y-69104703D01*
X119478325Y-69076859D01*
X119596196Y-69118624D01*
X119735415Y-69093565D01*
X120324773Y-69172455D01*
X120460279Y-69184521D01*
X118849057Y-67968680D01*
X118861123Y-67814612D01*
X119015732Y-67710144D01*
X119025401Y-67694884D01*
X119666734Y-67778415D01*
X119919183Y-67798834D01*
X119954452Y-67840599D01*
X120132651Y-67783056D01*
X120360969Y-67869371D01*
X120537313Y-67812756D01*
X120744242Y-67817336D01*
X120949516Y-67791030D01*
X121140651Y-67721219D01*
X121275170Y-67623419D01*
G37*
G36*
X123041388Y-67413663D02*
G01*
X117279602Y-67413663D01*
X117279602Y-65280837D01*
X118726545Y-65280837D01*
X118745126Y-65371872D01*
X118916810Y-65453467D01*
X118905843Y-65551742D01*
X118823998Y-65721695D01*
X118823998Y-66362100D01*
X118874304Y-66507564D01*
X118953333Y-66679259D01*
X119071328Y-66858109D01*
X119210669Y-66997214D01*
X119371355Y-67096575D01*
X119553386Y-67156191D01*
X119756762Y-67176063D01*
X119784605Y-67176063D01*
X119941458Y-67141723D01*
X120130795Y-67176063D01*
X120157711Y-67176063D01*
X120307776Y-67167203D01*
X120495196Y-67131206D01*
X120682434Y-67067520D01*
X120869490Y-66976144D01*
X121056366Y-66857079D01*
X121205735Y-66741890D01*
X121354989Y-66608980D01*
X121478429Y-66005700D01*
X121307655Y-65420983D01*
X121353608Y-65401315D01*
X121410676Y-65219580D01*
X121363844Y-65167174D01*
X121200408Y-65067691D01*
X121006015Y-65037668D01*
X120926182Y-65041468D01*
X120740237Y-65106297D01*
X120665394Y-65280837D01*
X120665394Y-65367152D01*
X120715744Y-65417416D01*
X120847306Y-65553241D01*
X120977243Y-65699420D01*
X121081193Y-65872051D01*
X121112749Y-65968576D01*
X121099788Y-66133771D01*
X121038093Y-66332458D01*
X120925591Y-66493128D01*
X120762281Y-66615782D01*
X120581863Y-66690655D01*
X120149357Y-66823377D01*
X120127083Y-66801102D01*
X120110376Y-66819664D01*
X120063042Y-66819664D01*
X119970230Y-66789036D01*
X119790174Y-66819664D01*
X119756506Y-66819063D01*
X119570562Y-66790219D01*
X119388435Y-66701883D01*
X119243791Y-66554657D01*
X119149644Y-66381591D01*
X119092226Y-66204319D01*
X119114577Y-66070133D01*
X119160675Y-65875821D01*
X119230588Y-65691041D01*
X119348576Y-65526793D01*
X119535868Y-65453467D01*
X119766043Y-65419127D01*
X119827299Y-65469245D01*
X119827299Y-65776454D01*
X119837218Y-65900097D01*
X119926768Y-66080233D01*
X120109448Y-66140278D01*
X120190195Y-65997347D01*
X120190195Y-65743042D01*
X120249595Y-65278052D01*
X120249322Y-65265904D01*
X120151108Y-65098385D01*
X119970230Y-65037668D01*
X119846789Y-65037668D01*
X119664587Y-65041671D01*
X119477784Y-65057931D01*
X119292700Y-65101709D01*
X119101507Y-65068296D01*
X118977138Y-65068296D01*
X118805834Y-65108978D01*
X118726545Y-65280837D01*
X117279602Y-65280837D01*
X117279602Y-64740669D01*
X123041388Y-64740669D01*
X123041388Y-67413663D01*
G37*
G36*
X121385617Y-64629294D02*
G01*
X122981988Y-64629294D01*
X122981988Y-62520599D01*
X121420886Y-62520599D01*
X121450053Y-62708544D01*
X121527620Y-62876998D01*
X121498058Y-63077995D01*
X121440398Y-63259907D01*
X121395826Y-63292797D01*
X121330858Y-63292797D01*
X121164107Y-63207931D01*
X121125743Y-63128520D01*
X120267229Y-63462644D01*
X120267229Y-63526684D01*
X120400299Y-63656158D01*
X120545476Y-63774776D01*
X120717477Y-63898369D01*
X120886258Y-64008264D01*
X121009727Y-64083558D01*
X121077107Y-63893184D01*
X121156299Y-63719953D01*
X121205561Y-63649197D01*
X121366646Y-63758527D01*
X121414389Y-63828324D01*
X121414389Y-64049218D01*
X121437592Y-64177298D01*
X121429014Y-64368757D01*
X121400590Y-64562953D01*
X121385617Y-64629294D01*
G37*
G36*
X121113677Y-62498324D02*
G01*
X117220202Y-62424074D01*
X117220202Y-64531841D01*
X121004159Y-64604235D01*
X120876360Y-64454720D01*
X120721355Y-64321397D01*
X120551769Y-64203873D01*
X120430579Y-64130892D01*
X120289228Y-63997982D01*
X120131996Y-63856765D01*
X119971851Y-63723855D01*
X119806747Y-63608666D01*
X119687152Y-63563809D01*
X119399434Y-63587940D01*
X119303838Y-63554528D01*
X119104291Y-63587012D01*
X119104291Y-63742009D01*
X119076352Y-63929872D01*
X118977138Y-64003740D01*
X118798221Y-63929203D01*
X118715408Y-63767068D01*
X118764598Y-63267738D01*
X118764598Y-63017145D01*
X118911242Y-62859364D01*
X118961360Y-62859364D01*
X119074910Y-63009604D01*
X119172472Y-63191313D01*
X119195247Y-63236182D01*
X119724277Y-63236182D01*
X119960020Y-63277019D01*
X120069539Y-63166573D01*
X120246042Y-63067597D01*
X120448194Y-62962436D01*
X120629817Y-62877894D01*
X120820666Y-62803662D01*
X121005960Y-62754587D01*
X121113677Y-62744277D01*
X121113677Y-62498324D01*
G37*
G36*
X115129698Y-90011597D02*
G01*
X116597988Y-90011597D01*
X116597988Y-87338604D01*
X115015539Y-87338604D01*
X115067610Y-87522932D01*
X115108114Y-87710427D01*
X115115776Y-87752546D01*
X115061525Y-87932486D01*
X114996048Y-88051402D01*
X114905092Y-88051402D01*
X114732665Y-87968262D01*
X114675846Y-87858352D01*
X114463306Y-87897333D01*
X114231217Y-87961287D01*
X114018039Y-88016713D01*
X113823771Y-88063612D01*
X113607529Y-88110245D01*
X113420835Y-88143554D01*
X113235805Y-88165938D01*
X113136090Y-88170202D01*
X113306882Y-88286250D01*
X113500918Y-88342808D01*
X113718197Y-88391385D01*
X113928403Y-88431193D01*
X114170947Y-88471842D01*
X114378847Y-88436573D01*
X114479440Y-88596293D01*
X114518856Y-88779250D01*
X114518993Y-88791116D01*
X114390912Y-88897850D01*
X114378847Y-88897850D01*
X114341722Y-88863509D01*
X114170019Y-88903419D01*
X113343990Y-89228262D01*
X113343990Y-89374905D01*
X113418240Y-89298799D01*
X113459077Y-89298799D01*
X113654616Y-89374034D01*
X113853742Y-89420194D01*
X114061704Y-89456217D01*
X114255580Y-89483437D01*
X114473907Y-89509236D01*
X114716683Y-89533614D01*
X114775155Y-89533614D01*
X114809867Y-89343121D01*
X114866111Y-89239399D01*
X114928295Y-89239399D01*
X115110391Y-89290276D01*
X115144548Y-89310865D01*
X115093501Y-89654270D01*
X115129698Y-90011597D01*
G37*
G36*
X114706474Y-87360878D02*
G01*
X110836202Y-87438841D01*
X110836202Y-90110906D01*
X114825274Y-90031088D01*
X114819705Y-89945701D01*
X113790417Y-89707173D01*
X113549082Y-89682739D01*
X113331485Y-89658860D01*
X113137627Y-89635535D01*
X112916073Y-89605299D01*
X112698477Y-89568890D01*
X112504618Y-89520506D01*
X112439998Y-89475142D01*
X112439998Y-89348918D01*
X112519890Y-89175112D01*
X112705660Y-89126386D01*
X112723076Y-89126168D01*
X113549105Y-88769769D01*
X113549105Y-88691807D01*
X113363043Y-88675368D01*
X113171067Y-88645160D01*
X112981442Y-88596616D01*
X112836307Y-88540523D01*
X112648615Y-88500501D01*
X112475035Y-88416154D01*
X112366371Y-88262814D01*
X112354611Y-88174842D01*
X112535595Y-88046761D01*
X112690360Y-87922770D01*
X112896142Y-87899567D01*
X112974597Y-87898262D01*
X114706474Y-87496384D01*
X114706474Y-87360878D01*
G37*
G36*
X112443711Y-87307975D02*
G01*
X116538588Y-87188248D01*
X116538588Y-85667054D01*
X110776802Y-85845254D01*
X110776802Y-87334891D01*
X112522601Y-87334891D01*
X112363675Y-87219253D01*
X112265874Y-87056135D01*
X112261799Y-87013761D01*
X112294283Y-86857836D01*
X112210752Y-86558052D01*
X112240628Y-86351555D01*
X112285698Y-86160584D01*
X112384311Y-86028094D01*
X112482692Y-86028094D01*
X112506823Y-86050369D01*
X112623183Y-86210905D01*
X112790987Y-86304551D01*
X112990316Y-86347361D01*
X113138875Y-86354793D01*
X113243752Y-86309315D01*
X113571380Y-86377068D01*
X113742024Y-86295350D01*
X113795057Y-86287040D01*
X114281394Y-86346440D01*
X114428037Y-86305603D01*
X114670277Y-86305603D01*
X114707173Y-86114028D01*
X114774865Y-85934064D01*
X114814136Y-85909294D01*
X114887458Y-85909294D01*
X115014508Y-86059985D01*
X115076975Y-86237670D01*
X115083292Y-86259197D01*
X115083292Y-86650865D01*
X115083292Y-86697271D01*
X115111136Y-86729755D01*
X115082389Y-86921779D01*
X115008487Y-87095570D01*
X114942217Y-87126992D01*
X114767730Y-87023970D01*
X114676821Y-86858539D01*
X114551351Y-86721293D01*
X114510640Y-86710264D01*
X114289747Y-86740892D01*
X113886013Y-86740892D01*
X113591799Y-86740892D01*
X112808463Y-86740892D01*
X112616341Y-86828136D01*
X112678526Y-86885680D01*
X112639772Y-87067312D01*
X112535206Y-87222736D01*
X112443711Y-87307975D01*
G37*
G36*
X115036886Y-85760795D02*
G01*
X116627688Y-85760795D01*
X116627688Y-83503600D01*
X114997905Y-83503600D01*
X115138979Y-83640034D01*
X115073083Y-84156070D01*
X115172392Y-84584863D01*
X115172392Y-84849378D01*
X115106495Y-85058206D01*
X115172392Y-85404396D01*
X115129517Y-85593450D01*
X115036886Y-85760795D01*
G37*
G36*
X114209928Y-83503600D02*
G01*
X110895602Y-83503600D01*
X110895602Y-85760795D01*
X114279538Y-85731095D01*
X114132445Y-85615457D01*
X114097625Y-85502777D01*
X114097625Y-85445233D01*
X114150528Y-85362630D01*
X114570040Y-85395114D01*
X114764018Y-85356133D01*
X114764018Y-85232693D01*
X114801143Y-84865156D01*
X114137535Y-84723153D01*
X113702245Y-84754710D01*
X113533327Y-84722225D01*
X113269740Y-84787194D01*
X113103606Y-84722225D01*
X112964387Y-84754710D01*
X112737926Y-84754710D01*
X112737926Y-84991381D01*
X112668244Y-85165051D01*
X112663676Y-85166796D01*
X112513320Y-85166796D01*
X112380598Y-85047068D01*
X112380598Y-84478129D01*
X112380598Y-84275798D01*
X112433495Y-84096199D01*
X112491045Y-84045624D01*
X112628407Y-84045624D01*
X112731597Y-84214397D01*
X112778763Y-84372323D01*
X113096181Y-84336126D01*
X113264171Y-84404807D01*
X113671617Y-84335198D01*
X114001101Y-84335198D01*
X114681415Y-84440076D01*
X114732461Y-84384389D01*
X114699977Y-84207117D01*
X114699977Y-83825659D01*
X114366781Y-83825659D01*
X114189926Y-83762213D01*
X114165378Y-83721709D01*
X114165378Y-83574137D01*
X114209928Y-83503600D01*
G37*
G36*
X112495685Y-80629204D02*
G01*
X110866830Y-80560523D01*
X110753599Y-83223307D01*
X112447423Y-83296629D01*
X112367253Y-83115884D01*
X112327173Y-82931528D01*
X112305420Y-82750892D01*
X112340689Y-82719336D01*
X112315630Y-82482665D01*
X112379670Y-82307946D01*
X112432573Y-82249706D01*
X112491973Y-82249706D01*
X112613582Y-82401008D01*
X112703222Y-82571605D01*
X112743494Y-82657152D01*
X113260459Y-82657152D01*
X113527758Y-82657152D01*
X113474855Y-82222791D01*
X113568595Y-81591667D01*
X113407613Y-81489374D01*
X113218983Y-81471069D01*
X113111959Y-81469155D01*
X112797325Y-81469155D01*
X112666371Y-81614225D01*
X112508315Y-81713940D01*
X112500326Y-81716036D01*
X112327695Y-81419036D01*
X112414939Y-81036650D01*
X112380598Y-80994884D01*
X112380598Y-80906712D01*
X112425554Y-80720870D01*
X112495685Y-80629204D01*
G37*
G36*
X112491973Y-83297557D02*
G01*
X114851261Y-83397794D01*
X114738144Y-83248074D01*
X114594403Y-83109612D01*
X114421313Y-83022932D01*
X114343578Y-83013551D01*
X113942629Y-83013551D01*
X113756631Y-83021545D01*
X113572308Y-83055317D01*
X113557458Y-83053460D01*
X113520333Y-83017264D01*
X113309649Y-83045107D01*
X113279949Y-83042323D01*
X113078547Y-83013551D01*
X112707297Y-83013551D01*
X112639167Y-83191120D01*
X112491973Y-83297557D01*
G37*
G36*
X114796502Y-83394082D02*
G01*
X116507032Y-83466475D01*
X116617479Y-80804619D01*
X114939433Y-80762853D01*
X115069602Y-80908337D01*
X115111466Y-81106842D01*
X115112992Y-81162874D01*
X115072154Y-81327152D01*
X115094429Y-81592595D01*
X115039314Y-81774367D01*
X114972845Y-81825554D01*
X114905092Y-81825554D01*
X114729445Y-81736454D01*
X114652222Y-81552686D01*
X114636865Y-81469155D01*
X114444743Y-81469155D01*
X113909217Y-81469155D01*
X113937060Y-81703042D01*
X113845176Y-82334165D01*
X113871163Y-82597752D01*
X114389984Y-82597752D01*
X114525490Y-82670146D01*
X114675715Y-82539433D01*
X114774561Y-82361581D01*
X114790933Y-82324884D01*
X114869824Y-82360153D01*
X114985375Y-82516773D01*
X115014263Y-82712549D01*
X115023290Y-82910772D01*
X115023892Y-82986636D01*
X114997023Y-83182597D01*
X114895985Y-83338684D01*
X114796502Y-83394082D01*
G37*
G36*
X114877249Y-80732225D02*
G01*
X112572720Y-80634772D01*
X112669316Y-80799265D01*
X112706772Y-80995163D01*
X112707297Y-81023656D01*
X112827953Y-81023656D01*
X113127737Y-81072846D01*
X113173215Y-81078415D01*
X113205699Y-81046859D01*
X113689251Y-81142456D01*
X113689251Y-81099762D01*
X114491150Y-81064493D01*
X114656355Y-81112756D01*
X114777446Y-80964111D01*
X114859201Y-80778305D01*
X114877249Y-80732225D01*
G37*
G36*
X112584785Y-79071814D02*
G01*
X116716788Y-79204535D01*
X116716788Y-77705617D01*
X110955002Y-77516280D01*
X110955002Y-79044898D01*
X112681310Y-79044898D01*
X112516162Y-78940702D01*
X112410563Y-78779461D01*
X112410298Y-78771102D01*
X112460417Y-78621674D01*
X112395448Y-78320034D01*
X112439105Y-78116430D01*
X112498238Y-77928134D01*
X112611701Y-77797501D01*
X112714722Y-77797501D01*
X112738854Y-77823488D01*
X112845570Y-77997729D01*
X113009034Y-78099369D01*
X113207957Y-78145833D01*
X113357912Y-78153900D01*
X113461861Y-78121416D01*
X113783920Y-78217012D01*
X113960046Y-78143009D01*
X114013166Y-78138122D01*
X114493934Y-78232791D01*
X114647074Y-78200306D01*
X114889314Y-78200306D01*
X114937418Y-78019948D01*
X115017917Y-77850520D01*
X115061017Y-77827201D01*
X115136195Y-77827201D01*
X115256869Y-77977492D01*
X115316251Y-78176175D01*
X115264276Y-78585477D01*
X115264276Y-78635596D01*
X115296760Y-78673649D01*
X115251496Y-78869425D01*
X115150041Y-79031846D01*
X115102782Y-79044898D01*
X114939433Y-78938164D01*
X114850420Y-78762202D01*
X114713203Y-78630306D01*
X114699977Y-78629099D01*
X114478156Y-78655086D01*
X114075351Y-78608680D01*
X113774639Y-78633740D01*
X112995944Y-78534430D01*
X112796397Y-78627243D01*
X112855797Y-78682002D01*
X112803924Y-78863965D01*
X112676887Y-79005794D01*
X112584785Y-79071814D01*
G37*
G36*
X112677598Y-77526489D02*
G01*
X114928295Y-77526489D01*
X114835498Y-77362755D01*
X114777939Y-77205359D01*
X114567256Y-77205359D01*
X114392769Y-77173802D01*
X114360284Y-77213712D01*
X114355644Y-77213712D01*
X114316662Y-77173802D01*
X114177444Y-77229490D01*
X113454436Y-77229490D01*
X112826097Y-77190509D01*
X112826097Y-77311165D01*
X112735460Y-77480339D01*
X112677598Y-77526489D01*
G37*
G36*
X115052664Y-77463377D02*
G01*
X116722357Y-77463377D01*
X116645323Y-74788527D01*
X115129698Y-74788527D01*
X115172392Y-74964870D01*
X115172392Y-75190404D01*
X115147332Y-75425219D01*
X115188170Y-75460488D01*
X115145179Y-75651054D01*
X115003704Y-75780715D01*
X114963564Y-75797396D01*
X114854974Y-75765840D01*
X114696265Y-75877258D01*
X114513033Y-75953222D01*
X114302813Y-76024767D01*
X114090142Y-76088925D01*
X113995532Y-76115742D01*
X113995532Y-76189064D01*
X114045651Y-76237327D01*
X114236793Y-76272512D01*
X114430133Y-76316279D01*
X114603150Y-76388648D01*
X114608093Y-76401604D01*
X114824784Y-76409403D01*
X115020927Y-76438213D01*
X115195277Y-76516198D01*
X115245713Y-76623426D01*
X115172392Y-76984465D01*
X115172392Y-77389127D01*
X115052664Y-77463377D01*
G37*
G36*
X114841980Y-74853495D02*
G01*
X112657179Y-74853495D01*
X112720059Y-75035407D01*
X112761240Y-75221482D01*
X112769482Y-75269294D01*
X113400605Y-75269294D01*
X113482280Y-75244235D01*
X113513836Y-75274863D01*
X114125469Y-75155135D01*
X114144032Y-75155135D01*
X114175588Y-75185763D01*
X114755665Y-75137501D01*
X114815993Y-75137501D01*
X114815993Y-75073460D01*
X114835889Y-74882108D01*
X114841980Y-74853495D01*
G37*
G36*
X112457632Y-74911967D02*
G01*
X110916020Y-74911967D01*
X110993055Y-77585889D01*
X112667388Y-77585889D01*
X112535715Y-77437113D01*
X112476035Y-77260335D01*
X112467842Y-77197006D01*
X112467842Y-76833181D01*
X112439998Y-76735728D01*
X112455269Y-76543705D01*
X112539728Y-76369914D01*
X112633048Y-76338492D01*
X112667388Y-76338492D01*
X112775881Y-76490903D01*
X112820656Y-76681418D01*
X112842803Y-76820188D01*
X113793201Y-76892581D01*
X113837751Y-76892581D01*
X113844248Y-76860097D01*
X113826614Y-76871234D01*
X113875804Y-76925994D01*
X114332441Y-76845247D01*
X114350075Y-76845247D01*
X114387200Y-76876803D01*
X114548693Y-76834109D01*
X114548693Y-76718094D01*
X114456809Y-76718094D01*
X114258901Y-76675070D01*
X114075873Y-76631964D01*
X113854979Y-76574362D01*
X113660538Y-76516615D01*
X113454683Y-76444228D01*
X113262213Y-76357064D01*
X113112887Y-76254961D01*
X113195559Y-76073187D01*
X113346470Y-75946911D01*
X113419168Y-75935687D01*
X113639785Y-75866730D01*
X113832472Y-75803255D01*
X114034054Y-75731620D01*
X114218344Y-75656964D01*
X114385841Y-75559946D01*
X114402050Y-75537522D01*
X114076279Y-75537522D01*
X113903648Y-75514319D01*
X113811764Y-75580216D01*
X113802482Y-75580216D01*
X113769070Y-75544947D01*
X113215909Y-75627550D01*
X113109175Y-75594137D01*
X113073906Y-75634047D01*
X113068337Y-75634047D01*
X113032140Y-75599706D01*
X112783404Y-75645184D01*
X112697148Y-75815369D01*
X112649754Y-75863293D01*
X112536523Y-75863293D01*
X112405658Y-75703656D01*
X112405658Y-75470697D01*
X112444639Y-75389022D01*
X112389879Y-75415938D01*
X112405658Y-75400160D01*
X112411799Y-75199263D01*
X112434893Y-75006520D01*
X112457632Y-74911967D01*
G37*
G36*
X115085148Y-74823795D02*
G01*
X116734422Y-74823795D01*
X116662957Y-72150802D01*
X115001617Y-72150802D01*
X115132983Y-72282088D01*
X115172392Y-72338283D01*
X115172392Y-72995393D01*
X115172392Y-73028806D01*
X115106045Y-73208267D01*
X115002545Y-73271046D01*
X114847325Y-73149733D01*
X114788193Y-72969902D01*
X114786293Y-72923000D01*
X113888798Y-72923000D01*
X113858170Y-72932281D01*
X113724520Y-72904437D01*
X113137018Y-73057578D01*
X113060528Y-73230449D01*
X112950487Y-73394951D01*
X112890138Y-73453886D01*
X112936544Y-73500292D01*
X112915197Y-73687773D01*
X112984574Y-73886913D01*
X113127665Y-74019291D01*
X113306528Y-74118488D01*
X113488643Y-74190570D01*
X113705446Y-74256184D01*
X113890814Y-74301150D01*
X114025232Y-74329106D01*
X114208072Y-74254624D01*
X114403054Y-74237652D01*
X114625890Y-74230670D01*
X114756593Y-74229797D01*
X114768694Y-74037501D01*
X114829914Y-73932798D01*
X114864255Y-73932798D01*
X115039688Y-73995310D01*
X115135981Y-74160632D01*
X115169683Y-74367284D01*
X115172392Y-74461828D01*
X115172392Y-74742121D01*
X115085148Y-74823795D01*
G37*
G36*
X114955211Y-72176789D02*
G01*
X110898386Y-72292805D01*
X110967995Y-74957445D01*
X114835483Y-74853495D01*
X114708744Y-74703103D01*
X114571896Y-74654877D01*
X114573752Y-74654877D01*
X114476300Y-74625177D01*
X114209928Y-74664158D01*
X113983766Y-74641821D01*
X113780943Y-74618894D01*
X113568363Y-74590605D01*
X113362830Y-74556528D01*
X113165790Y-74511018D01*
X113169503Y-74558352D01*
X112988127Y-74506009D01*
X112831898Y-74378674D01*
X112705514Y-74227051D01*
X112612629Y-74090578D01*
X112572711Y-73906916D01*
X112499398Y-73870613D01*
X112499398Y-73261765D01*
X112656875Y-73142056D01*
X112765045Y-72980316D01*
X112857212Y-72814320D01*
X112906844Y-72716957D01*
X113101112Y-72645955D01*
X113281281Y-72571060D01*
X113364408Y-72516482D01*
X113590870Y-72570313D01*
X113625211Y-72536901D01*
X114700905Y-72536901D01*
X114955211Y-72176789D01*
G37*
D11*
X85840000Y-73664000D02*
G75*
G02*
X85078000Y-73664000I-381000J0D01*
G01*
X85078000Y-73664000D02*
G75*
G02*
X85840000Y-73664000I381000J0D01*
G01*
X76853201Y-77459200D02*
G75*
G02*
X76091201Y-77459200I-381000J0D01*
G01*
X76091201Y-77459200D02*
G75*
G02*
X76853201Y-77459200I381000J0D01*
G01*
%LPC*%
D12*
X106640000Y-57500000D03*
X106640000Y-105500000D03*
X139640000Y-57500000D03*
X139640000Y-105500000D03*
D13*
X160900000Y-56420000D03*
X160900000Y-61500000D03*
D14*
X157000000Y-84000000D03*
D15*
X159500000Y-84000000D03*
X162000000Y-84000000D03*
D16*
X87237000Y-73410000D03*
X89267000Y-73410000D03*
X91297000Y-73410000D03*
X93327000Y-73410000D03*
X95357000Y-73410000D03*
X97387000Y-73410000D03*
X86280500Y-75950000D03*
X88310500Y-75950000D03*
X90340500Y-75950000D03*
X94410500Y-75950000D03*
X96440500Y-75950000D03*
X98470500Y-75950000D03*
X86280500Y-78490000D03*
X88820500Y-78490000D03*
X95930508Y-78490000D03*
X98470508Y-78490000D03*
X86724000Y-66300000D03*
X97900000Y-66300000D03*
X86724000Y-64830000D03*
X97900000Y-64830000D03*
D17*
X98662000Y-58170000D03*
X85962000Y-58170000D03*
D18*
X100377000Y-54990000D03*
X84247000Y-54990000D03*
D14*
X157000000Y-90000000D03*
D15*
X159500000Y-90000000D03*
X162000000Y-90000000D03*
D19*
X144975000Y-104000000D03*
X145568109Y-102568109D03*
X145568109Y-105431891D03*
X147000000Y-101975000D03*
D20*
X147000000Y-104000000D03*
D19*
X147000000Y-106025000D03*
X148431891Y-102568109D03*
X148431891Y-105431891D03*
X149025000Y-104000000D03*
D13*
X83673000Y-101225000D03*
X83673000Y-106305000D03*
D19*
X144975000Y-59000000D03*
X145568109Y-57568109D03*
X145568109Y-60431891D03*
X147000000Y-56975000D03*
D20*
X147000000Y-59000000D03*
D19*
X147000000Y-61025000D03*
X148431891Y-57568109D03*
X148431891Y-60431891D03*
X149025000Y-59000000D03*
D13*
X161000000Y-101260000D03*
X161000000Y-106340000D03*
D21*
X75300000Y-60204000D03*
X75300000Y-62204000D03*
X75300000Y-64204000D03*
X75300000Y-66204000D03*
D22*
X78020000Y-66474000D03*
X78020000Y-59474000D03*
X72580000Y-66474000D03*
X72580000Y-59474000D03*
D19*
X73975000Y-81500000D03*
X74568109Y-80068109D03*
X74568109Y-82931891D03*
X76000000Y-79475000D03*
D20*
X76000000Y-81500000D03*
D19*
X76000000Y-83525000D03*
X77431891Y-80068109D03*
X77431891Y-82931891D03*
X78025000Y-81500000D03*
D14*
X157000000Y-96000000D03*
D15*
X159500000Y-96000000D03*
X162000000Y-96000000D03*
%LPD*%
M02*
