G04 #@! TF.GenerationSoftware,KiCad,Pcbnew,8.0.8*
G04 #@! TF.CreationDate,2025-07-30T13:33:19+02:00*
G04 #@! TF.ProjectId,overlord,6f766572-6c6f-4726-942e-6b696361645f,rev?*
G04 #@! TF.SameCoordinates,Original*
G04 #@! TF.FileFunction,Copper,L5,Inr*
G04 #@! TF.FilePolarity,Positive*
%FSLAX46Y46*%
G04 Gerber Fmt 4.6, Leading zero omitted, Abs format (unit mm)*
G04 Created by KiCad (PCBNEW 8.0.8) date 2025-07-30 13:33:19*
%MOMM*%
%LPD*%
G01*
G04 APERTURE LIST*
G04 #@! TA.AperFunction,ComponentPad*
%ADD10C,4.000000*%
G04 #@! TD*
G04 #@! TA.AperFunction,ComponentPad*
%ADD11R,1.200000X1.200000*%
G04 #@! TD*
G04 #@! TA.AperFunction,ComponentPad*
%ADD12C,1.200000*%
G04 #@! TD*
G04 #@! TA.AperFunction,ComponentPad*
%ADD13C,1.397000*%
G04 #@! TD*
G04 #@! TA.AperFunction,ComponentPad*
%ADD14C,3.759200*%
G04 #@! TD*
G04 #@! TA.AperFunction,ComponentPad*
%ADD15C,2.082800*%
G04 #@! TD*
G04 #@! TA.AperFunction,ComponentPad*
%ADD16C,0.800000*%
G04 #@! TD*
G04 #@! TA.AperFunction,ComponentPad*
%ADD17C,5.400000*%
G04 #@! TD*
G04 #@! TA.AperFunction,ComponentPad*
%ADD18C,1.431000*%
G04 #@! TD*
G04 #@! TA.AperFunction,ComponentPad*
%ADD19C,2.025000*%
G04 #@! TD*
G04 #@! TA.AperFunction,ViaPad*
%ADD20C,0.685800*%
G04 #@! TD*
G04 #@! TA.AperFunction,Conductor*
%ADD21C,0.200000*%
G04 #@! TD*
G04 #@! TA.AperFunction,Conductor*
%ADD22C,0.160000*%
G04 #@! TD*
G04 APERTURE END LIST*
D10*
X160900000Y-56420000D03*
X160900000Y-61500000D03*
D11*
X157000000Y-84000000D03*
D12*
X159500000Y-84000000D03*
X162000000Y-84000000D03*
D13*
X87237000Y-73410000D03*
X89267000Y-73410000D03*
X91297000Y-73410000D03*
X93327000Y-73410000D03*
X95357000Y-73410000D03*
X97387000Y-73410000D03*
X86280500Y-75950000D03*
X88310500Y-75950000D03*
X90340500Y-75950000D03*
X94410500Y-75950000D03*
X96440500Y-75950000D03*
X98470500Y-75950000D03*
X86280500Y-78490000D03*
X88820500Y-78490000D03*
X95930508Y-78490000D03*
X98470508Y-78490000D03*
X86724000Y-66300000D03*
X97900000Y-66300000D03*
X86724000Y-64830000D03*
X97900000Y-64830000D03*
D14*
X98662000Y-58170000D03*
X85962000Y-58170000D03*
D15*
X100377000Y-54990000D03*
X84247000Y-54990000D03*
D11*
X157000000Y-90000000D03*
D12*
X159500000Y-90000000D03*
X162000000Y-90000000D03*
D16*
X144975000Y-104000000D03*
X145568109Y-102568109D03*
X145568109Y-105431891D03*
X147000000Y-101975000D03*
D17*
X147000000Y-104000000D03*
D16*
X147000000Y-106025000D03*
X148431891Y-102568109D03*
X148431891Y-105431891D03*
X149025000Y-104000000D03*
D10*
X83673000Y-101225000D03*
X83673000Y-106305000D03*
D16*
X144975000Y-59000000D03*
X145568109Y-57568109D03*
X145568109Y-60431891D03*
X147000000Y-56975000D03*
D17*
X147000000Y-59000000D03*
D16*
X147000000Y-61025000D03*
X148431891Y-57568109D03*
X148431891Y-60431891D03*
X149025000Y-59000000D03*
D10*
X161000000Y-101260000D03*
X161000000Y-106340000D03*
D18*
X75300000Y-60204000D03*
X75300000Y-62204000D03*
X75300000Y-64204000D03*
X75300000Y-66204000D03*
D19*
X78020000Y-66474000D03*
X78020000Y-59474000D03*
X72580000Y-66474000D03*
X72580000Y-59474000D03*
D16*
X73975000Y-81500000D03*
X74568109Y-80068109D03*
X74568109Y-82931891D03*
X76000000Y-79475000D03*
D17*
X76000000Y-81500000D03*
D16*
X76000000Y-83525000D03*
X77431891Y-80068109D03*
X77431891Y-82931891D03*
X78025000Y-81500000D03*
D11*
X157000000Y-96000000D03*
D12*
X159500000Y-96000000D03*
X162000000Y-96000000D03*
D20*
X137243000Y-81405000D03*
X102653000Y-86995000D03*
X103563000Y-78595000D03*
X79400000Y-72600000D03*
X93673000Y-96265000D03*
X91748000Y-82540000D03*
X151500000Y-68900000D03*
X102673000Y-88190000D03*
X158200000Y-69300000D03*
X105600000Y-74600000D03*
X154453500Y-68475000D03*
X84698000Y-94350000D03*
X143033000Y-81285000D03*
X91723000Y-83890000D03*
X93673000Y-99265000D03*
X148400000Y-83600000D03*
X140273000Y-82645000D03*
X90373000Y-92665000D03*
X109133000Y-93395000D03*
X143133000Y-77825000D03*
X144804586Y-96893586D03*
X109400000Y-75100000D03*
X106200000Y-76600000D03*
X93673000Y-87265000D03*
X137293000Y-79925000D03*
X137203000Y-92195000D03*
X137233000Y-77775000D03*
X91573000Y-99715000D03*
X142983000Y-86235000D03*
X137253000Y-78985000D03*
X152890000Y-82510000D03*
X93673000Y-82265000D03*
X142963000Y-89805000D03*
X150951386Y-98036586D03*
X146725000Y-86500000D03*
X139900000Y-75400000D03*
X137213000Y-93365000D03*
X93673000Y-100265000D03*
X158200000Y-74400000D03*
X93673000Y-86265000D03*
X143003000Y-88625000D03*
X106700000Y-82000000D03*
X153262786Y-91229386D03*
X93673000Y-88265000D03*
X102673000Y-92440000D03*
X137223000Y-85055000D03*
X140053000Y-77525000D03*
X84698000Y-89650000D03*
X137203000Y-91015000D03*
X93673000Y-83265000D03*
X93673000Y-85265000D03*
X139923000Y-87405000D03*
X151500000Y-67400000D03*
X108800000Y-86100000D03*
X137223000Y-89815000D03*
X92998000Y-95540000D03*
X150380000Y-79230000D03*
X142973000Y-87385000D03*
X93673000Y-97265000D03*
X93173000Y-90265000D03*
X108700000Y-84200000D03*
X102673000Y-101565000D03*
X143153000Y-79845000D03*
X142973000Y-90975000D03*
X143003000Y-93425000D03*
X78200000Y-73200000D03*
X93673000Y-101265000D03*
X142953000Y-92175000D03*
X93173000Y-93265000D03*
X143063000Y-75435000D03*
X89873000Y-91914874D03*
X155253500Y-69975000D03*
X137103000Y-86675000D03*
X142993000Y-83805000D03*
X103553000Y-80255000D03*
X102613000Y-83200000D03*
X108900000Y-80200000D03*
X102673000Y-98440000D03*
X102633000Y-84595000D03*
X91623000Y-100915000D03*
X79600000Y-78500000D03*
X143143000Y-78915000D03*
X90823000Y-91915000D03*
X102100000Y-57600000D03*
X109700000Y-87000000D03*
X93673000Y-98265000D03*
X148700000Y-69900000D03*
X90348000Y-91165000D03*
X108700000Y-73600000D03*
X93673000Y-84265000D03*
X103800000Y-68000000D03*
X137223000Y-88615000D03*
X148930000Y-79070000D03*
X106363000Y-78225000D03*
X79600000Y-75600000D03*
X102653000Y-85805000D03*
X150300000Y-86200000D03*
X102673000Y-95090000D03*
X145800000Y-100700000D03*
X99600000Y-93300000D03*
X99623000Y-94965000D03*
X87458000Y-91180000D03*
X87368000Y-92590000D03*
X99800000Y-88600000D03*
X99700000Y-84900000D03*
X150000000Y-94500000D03*
X78400000Y-75700000D03*
X156100000Y-67800000D03*
X152900000Y-80050000D03*
X144855386Y-93058186D03*
X148370000Y-86450000D03*
X106503000Y-91005000D03*
X144600000Y-77700000D03*
X150053500Y-65775000D03*
X148000000Y-76900000D03*
X153313586Y-90162586D03*
X145900000Y-84500000D03*
X105700000Y-81900000D03*
X145500000Y-74700000D03*
X109800000Y-85500000D03*
X144200000Y-80700000D03*
X105800000Y-81000000D03*
X153000000Y-81100000D03*
X151340000Y-79220000D03*
X105700000Y-83600000D03*
X106100000Y-82700000D03*
X149825000Y-78050000D03*
X109900000Y-84500000D03*
X147845000Y-78800000D03*
X153400000Y-59200000D03*
X148553500Y-68375000D03*
X152000000Y-59200000D03*
X148653500Y-67075000D03*
X156953500Y-76175000D03*
X154453500Y-67175000D03*
X147953500Y-72275000D03*
X103300000Y-81500000D03*
X104800000Y-66700000D03*
X151200000Y-73000000D03*
X110900000Y-80200000D03*
X145500000Y-72200000D03*
X109900000Y-80200000D03*
X111800000Y-80200000D03*
X145600000Y-73700000D03*
X105600000Y-86700000D03*
X148500000Y-92300000D03*
X149400000Y-89300000D03*
X105800000Y-84700000D03*
X106400000Y-88700000D03*
X150300000Y-92300000D03*
X103700000Y-61000000D03*
X109030100Y-78000000D03*
X101667730Y-79667730D03*
X99660570Y-73525110D03*
X103269900Y-73900000D03*
X102330100Y-73900000D03*
X109969900Y-78000000D03*
X102332270Y-80332270D03*
X100325110Y-72860570D03*
X83700000Y-83100000D03*
X102519152Y-78519152D03*
X80400000Y-83100000D03*
X80400000Y-81500000D03*
X100200000Y-76882100D03*
X84300000Y-77000000D03*
X105600000Y-77500000D03*
X106600000Y-71400000D03*
X106800000Y-77400000D03*
D21*
X105700000Y-81900000D02*
X105926157Y-81900000D01*
X119600000Y-81100000D02*
X128500000Y-81100000D01*
X106726157Y-81100000D02*
X119600000Y-81100000D01*
X105926157Y-81900000D02*
X106726157Y-81100000D01*
X145300000Y-74500000D02*
X145500000Y-74700000D01*
X128500000Y-81100000D02*
X135100000Y-74500000D01*
X135100000Y-74500000D02*
X145300000Y-74500000D01*
X139491843Y-85700000D02*
X110000000Y-85700000D01*
X110000000Y-85700000D02*
X109800000Y-85500000D01*
X144200000Y-80991843D02*
X139491843Y-85700000D01*
X144200000Y-80700000D02*
X144200000Y-80991843D01*
X149475000Y-77700000D02*
X149825000Y-78050000D01*
X145900000Y-77700000D02*
X149475000Y-77700000D01*
X134292900Y-76907100D02*
X145107100Y-76907100D01*
X128482100Y-82717900D02*
X134292900Y-76907100D01*
X145107100Y-76907100D02*
X145900000Y-77700000D01*
X106117900Y-82717900D02*
X128482100Y-82717900D01*
X106100000Y-82700000D02*
X106117900Y-82717900D01*
X135862900Y-84437100D02*
X139837100Y-80462900D01*
X109962900Y-84437100D02*
X135862900Y-84437100D01*
X145071843Y-78800000D02*
X147845000Y-78800000D01*
X139837100Y-80462900D02*
X143408943Y-80462900D01*
X143408943Y-80462900D02*
X145071843Y-78800000D01*
X109900000Y-84500000D02*
X109962900Y-84437100D01*
D22*
X102039527Y-79667730D02*
X101667730Y-79667730D01*
X102514257Y-79193000D02*
X102039527Y-79667730D01*
X109030100Y-78000000D02*
X109030100Y-78354315D01*
X108191415Y-79193000D02*
X102514257Y-79193000D01*
X109030100Y-78354315D02*
X108191415Y-79193000D01*
X93397411Y-69150000D02*
X93597411Y-69150000D01*
X97601006Y-71307000D02*
X97814256Y-71307000D01*
X96397411Y-71307000D02*
X96597411Y-71307000D01*
X93790411Y-69343000D02*
X93790411Y-70700000D01*
X93790411Y-70700000D02*
X93790411Y-72007000D01*
X95204411Y-71307000D02*
X95204411Y-69343000D01*
X97814256Y-71307000D02*
X99253628Y-72746372D01*
X91297000Y-73410000D02*
X91297000Y-71965485D01*
X99660570Y-73153313D02*
X99660570Y-73525110D01*
X95790411Y-69343000D02*
X95790411Y-70700000D01*
X95204411Y-72007000D02*
X95204411Y-71307000D01*
X91297000Y-71965485D02*
X91955485Y-71307000D01*
X99253629Y-72746372D02*
X99660570Y-73153313D01*
X99253628Y-72746372D02*
X99253629Y-72746372D01*
X95397411Y-69150000D02*
X95597411Y-69150000D01*
X91955485Y-71307000D02*
X92597411Y-71307000D01*
X94397411Y-72614000D02*
X94597411Y-72614000D01*
X96597411Y-71307000D02*
X97601006Y-71307000D01*
X93204411Y-70700000D02*
X93204411Y-69343000D01*
X95790411Y-70700000D02*
G75*
G03*
X96397411Y-71306989I606989J0D01*
G01*
X94597411Y-72614000D02*
G75*
G03*
X95204400Y-72007000I-11J607000D01*
G01*
X92597411Y-71307000D02*
G75*
G03*
X93204400Y-70700000I-11J607000D01*
G01*
X93790411Y-72007000D02*
G75*
G03*
X94397411Y-72613989I606989J0D01*
G01*
X93204411Y-69343000D02*
G75*
G02*
X93397411Y-69150011I192989J0D01*
G01*
X95204411Y-69343000D02*
G75*
G02*
X95397411Y-69150011I192989J0D01*
G01*
X95597411Y-69150000D02*
G75*
G02*
X95790400Y-69343000I-11J-193000D01*
G01*
X93597411Y-69150000D02*
G75*
G02*
X93790400Y-69343000I-11J-193000D01*
G01*
X94938985Y-82164000D02*
X95138985Y-82164000D01*
X97466810Y-80607000D02*
X99585744Y-80607000D01*
X93938985Y-79050000D02*
X94138985Y-79050000D01*
X95745985Y-81557000D02*
X95745985Y-80800000D01*
X99585744Y-80607000D02*
X103007001Y-77185743D01*
X95938985Y-80607000D02*
X96138985Y-80607000D01*
X103007001Y-74162899D02*
X103269900Y-73900000D01*
X103007001Y-77185743D02*
X103007001Y-74162899D01*
X92967500Y-80607000D02*
X93138985Y-80607000D01*
X94331985Y-79243000D02*
X94331985Y-80000000D01*
X96138985Y-80607000D02*
X97466810Y-80607000D01*
X93745985Y-80000000D02*
X93745985Y-79243000D01*
X88310500Y-75950000D02*
X91503830Y-79143330D01*
X91503830Y-79143330D02*
X92967500Y-80607000D01*
X94331985Y-80000000D02*
X94331985Y-81557000D01*
X95745985Y-80800000D02*
G75*
G02*
X95938985Y-80606985I193015J0D01*
G01*
X94138985Y-79050000D02*
G75*
G02*
X94332000Y-79243000I15J-193000D01*
G01*
X93138985Y-80607000D02*
G75*
G03*
X93746000Y-80000000I15J607000D01*
G01*
X95138985Y-82164000D02*
G75*
G03*
X95746000Y-81557000I15J607000D01*
G01*
X94331985Y-81557000D02*
G75*
G03*
X94938985Y-82164015I607015J0D01*
G01*
X93745985Y-79243000D02*
G75*
G02*
X93938985Y-79049985I193015J0D01*
G01*
X90340500Y-75950000D02*
X90340500Y-77394515D01*
X101526482Y-78080775D02*
X101780277Y-77826979D01*
X96138985Y-80193000D02*
X97466810Y-80193000D01*
X99414256Y-80193000D02*
X100677952Y-78929304D01*
X101441629Y-78165631D02*
X101526482Y-78080775D01*
X90340500Y-77394515D02*
X91796572Y-78850587D01*
X94745985Y-80000000D02*
X94745985Y-81557000D01*
X102592999Y-74162899D02*
X102330100Y-73900000D01*
X95331985Y-81557000D02*
X95331985Y-80800000D01*
X100677953Y-78589892D02*
X100451679Y-78363618D01*
X101780277Y-77826979D02*
X102592999Y-77014257D01*
X91796572Y-78850587D02*
X93138985Y-80193000D01*
X95938985Y-80193000D02*
X96138985Y-80193000D01*
X94745985Y-79243000D02*
X94745985Y-80000000D01*
X94938985Y-81750000D02*
X95138985Y-81750000D01*
X100875944Y-77939355D02*
X101102219Y-78165630D01*
X97466810Y-80193000D02*
X99414256Y-80193000D01*
X100451678Y-78024208D02*
X100536532Y-77939355D01*
X102592999Y-77014257D02*
X102592999Y-74162899D01*
X93331985Y-80000000D02*
X93331985Y-79243000D01*
X93938985Y-78636000D02*
X94138985Y-78636000D01*
X100677952Y-78929304D02*
G75*
G03*
X100677950Y-78589894I-169752J169704D01*
G01*
X94138985Y-78636000D02*
G75*
G02*
X94746000Y-79243000I15J-607000D01*
G01*
X100536532Y-77939355D02*
G75*
G02*
X100875944Y-77939355I169706J-169708D01*
G01*
X93331985Y-79243000D02*
G75*
G02*
X93938985Y-78635985I607015J0D01*
G01*
X95331985Y-80800000D02*
G75*
G02*
X95938985Y-80192985I607015J0D01*
G01*
X100451679Y-78363618D02*
G75*
G02*
X100451665Y-78024196I169721J169718D01*
G01*
X94745985Y-81557000D02*
G75*
G03*
X94938985Y-81750015I193015J0D01*
G01*
X95138985Y-81750000D02*
G75*
G03*
X95332000Y-81557000I15J193000D01*
G01*
X93138985Y-80193000D02*
G75*
G03*
X93332000Y-80000000I15J193000D01*
G01*
X101102219Y-78165630D02*
G75*
G03*
X101441605Y-78165607I169681J169730D01*
G01*
X102332270Y-79960473D02*
X102332270Y-80332270D01*
X108362900Y-79607000D02*
X102685743Y-79607000D01*
X109969900Y-78000000D02*
X108362900Y-79607000D01*
X102685743Y-79607000D02*
X102332270Y-79960473D01*
X94204411Y-69343000D02*
X94204411Y-70700000D01*
X93397411Y-68736000D02*
X93597411Y-68736000D01*
X96397411Y-70893000D02*
X96597411Y-70893000D01*
X91784000Y-70893000D02*
X92597411Y-70893000D01*
X94204411Y-70700000D02*
X94204411Y-72007000D01*
X95397411Y-68736000D02*
X95597411Y-68736000D01*
X89267000Y-73410000D02*
X91784000Y-70893000D01*
X94790411Y-72007000D02*
X94790411Y-71307000D01*
X96204411Y-69343000D02*
X96204411Y-70700000D01*
X92790411Y-70700000D02*
X92790411Y-69343000D01*
X97601006Y-70893000D02*
X97985744Y-70893000D01*
X94397411Y-72200000D02*
X94597411Y-72200000D01*
X96597411Y-70893000D02*
X97601006Y-70893000D01*
X99546372Y-72453629D02*
X99953313Y-72860570D01*
X99953313Y-72860570D02*
X100325110Y-72860570D01*
X97985744Y-70893000D02*
X99546372Y-72453628D01*
X94790411Y-71307000D02*
X94790411Y-69343000D01*
X99546372Y-72453628D02*
X99546372Y-72453629D01*
X96204411Y-70700000D02*
G75*
G03*
X96397411Y-70892989I192989J0D01*
G01*
X93597411Y-68736000D02*
G75*
G02*
X94204400Y-69343000I-11J-607000D01*
G01*
X94790411Y-69343000D02*
G75*
G02*
X95397411Y-68736011I606989J0D01*
G01*
X92597411Y-70893000D02*
G75*
G03*
X92790400Y-70700000I-11J193000D01*
G01*
X95597411Y-68736000D02*
G75*
G02*
X96204400Y-69343000I-11J-607000D01*
G01*
X92790411Y-69343000D02*
G75*
G02*
X93397411Y-68736011I606989J0D01*
G01*
X94597411Y-72200000D02*
G75*
G03*
X94790400Y-72007000I-11J193000D01*
G01*
X94204411Y-72007000D02*
G75*
G03*
X94397411Y-72199989I192989J0D01*
G01*
M02*
