G04 #@! TF.GenerationSoftware,KiCad,Pcbnew,8.0.8*
G04 #@! TF.CreationDate,2025-07-30T13:33:19+02:00*
G04 #@! TF.ProjectId,overlord,6f766572-6c6f-4726-942e-6b696361645f,rev?*
G04 #@! TF.SameCoordinates,Original*
G04 #@! TF.FileFunction,Soldermask,Bot*
G04 #@! TF.FilePolarity,Negative*
%FSLAX46Y46*%
G04 Gerber Fmt 4.6, Leading zero omitted, Abs format (unit mm)*
G04 Created by KiCad (PCBNEW 8.0.8) date 2025-07-30 13:33:19*
%MOMM*%
%LPD*%
G01*
G04 APERTURE LIST*
%ADD10C,6.100000*%
%ADD11C,4.000000*%
%ADD12R,1.200000X1.200000*%
%ADD13C,1.200000*%
%ADD14C,1.397000*%
%ADD15C,3.759200*%
%ADD16C,2.082800*%
%ADD17C,0.800000*%
%ADD18C,5.400000*%
%ADD19C,1.431000*%
%ADD20C,2.025000*%
G04 APERTURE END LIST*
D10*
X106640000Y-57500000D03*
X106640000Y-105500000D03*
X139640000Y-57500000D03*
X139640000Y-105500000D03*
D11*
X160900000Y-56420000D03*
X160900000Y-61500000D03*
D12*
X157000000Y-84000000D03*
D13*
X159500000Y-84000000D03*
X162000000Y-84000000D03*
D14*
X87237000Y-73410000D03*
X89267000Y-73410000D03*
X91297000Y-73410000D03*
X93327000Y-73410000D03*
X95357000Y-73410000D03*
X97387000Y-73410000D03*
X86280500Y-75950000D03*
X88310500Y-75950000D03*
X90340500Y-75950000D03*
X94410500Y-75950000D03*
X96440500Y-75950000D03*
X98470500Y-75950000D03*
X86280500Y-78490000D03*
X88820500Y-78490000D03*
X95930508Y-78490000D03*
X98470508Y-78490000D03*
X86724000Y-66300000D03*
X97900000Y-66300000D03*
X86724000Y-64830000D03*
X97900000Y-64830000D03*
D15*
X98662000Y-58170000D03*
X85962000Y-58170000D03*
D16*
X100377000Y-54990000D03*
X84247000Y-54990000D03*
D12*
X157000000Y-90000000D03*
D13*
X159500000Y-90000000D03*
X162000000Y-90000000D03*
D17*
X144975000Y-104000000D03*
X145568109Y-102568109D03*
X145568109Y-105431891D03*
X147000000Y-101975000D03*
D18*
X147000000Y-104000000D03*
D17*
X147000000Y-106025000D03*
X148431891Y-102568109D03*
X148431891Y-105431891D03*
X149025000Y-104000000D03*
D11*
X83673000Y-101225000D03*
X83673000Y-106305000D03*
D17*
X144975000Y-59000000D03*
X145568109Y-57568109D03*
X145568109Y-60431891D03*
X147000000Y-56975000D03*
D18*
X147000000Y-59000000D03*
D17*
X147000000Y-61025000D03*
X148431891Y-57568109D03*
X148431891Y-60431891D03*
X149025000Y-59000000D03*
D11*
X161000000Y-101260000D03*
X161000000Y-106340000D03*
D19*
X75300000Y-60204000D03*
X75300000Y-62204000D03*
X75300000Y-64204000D03*
X75300000Y-66204000D03*
D20*
X78020000Y-66474000D03*
X78020000Y-59474000D03*
X72580000Y-66474000D03*
X72580000Y-59474000D03*
D17*
X73975000Y-81500000D03*
X74568109Y-80068109D03*
X74568109Y-82931891D03*
X76000000Y-79475000D03*
D18*
X76000000Y-81500000D03*
D17*
X76000000Y-83525000D03*
X77431891Y-80068109D03*
X77431891Y-82931891D03*
X78025000Y-81500000D03*
D12*
X157000000Y-96000000D03*
D13*
X159500000Y-96000000D03*
X162000000Y-96000000D03*
M02*
