G04 #@! TF.GenerationSoftware,KiCad,Pcbnew,8.0.8*
G04 #@! TF.CreationDate,2025-07-30T13:33:19+02:00*
G04 #@! TF.ProjectId,overlord,6f766572-6c6f-4726-942e-6b696361645f,rev?*
G04 #@! TF.SameCoordinates,Original*
G04 #@! TF.FileFunction,Soldermask,Top*
G04 #@! TF.FilePolarity,Negative*
%FSLAX46Y46*%
G04 Gerber Fmt 4.6, Leading zero omitted, Abs format (unit mm)*
G04 Created by KiCad (PCBNEW 8.0.8) date 2025-07-30 13:33:19*
%MOMM*%
%LPD*%
G01*
G04 APERTURE LIST*
G04 Aperture macros list*
%AMRoundRect*
0 Rectangle with rounded corners*
0 $1 Rounding radius*
0 $2 $3 $4 $5 $6 $7 $8 $9 X,Y pos of 4 corners*
0 Add a 4 corners polygon primitive as box body*
4,1,4,$2,$3,$4,$5,$6,$7,$8,$9,$2,$3,0*
0 Add four circle primitives for the rounded corners*
1,1,$1+$1,$2,$3*
1,1,$1+$1,$4,$5*
1,1,$1+$1,$6,$7*
1,1,$1+$1,$8,$9*
0 Add four rect primitives between the rounded corners*
20,1,$1+$1,$2,$3,$4,$5,0*
20,1,$1+$1,$4,$5,$6,$7,0*
20,1,$1+$1,$6,$7,$8,$9,0*
20,1,$1+$1,$8,$9,$2,$3,0*%
%AMFreePoly0*
4,1,9,0.127000,-0.126998,0.635000,-0.126998,0.635000,-0.380998,0.127000,-0.380999,0.127000,-0.381000,-0.127000,-0.381000,-0.127000,0.381000,0.127000,0.381000,0.127000,-0.126998,0.127000,-0.126998,$1*%
%AMFreePoly1*
4,1,9,0.127000,-0.381000,-0.127000,-0.381000,-0.127000,-0.380999,-0.635000,-0.380998,-0.635000,-0.126998,-0.127000,-0.126998,-0.127000,0.381000,0.127000,0.381000,0.127000,-0.381000,0.127000,-0.381000,$1*%
%AMFreePoly2*
4,1,9,0.127000,-0.381000,-0.127000,-0.381000,-0.127000,0.126998,-0.635000,0.126998,-0.635000,0.380998,-0.127000,0.380999,-0.127000,0.381000,0.127000,0.381000,0.127000,-0.381000,0.127000,-0.381000,$1*%
%AMFreePoly3*
4,1,9,0.127000,0.380999,0.635000,0.380998,0.635000,0.126998,0.127000,0.126998,0.127000,-0.381000,-0.127000,-0.381000,-0.127000,0.381000,0.127000,0.381000,0.127000,0.380999,0.127000,0.380999,$1*%
G04 Aperture macros list end*
%ADD10C,6.100000*%
%ADD11R,0.700000X0.200000*%
%ADD12RoundRect,0.135000X-0.135000X-0.185000X0.135000X-0.185000X0.135000X0.185000X-0.135000X0.185000X0*%
%ADD13C,3.000000*%
%ADD14R,1.475000X0.450000*%
%ADD15C,4.000000*%
%ADD16RoundRect,0.250000X0.325000X1.100000X-0.325000X1.100000X-0.325000X-1.100000X0.325000X-1.100000X0*%
%ADD17R,1.200000X1.200000*%
%ADD18C,1.200000*%
%ADD19C,1.397000*%
%ADD20C,3.759200*%
%ADD21C,2.082800*%
%ADD22RoundRect,0.135000X-0.185000X0.135000X-0.185000X-0.135000X0.185000X-0.135000X0.185000X0.135000X0*%
%ADD23RoundRect,0.225000X0.225000X0.250000X-0.225000X0.250000X-0.225000X-0.250000X0.225000X-0.250000X0*%
%ADD24RoundRect,0.225000X-0.225000X-0.250000X0.225000X-0.250000X0.225000X0.250000X-0.225000X0.250000X0*%
%ADD25RoundRect,0.140000X-0.170000X0.140000X-0.170000X-0.140000X0.170000X-0.140000X0.170000X0.140000X0*%
%ADD26R,2.000000X5.500000*%
%ADD27C,0.800000*%
%ADD28C,5.400000*%
%ADD29R,0.675000X0.254000*%
%ADD30R,0.254000X0.675000*%
%ADD31RoundRect,0.075000X0.350000X0.075000X-0.350000X0.075000X-0.350000X-0.075000X0.350000X-0.075000X0*%
%ADD32R,1.600000X2.400000*%
%ADD33C,1.431000*%
%ADD34C,2.025000*%
%ADD35RoundRect,0.140000X0.140000X0.170000X-0.140000X0.170000X-0.140000X-0.170000X0.140000X-0.170000X0*%
%ADD36RoundRect,0.245000X-0.245000X-1.455000X0.245000X-1.455000X0.245000X1.455000X-0.245000X1.455000X0*%
%ADD37RoundRect,0.135000X0.185000X-0.135000X0.185000X0.135000X-0.185000X0.135000X-0.185000X-0.135000X0*%
%ADD38RoundRect,0.225000X0.250000X-0.225000X0.250000X0.225000X-0.250000X0.225000X-0.250000X-0.225000X0*%
%ADD39RoundRect,0.140000X-0.140000X-0.170000X0.140000X-0.170000X0.140000X0.170000X-0.140000X0.170000X0*%
%ADD40RoundRect,0.250000X-2.125000X0.275000X-2.125000X-0.275000X2.125000X-0.275000X2.125000X0.275000X0*%
%ADD41RoundRect,0.250000X-0.325000X-0.650000X0.325000X-0.650000X0.325000X0.650000X-0.325000X0.650000X0*%
%ADD42RoundRect,0.140000X0.170000X-0.140000X0.170000X0.140000X-0.170000X0.140000X-0.170000X-0.140000X0*%
%ADD43RoundRect,0.250000X-0.375000X-0.625000X0.375000X-0.625000X0.375000X0.625000X-0.375000X0.625000X0*%
%ADD44RoundRect,0.225000X-0.250000X0.225000X-0.250000X-0.225000X0.250000X-0.225000X0.250000X0.225000X0*%
%ADD45R,0.450000X1.475000*%
%ADD46R,0.850000X0.300000*%
%ADD47R,1.549400X0.660400*%
%ADD48R,1.905000X1.295400*%
%ADD49FreePoly0,90.000000*%
%ADD50R,0.762000X0.254000*%
%ADD51FreePoly1,90.000000*%
%ADD52R,0.254000X0.762000*%
%ADD53FreePoly2,90.000000*%
%ADD54FreePoly3,90.000000*%
%ADD55R,1.701800X2.209800*%
G04 APERTURE END LIST*
D10*
X106640000Y-57500000D03*
X106640000Y-105500000D03*
X139640000Y-57500000D03*
X139640000Y-105500000D03*
D11*
X104600000Y-74200000D03*
X107680000Y-74200000D03*
X104600000Y-74600000D03*
X107680000Y-74600000D03*
X104600000Y-75000000D03*
X107680000Y-75000000D03*
X104600000Y-75400000D03*
X107680000Y-75400000D03*
X104600000Y-75800000D03*
X107680000Y-75800000D03*
X104600000Y-76200000D03*
X107680000Y-76200000D03*
X104600000Y-76600000D03*
X107680000Y-76600000D03*
X104600000Y-77000000D03*
X107680000Y-77000000D03*
X104600000Y-77400000D03*
X107680000Y-77400000D03*
X104600000Y-77800000D03*
X107680000Y-77800000D03*
X104600000Y-78200000D03*
X107680000Y-78200000D03*
X104600000Y-78600000D03*
X107680000Y-78600000D03*
X104600000Y-79000000D03*
X107680000Y-79000000D03*
X104600000Y-79400000D03*
X107680000Y-79400000D03*
X104600000Y-79800000D03*
X107680000Y-79800000D03*
X104600000Y-80200000D03*
X107680000Y-80200000D03*
X104600000Y-80600000D03*
X107680000Y-80600000D03*
X104600000Y-81000000D03*
X107680000Y-81000000D03*
X104600000Y-81400000D03*
X107680000Y-81400000D03*
X104600000Y-81800000D03*
X107680000Y-81800000D03*
X104600000Y-82200000D03*
X107680000Y-82200000D03*
X104600000Y-82600000D03*
X107680000Y-82600000D03*
X104600000Y-83000000D03*
X107680000Y-83000000D03*
X104600000Y-83400000D03*
X107680000Y-83400000D03*
X104600000Y-83800000D03*
X107680000Y-83800000D03*
X104600000Y-84200000D03*
X107680000Y-84200000D03*
X104600000Y-84600000D03*
X107680000Y-84600000D03*
X104600000Y-85000000D03*
X107680000Y-85000000D03*
X104600000Y-85400000D03*
X107680000Y-85400000D03*
X104600000Y-85800000D03*
X107680000Y-85800000D03*
X104600000Y-86200000D03*
X107680000Y-86200000D03*
X104600000Y-86600000D03*
X107680000Y-86600000D03*
X104600000Y-87000000D03*
X107680000Y-87000000D03*
X104600000Y-87400000D03*
X107680000Y-87400000D03*
X104600000Y-87800000D03*
X107680000Y-87800000D03*
X104600000Y-88200000D03*
X107680000Y-88200000D03*
X104600000Y-88600000D03*
X107680000Y-88600000D03*
X104600000Y-89000000D03*
X107680000Y-89000000D03*
X104600000Y-89400000D03*
X107680000Y-89400000D03*
X104600000Y-89800000D03*
X107680000Y-89800000D03*
X104600000Y-90200000D03*
X107680000Y-90200000D03*
X104600000Y-90600000D03*
X107680000Y-90600000D03*
X104600000Y-91000000D03*
X107680000Y-91000000D03*
X104600000Y-91400000D03*
X107680000Y-91400000D03*
X104600000Y-91800000D03*
X107680000Y-91800000D03*
X104600000Y-92200000D03*
X107680000Y-92200000D03*
X104600000Y-92600000D03*
X107680000Y-92600000D03*
X104600000Y-93000000D03*
X107680000Y-93000000D03*
X104600000Y-93400000D03*
X107680000Y-93400000D03*
X104600000Y-93800000D03*
X107680000Y-93800000D03*
X138600000Y-74200000D03*
X141680000Y-74200000D03*
X138600000Y-74600000D03*
X141680000Y-74600000D03*
X138600000Y-75000000D03*
X141680000Y-75000000D03*
X138600000Y-75400000D03*
X141680000Y-75400000D03*
X138600000Y-75800000D03*
X141680000Y-75800000D03*
X138600000Y-76200000D03*
X141680000Y-76200000D03*
X138600000Y-76600000D03*
X141680000Y-76600000D03*
X138600000Y-77000000D03*
X141680000Y-77000000D03*
X138600000Y-77400000D03*
X141680000Y-77400000D03*
X138600000Y-77800000D03*
X141680000Y-77800000D03*
X138600000Y-78200000D03*
X141680000Y-78200000D03*
X138600000Y-78600000D03*
X141680000Y-78600000D03*
X138600000Y-79000000D03*
X141680000Y-79000000D03*
X138600000Y-79400000D03*
X141680000Y-79400000D03*
X138600000Y-79800000D03*
X141680000Y-79800000D03*
X138600000Y-80200000D03*
X141680000Y-80200000D03*
X138600000Y-80600000D03*
X141680000Y-80600000D03*
X138600000Y-81000000D03*
X141680000Y-81000000D03*
X138600000Y-81400000D03*
X141680000Y-81400000D03*
X138600000Y-81800000D03*
X141680000Y-81800000D03*
X138600000Y-82200000D03*
X141680000Y-82200000D03*
X138600000Y-82600000D03*
X141680000Y-82600000D03*
X138600000Y-83000000D03*
X141680000Y-83000000D03*
X138600000Y-83400000D03*
X141680000Y-83400000D03*
X138600000Y-83800000D03*
X141680000Y-83800000D03*
X138600000Y-84200000D03*
X141680000Y-84200000D03*
X138600000Y-84600000D03*
X141680000Y-84600000D03*
X138600000Y-85000000D03*
X141680000Y-85000000D03*
X138600000Y-85400000D03*
X141680000Y-85400000D03*
X138600000Y-85800000D03*
X141680000Y-85800000D03*
X138600000Y-86200000D03*
X141680000Y-86200000D03*
X138600000Y-86600000D03*
X141680000Y-86600000D03*
X138600000Y-87000000D03*
X141680000Y-87000000D03*
X138600000Y-87400000D03*
X141680000Y-87400000D03*
X138600000Y-87800000D03*
X141680000Y-87800000D03*
X138600000Y-88200000D03*
X141680000Y-88200000D03*
X138600000Y-88600000D03*
X141680000Y-88600000D03*
X138600000Y-89000000D03*
X141680000Y-89000000D03*
X138600000Y-89400000D03*
X141680000Y-89400000D03*
X138600000Y-89800000D03*
X141680000Y-89800000D03*
X138600000Y-90200000D03*
X141680000Y-90200000D03*
X138600000Y-90600000D03*
X141680000Y-90600000D03*
X138600000Y-91000000D03*
X141680000Y-91000000D03*
X138600000Y-91400000D03*
X141680000Y-91400000D03*
X138600000Y-91800000D03*
X141680000Y-91800000D03*
X138600000Y-92200000D03*
X141680000Y-92200000D03*
X138600000Y-92600000D03*
X141680000Y-92600000D03*
X138600000Y-93000000D03*
X141680000Y-93000000D03*
X138600000Y-93400000D03*
X141680000Y-93400000D03*
X138600000Y-93800000D03*
X141680000Y-93800000D03*
D12*
X81680000Y-81500000D03*
X82700000Y-81500000D03*
D13*
X156000000Y-79000000D03*
D14*
X155491500Y-76800000D03*
X155491500Y-76150000D03*
X155491500Y-75500000D03*
X155491500Y-74850000D03*
X155491500Y-74200000D03*
X155491500Y-73550000D03*
X155491500Y-72900000D03*
X155491500Y-72250000D03*
X155491500Y-71600000D03*
X155491500Y-70950000D03*
X149615500Y-70950000D03*
X149615500Y-71600000D03*
X149615500Y-72250000D03*
X149615500Y-72900000D03*
X149615500Y-73550000D03*
X149615500Y-74200000D03*
X149615500Y-74850000D03*
X149615500Y-75500000D03*
X149615500Y-76150000D03*
X149615500Y-76800000D03*
D15*
X160900000Y-56420000D03*
X160900000Y-61500000D03*
D12*
X145935000Y-78800000D03*
X146955000Y-78800000D03*
D16*
X98123000Y-100415000D03*
X95173000Y-100415000D03*
D17*
X157000000Y-84000000D03*
D18*
X159500000Y-84000000D03*
X162000000Y-84000000D03*
D19*
X87237000Y-73410000D03*
X89267000Y-73410000D03*
X91297000Y-73410000D03*
X93327000Y-73410000D03*
X95357000Y-73410000D03*
X97387000Y-73410000D03*
X86280500Y-75950000D03*
X88310500Y-75950000D03*
X90340500Y-75950000D03*
X94410500Y-75950000D03*
X96440500Y-75950000D03*
X98470500Y-75950000D03*
X86280500Y-78490000D03*
X88820500Y-78490000D03*
X95930508Y-78490000D03*
X98470508Y-78490000D03*
X86724000Y-66300000D03*
X97900000Y-66300000D03*
X86724000Y-64830000D03*
X97900000Y-64830000D03*
D20*
X98662000Y-58170000D03*
X85962000Y-58170000D03*
D21*
X100377000Y-54990000D03*
X84247000Y-54990000D03*
D22*
X151916586Y-95951786D03*
X151916586Y-96971786D03*
D23*
X82475000Y-75600000D03*
X80925000Y-75600000D03*
D24*
X151624186Y-93820186D03*
X153174186Y-93820186D03*
D22*
X151900000Y-80080000D03*
X151900000Y-81100000D03*
D25*
X158200000Y-70320000D03*
X158200000Y-71280000D03*
D12*
X81690000Y-83100000D03*
X82710000Y-83100000D03*
D17*
X157000000Y-90000000D03*
D18*
X159500000Y-90000000D03*
X162000000Y-90000000D03*
D26*
X162012500Y-67050000D03*
X162012500Y-76550000D03*
D27*
X144975000Y-104000000D03*
X145568109Y-102568109D03*
X145568109Y-105431891D03*
X147000000Y-101975000D03*
D28*
X147000000Y-104000000D03*
D27*
X147000000Y-106025000D03*
X148431891Y-102568109D03*
X148431891Y-105431891D03*
X149025000Y-104000000D03*
D29*
X147005000Y-85000000D03*
D30*
X147917500Y-85137500D03*
X148417500Y-85137500D03*
X148917500Y-85137500D03*
X149417500Y-85137500D03*
D29*
X150330000Y-85000000D03*
X150330000Y-84500000D03*
X150330000Y-84000000D03*
X150330000Y-83500000D03*
X150330000Y-83000000D03*
X150330000Y-82500000D03*
X150330000Y-82000000D03*
X150330000Y-81500000D03*
X150330000Y-81000000D03*
X150330000Y-80500000D03*
D30*
X149417500Y-80362500D03*
X148917500Y-80362500D03*
X148417500Y-80362500D03*
X147917500Y-80362500D03*
D29*
X147005000Y-80500000D03*
X147005000Y-81000000D03*
X147005000Y-81500000D03*
X147005000Y-82000000D03*
X147005000Y-82500000D03*
X147005000Y-83000000D03*
X147005000Y-83500000D03*
X147005000Y-84000000D03*
X147005000Y-84500000D03*
D23*
X86173000Y-91915000D03*
X84623000Y-91915000D03*
D15*
X83673000Y-101225000D03*
X83673000Y-106305000D03*
D31*
X152953500Y-69125000D03*
X152953500Y-68475000D03*
X152953500Y-67825000D03*
X152953500Y-67175000D03*
X150053500Y-67175000D03*
X150053500Y-67825000D03*
X150053500Y-68475000D03*
X150053500Y-69125000D03*
D32*
X151503500Y-68150000D03*
D27*
X144975000Y-59000000D03*
X145568109Y-57568109D03*
X145568109Y-60431891D03*
X147000000Y-56975000D03*
D28*
X147000000Y-59000000D03*
D27*
X147000000Y-61025000D03*
X148431891Y-57568109D03*
X148431891Y-60431891D03*
X149025000Y-59000000D03*
D13*
X70400000Y-104300000D03*
D25*
X86673000Y-89135000D03*
X86673000Y-90095000D03*
D15*
X161000000Y-101260000D03*
X161000000Y-106340000D03*
D23*
X82475000Y-78500000D03*
X80925000Y-78500000D03*
D33*
X75300000Y-60204000D03*
X75300000Y-62204000D03*
X75300000Y-64204000D03*
X75300000Y-66204000D03*
D34*
X78020000Y-66474000D03*
X78020000Y-59474000D03*
X72580000Y-66474000D03*
X72580000Y-59474000D03*
D35*
X147725000Y-87700000D03*
X146765000Y-87700000D03*
D36*
X94488000Y-91915000D03*
X96858000Y-91915000D03*
D37*
X146900000Y-77210000D03*
X146900000Y-76190000D03*
D38*
X102100000Y-60575000D03*
X102100000Y-59025000D03*
D39*
X90713000Y-95415000D03*
X91673000Y-95415000D03*
D40*
X153500000Y-57750000D03*
X153500000Y-60700000D03*
D41*
X88688000Y-85915000D03*
X91638000Y-85915000D03*
D38*
X152322986Y-91521786D03*
X152322986Y-89971786D03*
D42*
X151910000Y-83530000D03*
X151910000Y-82570000D03*
D13*
X140000000Y-65000000D03*
D43*
X95673000Y-104615000D03*
X98473000Y-104615000D03*
D22*
X144400000Y-78790000D03*
X144400000Y-79810000D03*
D16*
X98073000Y-83415000D03*
X95123000Y-83415000D03*
D44*
X102100000Y-66225000D03*
X102100000Y-67775000D03*
D23*
X82375000Y-72500000D03*
X80825000Y-72500000D03*
D45*
X150658386Y-90645586D03*
X150008386Y-90645586D03*
X149358386Y-90645586D03*
X148708386Y-90645586D03*
X148058386Y-90645586D03*
X147408386Y-90645586D03*
X146758386Y-90645586D03*
X146108386Y-90645586D03*
X146108386Y-96521586D03*
X146758386Y-96521586D03*
X147408386Y-96521586D03*
X148058386Y-96521586D03*
X148708386Y-96521586D03*
X149358386Y-96521586D03*
X150008386Y-96521586D03*
X150658386Y-96521586D03*
D46*
X149983386Y-100016586D03*
X149983386Y-99516586D03*
X149983386Y-99016586D03*
X149983386Y-98516586D03*
X146833386Y-98516586D03*
X146833386Y-99016586D03*
X146833386Y-99516586D03*
X146833386Y-100016586D03*
D37*
X86673000Y-94725000D03*
X86673000Y-93705000D03*
D27*
X73975000Y-81500000D03*
X74568109Y-80068109D03*
X74568109Y-82931891D03*
X76000000Y-79475000D03*
D28*
X76000000Y-81500000D03*
D27*
X76000000Y-83525000D03*
X77431891Y-80068109D03*
X77431891Y-82931891D03*
X78025000Y-81500000D03*
D37*
X144880786Y-92069586D03*
X144880786Y-91049586D03*
D42*
X158212500Y-73380000D03*
X158212500Y-72420000D03*
D37*
X100373000Y-103325000D03*
X100373000Y-102305000D03*
D16*
X98098000Y-86915000D03*
X95148000Y-86915000D03*
D47*
X76472201Y-75200000D03*
X76472201Y-74199999D03*
X76472201Y-73200001D03*
X76472201Y-72200000D03*
D48*
X74002201Y-76499999D03*
X74002201Y-70900001D03*
D41*
X88443000Y-97870000D03*
X91393000Y-97870000D03*
D49*
X88772999Y-90414496D03*
D50*
X88772999Y-90914622D03*
X88772999Y-91414748D03*
X88772999Y-91914874D03*
X88772999Y-92415000D03*
X88772999Y-92915126D03*
D51*
X88772999Y-93415252D03*
D52*
X89597811Y-93739874D03*
X90097937Y-93739874D03*
X90598063Y-93739874D03*
X91098189Y-93739874D03*
D53*
X91923001Y-93415252D03*
D50*
X91923001Y-92915126D03*
X91923001Y-92415000D03*
X91923001Y-91914874D03*
X91923001Y-91414748D03*
X91923001Y-90914622D03*
D54*
X91923001Y-90414496D03*
D52*
X91098189Y-90089874D03*
X90598063Y-90089874D03*
X90097937Y-90089874D03*
X89597811Y-90089874D03*
D55*
X90348000Y-91914874D03*
D12*
X149880000Y-87700000D03*
X150900000Y-87700000D03*
D16*
X98123000Y-96915000D03*
X95173000Y-96915000D03*
D17*
X157000000Y-96000000D03*
D18*
X159500000Y-96000000D03*
X162000000Y-96000000D03*
D39*
X90673000Y-88415000D03*
X91633000Y-88415000D03*
M02*
