M48
; DRILL file {KiCad 8.0.8} date 2025-07-30T13:34:06+0200
; FORMAT={-:-/ absolute / metric / decimal}
; #@! TF.CreationDate,2025-07-30T13:34:06+02:00
; #@! TF.GenerationSoftware,Kicad,Pcbnew,8.0.8
; #@! TF.FileFunction,Plated,1,6,PTH
FMAT,2
METRIC
; #@! TA.AperFunction,Plated,PTH,ViaDrill
T1C0.330
; #@! TA.AperFunction,Plated,PTH,ComponentDrill
T2C0.500
; #@! TA.AperFunction,Plated,PTH,ComponentDrill
T3C0.800
; #@! TA.AperFunction,Plated,PTH,ComponentDrill
T4C0.889
; #@! TA.AperFunction,Plated,PTH,ComponentDrill
T5C0.920
; #@! TA.AperFunction,Plated,PTH,ComponentDrill
T6C1.350
; #@! TA.AperFunction,Plated,PTH,ComponentDrill
T7C1.575
; #@! TA.AperFunction,Plated,PTH,ComponentDrill
T8C1.600
; #@! TA.AperFunction,Plated,PTH,ComponentDrill
T9C2.700
; #@! TA.AperFunction,Plated,PTH,ComponentDrill
T10C3.251
%
G90
G05
T1
X78.2Y-73.2
X78.4Y-75.7
X79.4Y-72.6
X79.6Y-75.6
X79.6Y-78.5
X80.4Y-81.5
X80.4Y-83.1
X83.7Y-83.1
X84.3Y-77.0
X84.698Y-89.65
X84.698Y-94.35
X87.368Y-92.59
X87.458Y-91.18
X89.873Y-91.915
X90.348Y-91.165
X90.373Y-92.665
X90.823Y-91.915
X91.573Y-99.715
X91.623Y-100.915
X91.723Y-83.89
X91.748Y-82.54
X92.998Y-95.54
X93.173Y-90.265
X93.173Y-93.265
X93.673Y-82.265
X93.673Y-83.265
X93.673Y-84.265
X93.673Y-85.265
X93.673Y-86.265
X93.673Y-87.265
X93.673Y-88.265
X93.673Y-96.265
X93.673Y-97.265
X93.673Y-98.265
X93.673Y-99.265
X93.673Y-100.265
X93.673Y-101.265
X99.6Y-93.3
X99.623Y-94.965
X99.661Y-73.525
X99.7Y-84.9
X99.8Y-88.6
X100.2Y-76.882
X100.325Y-72.861
X101.668Y-79.668
X102.1Y-57.6
X102.33Y-73.9
X102.332Y-80.332
X102.519Y-78.519
X102.613Y-83.2
X102.633Y-84.595
X102.653Y-85.805
X102.653Y-86.995
X102.673Y-88.19
X102.673Y-92.44
X102.673Y-95.09
X102.673Y-98.44
X102.673Y-101.565
X103.27Y-73.9
X103.3Y-81.5
X103.553Y-80.255
X103.563Y-78.595
X103.7Y-61.0
X103.8Y-68.0
X104.8Y-66.7
X105.6Y-74.6
X105.6Y-77.5
X105.6Y-86.7
X105.7Y-81.9
X105.7Y-83.6
X105.8Y-81.0
X105.8Y-84.7
X106.1Y-82.7
X106.2Y-76.6
X106.363Y-78.225
X106.4Y-88.7
X106.503Y-91.005
X106.6Y-71.4
X106.7Y-82.0
X106.8Y-77.4
X108.7Y-73.6
X108.7Y-84.2
X108.8Y-86.1
X108.9Y-80.2
X109.03Y-78.0
X109.133Y-93.395
X109.4Y-75.1
X109.7Y-87.0
X109.8Y-85.5
X109.9Y-80.2
X109.9Y-84.5
X109.97Y-78.0
X110.9Y-80.2
X111.8Y-80.2
X137.103Y-86.675
X137.203Y-91.015
X137.203Y-92.195
X137.213Y-93.365
X137.223Y-85.055
X137.223Y-88.615
X137.223Y-89.815
X137.233Y-77.775
X137.243Y-81.405
X137.253Y-78.985
X137.293Y-79.925
X139.9Y-75.4
X139.923Y-87.405
X140.053Y-77.525
X140.273Y-82.645
X142.953Y-92.175
X142.963Y-89.805
X142.973Y-87.385
X142.973Y-90.975
X142.983Y-86.235
X142.993Y-83.805
X143.003Y-88.625
X143.003Y-93.425
X143.033Y-81.285
X143.063Y-75.435
X143.133Y-77.825
X143.143Y-78.915
X143.153Y-79.845
X144.2Y-80.7
X144.6Y-77.7
X144.805Y-96.894
X144.855Y-93.058
X145.5Y-72.2
X145.5Y-74.7
X145.6Y-73.7
X145.8Y-100.7
X145.9Y-84.5
X146.725Y-86.5
X147.845Y-78.8
X147.953Y-72.275
X148.0Y-76.9
X148.37Y-86.45
X148.4Y-83.6
X148.5Y-92.3
X148.553Y-68.375
X148.653Y-67.075
X148.7Y-69.9
X148.93Y-79.07
X149.4Y-89.3
X149.825Y-78.05
X150.0Y-94.5
X150.053Y-65.775
X150.3Y-86.2
X150.3Y-92.3
X150.38Y-79.23
X150.951Y-98.037
X151.2Y-73.0
X151.34Y-79.22
X151.5Y-67.4
X151.5Y-68.9
X152.0Y-59.2
X152.89Y-82.51
X152.9Y-80.05
X153.0Y-81.1
X153.263Y-91.229
X153.314Y-90.163
X153.4Y-59.2
X154.453Y-67.175
X154.453Y-68.475
X155.254Y-69.975
X156.1Y-67.8
X156.953Y-76.175
X158.2Y-69.3
X158.2Y-74.4
T2
X73.975Y-81.5
X74.568Y-80.068
X74.568Y-82.932
X76.0Y-79.475
X76.0Y-83.525
X77.432Y-80.068
X77.432Y-82.932
X78.025Y-81.5
X144.975Y-59.0
X144.975Y-104.0
X145.568Y-57.568
X145.568Y-60.432
X145.568Y-102.568
X145.568Y-105.432
X147.0Y-56.975
X147.0Y-61.025
X147.0Y-101.975
X147.0Y-106.025
X148.432Y-57.568
X148.432Y-60.432
X148.432Y-102.568
X148.432Y-105.432
X149.025Y-59.0
X149.025Y-104.0
T3
X157.0Y-84.0
X157.0Y-90.0
X157.0Y-96.0
X159.5Y-84.0
X159.5Y-90.0
X159.5Y-96.0
X162.0Y-84.0
X162.0Y-90.0
X162.0Y-96.0
T4
X86.28Y-75.95
X86.28Y-78.49
X86.724Y-64.83
X86.724Y-66.3
X87.237Y-73.41
X88.31Y-75.95
X88.82Y-78.49
X89.267Y-73.41
X90.34Y-75.95
X91.297Y-73.41
X93.327Y-73.41
X94.41Y-75.95
X95.357Y-73.41
X95.931Y-78.49
X96.441Y-75.95
X97.387Y-73.41
X97.9Y-64.83
X97.9Y-66.3
X98.471Y-75.95
X98.471Y-78.49
T5
X75.3Y-60.204
X75.3Y-62.204
X75.3Y-64.204
X75.3Y-66.204
T6
X72.58Y-59.474
X72.58Y-66.474
X78.02Y-59.474
X78.02Y-66.474
T7
X84.247Y-54.99
X100.377Y-54.99
T8
X83.673Y-101.225
X83.673Y-106.305
X160.9Y-56.42
X160.9Y-61.5
X161.0Y-101.26
X161.0Y-106.34
T9
X76.0Y-81.5
X147.0Y-59.0
X147.0Y-104.0
T10
X85.962Y-58.17
X98.662Y-58.17
M30
