G04 #@! TF.GenerationSoftware,KiCad,Pcbnew,8.0.8*
G04 #@! TF.CreationDate,2025-07-30T13:33:19+02:00*
G04 #@! TF.ProjectId,overlord,6f766572-6c6f-4726-942e-6b696361645f,rev?*
G04 #@! TF.SameCoordinates,Original*
G04 #@! TF.FileFunction,Legend,Top*
G04 #@! TF.FilePolarity,Positive*
%FSLAX46Y46*%
G04 Gerber Fmt 4.6, Leading zero omitted, Abs format (unit mm)*
G04 Created by KiCad (PCBNEW 8.0.8) date 2025-07-30 13:33:19*
%MOMM*%
%LPD*%
G01*
G04 APERTURE LIST*
G04 Aperture macros list*
%AMRoundRect*
0 Rectangle with rounded corners*
0 $1 Rounding radius*
0 $2 $3 $4 $5 $6 $7 $8 $9 X,Y pos of 4 corners*
0 Add a 4 corners polygon primitive as box body*
4,1,4,$2,$3,$4,$5,$6,$7,$8,$9,$2,$3,0*
0 Add four circle primitives for the rounded corners*
1,1,$1+$1,$2,$3*
1,1,$1+$1,$4,$5*
1,1,$1+$1,$6,$7*
1,1,$1+$1,$8,$9*
0 Add four rect primitives between the rounded corners*
20,1,$1+$1,$2,$3,$4,$5,0*
20,1,$1+$1,$4,$5,$6,$7,0*
20,1,$1+$1,$6,$7,$8,$9,0*
20,1,$1+$1,$8,$9,$2,$3,0*%
%AMFreePoly0*
4,1,9,0.127000,-0.126998,0.635000,-0.126998,0.635000,-0.380998,0.127000,-0.380999,0.127000,-0.381000,-0.127000,-0.381000,-0.127000,0.381000,0.127000,0.381000,0.127000,-0.126998,0.127000,-0.126998,$1*%
%AMFreePoly1*
4,1,9,0.127000,-0.381000,-0.127000,-0.381000,-0.127000,-0.380999,-0.635000,-0.380998,-0.635000,-0.126998,-0.127000,-0.126998,-0.127000,0.381000,0.127000,0.381000,0.127000,-0.381000,0.127000,-0.381000,$1*%
%AMFreePoly2*
4,1,9,0.127000,-0.381000,-0.127000,-0.381000,-0.127000,0.126998,-0.635000,0.126998,-0.635000,0.380998,-0.127000,0.380999,-0.127000,0.381000,0.127000,0.381000,0.127000,-0.381000,0.127000,-0.381000,$1*%
%AMFreePoly3*
4,1,9,0.127000,0.380999,0.635000,0.380998,0.635000,0.126998,0.127000,0.126998,0.127000,-0.381000,-0.127000,-0.381000,-0.127000,0.381000,0.127000,0.381000,0.127000,0.380999,0.127000,0.380999,$1*%
G04 Aperture macros list end*
%ADD10C,0.152400*%
%ADD11C,0.150000*%
%ADD12C,0.254000*%
%ADD13C,0.120000*%
%ADD14C,0.200000*%
%ADD15C,0.100000*%
%ADD16C,0.508000*%
%ADD17R,1.200000X1.200000*%
%ADD18C,1.200000*%
%ADD19C,6.100000*%
%ADD20R,0.700000X0.200000*%
%ADD21RoundRect,0.135000X-0.135000X-0.185000X0.135000X-0.185000X0.135000X0.185000X-0.135000X0.185000X0*%
%ADD22C,3.000000*%
%ADD23R,1.475000X0.450000*%
%ADD24C,4.000000*%
%ADD25RoundRect,0.250000X0.325000X1.100000X-0.325000X1.100000X-0.325000X-1.100000X0.325000X-1.100000X0*%
%ADD26C,1.397000*%
%ADD27C,3.759200*%
%ADD28C,2.082800*%
%ADD29RoundRect,0.135000X-0.185000X0.135000X-0.185000X-0.135000X0.185000X-0.135000X0.185000X0.135000X0*%
%ADD30RoundRect,0.225000X0.225000X0.250000X-0.225000X0.250000X-0.225000X-0.250000X0.225000X-0.250000X0*%
%ADD31RoundRect,0.225000X-0.225000X-0.250000X0.225000X-0.250000X0.225000X0.250000X-0.225000X0.250000X0*%
%ADD32RoundRect,0.140000X-0.170000X0.140000X-0.170000X-0.140000X0.170000X-0.140000X0.170000X0.140000X0*%
%ADD33R,2.000000X5.500000*%
%ADD34C,0.800000*%
%ADD35C,5.400000*%
%ADD36R,0.675000X0.254000*%
%ADD37R,0.254000X0.675000*%
%ADD38RoundRect,0.075000X0.350000X0.075000X-0.350000X0.075000X-0.350000X-0.075000X0.350000X-0.075000X0*%
%ADD39R,1.600000X2.400000*%
%ADD40C,1.431000*%
%ADD41C,2.025000*%
%ADD42RoundRect,0.140000X0.140000X0.170000X-0.140000X0.170000X-0.140000X-0.170000X0.140000X-0.170000X0*%
%ADD43RoundRect,0.245000X-0.245000X-1.455000X0.245000X-1.455000X0.245000X1.455000X-0.245000X1.455000X0*%
%ADD44RoundRect,0.135000X0.185000X-0.135000X0.185000X0.135000X-0.185000X0.135000X-0.185000X-0.135000X0*%
%ADD45RoundRect,0.225000X0.250000X-0.225000X0.250000X0.225000X-0.250000X0.225000X-0.250000X-0.225000X0*%
%ADD46RoundRect,0.140000X-0.140000X-0.170000X0.140000X-0.170000X0.140000X0.170000X-0.140000X0.170000X0*%
%ADD47RoundRect,0.250000X-2.125000X0.275000X-2.125000X-0.275000X2.125000X-0.275000X2.125000X0.275000X0*%
%ADD48RoundRect,0.250000X-0.325000X-0.650000X0.325000X-0.650000X0.325000X0.650000X-0.325000X0.650000X0*%
%ADD49RoundRect,0.140000X0.170000X-0.140000X0.170000X0.140000X-0.170000X0.140000X-0.170000X-0.140000X0*%
%ADD50RoundRect,0.250000X-0.375000X-0.625000X0.375000X-0.625000X0.375000X0.625000X-0.375000X0.625000X0*%
%ADD51RoundRect,0.225000X-0.250000X0.225000X-0.250000X-0.225000X0.250000X-0.225000X0.250000X0.225000X0*%
%ADD52R,0.450000X1.475000*%
%ADD53R,0.850000X0.300000*%
%ADD54R,1.549400X0.660400*%
%ADD55R,1.905000X1.295400*%
%ADD56FreePoly0,90.000000*%
%ADD57R,0.762000X0.254000*%
%ADD58FreePoly1,90.000000*%
%ADD59R,0.254000X0.762000*%
%ADD60FreePoly2,90.000000*%
%ADD61FreePoly3,90.000000*%
%ADD62R,1.701800X2.209800*%
G04 APERTURE END LIST*
D10*
X126382514Y-74828838D02*
X126382514Y-75057410D01*
X126382514Y-75057410D02*
X126325371Y-75171695D01*
X126325371Y-75171695D02*
X126211085Y-75285981D01*
X126211085Y-75285981D02*
X125982514Y-75343124D01*
X125982514Y-75343124D02*
X125582514Y-75343124D01*
X125582514Y-75343124D02*
X125353942Y-75285981D01*
X125353942Y-75285981D02*
X125239657Y-75171695D01*
X125239657Y-75171695D02*
X125182514Y-75057410D01*
X125182514Y-75057410D02*
X125182514Y-74828838D01*
X125182514Y-74828838D02*
X125239657Y-74714553D01*
X125239657Y-74714553D02*
X125353942Y-74600267D01*
X125353942Y-74600267D02*
X125582514Y-74543124D01*
X125582514Y-74543124D02*
X125982514Y-74543124D01*
X125982514Y-74543124D02*
X126211085Y-74600267D01*
X126211085Y-74600267D02*
X126325371Y-74714553D01*
X126325371Y-74714553D02*
X126382514Y-74828838D01*
X125982514Y-75857410D02*
X124782514Y-75857410D01*
X125925371Y-75857410D02*
X125982514Y-75971696D01*
X125982514Y-75971696D02*
X125982514Y-76200267D01*
X125982514Y-76200267D02*
X125925371Y-76314553D01*
X125925371Y-76314553D02*
X125868228Y-76371696D01*
X125868228Y-76371696D02*
X125753942Y-76428838D01*
X125753942Y-76428838D02*
X125411085Y-76428838D01*
X125411085Y-76428838D02*
X125296799Y-76371696D01*
X125296799Y-76371696D02*
X125239657Y-76314553D01*
X125239657Y-76314553D02*
X125182514Y-76200267D01*
X125182514Y-76200267D02*
X125182514Y-75971696D01*
X125182514Y-75971696D02*
X125239657Y-75857410D01*
X125239657Y-77400267D02*
X125182514Y-77285981D01*
X125182514Y-77285981D02*
X125182514Y-77057410D01*
X125182514Y-77057410D02*
X125239657Y-76943124D01*
X125239657Y-76943124D02*
X125353942Y-76885981D01*
X125353942Y-76885981D02*
X125811085Y-76885981D01*
X125811085Y-76885981D02*
X125925371Y-76943124D01*
X125925371Y-76943124D02*
X125982514Y-77057410D01*
X125982514Y-77057410D02*
X125982514Y-77285981D01*
X125982514Y-77285981D02*
X125925371Y-77400267D01*
X125925371Y-77400267D02*
X125811085Y-77457410D01*
X125811085Y-77457410D02*
X125696799Y-77457410D01*
X125696799Y-77457410D02*
X125582514Y-76885981D01*
X125982514Y-77971695D02*
X125182514Y-77971695D01*
X125868228Y-77971695D02*
X125925371Y-78028838D01*
X125925371Y-78028838D02*
X125982514Y-78143123D01*
X125982514Y-78143123D02*
X125982514Y-78314552D01*
X125982514Y-78314552D02*
X125925371Y-78428838D01*
X125925371Y-78428838D02*
X125811085Y-78485981D01*
X125811085Y-78485981D02*
X125182514Y-78485981D01*
X125182514Y-79971695D02*
X126382514Y-79971695D01*
X125811085Y-79971695D02*
X125811085Y-80657409D01*
X125182514Y-80657409D02*
X126382514Y-80657409D01*
X125182514Y-81743124D02*
X125811085Y-81743124D01*
X125811085Y-81743124D02*
X125925371Y-81685981D01*
X125925371Y-81685981D02*
X125982514Y-81571695D01*
X125982514Y-81571695D02*
X125982514Y-81343124D01*
X125982514Y-81343124D02*
X125925371Y-81228838D01*
X125239657Y-81743124D02*
X125182514Y-81628838D01*
X125182514Y-81628838D02*
X125182514Y-81343124D01*
X125182514Y-81343124D02*
X125239657Y-81228838D01*
X125239657Y-81228838D02*
X125353942Y-81171695D01*
X125353942Y-81171695D02*
X125468228Y-81171695D01*
X125468228Y-81171695D02*
X125582514Y-81228838D01*
X125582514Y-81228838D02*
X125639657Y-81343124D01*
X125639657Y-81343124D02*
X125639657Y-81628838D01*
X125639657Y-81628838D02*
X125696799Y-81743124D01*
X125182514Y-82314552D02*
X125982514Y-82314552D01*
X125753942Y-82314552D02*
X125868228Y-82371695D01*
X125868228Y-82371695D02*
X125925371Y-82428838D01*
X125925371Y-82428838D02*
X125982514Y-82543123D01*
X125982514Y-82543123D02*
X125982514Y-82657409D01*
X125182514Y-83571695D02*
X126382514Y-83571695D01*
X125239657Y-83571695D02*
X125182514Y-83457409D01*
X125182514Y-83457409D02*
X125182514Y-83228837D01*
X125182514Y-83228837D02*
X125239657Y-83114552D01*
X125239657Y-83114552D02*
X125296799Y-83057409D01*
X125296799Y-83057409D02*
X125411085Y-83000266D01*
X125411085Y-83000266D02*
X125753942Y-83000266D01*
X125753942Y-83000266D02*
X125868228Y-83057409D01*
X125868228Y-83057409D02*
X125925371Y-83114552D01*
X125925371Y-83114552D02*
X125982514Y-83228837D01*
X125982514Y-83228837D02*
X125982514Y-83457409D01*
X125982514Y-83457409D02*
X125925371Y-83571695D01*
X125982514Y-84028837D02*
X125182514Y-84257409D01*
X125182514Y-84257409D02*
X125753942Y-84485980D01*
X125753942Y-84485980D02*
X125182514Y-84714551D01*
X125182514Y-84714551D02*
X125982514Y-84943123D01*
X125182514Y-85914552D02*
X125811085Y-85914552D01*
X125811085Y-85914552D02*
X125925371Y-85857409D01*
X125925371Y-85857409D02*
X125982514Y-85743123D01*
X125982514Y-85743123D02*
X125982514Y-85514552D01*
X125982514Y-85514552D02*
X125925371Y-85400266D01*
X125239657Y-85914552D02*
X125182514Y-85800266D01*
X125182514Y-85800266D02*
X125182514Y-85514552D01*
X125182514Y-85514552D02*
X125239657Y-85400266D01*
X125239657Y-85400266D02*
X125353942Y-85343123D01*
X125353942Y-85343123D02*
X125468228Y-85343123D01*
X125468228Y-85343123D02*
X125582514Y-85400266D01*
X125582514Y-85400266D02*
X125639657Y-85514552D01*
X125639657Y-85514552D02*
X125639657Y-85800266D01*
X125639657Y-85800266D02*
X125696799Y-85914552D01*
X125182514Y-86485980D02*
X125982514Y-86485980D01*
X125753942Y-86485980D02*
X125868228Y-86543123D01*
X125868228Y-86543123D02*
X125925371Y-86600266D01*
X125925371Y-86600266D02*
X125982514Y-86714551D01*
X125982514Y-86714551D02*
X125982514Y-86828837D01*
X125239657Y-87685980D02*
X125182514Y-87571694D01*
X125182514Y-87571694D02*
X125182514Y-87343123D01*
X125182514Y-87343123D02*
X125239657Y-87228837D01*
X125239657Y-87228837D02*
X125353942Y-87171694D01*
X125353942Y-87171694D02*
X125811085Y-87171694D01*
X125811085Y-87171694D02*
X125925371Y-87228837D01*
X125925371Y-87228837D02*
X125982514Y-87343123D01*
X125982514Y-87343123D02*
X125982514Y-87571694D01*
X125982514Y-87571694D02*
X125925371Y-87685980D01*
X125925371Y-87685980D02*
X125811085Y-87743123D01*
X125811085Y-87743123D02*
X125696799Y-87743123D01*
X125696799Y-87743123D02*
X125582514Y-87171694D01*
X123250581Y-67857407D02*
X123250581Y-67285979D01*
X123250581Y-67285979D02*
X124450581Y-67285979D01*
X123250581Y-68257408D02*
X124050581Y-68257408D01*
X124450581Y-68257408D02*
X124393438Y-68200265D01*
X124393438Y-68200265D02*
X124336295Y-68257408D01*
X124336295Y-68257408D02*
X124393438Y-68314551D01*
X124393438Y-68314551D02*
X124450581Y-68257408D01*
X124450581Y-68257408D02*
X124336295Y-68257408D01*
X123307724Y-69343123D02*
X123250581Y-69228837D01*
X123250581Y-69228837D02*
X123250581Y-69000265D01*
X123250581Y-69000265D02*
X123307724Y-68885980D01*
X123307724Y-68885980D02*
X123364866Y-68828837D01*
X123364866Y-68828837D02*
X123479152Y-68771694D01*
X123479152Y-68771694D02*
X123822009Y-68771694D01*
X123822009Y-68771694D02*
X123936295Y-68828837D01*
X123936295Y-68828837D02*
X123993438Y-68885980D01*
X123993438Y-68885980D02*
X124050581Y-69000265D01*
X124050581Y-69000265D02*
X124050581Y-69228837D01*
X124050581Y-69228837D02*
X123993438Y-69343123D01*
X123307724Y-70314551D02*
X123250581Y-70200265D01*
X123250581Y-70200265D02*
X123250581Y-69971694D01*
X123250581Y-69971694D02*
X123307724Y-69857408D01*
X123307724Y-69857408D02*
X123422009Y-69800265D01*
X123422009Y-69800265D02*
X123879152Y-69800265D01*
X123879152Y-69800265D02*
X123993438Y-69857408D01*
X123993438Y-69857408D02*
X124050581Y-69971694D01*
X124050581Y-69971694D02*
X124050581Y-70200265D01*
X124050581Y-70200265D02*
X123993438Y-70314551D01*
X123993438Y-70314551D02*
X123879152Y-70371694D01*
X123879152Y-70371694D02*
X123764866Y-70371694D01*
X123764866Y-70371694D02*
X123650581Y-69800265D01*
X124050581Y-70885979D02*
X123250581Y-70885979D01*
X123936295Y-70885979D02*
X123993438Y-70943122D01*
X123993438Y-70943122D02*
X124050581Y-71057407D01*
X124050581Y-71057407D02*
X124050581Y-71228836D01*
X124050581Y-71228836D02*
X123993438Y-71343122D01*
X123993438Y-71343122D02*
X123879152Y-71400265D01*
X123879152Y-71400265D02*
X123250581Y-71400265D01*
X123307724Y-71914550D02*
X123250581Y-72028836D01*
X123250581Y-72028836D02*
X123250581Y-72257407D01*
X123250581Y-72257407D02*
X123307724Y-72371693D01*
X123307724Y-72371693D02*
X123422009Y-72428836D01*
X123422009Y-72428836D02*
X123479152Y-72428836D01*
X123479152Y-72428836D02*
X123593438Y-72371693D01*
X123593438Y-72371693D02*
X123650581Y-72257407D01*
X123650581Y-72257407D02*
X123650581Y-72085979D01*
X123650581Y-72085979D02*
X123707724Y-71971693D01*
X123707724Y-71971693D02*
X123822009Y-71914550D01*
X123822009Y-71914550D02*
X123879152Y-71914550D01*
X123879152Y-71914550D02*
X123993438Y-71971693D01*
X123993438Y-71971693D02*
X124050581Y-72085979D01*
X124050581Y-72085979D02*
X124050581Y-72257407D01*
X124050581Y-72257407D02*
X123993438Y-72371693D01*
X123307724Y-73400265D02*
X123250581Y-73285979D01*
X123250581Y-73285979D02*
X123250581Y-73057408D01*
X123250581Y-73057408D02*
X123307724Y-72943122D01*
X123307724Y-72943122D02*
X123422009Y-72885979D01*
X123422009Y-72885979D02*
X123879152Y-72885979D01*
X123879152Y-72885979D02*
X123993438Y-72943122D01*
X123993438Y-72943122D02*
X124050581Y-73057408D01*
X124050581Y-73057408D02*
X124050581Y-73285979D01*
X124050581Y-73285979D02*
X123993438Y-73400265D01*
X123993438Y-73400265D02*
X123879152Y-73457408D01*
X123879152Y-73457408D02*
X123764866Y-73457408D01*
X123764866Y-73457408D02*
X123650581Y-72885979D01*
X123250581Y-74485979D02*
X124450581Y-74485979D01*
X123307724Y-74485979D02*
X123250581Y-74371693D01*
X123250581Y-74371693D02*
X123250581Y-74143121D01*
X123250581Y-74143121D02*
X123307724Y-74028836D01*
X123307724Y-74028836D02*
X123364866Y-73971693D01*
X123364866Y-73971693D02*
X123479152Y-73914550D01*
X123479152Y-73914550D02*
X123822009Y-73914550D01*
X123822009Y-73914550D02*
X123936295Y-73971693D01*
X123936295Y-73971693D02*
X123993438Y-74028836D01*
X123993438Y-74028836D02*
X124050581Y-74143121D01*
X124050581Y-74143121D02*
X124050581Y-74371693D01*
X124050581Y-74371693D02*
X123993438Y-74485979D01*
X124050581Y-76485979D02*
X123250581Y-76485979D01*
X124050581Y-75971693D02*
X123422009Y-75971693D01*
X123422009Y-75971693D02*
X123307724Y-76028836D01*
X123307724Y-76028836D02*
X123250581Y-76143121D01*
X123250581Y-76143121D02*
X123250581Y-76314550D01*
X123250581Y-76314550D02*
X123307724Y-76428836D01*
X123307724Y-76428836D02*
X123364866Y-76485979D01*
X124050581Y-77057407D02*
X123250581Y-77057407D01*
X123936295Y-77057407D02*
X123993438Y-77114550D01*
X123993438Y-77114550D02*
X124050581Y-77228835D01*
X124050581Y-77228835D02*
X124050581Y-77400264D01*
X124050581Y-77400264D02*
X123993438Y-77514550D01*
X123993438Y-77514550D02*
X123879152Y-77571693D01*
X123879152Y-77571693D02*
X123250581Y-77571693D01*
X123250581Y-78657407D02*
X124450581Y-78657407D01*
X123307724Y-78657407D02*
X123250581Y-78543121D01*
X123250581Y-78543121D02*
X123250581Y-78314549D01*
X123250581Y-78314549D02*
X123307724Y-78200264D01*
X123307724Y-78200264D02*
X123364866Y-78143121D01*
X123364866Y-78143121D02*
X123479152Y-78085978D01*
X123479152Y-78085978D02*
X123822009Y-78085978D01*
X123822009Y-78085978D02*
X123936295Y-78143121D01*
X123936295Y-78143121D02*
X123993438Y-78200264D01*
X123993438Y-78200264D02*
X124050581Y-78314549D01*
X124050581Y-78314549D02*
X124050581Y-78543121D01*
X124050581Y-78543121D02*
X123993438Y-78657407D01*
X123307724Y-79685978D02*
X123250581Y-79571692D01*
X123250581Y-79571692D02*
X123250581Y-79343121D01*
X123250581Y-79343121D02*
X123307724Y-79228835D01*
X123307724Y-79228835D02*
X123422009Y-79171692D01*
X123422009Y-79171692D02*
X123879152Y-79171692D01*
X123879152Y-79171692D02*
X123993438Y-79228835D01*
X123993438Y-79228835D02*
X124050581Y-79343121D01*
X124050581Y-79343121D02*
X124050581Y-79571692D01*
X124050581Y-79571692D02*
X123993438Y-79685978D01*
X123993438Y-79685978D02*
X123879152Y-79743121D01*
X123879152Y-79743121D02*
X123764866Y-79743121D01*
X123764866Y-79743121D02*
X123650581Y-79171692D01*
X123250581Y-80257406D02*
X124050581Y-80257406D01*
X123822009Y-80257406D02*
X123936295Y-80314549D01*
X123936295Y-80314549D02*
X123993438Y-80371692D01*
X123993438Y-80371692D02*
X124050581Y-80485977D01*
X124050581Y-80485977D02*
X124050581Y-80600263D01*
X123364866Y-82600263D02*
X123307724Y-82543120D01*
X123307724Y-82543120D02*
X123250581Y-82371692D01*
X123250581Y-82371692D02*
X123250581Y-82257406D01*
X123250581Y-82257406D02*
X123307724Y-82085977D01*
X123307724Y-82085977D02*
X123422009Y-81971692D01*
X123422009Y-81971692D02*
X123536295Y-81914549D01*
X123536295Y-81914549D02*
X123764866Y-81857406D01*
X123764866Y-81857406D02*
X123936295Y-81857406D01*
X123936295Y-81857406D02*
X124164866Y-81914549D01*
X124164866Y-81914549D02*
X124279152Y-81971692D01*
X124279152Y-81971692D02*
X124393438Y-82085977D01*
X124393438Y-82085977D02*
X124450581Y-82257406D01*
X124450581Y-82257406D02*
X124450581Y-82371692D01*
X124450581Y-82371692D02*
X124393438Y-82543120D01*
X124393438Y-82543120D02*
X124336295Y-82600263D01*
X123879152Y-83114549D02*
X123879152Y-83514549D01*
X123250581Y-83685977D02*
X123250581Y-83114549D01*
X123250581Y-83114549D02*
X124450581Y-83114549D01*
X124450581Y-83114549D02*
X124450581Y-83685977D01*
X123250581Y-84885977D02*
X123822009Y-84485977D01*
X123250581Y-84200263D02*
X124450581Y-84200263D01*
X124450581Y-84200263D02*
X124450581Y-84657406D01*
X124450581Y-84657406D02*
X124393438Y-84771691D01*
X124393438Y-84771691D02*
X124336295Y-84828834D01*
X124336295Y-84828834D02*
X124222009Y-84885977D01*
X124222009Y-84885977D02*
X124050581Y-84885977D01*
X124050581Y-84885977D02*
X123936295Y-84828834D01*
X123936295Y-84828834D02*
X123879152Y-84771691D01*
X123879152Y-84771691D02*
X123822009Y-84657406D01*
X123822009Y-84657406D02*
X123822009Y-84200263D01*
X123250581Y-85400263D02*
X124450581Y-85400263D01*
X124450581Y-85400263D02*
X123250581Y-86085977D01*
X123250581Y-86085977D02*
X124450581Y-86085977D01*
X123707724Y-86657406D02*
X123707724Y-87571692D01*
X124450581Y-88371691D02*
X124450581Y-88600263D01*
X124450581Y-88600263D02*
X124393438Y-88714548D01*
X124393438Y-88714548D02*
X124279152Y-88828834D01*
X124279152Y-88828834D02*
X124050581Y-88885977D01*
X124050581Y-88885977D02*
X123650581Y-88885977D01*
X123650581Y-88885977D02*
X123422009Y-88828834D01*
X123422009Y-88828834D02*
X123307724Y-88714548D01*
X123307724Y-88714548D02*
X123250581Y-88600263D01*
X123250581Y-88600263D02*
X123250581Y-88371691D01*
X123250581Y-88371691D02*
X123307724Y-88257406D01*
X123307724Y-88257406D02*
X123422009Y-88143120D01*
X123422009Y-88143120D02*
X123650581Y-88085977D01*
X123650581Y-88085977D02*
X124050581Y-88085977D01*
X124050581Y-88085977D02*
X124279152Y-88143120D01*
X124279152Y-88143120D02*
X124393438Y-88257406D01*
X124393438Y-88257406D02*
X124450581Y-88371691D01*
X123250581Y-89400263D02*
X124450581Y-89400263D01*
X123879152Y-89400263D02*
X123879152Y-90085977D01*
X123250581Y-90085977D02*
X124450581Y-90085977D01*
X123250581Y-91228834D02*
X123250581Y-90657406D01*
X123250581Y-90657406D02*
X124450581Y-90657406D01*
X123707724Y-91628835D02*
X123707724Y-92543121D01*
X123307724Y-93057406D02*
X123250581Y-93228835D01*
X123250581Y-93228835D02*
X123250581Y-93514549D01*
X123250581Y-93514549D02*
X123307724Y-93628835D01*
X123307724Y-93628835D02*
X123364866Y-93685977D01*
X123364866Y-93685977D02*
X123479152Y-93743120D01*
X123479152Y-93743120D02*
X123593438Y-93743120D01*
X123593438Y-93743120D02*
X123707724Y-93685977D01*
X123707724Y-93685977D02*
X123764866Y-93628835D01*
X123764866Y-93628835D02*
X123822009Y-93514549D01*
X123822009Y-93514549D02*
X123879152Y-93285977D01*
X123879152Y-93285977D02*
X123936295Y-93171692D01*
X123936295Y-93171692D02*
X123993438Y-93114549D01*
X123993438Y-93114549D02*
X124107724Y-93057406D01*
X124107724Y-93057406D02*
X124222009Y-93057406D01*
X124222009Y-93057406D02*
X124336295Y-93114549D01*
X124336295Y-93114549D02*
X124393438Y-93171692D01*
X124393438Y-93171692D02*
X124450581Y-93285977D01*
X124450581Y-93285977D02*
X124450581Y-93571692D01*
X124450581Y-93571692D02*
X124393438Y-93743120D01*
X124050581Y-95057406D02*
X123250581Y-95343120D01*
X123250581Y-95343120D02*
X124050581Y-95628835D01*
X124336295Y-96028835D02*
X124393438Y-96085978D01*
X124393438Y-96085978D02*
X124450581Y-96200264D01*
X124450581Y-96200264D02*
X124450581Y-96485978D01*
X124450581Y-96485978D02*
X124393438Y-96600264D01*
X124393438Y-96600264D02*
X124336295Y-96657406D01*
X124336295Y-96657406D02*
X124222009Y-96714549D01*
X124222009Y-96714549D02*
X124107724Y-96714549D01*
X124107724Y-96714549D02*
X123936295Y-96657406D01*
X123936295Y-96657406D02*
X123250581Y-95971692D01*
X123250581Y-95971692D02*
X123250581Y-96714549D01*
X122118648Y-70828837D02*
X121318648Y-71057409D01*
X121318648Y-71057409D02*
X121890076Y-71285980D01*
X121890076Y-71285980D02*
X121318648Y-71514551D01*
X121318648Y-71514551D02*
X122118648Y-71743123D01*
X122118648Y-72085980D02*
X121318648Y-72314552D01*
X121318648Y-72314552D02*
X121890076Y-72543123D01*
X121890076Y-72543123D02*
X121318648Y-72771694D01*
X121318648Y-72771694D02*
X122118648Y-73000266D01*
X122118648Y-73343123D02*
X121318648Y-73571695D01*
X121318648Y-73571695D02*
X121890076Y-73800266D01*
X121890076Y-73800266D02*
X121318648Y-74028837D01*
X121318648Y-74028837D02*
X122118648Y-74257409D01*
X121432933Y-74714552D02*
X121375791Y-74771695D01*
X121375791Y-74771695D02*
X121318648Y-74714552D01*
X121318648Y-74714552D02*
X121375791Y-74657409D01*
X121375791Y-74657409D02*
X121432933Y-74714552D01*
X121432933Y-74714552D02*
X121318648Y-74714552D01*
X122518648Y-75114552D02*
X122518648Y-75800267D01*
X121318648Y-75457409D02*
X122518648Y-75457409D01*
X121318648Y-76200267D02*
X122118648Y-76200267D01*
X122518648Y-76200267D02*
X122461505Y-76143124D01*
X122461505Y-76143124D02*
X122404362Y-76200267D01*
X122404362Y-76200267D02*
X122461505Y-76257410D01*
X122461505Y-76257410D02*
X122518648Y-76200267D01*
X122518648Y-76200267D02*
X122404362Y-76200267D01*
X121318648Y-76771696D02*
X122118648Y-76771696D01*
X122004362Y-76771696D02*
X122061505Y-76828839D01*
X122061505Y-76828839D02*
X122118648Y-76943124D01*
X122118648Y-76943124D02*
X122118648Y-77114553D01*
X122118648Y-77114553D02*
X122061505Y-77228839D01*
X122061505Y-77228839D02*
X121947219Y-77285982D01*
X121947219Y-77285982D02*
X121318648Y-77285982D01*
X121947219Y-77285982D02*
X122061505Y-77343124D01*
X122061505Y-77343124D02*
X122118648Y-77457410D01*
X122118648Y-77457410D02*
X122118648Y-77628839D01*
X122118648Y-77628839D02*
X122061505Y-77743124D01*
X122061505Y-77743124D02*
X121947219Y-77800267D01*
X121947219Y-77800267D02*
X121318648Y-77800267D01*
X121375791Y-78828839D02*
X121318648Y-78714553D01*
X121318648Y-78714553D02*
X121318648Y-78485982D01*
X121318648Y-78485982D02*
X121375791Y-78371696D01*
X121375791Y-78371696D02*
X121490076Y-78314553D01*
X121490076Y-78314553D02*
X121947219Y-78314553D01*
X121947219Y-78314553D02*
X122061505Y-78371696D01*
X122061505Y-78371696D02*
X122118648Y-78485982D01*
X122118648Y-78485982D02*
X122118648Y-78714553D01*
X122118648Y-78714553D02*
X122061505Y-78828839D01*
X122061505Y-78828839D02*
X121947219Y-78885982D01*
X121947219Y-78885982D02*
X121832933Y-78885982D01*
X121832933Y-78885982D02*
X121718648Y-78314553D01*
X121947219Y-79400267D02*
X121947219Y-79800267D01*
X121318648Y-79971695D02*
X121318648Y-79400267D01*
X121318648Y-79400267D02*
X122518648Y-79400267D01*
X122518648Y-79400267D02*
X122518648Y-79971695D01*
X121318648Y-80371695D02*
X122118648Y-81000267D01*
X122118648Y-80371695D02*
X121318648Y-81000267D01*
X122118648Y-81457410D02*
X120918648Y-81457410D01*
X122061505Y-81457410D02*
X122118648Y-81571696D01*
X122118648Y-81571696D02*
X122118648Y-81800267D01*
X122118648Y-81800267D02*
X122061505Y-81914553D01*
X122061505Y-81914553D02*
X122004362Y-81971696D01*
X122004362Y-81971696D02*
X121890076Y-82028838D01*
X121890076Y-82028838D02*
X121547219Y-82028838D01*
X121547219Y-82028838D02*
X121432933Y-81971696D01*
X121432933Y-81971696D02*
X121375791Y-81914553D01*
X121375791Y-81914553D02*
X121318648Y-81800267D01*
X121318648Y-81800267D02*
X121318648Y-81571696D01*
X121318648Y-81571696D02*
X121375791Y-81457410D01*
X121318648Y-83057410D02*
X121947219Y-83057410D01*
X121947219Y-83057410D02*
X122061505Y-83000267D01*
X122061505Y-83000267D02*
X122118648Y-82885981D01*
X122118648Y-82885981D02*
X122118648Y-82657410D01*
X122118648Y-82657410D02*
X122061505Y-82543124D01*
X121375791Y-83057410D02*
X121318648Y-82943124D01*
X121318648Y-82943124D02*
X121318648Y-82657410D01*
X121318648Y-82657410D02*
X121375791Y-82543124D01*
X121375791Y-82543124D02*
X121490076Y-82485981D01*
X121490076Y-82485981D02*
X121604362Y-82485981D01*
X121604362Y-82485981D02*
X121718648Y-82543124D01*
X121718648Y-82543124D02*
X121775791Y-82657410D01*
X121775791Y-82657410D02*
X121775791Y-82943124D01*
X121775791Y-82943124D02*
X121832933Y-83057410D01*
X122118648Y-83628838D02*
X121318648Y-83628838D01*
X122004362Y-83628838D02*
X122061505Y-83685981D01*
X122061505Y-83685981D02*
X122118648Y-83800266D01*
X122118648Y-83800266D02*
X122118648Y-83971695D01*
X122118648Y-83971695D02*
X122061505Y-84085981D01*
X122061505Y-84085981D02*
X121947219Y-84143124D01*
X121947219Y-84143124D02*
X121318648Y-84143124D01*
X121318648Y-85228838D02*
X122518648Y-85228838D01*
X121375791Y-85228838D02*
X121318648Y-85114552D01*
X121318648Y-85114552D02*
X121318648Y-84885980D01*
X121318648Y-84885980D02*
X121375791Y-84771695D01*
X121375791Y-84771695D02*
X121432933Y-84714552D01*
X121432933Y-84714552D02*
X121547219Y-84657409D01*
X121547219Y-84657409D02*
X121890076Y-84657409D01*
X121890076Y-84657409D02*
X122004362Y-84714552D01*
X122004362Y-84714552D02*
X122061505Y-84771695D01*
X122061505Y-84771695D02*
X122118648Y-84885980D01*
X122118648Y-84885980D02*
X122118648Y-85114552D01*
X122118648Y-85114552D02*
X122061505Y-85228838D01*
X121375791Y-86257409D02*
X121318648Y-86143123D01*
X121318648Y-86143123D02*
X121318648Y-85914552D01*
X121318648Y-85914552D02*
X121375791Y-85800266D01*
X121375791Y-85800266D02*
X121490076Y-85743123D01*
X121490076Y-85743123D02*
X121947219Y-85743123D01*
X121947219Y-85743123D02*
X122061505Y-85800266D01*
X122061505Y-85800266D02*
X122118648Y-85914552D01*
X122118648Y-85914552D02*
X122118648Y-86143123D01*
X122118648Y-86143123D02*
X122061505Y-86257409D01*
X122061505Y-86257409D02*
X121947219Y-86314552D01*
X121947219Y-86314552D02*
X121832933Y-86314552D01*
X121832933Y-86314552D02*
X121718648Y-85743123D01*
X121318648Y-86828837D02*
X122118648Y-86828837D01*
X121890076Y-86828837D02*
X122004362Y-86885980D01*
X122004362Y-86885980D02*
X122061505Y-86943123D01*
X122061505Y-86943123D02*
X122118648Y-87057408D01*
X122118648Y-87057408D02*
X122118648Y-87171694D01*
X121432933Y-87571694D02*
X121375791Y-87628837D01*
X121375791Y-87628837D02*
X121318648Y-87571694D01*
X121318648Y-87571694D02*
X121375791Y-87514551D01*
X121375791Y-87514551D02*
X121432933Y-87571694D01*
X121432933Y-87571694D02*
X121318648Y-87571694D01*
X121375791Y-88657409D02*
X121318648Y-88543123D01*
X121318648Y-88543123D02*
X121318648Y-88314551D01*
X121318648Y-88314551D02*
X121375791Y-88200266D01*
X121375791Y-88200266D02*
X121432933Y-88143123D01*
X121432933Y-88143123D02*
X121547219Y-88085980D01*
X121547219Y-88085980D02*
X121890076Y-88085980D01*
X121890076Y-88085980D02*
X122004362Y-88143123D01*
X122004362Y-88143123D02*
X122061505Y-88200266D01*
X122061505Y-88200266D02*
X122118648Y-88314551D01*
X122118648Y-88314551D02*
X122118648Y-88543123D01*
X122118648Y-88543123D02*
X122061505Y-88657409D01*
X121318648Y-89343122D02*
X121375791Y-89228837D01*
X121375791Y-89228837D02*
X121432933Y-89171694D01*
X121432933Y-89171694D02*
X121547219Y-89114551D01*
X121547219Y-89114551D02*
X121890076Y-89114551D01*
X121890076Y-89114551D02*
X122004362Y-89171694D01*
X122004362Y-89171694D02*
X122061505Y-89228837D01*
X122061505Y-89228837D02*
X122118648Y-89343122D01*
X122118648Y-89343122D02*
X122118648Y-89514551D01*
X122118648Y-89514551D02*
X122061505Y-89628837D01*
X122061505Y-89628837D02*
X122004362Y-89685980D01*
X122004362Y-89685980D02*
X121890076Y-89743122D01*
X121890076Y-89743122D02*
X121547219Y-89743122D01*
X121547219Y-89743122D02*
X121432933Y-89685980D01*
X121432933Y-89685980D02*
X121375791Y-89628837D01*
X121375791Y-89628837D02*
X121318648Y-89514551D01*
X121318648Y-89514551D02*
X121318648Y-89343122D01*
X121318648Y-90257408D02*
X122118648Y-90257408D01*
X122004362Y-90257408D02*
X122061505Y-90314551D01*
X122061505Y-90314551D02*
X122118648Y-90428836D01*
X122118648Y-90428836D02*
X122118648Y-90600265D01*
X122118648Y-90600265D02*
X122061505Y-90714551D01*
X122061505Y-90714551D02*
X121947219Y-90771694D01*
X121947219Y-90771694D02*
X121318648Y-90771694D01*
X121947219Y-90771694D02*
X122061505Y-90828836D01*
X122061505Y-90828836D02*
X122118648Y-90943122D01*
X122118648Y-90943122D02*
X122118648Y-91114551D01*
X122118648Y-91114551D02*
X122061505Y-91228836D01*
X122061505Y-91228836D02*
X121947219Y-91285979D01*
X121947219Y-91285979D02*
X121318648Y-91285979D01*
X119386715Y-69057406D02*
X120586715Y-69057406D01*
X120015286Y-69057406D02*
X120015286Y-69743120D01*
X119386715Y-69743120D02*
X120586715Y-69743120D01*
X119386715Y-70828835D02*
X120015286Y-70828835D01*
X120015286Y-70828835D02*
X120129572Y-70771692D01*
X120129572Y-70771692D02*
X120186715Y-70657406D01*
X120186715Y-70657406D02*
X120186715Y-70428835D01*
X120186715Y-70428835D02*
X120129572Y-70314549D01*
X119443858Y-70828835D02*
X119386715Y-70714549D01*
X119386715Y-70714549D02*
X119386715Y-70428835D01*
X119386715Y-70428835D02*
X119443858Y-70314549D01*
X119443858Y-70314549D02*
X119558143Y-70257406D01*
X119558143Y-70257406D02*
X119672429Y-70257406D01*
X119672429Y-70257406D02*
X119786715Y-70314549D01*
X119786715Y-70314549D02*
X119843858Y-70428835D01*
X119843858Y-70428835D02*
X119843858Y-70714549D01*
X119843858Y-70714549D02*
X119901000Y-70828835D01*
X120186715Y-71400263D02*
X119386715Y-71400263D01*
X120072429Y-71400263D02*
X120129572Y-71457406D01*
X120129572Y-71457406D02*
X120186715Y-71571691D01*
X120186715Y-71571691D02*
X120186715Y-71743120D01*
X120186715Y-71743120D02*
X120129572Y-71857406D01*
X120129572Y-71857406D02*
X120015286Y-71914549D01*
X120015286Y-71914549D02*
X119386715Y-71914549D01*
X119443858Y-72428834D02*
X119386715Y-72543120D01*
X119386715Y-72543120D02*
X119386715Y-72771691D01*
X119386715Y-72771691D02*
X119443858Y-72885977D01*
X119443858Y-72885977D02*
X119558143Y-72943120D01*
X119558143Y-72943120D02*
X119615286Y-72943120D01*
X119615286Y-72943120D02*
X119729572Y-72885977D01*
X119729572Y-72885977D02*
X119786715Y-72771691D01*
X119786715Y-72771691D02*
X119786715Y-72600263D01*
X119786715Y-72600263D02*
X119843858Y-72485977D01*
X119843858Y-72485977D02*
X119958143Y-72428834D01*
X119958143Y-72428834D02*
X120015286Y-72428834D01*
X120015286Y-72428834D02*
X120129572Y-72485977D01*
X120129572Y-72485977D02*
X120186715Y-72600263D01*
X120186715Y-72600263D02*
X120186715Y-72771691D01*
X120186715Y-72771691D02*
X120129572Y-72885977D01*
X120586715Y-74714549D02*
X119729572Y-74714549D01*
X119729572Y-74714549D02*
X119558143Y-74657406D01*
X119558143Y-74657406D02*
X119443858Y-74543120D01*
X119443858Y-74543120D02*
X119386715Y-74371692D01*
X119386715Y-74371692D02*
X119386715Y-74257406D01*
X120186715Y-75914549D02*
X119386715Y-75171692D01*
X119386715Y-75457406D02*
X119443858Y-75343121D01*
X119443858Y-75343121D02*
X119501000Y-75285978D01*
X119501000Y-75285978D02*
X119615286Y-75228835D01*
X119615286Y-75228835D02*
X119958143Y-75228835D01*
X119958143Y-75228835D02*
X120072429Y-75285978D01*
X120072429Y-75285978D02*
X120129572Y-75343121D01*
X120129572Y-75343121D02*
X120186715Y-75457406D01*
X120186715Y-75457406D02*
X120186715Y-75628835D01*
X120186715Y-75628835D02*
X120129572Y-75743121D01*
X120129572Y-75743121D02*
X120072429Y-75800264D01*
X120072429Y-75800264D02*
X119958143Y-75857406D01*
X119958143Y-75857406D02*
X119615286Y-75857406D01*
X119615286Y-75857406D02*
X119501000Y-75800264D01*
X119501000Y-75800264D02*
X119443858Y-75743121D01*
X119443858Y-75743121D02*
X119386715Y-75628835D01*
X119386715Y-75628835D02*
X119386715Y-75457406D01*
X119386715Y-76371692D02*
X120186715Y-76371692D01*
X119958143Y-76371692D02*
X120072429Y-76428835D01*
X120072429Y-76428835D02*
X120129572Y-76485978D01*
X120129572Y-76485978D02*
X120186715Y-76600263D01*
X120186715Y-76600263D02*
X120186715Y-76714549D01*
X120186715Y-77628835D02*
X119215286Y-77628835D01*
X119215286Y-77628835D02*
X119101000Y-77571692D01*
X119101000Y-77571692D02*
X119043858Y-77514549D01*
X119043858Y-77514549D02*
X118986715Y-77400263D01*
X118986715Y-77400263D02*
X118986715Y-77228835D01*
X118986715Y-77228835D02*
X119043858Y-77114549D01*
X119443858Y-77628835D02*
X119386715Y-77514549D01*
X119386715Y-77514549D02*
X119386715Y-77285977D01*
X119386715Y-77285977D02*
X119443858Y-77171692D01*
X119443858Y-77171692D02*
X119501000Y-77114549D01*
X119501000Y-77114549D02*
X119615286Y-77057406D01*
X119615286Y-77057406D02*
X119958143Y-77057406D01*
X119958143Y-77057406D02*
X120072429Y-77114549D01*
X120072429Y-77114549D02*
X120129572Y-77171692D01*
X120129572Y-77171692D02*
X120186715Y-77285977D01*
X120186715Y-77285977D02*
X120186715Y-77514549D01*
X120186715Y-77514549D02*
X120129572Y-77628835D01*
X119443858Y-78657406D02*
X119386715Y-78543120D01*
X119386715Y-78543120D02*
X119386715Y-78314549D01*
X119386715Y-78314549D02*
X119443858Y-78200263D01*
X119443858Y-78200263D02*
X119558143Y-78143120D01*
X119558143Y-78143120D02*
X120015286Y-78143120D01*
X120015286Y-78143120D02*
X120129572Y-78200263D01*
X120129572Y-78200263D02*
X120186715Y-78314549D01*
X120186715Y-78314549D02*
X120186715Y-78543120D01*
X120186715Y-78543120D02*
X120129572Y-78657406D01*
X120129572Y-78657406D02*
X120015286Y-78714549D01*
X120015286Y-78714549D02*
X119901000Y-78714549D01*
X119901000Y-78714549D02*
X119786715Y-78143120D01*
X120186715Y-79228834D02*
X119386715Y-79228834D01*
X120072429Y-79228834D02*
X120129572Y-79285977D01*
X120129572Y-79285977D02*
X120186715Y-79400262D01*
X120186715Y-79400262D02*
X120186715Y-79571691D01*
X120186715Y-79571691D02*
X120129572Y-79685977D01*
X120129572Y-79685977D02*
X120015286Y-79743120D01*
X120015286Y-79743120D02*
X119386715Y-79743120D01*
X120529572Y-81857405D02*
X120586715Y-81743120D01*
X120586715Y-81743120D02*
X120586715Y-81571691D01*
X120586715Y-81571691D02*
X120529572Y-81400262D01*
X120529572Y-81400262D02*
X120415286Y-81285977D01*
X120415286Y-81285977D02*
X120301000Y-81228834D01*
X120301000Y-81228834D02*
X120072429Y-81171691D01*
X120072429Y-81171691D02*
X119901000Y-81171691D01*
X119901000Y-81171691D02*
X119672429Y-81228834D01*
X119672429Y-81228834D02*
X119558143Y-81285977D01*
X119558143Y-81285977D02*
X119443858Y-81400262D01*
X119443858Y-81400262D02*
X119386715Y-81571691D01*
X119386715Y-81571691D02*
X119386715Y-81685977D01*
X119386715Y-81685977D02*
X119443858Y-81857405D01*
X119443858Y-81857405D02*
X119501000Y-81914548D01*
X119501000Y-81914548D02*
X119901000Y-81914548D01*
X119901000Y-81914548D02*
X119901000Y-81685977D01*
X119386715Y-82428834D02*
X120186715Y-82428834D01*
X119958143Y-82428834D02*
X120072429Y-82485977D01*
X120072429Y-82485977D02*
X120129572Y-82543120D01*
X120129572Y-82543120D02*
X120186715Y-82657405D01*
X120186715Y-82657405D02*
X120186715Y-82771691D01*
X119386715Y-83171691D02*
X120186715Y-83171691D01*
X120586715Y-83171691D02*
X120529572Y-83114548D01*
X120529572Y-83114548D02*
X120472429Y-83171691D01*
X120472429Y-83171691D02*
X120529572Y-83228834D01*
X120529572Y-83228834D02*
X120586715Y-83171691D01*
X120586715Y-83171691D02*
X120472429Y-83171691D01*
X119386715Y-83743120D02*
X120186715Y-83743120D01*
X120072429Y-83743120D02*
X120129572Y-83800263D01*
X120129572Y-83800263D02*
X120186715Y-83914548D01*
X120186715Y-83914548D02*
X120186715Y-84085977D01*
X120186715Y-84085977D02*
X120129572Y-84200263D01*
X120129572Y-84200263D02*
X120015286Y-84257406D01*
X120015286Y-84257406D02*
X119386715Y-84257406D01*
X120015286Y-84257406D02*
X120129572Y-84314548D01*
X120129572Y-84314548D02*
X120186715Y-84428834D01*
X120186715Y-84428834D02*
X120186715Y-84600263D01*
X120186715Y-84600263D02*
X120129572Y-84714548D01*
X120129572Y-84714548D02*
X120015286Y-84771691D01*
X120015286Y-84771691D02*
X119386715Y-84771691D01*
X119443858Y-85285977D02*
X119386715Y-85400263D01*
X119386715Y-85400263D02*
X119386715Y-85628834D01*
X119386715Y-85628834D02*
X119443858Y-85743120D01*
X119443858Y-85743120D02*
X119558143Y-85800263D01*
X119558143Y-85800263D02*
X119615286Y-85800263D01*
X119615286Y-85800263D02*
X119729572Y-85743120D01*
X119729572Y-85743120D02*
X119786715Y-85628834D01*
X119786715Y-85628834D02*
X119786715Y-85457406D01*
X119786715Y-85457406D02*
X119843858Y-85343120D01*
X119843858Y-85343120D02*
X119958143Y-85285977D01*
X119958143Y-85285977D02*
X120015286Y-85285977D01*
X120015286Y-85285977D02*
X120129572Y-85343120D01*
X120129572Y-85343120D02*
X120186715Y-85457406D01*
X120186715Y-85457406D02*
X120186715Y-85628834D01*
X120186715Y-85628834D02*
X120129572Y-85743120D01*
X120186715Y-86143120D02*
X120186715Y-86600263D01*
X120586715Y-86314549D02*
X119558143Y-86314549D01*
X119558143Y-86314549D02*
X119443858Y-86371692D01*
X119443858Y-86371692D02*
X119386715Y-86485977D01*
X119386715Y-86485977D02*
X119386715Y-86600263D01*
X119386715Y-87514549D02*
X120015286Y-87514549D01*
X120015286Y-87514549D02*
X120129572Y-87457406D01*
X120129572Y-87457406D02*
X120186715Y-87343120D01*
X120186715Y-87343120D02*
X120186715Y-87114549D01*
X120186715Y-87114549D02*
X120129572Y-87000263D01*
X119443858Y-87514549D02*
X119386715Y-87400263D01*
X119386715Y-87400263D02*
X119386715Y-87114549D01*
X119386715Y-87114549D02*
X119443858Y-87000263D01*
X119443858Y-87000263D02*
X119558143Y-86943120D01*
X119558143Y-86943120D02*
X119672429Y-86943120D01*
X119672429Y-86943120D02*
X119786715Y-87000263D01*
X119786715Y-87000263D02*
X119843858Y-87114549D01*
X119843858Y-87114549D02*
X119843858Y-87400263D01*
X119843858Y-87400263D02*
X119901000Y-87514549D01*
X119386715Y-88600263D02*
X120586715Y-88600263D01*
X119443858Y-88600263D02*
X119386715Y-88485977D01*
X119386715Y-88485977D02*
X119386715Y-88257405D01*
X119386715Y-88257405D02*
X119443858Y-88143120D01*
X119443858Y-88143120D02*
X119501000Y-88085977D01*
X119501000Y-88085977D02*
X119615286Y-88028834D01*
X119615286Y-88028834D02*
X119958143Y-88028834D01*
X119958143Y-88028834D02*
X120072429Y-88085977D01*
X120072429Y-88085977D02*
X120129572Y-88143120D01*
X120129572Y-88143120D02*
X120186715Y-88257405D01*
X120186715Y-88257405D02*
X120186715Y-88485977D01*
X120186715Y-88485977D02*
X120129572Y-88600263D01*
X120472429Y-90028834D02*
X120529572Y-90085977D01*
X120529572Y-90085977D02*
X120586715Y-90200263D01*
X120586715Y-90200263D02*
X120586715Y-90485977D01*
X120586715Y-90485977D02*
X120529572Y-90600263D01*
X120529572Y-90600263D02*
X120472429Y-90657405D01*
X120472429Y-90657405D02*
X120358143Y-90714548D01*
X120358143Y-90714548D02*
X120243858Y-90714548D01*
X120243858Y-90714548D02*
X120072429Y-90657405D01*
X120072429Y-90657405D02*
X119386715Y-89971691D01*
X119386715Y-89971691D02*
X119386715Y-90714548D01*
X120586715Y-91457405D02*
X120586715Y-91571691D01*
X120586715Y-91571691D02*
X120529572Y-91685977D01*
X120529572Y-91685977D02*
X120472429Y-91743120D01*
X120472429Y-91743120D02*
X120358143Y-91800262D01*
X120358143Y-91800262D02*
X120129572Y-91857405D01*
X120129572Y-91857405D02*
X119843858Y-91857405D01*
X119843858Y-91857405D02*
X119615286Y-91800262D01*
X119615286Y-91800262D02*
X119501000Y-91743120D01*
X119501000Y-91743120D02*
X119443858Y-91685977D01*
X119443858Y-91685977D02*
X119386715Y-91571691D01*
X119386715Y-91571691D02*
X119386715Y-91457405D01*
X119386715Y-91457405D02*
X119443858Y-91343120D01*
X119443858Y-91343120D02*
X119501000Y-91285977D01*
X119501000Y-91285977D02*
X119615286Y-91228834D01*
X119615286Y-91228834D02*
X119843858Y-91171691D01*
X119843858Y-91171691D02*
X120129572Y-91171691D01*
X120129572Y-91171691D02*
X120358143Y-91228834D01*
X120358143Y-91228834D02*
X120472429Y-91285977D01*
X120472429Y-91285977D02*
X120529572Y-91343120D01*
X120529572Y-91343120D02*
X120586715Y-91457405D01*
X120472429Y-92314548D02*
X120529572Y-92371691D01*
X120529572Y-92371691D02*
X120586715Y-92485977D01*
X120586715Y-92485977D02*
X120586715Y-92771691D01*
X120586715Y-92771691D02*
X120529572Y-92885977D01*
X120529572Y-92885977D02*
X120472429Y-92943119D01*
X120472429Y-92943119D02*
X120358143Y-93000262D01*
X120358143Y-93000262D02*
X120243858Y-93000262D01*
X120243858Y-93000262D02*
X120072429Y-92943119D01*
X120072429Y-92943119D02*
X119386715Y-92257405D01*
X119386715Y-92257405D02*
X119386715Y-93000262D01*
X120586715Y-94085976D02*
X120586715Y-93514548D01*
X120586715Y-93514548D02*
X120015286Y-93457405D01*
X120015286Y-93457405D02*
X120072429Y-93514548D01*
X120072429Y-93514548D02*
X120129572Y-93628834D01*
X120129572Y-93628834D02*
X120129572Y-93914548D01*
X120129572Y-93914548D02*
X120072429Y-94028834D01*
X120072429Y-94028834D02*
X120015286Y-94085976D01*
X120015286Y-94085976D02*
X119901000Y-94143119D01*
X119901000Y-94143119D02*
X119615286Y-94143119D01*
X119615286Y-94143119D02*
X119501000Y-94085976D01*
X119501000Y-94085976D02*
X119443858Y-94028834D01*
X119443858Y-94028834D02*
X119386715Y-93914548D01*
X119386715Y-93914548D02*
X119386715Y-93628834D01*
X119386715Y-93628834D02*
X119443858Y-93514548D01*
X119443858Y-93514548D02*
X119501000Y-93457405D01*
G36*
X70240000Y-81208374D02*
G01*
X70248304Y-81159037D01*
X70296664Y-81121424D01*
X70826671Y-80792184D01*
X70916109Y-80747518D01*
X70927299Y-80744313D01*
X71028613Y-80733352D01*
X71053328Y-80733077D01*
X72064982Y-80733077D01*
X72145582Y-80754082D01*
X72178311Y-80834682D01*
X72145582Y-80907467D01*
X72064494Y-80924564D01*
X71072868Y-80924564D01*
X70980544Y-80929937D01*
X70904829Y-80964131D01*
X70487173Y-81217167D01*
X70444675Y-81243545D01*
X70427578Y-81270412D01*
X70441744Y-81297278D01*
X70475938Y-81326588D01*
X70527229Y-81369086D01*
X70568262Y-81393999D01*
X70632254Y-81399860D01*
X72064494Y-81399860D01*
X72161214Y-81419400D01*
X72178311Y-81512212D01*
X72178311Y-81698325D01*
X72161214Y-81790649D01*
X72064982Y-81810677D01*
X70849141Y-81810677D01*
X70751110Y-81794362D01*
X70747048Y-81792114D01*
X70676217Y-81740335D01*
X70274193Y-81405722D01*
X70245373Y-81363224D01*
X70240000Y-81312910D01*
X70240000Y-81208374D01*
G37*
G36*
X70240000Y-82192184D02*
G01*
X70271263Y-82103280D01*
X70367494Y-82079344D01*
X72064982Y-82079344D01*
X72153886Y-82103280D01*
X72178311Y-82192184D01*
X72178311Y-82977181D01*
X72156329Y-83055827D01*
X72084521Y-83086602D01*
X72012714Y-83055827D01*
X71990732Y-82977181D01*
X71990732Y-82383182D01*
X71969727Y-82290370D01*
X71872030Y-82270830D01*
X71421646Y-82270830D01*
X71324828Y-82289168D01*
X71323461Y-82290370D01*
X71302944Y-82383182D01*
X71302944Y-82977181D01*
X71281939Y-83055827D01*
X71214528Y-83086602D01*
X71138813Y-83055827D01*
X71115366Y-82977181D01*
X71115366Y-82603001D01*
X71095826Y-82509700D01*
X71004480Y-82490161D01*
X70538464Y-82490161D01*
X70446629Y-82509700D01*
X70427578Y-82603001D01*
X70427578Y-82977181D01*
X70405596Y-83055827D01*
X70336720Y-83086602D01*
X70261981Y-83055827D01*
X70240000Y-82977181D01*
X70240000Y-82192184D01*
G37*
G36*
X72153886Y-83345987D02*
G01*
X72178311Y-83434403D01*
X72178311Y-84273622D01*
X72153886Y-84362038D01*
X72064494Y-84385973D01*
X71448025Y-84385973D01*
X71358143Y-84404047D01*
X71334207Y-84475855D01*
X71334207Y-84517865D01*
X71304410Y-84593580D01*
X71232602Y-84610677D01*
X70353328Y-84610677D01*
X70256608Y-84591137D01*
X70240000Y-84498325D01*
X70240000Y-84312701D01*
X70257096Y-84219400D01*
X70353328Y-84199860D01*
X71033300Y-84199860D01*
X71126601Y-84179833D01*
X71146629Y-84087509D01*
X71146629Y-83845220D01*
X71126601Y-83752408D01*
X71033300Y-83732868D01*
X70353328Y-83732868D01*
X70257096Y-83712840D01*
X70240995Y-83625890D01*
X71334207Y-83625890D01*
X71334207Y-84082135D01*
X71354235Y-84174459D01*
X71449490Y-84194487D01*
X71875450Y-84194487D01*
X71970216Y-84174459D01*
X71990732Y-84082135D01*
X71990732Y-83625890D01*
X71970216Y-83533077D01*
X71875450Y-83513538D01*
X71449490Y-83513538D01*
X71354235Y-83533077D01*
X71334207Y-83625890D01*
X70240995Y-83625890D01*
X70240000Y-83620516D01*
X70240000Y-83434403D01*
X70257096Y-83341591D01*
X70353328Y-83322052D01*
X72064982Y-83322052D01*
X72153886Y-83345987D01*
G37*
G36*
X70959050Y-85905652D02*
G01*
X71050886Y-85916888D01*
X71084103Y-85995534D01*
X71084103Y-86035101D01*
X71130020Y-86101047D01*
X71221367Y-86110816D01*
X71768471Y-86110816D01*
X71821228Y-86099581D01*
X71834417Y-86049267D01*
X71834417Y-86003838D01*
X71852002Y-85922261D01*
X71936510Y-85905652D01*
X72076217Y-85905652D01*
X72160725Y-85922261D01*
X72178311Y-86003838D01*
X72178311Y-86214864D01*
X72159611Y-86311088D01*
X72153886Y-86317934D01*
X72058718Y-86341777D01*
X72048862Y-86341870D01*
X71222344Y-86341870D01*
X71124800Y-86352861D01*
X71108527Y-86361410D01*
X71084103Y-86457153D01*
X71084103Y-86625680D01*
X71069149Y-86723079D01*
X71063098Y-86731193D01*
X70964210Y-86752666D01*
X70959050Y-86752687D01*
X70365052Y-86752687D01*
X70266744Y-86736231D01*
X70260516Y-86731193D01*
X70240020Y-86630900D01*
X70240000Y-86625680D01*
X70240000Y-86032170D01*
X70254605Y-85934772D01*
X70260516Y-85926657D01*
X70359892Y-85905673D01*
X70365052Y-85905652D01*
X70959050Y-85905652D01*
G37*
G36*
X70240000Y-87359874D02*
G01*
X70256608Y-87269505D01*
X70344535Y-87252896D01*
X70666936Y-87252896D01*
X70754863Y-87269505D01*
X70771472Y-87359874D01*
X70771472Y-87567969D01*
X70754863Y-87657851D01*
X70666936Y-87674948D01*
X70344535Y-87674948D01*
X70256608Y-87657851D01*
X70240000Y-87567969D01*
X70240000Y-87359874D01*
G37*
G36*
X70240000Y-88238660D02*
G01*
X70258325Y-88142490D01*
X70263935Y-88133147D01*
X70349420Y-88097976D01*
X70434905Y-88133147D01*
X70458748Y-88230005D01*
X70458841Y-88238660D01*
X70458841Y-88609909D01*
X70478499Y-88707522D01*
X70482777Y-88712491D01*
X70582360Y-88736404D01*
X70587313Y-88736427D01*
X70955631Y-88736427D01*
X71052817Y-88718101D01*
X71059678Y-88712491D01*
X71084079Y-88614771D01*
X71084103Y-88609909D01*
X71084103Y-88249895D01*
X71102429Y-88153725D01*
X71108039Y-88144382D01*
X71193524Y-88109211D01*
X71279009Y-88144382D01*
X71302851Y-88241240D01*
X71302944Y-88249895D01*
X71302944Y-88609909D01*
X71322392Y-88705652D01*
X71328346Y-88712491D01*
X71427493Y-88736334D01*
X71437766Y-88736427D01*
X71824647Y-88736427D01*
X71922482Y-88720626D01*
X71934068Y-88712491D01*
X71959444Y-88614771D01*
X71959469Y-88609909D01*
X71959469Y-88238660D01*
X71977795Y-88142490D01*
X71983405Y-88133147D01*
X72068890Y-88097976D01*
X72154375Y-88133147D01*
X72178217Y-88230005D01*
X72178311Y-88238660D01*
X72178311Y-88826797D01*
X72161018Y-88924256D01*
X72149979Y-88939149D01*
X72052089Y-88967232D01*
X72036650Y-88967481D01*
X71356678Y-88967481D01*
X71257485Y-88972976D01*
X71238953Y-88977251D01*
X71200851Y-89049058D01*
X71156399Y-89134543D01*
X71056259Y-89147244D01*
X70381660Y-89147244D01*
X70283438Y-89129951D01*
X70268332Y-89118911D01*
X70240249Y-89021907D01*
X70240000Y-89006560D01*
X70240000Y-88238660D01*
G37*
G36*
X71164214Y-90537962D02*
G01*
X71261007Y-90557311D01*
X71273635Y-90567271D01*
X71302687Y-90663806D01*
X71302944Y-90678646D01*
X71302944Y-91033287D01*
X71322392Y-91129030D01*
X71328346Y-91135869D01*
X71427493Y-91159711D01*
X71437766Y-91159805D01*
X71824647Y-91159805D01*
X71922482Y-91144003D01*
X71934068Y-91135869D01*
X71959444Y-91038149D01*
X71959469Y-91033287D01*
X71959469Y-90678646D01*
X71977795Y-90582476D01*
X71983405Y-90573133D01*
X72068890Y-90537962D01*
X72154375Y-90573133D01*
X72178217Y-90669991D01*
X72178311Y-90678646D01*
X72178311Y-91249686D01*
X72158317Y-91347744D01*
X72148025Y-91360572D01*
X72050688Y-91390108D01*
X72035673Y-91390370D01*
X71226741Y-91390370D01*
X71129652Y-91372183D01*
X71113900Y-91360572D01*
X71084365Y-91264522D01*
X71084103Y-91249686D01*
X71084103Y-90895045D01*
X71064043Y-90797432D01*
X71059678Y-90792463D01*
X70960583Y-90768551D01*
X70955631Y-90768528D01*
X70587313Y-90768528D01*
X70489753Y-90786853D01*
X70482777Y-90792463D01*
X70458864Y-90890183D01*
X70458841Y-90895045D01*
X70458841Y-91249686D01*
X70440515Y-91345857D01*
X70434905Y-91355199D01*
X70349420Y-91390370D01*
X70263935Y-91355199D01*
X70240093Y-91258341D01*
X70240000Y-91249686D01*
X70240000Y-90678646D01*
X70259026Y-90580266D01*
X70268820Y-90567271D01*
X70364068Y-90538220D01*
X70378729Y-90537962D01*
X71164214Y-90537962D01*
G37*
G36*
X71099734Y-92316539D02*
G01*
X71115366Y-92380042D01*
X71115366Y-92661898D01*
X71099734Y-92724913D01*
X71036720Y-92740544D01*
X70756329Y-92740544D01*
X70692826Y-92724913D01*
X70677683Y-92661898D01*
X70677683Y-92380042D01*
X70692826Y-92316539D01*
X70756329Y-92301396D01*
X71036720Y-92301396D01*
X71099734Y-92316539D01*
G37*
G36*
X71882407Y-91808214D02*
G01*
X71975085Y-91839555D01*
X72060943Y-91898164D01*
X72067913Y-91904745D01*
X72130766Y-91987586D01*
X72165266Y-92079024D01*
X72178203Y-92185823D01*
X72178311Y-92197348D01*
X72178311Y-92847523D01*
X72167530Y-92954312D01*
X72130766Y-93054700D01*
X72067913Y-93137195D01*
X71983587Y-93198101D01*
X71882407Y-93233726D01*
X71775799Y-93244173D01*
X70636650Y-93244173D01*
X70531940Y-93233726D01*
X70432297Y-93198101D01*
X70348932Y-93137195D01*
X70286913Y-93054700D01*
X70250637Y-92954312D01*
X70240000Y-92847523D01*
X70240000Y-92236427D01*
X70458841Y-92236427D01*
X70458841Y-92805024D01*
X70475727Y-92905617D01*
X70542227Y-92983856D01*
X70646460Y-93012306D01*
X70672309Y-93013119D01*
X71746001Y-93013119D01*
X71849191Y-92996659D01*
X71929450Y-92931832D01*
X71958635Y-92830223D01*
X71959469Y-92805024D01*
X71959469Y-92236427D01*
X71942583Y-92135834D01*
X71876083Y-92057596D01*
X71771851Y-92029145D01*
X71746001Y-92028332D01*
X70672309Y-92028332D01*
X70569119Y-92044793D01*
X70488860Y-92109619D01*
X70459675Y-92211228D01*
X70458841Y-92236427D01*
X70240000Y-92236427D01*
X70240000Y-92197348D01*
X70248616Y-92099155D01*
X70278402Y-92004645D01*
X70335741Y-91918425D01*
X70348932Y-91904745D01*
X70432297Y-91843839D01*
X70531940Y-91808214D01*
X70636650Y-91797767D01*
X71775799Y-91797767D01*
X71882407Y-91808214D01*
G37*
G36*
X71164214Y-93648639D02*
G01*
X71261007Y-93667988D01*
X71273635Y-93677948D01*
X71302687Y-93774482D01*
X71302944Y-93789323D01*
X71302944Y-94143964D01*
X71322392Y-94239707D01*
X71328346Y-94246546D01*
X71427493Y-94270388D01*
X71437766Y-94270482D01*
X71824647Y-94270482D01*
X71922482Y-94254680D01*
X71934068Y-94246546D01*
X71959444Y-94148826D01*
X71959469Y-94143964D01*
X71959469Y-93789323D01*
X71977795Y-93693152D01*
X71983405Y-93683810D01*
X72068890Y-93648639D01*
X72154375Y-93683810D01*
X72178217Y-93780668D01*
X72178311Y-93789323D01*
X72178311Y-94360363D01*
X72158317Y-94458421D01*
X72148025Y-94471249D01*
X72050688Y-94500785D01*
X72035673Y-94501047D01*
X71226741Y-94501047D01*
X71129652Y-94482860D01*
X71113900Y-94471249D01*
X71084365Y-94375199D01*
X71084103Y-94360363D01*
X71084103Y-94005722D01*
X71064043Y-93908109D01*
X71059678Y-93903140D01*
X70960583Y-93879228D01*
X70955631Y-93879204D01*
X70587313Y-93879204D01*
X70489753Y-93897530D01*
X70482777Y-93903140D01*
X70458864Y-94000860D01*
X70458841Y-94005722D01*
X70458841Y-94360363D01*
X70440515Y-94456534D01*
X70434905Y-94465876D01*
X70349420Y-94501047D01*
X70263935Y-94465876D01*
X70240093Y-94369018D01*
X70240000Y-94360363D01*
X70240000Y-93789323D01*
X70259026Y-93690943D01*
X70268820Y-93677948D01*
X70364068Y-93648897D01*
X70378729Y-93648639D01*
X71164214Y-93648639D01*
G37*
G36*
X70240000Y-95218144D02*
G01*
X70249674Y-95119764D01*
X70254654Y-95106769D01*
X70320111Y-95077460D01*
X70378729Y-95077460D01*
X70444187Y-95106769D01*
X70458784Y-95208149D01*
X70458841Y-95218144D01*
X70458841Y-95614794D01*
X70478499Y-95712407D01*
X70482777Y-95717376D01*
X70582360Y-95741289D01*
X70587313Y-95741312D01*
X70955631Y-95741312D01*
X71052817Y-95722986D01*
X71059678Y-95717376D01*
X71084079Y-95619656D01*
X71084103Y-95614794D01*
X71084103Y-95254292D01*
X71103774Y-95155911D01*
X71113900Y-95142917D01*
X71211721Y-95113865D01*
X71226741Y-95113608D01*
X72035673Y-95113608D01*
X72132464Y-95131497D01*
X72148025Y-95142917D01*
X72178045Y-95239451D01*
X72178311Y-95254292D01*
X72178311Y-95994348D01*
X72168636Y-96092405D01*
X72163656Y-96105234D01*
X72098199Y-96135031D01*
X72039581Y-96135031D01*
X71974124Y-96105234D01*
X71959526Y-96004340D01*
X71959469Y-95994348D01*
X71959469Y-95471179D01*
X71940021Y-95375436D01*
X71934068Y-95368597D01*
X71834921Y-95344755D01*
X71824647Y-95344662D01*
X71437766Y-95344662D01*
X71339932Y-95360463D01*
X71328346Y-95368597D01*
X71302969Y-95466317D01*
X71302944Y-95471179D01*
X71302944Y-96011445D01*
X71283596Y-96109502D01*
X71273635Y-96122331D01*
X71178872Y-96151867D01*
X71164214Y-96152128D01*
X70378729Y-96152128D01*
X70281614Y-96132457D01*
X70268820Y-96122331D01*
X70240253Y-96026281D01*
X70240000Y-96011445D01*
X70240000Y-95218144D01*
G37*
G36*
X88276872Y-101169829D02*
G01*
X88179614Y-101152226D01*
X88173314Y-101149801D01*
X88123196Y-101063791D01*
X88123000Y-101054546D01*
X88161521Y-100964199D01*
X88173314Y-100958314D01*
X88270228Y-100938851D01*
X88276872Y-100938775D01*
X88666684Y-100938775D01*
X88708694Y-100930471D01*
X88716998Y-100888461D01*
X88716998Y-100497184D01*
X88734601Y-100397865D01*
X88737026Y-100391671D01*
X88822132Y-100342382D01*
X88826419Y-100342334D01*
X88885037Y-100356500D01*
X88918254Y-100393136D01*
X88932909Y-100441985D01*
X88935840Y-100497184D01*
X88935840Y-100888461D01*
X88944144Y-100930471D01*
X88986642Y-100938775D01*
X89377919Y-100938775D01*
X89475607Y-100955948D01*
X89481967Y-100958314D01*
X89532571Y-101045240D01*
X89532769Y-101054546D01*
X89491046Y-101145643D01*
X89481967Y-101149801D01*
X89384565Y-101169750D01*
X89377919Y-101169829D01*
X88986642Y-101169829D01*
X88944144Y-101178133D01*
X88935840Y-101220143D01*
X88935840Y-101616793D01*
X88918237Y-101714023D01*
X88915812Y-101719863D01*
X88826419Y-101766270D01*
X88738326Y-101722718D01*
X88737026Y-101719863D01*
X88717076Y-101623836D01*
X88716998Y-101616793D01*
X88716998Y-101220143D01*
X88708694Y-101178133D01*
X88666684Y-101169829D01*
X88276872Y-101169829D01*
G37*
G36*
X88842050Y-106342892D02*
G01*
X88868429Y-106255453D01*
X88958245Y-106216527D01*
X88967103Y-106216374D01*
X89060427Y-106248469D01*
X89065777Y-106255453D01*
X89092155Y-106342892D01*
X89092155Y-106804511D01*
X89065777Y-106891461D01*
X88975960Y-106930874D01*
X88967103Y-106931029D01*
X88873778Y-106898533D01*
X88868429Y-106891461D01*
X88842050Y-106804511D01*
X88842050Y-106342892D01*
G37*
G36*
X152553886Y-100533915D02*
G01*
X152578311Y-100622331D01*
X152578311Y-101565108D01*
X152554375Y-101653524D01*
X152465959Y-101677460D01*
X151658981Y-101677460D01*
X151570565Y-101653524D01*
X151546629Y-101565108D01*
X151546629Y-101033147D01*
X151526601Y-100940335D01*
X151432323Y-100920796D01*
X150754305Y-100920796D01*
X150658227Y-100902000D01*
X150657096Y-100900768D01*
X150640990Y-100813329D01*
X151734207Y-100813329D01*
X151734207Y-101373622D01*
X151753747Y-101465946D01*
X151848025Y-101485974D01*
X152276915Y-101485974D01*
X152370704Y-101465946D01*
X152390732Y-101373622D01*
X152390732Y-100813329D01*
X152370704Y-100720517D01*
X152276915Y-100700977D01*
X151848025Y-100700977D01*
X151753747Y-100720517D01*
X151734207Y-100813329D01*
X150640990Y-100813329D01*
X150640000Y-100807955D01*
X150640000Y-100622331D01*
X150657096Y-100529519D01*
X150753328Y-100509979D01*
X152464982Y-100509979D01*
X152553886Y-100533915D01*
G37*
G36*
X152552909Y-101952966D02*
G01*
X152578311Y-102039916D01*
X152578311Y-103050593D01*
X152553886Y-103139009D01*
X152464982Y-103162945D01*
X150753328Y-103162945D01*
X150663935Y-103139009D01*
X150640000Y-103050593D01*
X150640000Y-102231403D01*
X150827578Y-102231403D01*
X150827578Y-102639288D01*
X150847606Y-102732101D01*
X150941884Y-102752129D01*
X151680474Y-102752129D01*
X151760097Y-102774599D01*
X151780125Y-102847872D01*
X151780125Y-102898186D01*
X151817250Y-102962666D01*
X151905666Y-102971459D01*
X152276427Y-102971459D01*
X152370704Y-102951431D01*
X152390732Y-102859107D01*
X152390732Y-102231403D01*
X152370704Y-102138591D01*
X152276427Y-102119051D01*
X150941884Y-102119051D01*
X150847606Y-102138591D01*
X150827578Y-102231403D01*
X150640000Y-102231403D01*
X150640000Y-102039916D01*
X150663935Y-101951500D01*
X150753328Y-101927565D01*
X152464982Y-101927565D01*
X152552909Y-101952966D01*
G37*
G36*
X151984312Y-104119400D02*
G01*
X152001409Y-104026588D01*
X152099106Y-104007048D01*
X152463517Y-104007048D01*
X152560083Y-104025386D01*
X152561214Y-104026588D01*
X152578311Y-104119400D01*
X152578311Y-104305513D01*
X152561214Y-104397837D01*
X152463517Y-104417865D01*
X152099106Y-104417865D01*
X152002540Y-104399069D01*
X152001409Y-104397837D01*
X151984312Y-104305513D01*
X151984312Y-104119400D01*
G37*
G36*
X150640000Y-103478018D02*
G01*
X150663935Y-103389602D01*
X150753328Y-103365667D01*
X152464982Y-103365667D01*
X152561214Y-103385206D01*
X152578311Y-103478018D01*
X152578311Y-103664131D01*
X152561214Y-103756455D01*
X152464982Y-103776483D01*
X151226671Y-103776483D01*
X151226671Y-103782345D01*
X151686336Y-103908863D01*
X151747885Y-103925471D01*
X151803572Y-103947942D01*
X151843628Y-103984578D01*
X151859260Y-104046616D01*
X151815296Y-104130635D01*
X151727247Y-104179575D01*
X151712714Y-104187300D01*
X150894989Y-104578088D01*
X150851514Y-104596162D01*
X150827578Y-104625960D01*
X150847117Y-104642568D01*
X150898408Y-104645499D01*
X152464494Y-104645499D01*
X152542651Y-104665039D01*
X152578311Y-104741242D01*
X152542651Y-104815981D01*
X152464982Y-104836985D01*
X150753328Y-104836985D01*
X150663935Y-104813050D01*
X150640000Y-104724634D01*
X150640000Y-104558549D01*
X150642442Y-104513119D01*
X150653677Y-104485276D01*
X150675659Y-104465736D01*
X150714738Y-104445708D01*
X151391779Y-104114027D01*
X151431835Y-104094487D01*
X151452840Y-104060293D01*
X151430369Y-104026588D01*
X151386406Y-104009979D01*
X150717180Y-103815562D01*
X150653677Y-103773552D01*
X150640000Y-103703210D01*
X150640000Y-103478018D01*
G37*
G36*
X151541558Y-105094536D02*
G01*
X151547606Y-105098814D01*
X151577892Y-105187718D01*
X151589127Y-105247802D01*
X151618436Y-105280530D01*
X151657027Y-105293231D01*
X151697571Y-105294697D01*
X152466936Y-105294697D01*
X152554375Y-105318632D01*
X152578311Y-105407048D01*
X152578311Y-106226239D01*
X152553886Y-106314655D01*
X152464982Y-106338591D01*
X150753328Y-106338591D01*
X150672240Y-106318563D01*
X150640000Y-106242847D01*
X150669797Y-106166644D01*
X150753817Y-106147104D01*
X151432812Y-106147104D01*
X151526601Y-106127076D01*
X151546629Y-106034752D01*
X151546629Y-105598046D01*
X151734207Y-105598046D01*
X151734207Y-106034752D01*
X151754235Y-106127076D01*
X151848513Y-106147104D01*
X152276427Y-106147104D01*
X152370704Y-106127076D01*
X152390732Y-106034752D01*
X152390732Y-105598046D01*
X152370704Y-105505234D01*
X152276427Y-105485694D01*
X151848513Y-105485694D01*
X151754235Y-105505234D01*
X151734207Y-105598046D01*
X151546629Y-105598046D01*
X151526601Y-105505234D01*
X151432812Y-105485694D01*
X150753817Y-105485694D01*
X150660027Y-105468597D01*
X150640000Y-105373343D01*
X150640000Y-105187718D01*
X150660027Y-105091487D01*
X150755282Y-105074878D01*
X151445024Y-105074878D01*
X151541558Y-105094536D01*
G37*
G36*
X150640000Y-106725960D02*
G01*
X150657096Y-106633147D01*
X150753328Y-106613608D01*
X152464982Y-106613608D01*
X152548513Y-106633147D01*
X152578311Y-106706420D01*
X152544605Y-106785066D01*
X152462051Y-106804606D01*
X151819204Y-106804606D01*
X151722972Y-106824145D01*
X151702944Y-106917446D01*
X151702944Y-107381507D01*
X151722972Y-107474320D01*
X151819204Y-107494348D01*
X152462051Y-107494348D01*
X152547536Y-107515353D01*
X152578311Y-107592533D01*
X152545582Y-107666783D01*
X152464982Y-107685346D01*
X151835812Y-107685346D01*
X151774752Y-107695115D01*
X151742023Y-107721982D01*
X151724926Y-107763015D01*
X151716622Y-107811863D01*
X151662583Y-107896013D01*
X151657027Y-107897837D01*
X151558353Y-107910537D01*
X150753328Y-107910537D01*
X150657096Y-107890510D01*
X150640000Y-107798186D01*
X150640000Y-107612073D01*
X150656608Y-107519260D01*
X150751374Y-107499721D01*
X151403991Y-107499721D01*
X151495826Y-107479693D01*
X151515366Y-107387369D01*
X151515366Y-107136776D01*
X151495826Y-107043964D01*
X151403991Y-107024424D01*
X150751374Y-107024424D01*
X150656608Y-107004397D01*
X150640000Y-106911584D01*
X150640000Y-106725960D01*
G37*
G36*
X150783897Y-55710000D02*
G01*
X150695481Y-55687529D01*
X150671545Y-55596671D01*
X150671545Y-53885017D01*
X150695481Y-53796113D01*
X150783897Y-53771688D01*
X151619696Y-53771688D01*
X151708112Y-53795136D01*
X151732048Y-53882086D01*
X151732048Y-54293879D01*
X151729117Y-54355917D01*
X151714951Y-54389623D01*
X151681245Y-54403789D01*
X151619696Y-54406720D01*
X151433583Y-54406720D01*
X151372034Y-54403789D01*
X151337840Y-54389623D01*
X151323674Y-54355917D01*
X151321231Y-54293879D01*
X151321231Y-54043775D01*
X151302669Y-53976364D01*
X151225488Y-53959267D01*
X150966591Y-53959267D01*
X150877686Y-53979295D01*
X150862543Y-54073572D01*
X150862543Y-55408115D01*
X150882083Y-55502393D01*
X150974895Y-55522421D01*
X151428210Y-55522421D01*
X151520533Y-55502882D01*
X151540561Y-55410069D01*
X151540561Y-55201974D01*
X151560101Y-55118932D01*
X151633374Y-55089134D01*
X151712020Y-55121863D01*
X151732048Y-55201974D01*
X151732048Y-55599602D01*
X151729117Y-55660662D01*
X151714951Y-55693879D01*
X151681245Y-55707557D01*
X151619696Y-55710000D01*
X150783897Y-55710000D01*
G37*
G36*
X153260031Y-53796113D02*
G01*
X153283967Y-53885017D01*
X153283967Y-55596671D01*
X153263939Y-55677759D01*
X153188224Y-55710000D01*
X153112020Y-55680202D01*
X153092480Y-55596182D01*
X153092480Y-54917187D01*
X153072452Y-54823398D01*
X152980129Y-54803370D01*
X152543422Y-54803370D01*
X152450610Y-54823398D01*
X152431071Y-54917187D01*
X152431071Y-55596182D01*
X152413974Y-55689972D01*
X152318719Y-55710000D01*
X152133094Y-55710000D01*
X152036863Y-55689972D01*
X152020254Y-55594717D01*
X152020254Y-54904975D01*
X152039912Y-54808441D01*
X152044190Y-54802393D01*
X152133094Y-54772107D01*
X152193178Y-54760872D01*
X152225907Y-54731563D01*
X152238607Y-54692972D01*
X152240073Y-54652428D01*
X152240073Y-54073572D01*
X152431071Y-54073572D01*
X152431071Y-54501486D01*
X152450610Y-54595764D01*
X152543422Y-54615792D01*
X152980129Y-54615792D01*
X153072452Y-54595764D01*
X153092480Y-54501486D01*
X153092480Y-54073572D01*
X153072452Y-53979295D01*
X152980129Y-53959267D01*
X152543422Y-53959267D01*
X152450610Y-53979295D01*
X152431071Y-54073572D01*
X152240073Y-54073572D01*
X152240073Y-53883063D01*
X152264009Y-53795624D01*
X152352424Y-53771688D01*
X153171615Y-53771688D01*
X153260031Y-53796113D01*
G37*
G36*
X154104623Y-55710000D02*
G01*
X154011810Y-55690460D01*
X153992271Y-55598625D01*
X153992271Y-55227376D01*
X154011810Y-55135540D01*
X154104623Y-55116001D01*
X154290736Y-55116001D01*
X154383060Y-55135540D01*
X154403087Y-55227376D01*
X154403087Y-55598625D01*
X154383060Y-55690460D01*
X154290736Y-55710000D01*
X154104623Y-55710000D01*
G37*
G36*
X153755844Y-55596182D02*
G01*
X153738747Y-55671898D01*
X153660101Y-55710000D01*
X153580966Y-55671898D01*
X153564357Y-55596671D01*
X153564357Y-53885017D01*
X153588293Y-53796113D01*
X153676709Y-53771688D01*
X153823255Y-53771688D01*
X153882362Y-53777550D01*
X153920464Y-53793182D01*
X153949773Y-53820048D01*
X153981036Y-53859127D01*
X154563311Y-54573782D01*
X154590177Y-54597718D01*
X154625348Y-54610418D01*
X154657588Y-54581109D01*
X154661985Y-54508813D01*
X154661985Y-53884528D01*
X154678593Y-53809790D01*
X154760170Y-53771688D01*
X154835886Y-53810279D01*
X154852983Y-53885017D01*
X154852983Y-55596671D01*
X154835886Y-55671898D01*
X154760170Y-55710000D01*
X154678593Y-55671898D01*
X154661985Y-55596182D01*
X154661985Y-55161430D01*
X154659054Y-55074968D01*
X154649284Y-55009511D01*
X154628279Y-54954312D01*
X154591643Y-54903021D01*
X153865753Y-54007627D01*
X153837421Y-53976364D01*
X153800785Y-53959267D01*
X153761217Y-53991995D01*
X153755844Y-54064291D01*
X153755844Y-55596182D01*
G37*
G36*
X155271615Y-55710000D02*
G01*
X155183199Y-55686064D01*
X155159263Y-55596671D01*
X155159263Y-54896671D01*
X155171964Y-54833168D01*
X155205669Y-54803370D01*
X155253541Y-54792135D01*
X155308251Y-54783342D01*
X155370289Y-54745240D01*
X155378593Y-54675875D01*
X155378593Y-53885017D01*
X155398133Y-53801486D01*
X155474337Y-53771688D01*
X155550052Y-53804417D01*
X155570080Y-53885505D01*
X155570080Y-55408604D01*
X155589619Y-55502882D01*
X155682431Y-55522421D01*
X156099110Y-55522421D01*
X156179221Y-55544403D01*
X156211461Y-55616210D01*
X156179221Y-55688018D01*
X156099110Y-55710000D01*
X155271615Y-55710000D01*
G37*
G36*
X77453886Y-89433915D02*
G01*
X77478311Y-89522331D01*
X77478311Y-90465108D01*
X77454375Y-90553524D01*
X77365959Y-90577460D01*
X76558981Y-90577460D01*
X76470565Y-90553524D01*
X76446629Y-90465108D01*
X76446629Y-89933147D01*
X76426601Y-89840335D01*
X76332323Y-89820796D01*
X75654305Y-89820796D01*
X75558227Y-89802000D01*
X75557096Y-89800768D01*
X75540990Y-89713329D01*
X76634207Y-89713329D01*
X76634207Y-90273622D01*
X76653747Y-90365946D01*
X76748025Y-90385974D01*
X77176915Y-90385974D01*
X77270704Y-90365946D01*
X77290732Y-90273622D01*
X77290732Y-89713329D01*
X77270704Y-89620517D01*
X77176915Y-89600977D01*
X76748025Y-89600977D01*
X76653747Y-89620517D01*
X76634207Y-89713329D01*
X75540990Y-89713329D01*
X75540000Y-89707955D01*
X75540000Y-89522331D01*
X75557096Y-89429519D01*
X75653328Y-89409979D01*
X77364982Y-89409979D01*
X77453886Y-89433915D01*
G37*
G36*
X77452909Y-90852966D02*
G01*
X77478311Y-90939916D01*
X77478311Y-91950593D01*
X77453886Y-92039009D01*
X77364982Y-92062945D01*
X75653328Y-92062945D01*
X75563935Y-92039009D01*
X75540000Y-91950593D01*
X75540000Y-91131403D01*
X75727578Y-91131403D01*
X75727578Y-91539288D01*
X75747606Y-91632101D01*
X75841884Y-91652129D01*
X76580474Y-91652129D01*
X76660097Y-91674599D01*
X76680125Y-91747872D01*
X76680125Y-91798186D01*
X76717250Y-91862666D01*
X76805666Y-91871459D01*
X77176427Y-91871459D01*
X77270704Y-91851431D01*
X77290732Y-91759107D01*
X77290732Y-91131403D01*
X77270704Y-91038591D01*
X77176427Y-91019051D01*
X75841884Y-91019051D01*
X75747606Y-91038591D01*
X75727578Y-91131403D01*
X75540000Y-91131403D01*
X75540000Y-90939916D01*
X75563935Y-90851500D01*
X75653328Y-90827565D01*
X77364982Y-90827565D01*
X77452909Y-90852966D01*
G37*
G36*
X76884312Y-93019400D02*
G01*
X76901409Y-92926588D01*
X76999106Y-92907048D01*
X77363517Y-92907048D01*
X77460083Y-92925386D01*
X77461214Y-92926588D01*
X77478311Y-93019400D01*
X77478311Y-93205513D01*
X77461214Y-93297837D01*
X77363517Y-93317865D01*
X76999106Y-93317865D01*
X76902540Y-93299069D01*
X76901409Y-93297837D01*
X76884312Y-93205513D01*
X76884312Y-93019400D01*
G37*
G36*
X75540000Y-92378018D02*
G01*
X75563935Y-92289602D01*
X75653328Y-92265667D01*
X77364982Y-92265667D01*
X77461214Y-92285206D01*
X77478311Y-92378018D01*
X77478311Y-92564131D01*
X77461214Y-92656455D01*
X77364982Y-92676483D01*
X76126671Y-92676483D01*
X76126671Y-92682345D01*
X76586336Y-92808863D01*
X76647885Y-92825471D01*
X76703572Y-92847942D01*
X76743628Y-92884578D01*
X76759260Y-92946616D01*
X76715296Y-93030635D01*
X76627247Y-93079575D01*
X76612714Y-93087300D01*
X75794989Y-93478088D01*
X75751514Y-93496162D01*
X75727578Y-93525960D01*
X75747117Y-93542568D01*
X75798408Y-93545499D01*
X77364494Y-93545499D01*
X77442651Y-93565039D01*
X77478311Y-93641242D01*
X77442651Y-93715981D01*
X77364982Y-93736985D01*
X75653328Y-93736985D01*
X75563935Y-93713050D01*
X75540000Y-93624634D01*
X75540000Y-93458549D01*
X75542442Y-93413119D01*
X75553677Y-93385276D01*
X75575659Y-93365736D01*
X75614738Y-93345708D01*
X76291779Y-93014027D01*
X76331835Y-92994487D01*
X76352840Y-92960293D01*
X76330369Y-92926588D01*
X76286406Y-92909979D01*
X75617180Y-92715562D01*
X75553677Y-92673552D01*
X75540000Y-92603210D01*
X75540000Y-92378018D01*
G37*
G36*
X76441558Y-93994536D02*
G01*
X76447606Y-93998814D01*
X76477892Y-94087718D01*
X76489127Y-94147802D01*
X76518436Y-94180530D01*
X76557027Y-94193231D01*
X76597571Y-94194697D01*
X77366936Y-94194697D01*
X77454375Y-94218632D01*
X77478311Y-94307048D01*
X77478311Y-95126239D01*
X77453886Y-95214655D01*
X77364982Y-95238591D01*
X75653328Y-95238591D01*
X75572240Y-95218563D01*
X75540000Y-95142847D01*
X75569797Y-95066644D01*
X75653817Y-95047104D01*
X76332812Y-95047104D01*
X76426601Y-95027076D01*
X76446629Y-94934752D01*
X76446629Y-94498046D01*
X76634207Y-94498046D01*
X76634207Y-94934752D01*
X76654235Y-95027076D01*
X76748513Y-95047104D01*
X77176427Y-95047104D01*
X77270704Y-95027076D01*
X77290732Y-94934752D01*
X77290732Y-94498046D01*
X77270704Y-94405234D01*
X77176427Y-94385694D01*
X76748513Y-94385694D01*
X76654235Y-94405234D01*
X76634207Y-94498046D01*
X76446629Y-94498046D01*
X76426601Y-94405234D01*
X76332812Y-94385694D01*
X75653817Y-94385694D01*
X75560027Y-94368597D01*
X75540000Y-94273343D01*
X75540000Y-94087718D01*
X75560027Y-93991487D01*
X75655282Y-93974878D01*
X76345024Y-93974878D01*
X76441558Y-93994536D01*
G37*
G36*
X75540000Y-95625960D02*
G01*
X75557096Y-95533147D01*
X75653328Y-95513608D01*
X77364982Y-95513608D01*
X77448513Y-95533147D01*
X77478311Y-95606420D01*
X77444605Y-95685066D01*
X77362051Y-95704606D01*
X76719204Y-95704606D01*
X76622972Y-95724145D01*
X76602944Y-95817446D01*
X76602944Y-96281507D01*
X76622972Y-96374320D01*
X76719204Y-96394348D01*
X77362051Y-96394348D01*
X77447536Y-96415353D01*
X77478311Y-96492533D01*
X77445582Y-96566783D01*
X77364982Y-96585346D01*
X76735812Y-96585346D01*
X76674752Y-96595115D01*
X76642023Y-96621982D01*
X76624926Y-96663015D01*
X76616622Y-96711863D01*
X76562583Y-96796013D01*
X76557027Y-96797837D01*
X76458353Y-96810537D01*
X75653328Y-96810537D01*
X75557096Y-96790510D01*
X75540000Y-96698186D01*
X75540000Y-96512073D01*
X75556608Y-96419260D01*
X75651374Y-96399721D01*
X76303991Y-96399721D01*
X76395826Y-96379693D01*
X76415366Y-96287369D01*
X76415366Y-96036776D01*
X76395826Y-95943964D01*
X76303991Y-95924424D01*
X75651374Y-95924424D01*
X75556608Y-95904397D01*
X75540000Y-95811584D01*
X75540000Y-95625960D01*
G37*
G36*
X154740809Y-100847243D02*
G01*
X154594922Y-100820839D01*
X154585471Y-100817201D01*
X154510294Y-100688187D01*
X154510000Y-100674319D01*
X154567782Y-100538799D01*
X154585471Y-100529972D01*
X154730843Y-100500777D01*
X154740809Y-100500662D01*
X155325526Y-100500662D01*
X155388541Y-100488206D01*
X155400997Y-100425191D01*
X155400997Y-99838276D01*
X155427401Y-99689297D01*
X155431039Y-99680006D01*
X155558698Y-99606073D01*
X155565129Y-99606001D01*
X155653056Y-99627250D01*
X155702882Y-99682205D01*
X155724863Y-99755478D01*
X155729260Y-99838276D01*
X155729260Y-100425191D01*
X155741716Y-100488206D01*
X155805464Y-100500662D01*
X156392379Y-100500662D01*
X156538911Y-100526422D01*
X156548450Y-100529972D01*
X156624356Y-100660360D01*
X156624654Y-100674319D01*
X156562069Y-100810965D01*
X156548450Y-100817201D01*
X156402348Y-100847126D01*
X156392379Y-100847243D01*
X155805464Y-100847243D01*
X155741716Y-100859699D01*
X155729260Y-100922714D01*
X155729260Y-101517690D01*
X155702856Y-101663534D01*
X155699218Y-101672295D01*
X155565129Y-101741905D01*
X155432989Y-101676578D01*
X155431039Y-101672295D01*
X155401115Y-101528254D01*
X155400997Y-101517690D01*
X155400997Y-100922714D01*
X155388541Y-100859699D01*
X155325526Y-100847243D01*
X154740809Y-100847243D01*
G37*
G36*
X155588576Y-107440334D02*
G01*
X155628143Y-107309176D01*
X155762868Y-107250787D01*
X155776154Y-107250558D01*
X155916141Y-107298700D01*
X155924166Y-107309176D01*
X155963733Y-107440334D01*
X155963733Y-108132763D01*
X155924166Y-108263189D01*
X155789441Y-108322308D01*
X155776154Y-108322540D01*
X155636167Y-108273795D01*
X155628143Y-108263189D01*
X155588576Y-108132763D01*
X155588576Y-107440334D01*
G37*
G36*
X70140000Y-70161828D02*
G01*
X70162470Y-70073412D01*
X70253328Y-70049476D01*
X71964982Y-70049476D01*
X72053886Y-70073412D01*
X72078311Y-70161828D01*
X72078311Y-70997627D01*
X72054863Y-71086043D01*
X71967913Y-71109979D01*
X71556120Y-71109979D01*
X71494082Y-71107048D01*
X71460376Y-71092882D01*
X71446210Y-71059176D01*
X71443279Y-70997627D01*
X71443279Y-70811514D01*
X71446210Y-70749965D01*
X71460376Y-70715771D01*
X71494082Y-70701605D01*
X71556120Y-70699162D01*
X71806224Y-70699162D01*
X71873635Y-70680600D01*
X71890732Y-70603419D01*
X71890732Y-70344522D01*
X71870704Y-70255617D01*
X71776427Y-70240474D01*
X70441884Y-70240474D01*
X70347606Y-70260014D01*
X70327578Y-70352826D01*
X70327578Y-70806141D01*
X70347117Y-70898464D01*
X70439930Y-70918492D01*
X70648025Y-70918492D01*
X70731067Y-70938032D01*
X70760865Y-71011305D01*
X70728136Y-71089951D01*
X70648025Y-71109979D01*
X70250397Y-71109979D01*
X70189337Y-71107048D01*
X70156120Y-71092882D01*
X70142442Y-71059176D01*
X70140000Y-70997627D01*
X70140000Y-70161828D01*
G37*
G36*
X72052909Y-71386950D02*
G01*
X72078311Y-71473900D01*
X72078311Y-72484577D01*
X72053886Y-72572993D01*
X71964982Y-72596929D01*
X70253328Y-72596929D01*
X70163935Y-72572993D01*
X70140000Y-72484577D01*
X70140000Y-71665387D01*
X70327578Y-71665387D01*
X70327578Y-72073272D01*
X70347606Y-72166085D01*
X70441884Y-72186113D01*
X71180474Y-72186113D01*
X71260097Y-72208583D01*
X71280125Y-72281856D01*
X71280125Y-72332170D01*
X71317250Y-72396650D01*
X71405666Y-72405443D01*
X71776427Y-72405443D01*
X71870704Y-72385415D01*
X71890732Y-72293091D01*
X71890732Y-71665387D01*
X71870704Y-71572575D01*
X71776427Y-71553035D01*
X70441884Y-71553035D01*
X70347606Y-71572575D01*
X70327578Y-71665387D01*
X70140000Y-71665387D01*
X70140000Y-71473900D01*
X70163935Y-71385485D01*
X70253328Y-71361549D01*
X71964982Y-71361549D01*
X72052909Y-71386950D01*
G37*
G36*
X72052909Y-72838730D02*
G01*
X72078311Y-72925680D01*
X72078311Y-73936357D01*
X72053886Y-74024773D01*
X71964982Y-74048709D01*
X70253328Y-74048709D01*
X70163935Y-74024773D01*
X70140000Y-73936357D01*
X70140000Y-73117166D01*
X70327578Y-73117166D01*
X70327578Y-73525052D01*
X70347606Y-73617864D01*
X70441884Y-73637892D01*
X71180474Y-73637892D01*
X71260097Y-73660362D01*
X71280125Y-73733635D01*
X71280125Y-73783949D01*
X71317250Y-73848429D01*
X71405666Y-73857222D01*
X71776427Y-73857222D01*
X71870704Y-73837194D01*
X71890732Y-73744870D01*
X71890732Y-73117166D01*
X71870704Y-73024354D01*
X71776427Y-73004815D01*
X70441884Y-73004815D01*
X70347606Y-73024354D01*
X70327578Y-73117166D01*
X70140000Y-73117166D01*
X70140000Y-72925680D01*
X70163935Y-72837264D01*
X70253328Y-72813328D01*
X71964982Y-72813328D01*
X72052909Y-72838730D01*
G37*
G36*
X70140000Y-74442428D02*
G01*
X70163935Y-74354012D01*
X70253328Y-74330076D01*
X70953328Y-74330076D01*
X71016831Y-74342777D01*
X71046629Y-74376482D01*
X71057864Y-74424354D01*
X71066657Y-74479064D01*
X71104759Y-74541102D01*
X71174124Y-74549406D01*
X71964982Y-74549406D01*
X72048513Y-74568946D01*
X72078311Y-74645150D01*
X72045582Y-74720865D01*
X71964494Y-74740893D01*
X70441395Y-74740893D01*
X70347117Y-74760432D01*
X70327578Y-74853245D01*
X70327578Y-75269923D01*
X70305596Y-75350034D01*
X70233789Y-75382275D01*
X70161981Y-75350034D01*
X70140000Y-75269923D01*
X70140000Y-74442428D01*
G37*
G36*
X70140000Y-75749616D02*
G01*
X70171263Y-75660711D01*
X70267494Y-75636776D01*
X71964982Y-75636776D01*
X72053886Y-75660711D01*
X72078311Y-75749616D01*
X72078311Y-76534612D01*
X72056329Y-76613258D01*
X71984521Y-76644033D01*
X71912714Y-76613258D01*
X71890732Y-76534612D01*
X71890732Y-75940614D01*
X71869727Y-75847801D01*
X71772030Y-75828262D01*
X71321646Y-75828262D01*
X71224828Y-75846599D01*
X71223461Y-75847801D01*
X71202944Y-75940614D01*
X71202944Y-76534612D01*
X71181939Y-76613258D01*
X71114528Y-76644033D01*
X71038813Y-76613258D01*
X71015366Y-76534612D01*
X71015366Y-76160432D01*
X70995826Y-76067131D01*
X70904480Y-76047592D01*
X70438464Y-76047592D01*
X70346629Y-76067131D01*
X70327578Y-76160432D01*
X70327578Y-76534612D01*
X70305596Y-76613258D01*
X70236720Y-76644033D01*
X70161981Y-76613258D01*
X70140000Y-76534612D01*
X70140000Y-75749616D01*
G37*
G36*
X72053886Y-76903419D02*
G01*
X72078311Y-76991835D01*
X72078311Y-77831053D01*
X72053886Y-77919469D01*
X71964494Y-77943405D01*
X71348025Y-77943405D01*
X71258143Y-77961479D01*
X71234207Y-78033286D01*
X71234207Y-78075296D01*
X71204410Y-78151011D01*
X71132602Y-78168108D01*
X70253328Y-78168108D01*
X70156608Y-78148569D01*
X70140000Y-78055757D01*
X70140000Y-77870132D01*
X70157096Y-77776831D01*
X70253328Y-77757292D01*
X70933300Y-77757292D01*
X71026601Y-77737264D01*
X71046629Y-77644940D01*
X71046629Y-77402651D01*
X71026601Y-77309839D01*
X70933300Y-77290300D01*
X70253328Y-77290300D01*
X70157096Y-77270272D01*
X70140995Y-77183321D01*
X71234207Y-77183321D01*
X71234207Y-77639567D01*
X71254235Y-77731891D01*
X71349490Y-77751919D01*
X71775450Y-77751919D01*
X71870216Y-77731891D01*
X71890732Y-77639567D01*
X71890732Y-77183321D01*
X71870216Y-77090509D01*
X71775450Y-77070970D01*
X71349490Y-77070970D01*
X71254235Y-77090509D01*
X71234207Y-77183321D01*
X70140995Y-77183321D01*
X70140000Y-77177948D01*
X70140000Y-76991835D01*
X70157096Y-76899023D01*
X70253328Y-76879483D01*
X71964982Y-76879483D01*
X72053886Y-76903419D01*
G37*
G36*
X77840000Y-88384159D02*
G01*
X77862470Y-88295743D01*
X77953328Y-88271807D01*
X79664982Y-88271807D01*
X79753886Y-88295743D01*
X79778311Y-88384159D01*
X79778311Y-89219958D01*
X79754863Y-89308374D01*
X79667913Y-89332310D01*
X79256120Y-89332310D01*
X79194082Y-89329379D01*
X79160376Y-89315213D01*
X79146210Y-89281507D01*
X79143279Y-89219958D01*
X79143279Y-89033845D01*
X79146210Y-88972296D01*
X79160376Y-88938102D01*
X79194082Y-88923936D01*
X79256120Y-88921493D01*
X79506224Y-88921493D01*
X79573635Y-88902931D01*
X79590732Y-88825750D01*
X79590732Y-88566853D01*
X79570704Y-88477948D01*
X79476427Y-88462805D01*
X78141884Y-88462805D01*
X78047606Y-88482345D01*
X78027578Y-88575157D01*
X78027578Y-89028472D01*
X78047117Y-89120795D01*
X78139930Y-89140823D01*
X78348025Y-89140823D01*
X78431067Y-89160363D01*
X78460865Y-89233636D01*
X78428136Y-89312282D01*
X78348025Y-89332310D01*
X77950397Y-89332310D01*
X77889337Y-89329379D01*
X77856120Y-89315213D01*
X77842442Y-89281507D01*
X77840000Y-89219958D01*
X77840000Y-88384159D01*
G37*
G36*
X79752909Y-89609281D02*
G01*
X79778311Y-89696231D01*
X79778311Y-90706908D01*
X79753886Y-90795324D01*
X79664982Y-90819260D01*
X77953328Y-90819260D01*
X77863935Y-90795324D01*
X77840000Y-90706908D01*
X77840000Y-89887718D01*
X78027578Y-89887718D01*
X78027578Y-90295603D01*
X78047606Y-90388416D01*
X78141884Y-90408444D01*
X78880474Y-90408444D01*
X78960097Y-90430914D01*
X78980125Y-90504187D01*
X78980125Y-90554501D01*
X79017250Y-90618981D01*
X79105666Y-90627774D01*
X79476427Y-90627774D01*
X79570704Y-90607746D01*
X79590732Y-90515422D01*
X79590732Y-89887718D01*
X79570704Y-89794906D01*
X79476427Y-89775366D01*
X78141884Y-89775366D01*
X78047606Y-89794906D01*
X78027578Y-89887718D01*
X77840000Y-89887718D01*
X77840000Y-89696231D01*
X77863935Y-89607816D01*
X77953328Y-89583880D01*
X79664982Y-89583880D01*
X79752909Y-89609281D01*
G37*
G36*
X77840000Y-91553454D02*
G01*
X77859539Y-91460642D01*
X77951374Y-91441102D01*
X78322623Y-91441102D01*
X78414459Y-91460642D01*
X78433998Y-91553454D01*
X78433998Y-91739567D01*
X78414459Y-91831891D01*
X78322623Y-91851919D01*
X77951374Y-91851919D01*
X77859539Y-91831891D01*
X77840000Y-91739567D01*
X77840000Y-91553454D01*
G37*
G36*
X77956259Y-91212980D02*
G01*
X77873217Y-91190509D01*
X77840000Y-91114794D01*
X77873705Y-91044452D01*
X77953328Y-91021982D01*
X79664982Y-91021982D01*
X79753886Y-91045917D01*
X79778311Y-91134333D01*
X79778311Y-91292114D01*
X79762679Y-91360991D01*
X79709923Y-91399093D01*
X79306922Y-91578855D01*
X79266866Y-91598883D01*
X79246838Y-91629658D01*
X79263935Y-91658967D01*
X79303991Y-91682903D01*
X79709923Y-91911026D01*
X79768053Y-91965736D01*
X79778311Y-92043405D01*
X79778311Y-92380949D01*
X79753886Y-92469365D01*
X79664982Y-92493301D01*
X77953328Y-92493301D01*
X77857096Y-92472296D01*
X77840000Y-92380949D01*
X77840000Y-92194836D01*
X77857096Y-92102024D01*
X77955282Y-92082484D01*
X79533091Y-92082484D01*
X79573147Y-92081019D01*
X79590732Y-92065387D01*
X79569727Y-92034613D01*
X79531625Y-92015073D01*
X78994291Y-91730774D01*
X78932254Y-91683880D01*
X78902944Y-91620865D01*
X78932742Y-91553454D01*
X78996245Y-91516818D01*
X79542861Y-91283322D01*
X79575589Y-91266225D01*
X79590732Y-91243754D01*
X79574612Y-91218353D01*
X79544326Y-91212980D01*
X77956259Y-91212980D01*
G37*
G36*
X79753886Y-92752686D02*
G01*
X79778311Y-92841102D01*
X79778311Y-93783880D01*
X79754375Y-93872296D01*
X79665959Y-93896231D01*
X78858981Y-93896231D01*
X78770565Y-93872296D01*
X78746629Y-93783880D01*
X78746629Y-93251919D01*
X78726601Y-93159107D01*
X78632323Y-93139567D01*
X77954305Y-93139567D01*
X77858227Y-93120771D01*
X77857096Y-93119539D01*
X77840990Y-93032100D01*
X78934207Y-93032100D01*
X78934207Y-93592393D01*
X78953747Y-93684717D01*
X79048025Y-93704745D01*
X79476915Y-93704745D01*
X79570704Y-93684717D01*
X79590732Y-93592393D01*
X79590732Y-93032100D01*
X79570704Y-92939288D01*
X79476915Y-92919749D01*
X79048025Y-92919749D01*
X78953747Y-92939288D01*
X78934207Y-93032100D01*
X77840990Y-93032100D01*
X77840000Y-93026727D01*
X77840000Y-92841102D01*
X77857096Y-92748290D01*
X77953328Y-92728751D01*
X79664982Y-92728751D01*
X79753886Y-92752686D01*
G37*
G36*
X77840000Y-94289951D02*
G01*
X77863935Y-94201535D01*
X77953328Y-94177599D01*
X79664982Y-94177599D01*
X79742651Y-94198604D01*
X79778311Y-94273342D01*
X79742651Y-94347592D01*
X79664494Y-94368597D01*
X78141395Y-94368597D01*
X78047117Y-94388137D01*
X78027578Y-94480949D01*
X78027578Y-94717864D01*
X78047117Y-94810188D01*
X78141395Y-94830216D01*
X79664494Y-94830216D01*
X79761214Y-94849756D01*
X79778311Y-94942568D01*
X79778311Y-95128681D01*
X79761214Y-95221005D01*
X79664982Y-95241033D01*
X77953328Y-95241033D01*
X77863935Y-95217097D01*
X77840000Y-95128681D01*
X77840000Y-94289951D01*
G37*
G36*
X77840000Y-96015771D02*
G01*
X77857096Y-95922959D01*
X77953817Y-95903419D01*
X79476915Y-95903419D01*
X79570704Y-95883880D01*
X79590732Y-95791068D01*
X79590732Y-95585415D01*
X79611249Y-95503838D01*
X79684521Y-95473063D01*
X79757306Y-95503838D01*
X79778311Y-95585415D01*
X79778311Y-96632240D01*
X79757306Y-96713817D01*
X79684521Y-96745080D01*
X79611249Y-96713817D01*
X79590732Y-96632240D01*
X79590732Y-96427076D01*
X79570704Y-96333775D01*
X79476915Y-96314236D01*
X77953817Y-96314236D01*
X77857096Y-96294208D01*
X77840000Y-96201884D01*
X77840000Y-96015771D01*
G37*
G36*
X77840000Y-97082624D02*
G01*
X77871263Y-96993719D01*
X77967494Y-96969783D01*
X79664982Y-96969783D01*
X79753886Y-96993719D01*
X79778311Y-97082624D01*
X79778311Y-97867620D01*
X79756329Y-97946266D01*
X79684521Y-97977041D01*
X79612714Y-97946266D01*
X79590732Y-97867620D01*
X79590732Y-97273622D01*
X79569727Y-97180809D01*
X79472030Y-97161270D01*
X79021646Y-97161270D01*
X78924828Y-97179607D01*
X78923461Y-97180809D01*
X78902944Y-97273622D01*
X78902944Y-97867620D01*
X78881939Y-97946266D01*
X78814528Y-97977041D01*
X78738813Y-97946266D01*
X78715366Y-97867620D01*
X78715366Y-97493440D01*
X78695826Y-97400139D01*
X78604480Y-97380600D01*
X78138464Y-97380600D01*
X78046629Y-97400139D01*
X78027578Y-97493440D01*
X78027578Y-97867620D01*
X78005596Y-97946266D01*
X77936720Y-97977041D01*
X77861981Y-97946266D01*
X77840000Y-97867620D01*
X77840000Y-97082624D01*
G37*
G36*
X150883897Y-64510000D02*
G01*
X150795481Y-64487529D01*
X150771545Y-64396671D01*
X150771545Y-62685017D01*
X150795481Y-62596113D01*
X150883897Y-62571688D01*
X151719696Y-62571688D01*
X151808112Y-62595136D01*
X151832048Y-62682086D01*
X151832048Y-63093879D01*
X151829117Y-63155917D01*
X151814951Y-63189623D01*
X151781245Y-63203789D01*
X151719696Y-63206720D01*
X151533583Y-63206720D01*
X151472034Y-63203789D01*
X151437840Y-63189623D01*
X151423674Y-63155917D01*
X151421231Y-63093879D01*
X151421231Y-62843775D01*
X151402669Y-62776364D01*
X151325488Y-62759267D01*
X151066591Y-62759267D01*
X150977686Y-62779295D01*
X150962543Y-62873572D01*
X150962543Y-64208115D01*
X150982083Y-64302393D01*
X151074895Y-64322421D01*
X151528210Y-64322421D01*
X151620533Y-64302882D01*
X151640561Y-64210069D01*
X151640561Y-64001974D01*
X151660101Y-63918932D01*
X151733374Y-63889134D01*
X151812020Y-63921863D01*
X151832048Y-64001974D01*
X151832048Y-64399602D01*
X151829117Y-64460662D01*
X151814951Y-64493879D01*
X151781245Y-64507557D01*
X151719696Y-64510000D01*
X150883897Y-64510000D01*
G37*
G36*
X153360031Y-62596113D02*
G01*
X153383967Y-62685017D01*
X153383967Y-64396671D01*
X153363939Y-64477759D01*
X153288224Y-64510000D01*
X153212020Y-64480202D01*
X153192480Y-64396182D01*
X153192480Y-63717187D01*
X153172452Y-63623398D01*
X153080129Y-63603370D01*
X152643422Y-63603370D01*
X152550610Y-63623398D01*
X152531071Y-63717187D01*
X152531071Y-64396182D01*
X152513974Y-64489972D01*
X152418719Y-64510000D01*
X152233094Y-64510000D01*
X152136863Y-64489972D01*
X152120254Y-64394717D01*
X152120254Y-63704975D01*
X152139912Y-63608441D01*
X152144190Y-63602393D01*
X152233094Y-63572107D01*
X152293178Y-63560872D01*
X152325907Y-63531563D01*
X152338607Y-63492972D01*
X152340073Y-63452428D01*
X152340073Y-62873572D01*
X152531071Y-62873572D01*
X152531071Y-63301486D01*
X152550610Y-63395764D01*
X152643422Y-63415792D01*
X153080129Y-63415792D01*
X153172452Y-63395764D01*
X153192480Y-63301486D01*
X153192480Y-62873572D01*
X153172452Y-62779295D01*
X153080129Y-62759267D01*
X152643422Y-62759267D01*
X152550610Y-62779295D01*
X152531071Y-62873572D01*
X152340073Y-62873572D01*
X152340073Y-62683063D01*
X152364009Y-62595624D01*
X152452424Y-62571688D01*
X153271615Y-62571688D01*
X153360031Y-62596113D01*
G37*
G36*
X154204623Y-64510000D02*
G01*
X154111810Y-64490460D01*
X154092271Y-64398625D01*
X154092271Y-64027376D01*
X154111810Y-63935540D01*
X154204623Y-63916001D01*
X154390736Y-63916001D01*
X154483060Y-63935540D01*
X154503087Y-64027376D01*
X154503087Y-64398625D01*
X154483060Y-64490460D01*
X154390736Y-64510000D01*
X154204623Y-64510000D01*
G37*
G36*
X153855844Y-64396182D02*
G01*
X153838747Y-64471898D01*
X153760101Y-64510000D01*
X153680966Y-64471898D01*
X153664357Y-64396671D01*
X153664357Y-62685017D01*
X153688293Y-62596113D01*
X153776709Y-62571688D01*
X153923255Y-62571688D01*
X153982362Y-62577550D01*
X154020464Y-62593182D01*
X154049773Y-62620048D01*
X154081036Y-62659127D01*
X154663311Y-63373782D01*
X154690177Y-63397718D01*
X154725348Y-63410418D01*
X154757588Y-63381109D01*
X154761985Y-63308813D01*
X154761985Y-62684528D01*
X154778593Y-62609790D01*
X154860170Y-62571688D01*
X154935886Y-62610279D01*
X154952983Y-62685017D01*
X154952983Y-64396671D01*
X154935886Y-64471898D01*
X154860170Y-64510000D01*
X154778593Y-64471898D01*
X154761985Y-64396182D01*
X154761985Y-63961430D01*
X154759054Y-63874968D01*
X154749284Y-63809511D01*
X154728279Y-63754312D01*
X154691643Y-63703021D01*
X153965753Y-62807627D01*
X153937421Y-62776364D01*
X153900785Y-62759267D01*
X153861217Y-62791995D01*
X153855844Y-62864291D01*
X153855844Y-64396182D01*
G37*
G36*
X155326674Y-64510000D02*
G01*
X155233862Y-64492903D01*
X155214323Y-64396671D01*
X155214323Y-62685017D01*
X155233862Y-62601486D01*
X155307135Y-62571688D01*
X155385781Y-62605394D01*
X155405321Y-62687948D01*
X155405321Y-63330795D01*
X155424860Y-63427027D01*
X155518161Y-63447055D01*
X155982222Y-63447055D01*
X156075034Y-63427027D01*
X156095062Y-63330795D01*
X156095062Y-62687948D01*
X156116067Y-62602463D01*
X156193248Y-62571688D01*
X156267498Y-62604417D01*
X156286060Y-62685017D01*
X156286060Y-63314187D01*
X156295830Y-63375247D01*
X156322697Y-63407976D01*
X156363729Y-63425073D01*
X156412578Y-63433377D01*
X156496727Y-63487416D01*
X156498551Y-63492972D01*
X156511252Y-63591646D01*
X156511252Y-64396671D01*
X156491224Y-64492903D01*
X156398900Y-64510000D01*
X156212787Y-64510000D01*
X156119975Y-64493391D01*
X156100436Y-64398625D01*
X156100436Y-63746008D01*
X156080408Y-63654173D01*
X155988084Y-63634633D01*
X155737491Y-63634633D01*
X155644678Y-63654173D01*
X155625139Y-63746008D01*
X155625139Y-64398625D01*
X155605111Y-64493391D01*
X155512299Y-64510000D01*
X155326674Y-64510000D01*
G37*
G36*
X154390415Y-99620464D02*
G01*
X154408733Y-99686776D01*
X154408733Y-100233392D01*
X154401148Y-100313055D01*
X154375284Y-100386882D01*
X154331064Y-100446249D01*
X154271208Y-100489635D01*
X154197932Y-100515011D01*
X154119672Y-100522453D01*
X153244061Y-100522453D01*
X153165765Y-100515011D01*
X153092367Y-100489635D01*
X153032302Y-100446249D01*
X152988291Y-100386882D01*
X152962549Y-100313055D01*
X152955000Y-100233392D01*
X152955000Y-99994889D01*
X153095683Y-99994889D01*
X153095683Y-100231194D01*
X153106464Y-100306735D01*
X153129755Y-100345133D01*
X153199273Y-100375547D01*
X153245526Y-100378838D01*
X154118206Y-100378838D01*
X154191284Y-100369326D01*
X154233611Y-100345133D01*
X154264686Y-100276796D01*
X154268049Y-100231194D01*
X154268049Y-99994889D01*
X154253028Y-99925279D01*
X154182320Y-99910625D01*
X153181413Y-99910625D01*
X153110704Y-99925279D01*
X153095683Y-99994889D01*
X152955000Y-99994889D01*
X152955000Y-99686776D01*
X152971852Y-99620464D01*
X153039996Y-99602513D01*
X154323736Y-99602513D01*
X154390415Y-99620464D01*
G37*
G36*
X152955000Y-101074931D02*
G01*
X152967822Y-101004222D01*
X153039996Y-100988469D01*
X153494654Y-100988469D01*
X153567194Y-100984072D01*
X153630942Y-100950367D01*
X153758436Y-100796494D01*
X153809361Y-100761323D01*
X153883092Y-100750143D01*
X153896556Y-100749965D01*
X154323736Y-100749965D01*
X154381988Y-100764620D01*
X154408733Y-100821773D01*
X154382355Y-100878559D01*
X154324103Y-100893214D01*
X153952976Y-100893214D01*
X153880802Y-100901640D01*
X153834640Y-100939742D01*
X153737554Y-101066138D01*
X153708977Y-101106438D01*
X153695422Y-101150768D01*
X153707878Y-101198029D01*
X153737554Y-101241626D01*
X153834640Y-101359596D01*
X153880802Y-101397697D01*
X153952976Y-101406124D01*
X154324103Y-101406124D01*
X154382355Y-101420778D01*
X154408733Y-101477931D01*
X154381988Y-101534718D01*
X154323736Y-101549739D01*
X153896556Y-101549739D01*
X153822138Y-101541999D01*
X153809361Y-101538015D01*
X153758436Y-101503210D01*
X153630942Y-101349337D01*
X153572797Y-101304339D01*
X153567194Y-101302809D01*
X153494654Y-101296581D01*
X153039996Y-101296581D01*
X152967822Y-101281560D01*
X152955000Y-101212317D01*
X152955000Y-101074931D01*
G37*
G36*
X152955000Y-102160468D02*
G01*
X152969654Y-102090859D01*
X153038531Y-102076204D01*
X153316967Y-102076204D01*
X153385844Y-102090859D01*
X153400498Y-102160468D01*
X153400498Y-102300053D01*
X153385844Y-102369296D01*
X153316967Y-102384316D01*
X153038531Y-102384316D01*
X152969654Y-102369296D01*
X152955000Y-102300053D01*
X152955000Y-102160468D01*
G37*
G36*
X153040362Y-101898884D02*
G01*
X152983576Y-101886061D01*
X152955000Y-101827076D01*
X152983576Y-101767725D01*
X153039996Y-101755269D01*
X154323736Y-101755269D01*
X154390415Y-101773221D01*
X154408733Y-101839533D01*
X154408733Y-101949442D01*
X154404337Y-101993772D01*
X154392613Y-102022349D01*
X154372463Y-102044330D01*
X154343154Y-102067778D01*
X153807163Y-102504484D01*
X153789211Y-102524634D01*
X153779685Y-102551012D01*
X153801667Y-102575192D01*
X153855889Y-102578490D01*
X154324103Y-102578490D01*
X154380157Y-102590946D01*
X154408733Y-102652129D01*
X154379790Y-102708915D01*
X154323736Y-102721738D01*
X153039996Y-102721738D01*
X152983576Y-102708915D01*
X152955000Y-102652129D01*
X152983576Y-102590946D01*
X153040362Y-102578490D01*
X153366427Y-102578490D01*
X153431273Y-102576291D01*
X153480366Y-102568964D01*
X153521765Y-102553210D01*
X153560233Y-102525733D01*
X154231779Y-101981316D01*
X154255226Y-101960067D01*
X154268049Y-101932589D01*
X154243503Y-101902914D01*
X154189281Y-101898884D01*
X153040362Y-101898884D01*
G37*
G36*
X153631168Y-102944943D02*
G01*
X153635704Y-102948151D01*
X153658419Y-103014829D01*
X153666845Y-103059892D01*
X153688827Y-103084439D01*
X153717770Y-103093964D01*
X153748178Y-103095063D01*
X154325202Y-103095063D01*
X154390781Y-103113015D01*
X154408733Y-103179327D01*
X154408733Y-103793720D01*
X154390415Y-103860032D01*
X154323736Y-103877984D01*
X153039996Y-103877984D01*
X152979180Y-103862963D01*
X152955000Y-103806176D01*
X152977348Y-103749023D01*
X153040362Y-103734369D01*
X153549609Y-103734369D01*
X153619951Y-103719348D01*
X153634972Y-103650105D01*
X153634972Y-103322575D01*
X153775655Y-103322575D01*
X153775655Y-103650105D01*
X153790676Y-103719348D01*
X153861385Y-103734369D01*
X154182320Y-103734369D01*
X154253028Y-103719348D01*
X154268049Y-103650105D01*
X154268049Y-103322575D01*
X154253028Y-103252966D01*
X154182320Y-103238312D01*
X153861385Y-103238312D01*
X153790676Y-103252966D01*
X153775655Y-103322575D01*
X153634972Y-103322575D01*
X153619951Y-103252966D01*
X153549609Y-103238312D01*
X153040362Y-103238312D01*
X152970020Y-103225489D01*
X152955000Y-103154048D01*
X152955000Y-103014829D01*
X152970020Y-102942656D01*
X153041461Y-102930199D01*
X153558768Y-102930199D01*
X153631168Y-102944943D01*
G37*
G36*
X152955000Y-104457572D02*
G01*
X152969654Y-104387963D01*
X153038531Y-104373308D01*
X153316967Y-104373308D01*
X153385844Y-104387963D01*
X153400498Y-104457572D01*
X153400498Y-104597157D01*
X153385844Y-104666399D01*
X153316967Y-104681420D01*
X153038531Y-104681420D01*
X152969654Y-104666399D01*
X152955000Y-104597157D01*
X152955000Y-104457572D01*
G37*
G36*
X153042194Y-104202216D02*
G01*
X152979912Y-104185363D01*
X152955000Y-104128577D01*
X152980279Y-104075820D01*
X153039996Y-104058968D01*
X154323736Y-104058968D01*
X154390415Y-104076919D01*
X154408733Y-104143231D01*
X154408733Y-104261567D01*
X154397009Y-104313224D01*
X154357442Y-104341801D01*
X154055191Y-104476623D01*
X154025150Y-104491644D01*
X154010129Y-104514725D01*
X154022951Y-104536707D01*
X154052993Y-104554658D01*
X154357442Y-104725751D01*
X154401039Y-104766783D01*
X154408733Y-104825035D01*
X154408733Y-105078193D01*
X154390415Y-105144505D01*
X154323736Y-105162457D01*
X153039996Y-105162457D01*
X152967822Y-105146703D01*
X152955000Y-105078193D01*
X152955000Y-104938608D01*
X152967822Y-104868999D01*
X153041461Y-104854344D01*
X154224818Y-104854344D01*
X154254860Y-104853245D01*
X154268049Y-104841522D01*
X154252295Y-104818441D01*
X154223719Y-104803786D01*
X153820718Y-104590562D01*
X153774190Y-104555391D01*
X153752208Y-104508130D01*
X153774556Y-104457572D01*
X153822184Y-104430095D01*
X154232145Y-104254972D01*
X154256692Y-104242150D01*
X154268049Y-104225297D01*
X154255959Y-104206246D01*
X154233244Y-104202216D01*
X153042194Y-104202216D01*
G37*
G36*
X152955000Y-105425506D02*
G01*
X152967822Y-105355531D01*
X153039996Y-105340876D01*
X153564996Y-105340876D01*
X153612623Y-105350402D01*
X153634972Y-105375681D01*
X153643398Y-105412684D01*
X153649993Y-105454815D01*
X153678569Y-105499145D01*
X153730593Y-105505740D01*
X154323736Y-105505740D01*
X154386385Y-105521494D01*
X154408733Y-105579379D01*
X154384187Y-105635067D01*
X154323736Y-105648988D01*
X153039996Y-105648988D01*
X152967822Y-105634334D01*
X152955000Y-105564725D01*
X152955000Y-105425506D01*
G37*
G36*
X153039630Y-106021947D02*
G01*
X152979180Y-106006194D01*
X152955000Y-105950140D01*
X152979180Y-105894086D01*
X153039996Y-105878332D01*
X153411856Y-105878332D01*
X153486332Y-105883354D01*
X153507477Y-105888957D01*
X153564996Y-105937317D01*
X153686263Y-106084962D01*
X153716671Y-106119767D01*
X153751842Y-106137718D01*
X153787013Y-106119767D01*
X153817787Y-106084962D01*
X153939054Y-105937317D01*
X153996207Y-105888957D01*
X154071883Y-105878592D01*
X154092194Y-105878332D01*
X154323736Y-105878332D01*
X154384187Y-105894086D01*
X154408733Y-105950140D01*
X154384553Y-106006194D01*
X154324469Y-106021947D01*
X154149713Y-106021947D01*
X154076263Y-106030082D01*
X154069480Y-106032572D01*
X154021120Y-106070307D01*
X153922201Y-106188643D01*
X153887397Y-106231508D01*
X153869445Y-106279135D01*
X153887397Y-106326762D01*
X153922201Y-106369993D01*
X154021120Y-106488329D01*
X154069480Y-106526065D01*
X154142960Y-106536648D01*
X154149713Y-106536689D01*
X154324469Y-106536689D01*
X154384553Y-106552443D01*
X154408733Y-106608496D01*
X154384187Y-106664550D01*
X154323736Y-106680304D01*
X154092194Y-106680304D01*
X154017545Y-106675282D01*
X153996207Y-106669679D01*
X153939054Y-106621319D01*
X153817787Y-106473308D01*
X153787013Y-106438503D01*
X153751842Y-106420552D01*
X153716671Y-106438503D01*
X153686263Y-106473308D01*
X153564996Y-106621319D01*
X153509219Y-106668989D01*
X153507477Y-106669679D01*
X153432158Y-106680044D01*
X153411856Y-106680304D01*
X153039996Y-106680304D01*
X152979180Y-106664550D01*
X152955000Y-106608496D01*
X152979180Y-106552443D01*
X153039630Y-106536689D01*
X153353970Y-106536689D01*
X153427421Y-106528555D01*
X153434204Y-106526065D01*
X153482930Y-106488329D01*
X153582215Y-106369993D01*
X153617020Y-106326762D01*
X153634972Y-106279135D01*
X153617020Y-106231508D01*
X153582215Y-106188643D01*
X153482930Y-106070307D01*
X153434204Y-106032572D01*
X153360724Y-106021989D01*
X153353970Y-106021947D01*
X153039630Y-106021947D01*
G37*
G36*
X152955000Y-106970464D02*
G01*
X152978447Y-106903786D01*
X153050621Y-106885834D01*
X154323736Y-106885834D01*
X154390415Y-106903786D01*
X154408733Y-106970464D01*
X154408733Y-107559212D01*
X154392247Y-107618196D01*
X154338391Y-107641277D01*
X154284535Y-107618196D01*
X154268049Y-107559212D01*
X154268049Y-107113713D01*
X154252295Y-107044104D01*
X154179023Y-107029449D01*
X153841235Y-107029449D01*
X153768621Y-107043202D01*
X153767595Y-107044104D01*
X153752208Y-107113713D01*
X153752208Y-107559212D01*
X153736454Y-107618196D01*
X153685896Y-107641277D01*
X153629110Y-107618196D01*
X153611524Y-107559212D01*
X153611524Y-107278577D01*
X153596870Y-107208601D01*
X153528360Y-107193947D01*
X153178848Y-107193947D01*
X153109972Y-107208601D01*
X153095683Y-107278577D01*
X153095683Y-107559212D01*
X153079197Y-107618196D01*
X153027540Y-107641277D01*
X152971486Y-107618196D01*
X152955000Y-107559212D01*
X152955000Y-106970464D01*
G37*
G36*
X152955000Y-107931804D02*
G01*
X152972951Y-107865492D01*
X153039996Y-107847540D01*
X153564996Y-107847540D01*
X153612623Y-107857066D01*
X153634972Y-107882345D01*
X153643398Y-107918249D01*
X153649993Y-107959282D01*
X153678569Y-108005810D01*
X153730593Y-108012038D01*
X154323736Y-108012038D01*
X154386385Y-108026693D01*
X154408733Y-108083845D01*
X154384187Y-108140632D01*
X154323370Y-108155653D01*
X153181046Y-108155653D01*
X153110338Y-108170307D01*
X153095683Y-108239917D01*
X153095683Y-108552425D01*
X153079197Y-108612509D01*
X153025341Y-108636689D01*
X152971486Y-108612509D01*
X152955000Y-108552425D01*
X152955000Y-107931804D01*
G37*
D11*
X84257142Y-82054819D02*
X83923809Y-81578628D01*
X83685714Y-82054819D02*
X83685714Y-81054819D01*
X83685714Y-81054819D02*
X84066666Y-81054819D01*
X84066666Y-81054819D02*
X84161904Y-81102438D01*
X84161904Y-81102438D02*
X84209523Y-81150057D01*
X84209523Y-81150057D02*
X84257142Y-81245295D01*
X84257142Y-81245295D02*
X84257142Y-81388152D01*
X84257142Y-81388152D02*
X84209523Y-81483390D01*
X84209523Y-81483390D02*
X84161904Y-81531009D01*
X84161904Y-81531009D02*
X84066666Y-81578628D01*
X84066666Y-81578628D02*
X83685714Y-81578628D01*
X85209523Y-82054819D02*
X84638095Y-82054819D01*
X84923809Y-82054819D02*
X84923809Y-81054819D01*
X84923809Y-81054819D02*
X84828571Y-81197676D01*
X84828571Y-81197676D02*
X84733333Y-81292914D01*
X84733333Y-81292914D02*
X84638095Y-81340533D01*
X86161904Y-82054819D02*
X85590476Y-82054819D01*
X85876190Y-82054819D02*
X85876190Y-81054819D01*
X85876190Y-81054819D02*
X85780952Y-81197676D01*
X85780952Y-81197676D02*
X85685714Y-81292914D01*
X85685714Y-81292914D02*
X85590476Y-81340533D01*
X146891595Y-70529819D02*
X146891595Y-71339342D01*
X146891595Y-71339342D02*
X146939214Y-71434580D01*
X146939214Y-71434580D02*
X146986833Y-71482200D01*
X146986833Y-71482200D02*
X147082071Y-71529819D01*
X147082071Y-71529819D02*
X147272547Y-71529819D01*
X147272547Y-71529819D02*
X147367785Y-71482200D01*
X147367785Y-71482200D02*
X147415404Y-71434580D01*
X147415404Y-71434580D02*
X147463023Y-71339342D01*
X147463023Y-71339342D02*
X147463023Y-70529819D01*
X148415404Y-70529819D02*
X147939214Y-70529819D01*
X147939214Y-70529819D02*
X147891595Y-71006009D01*
X147891595Y-71006009D02*
X147939214Y-70958390D01*
X147939214Y-70958390D02*
X148034452Y-70910771D01*
X148034452Y-70910771D02*
X148272547Y-70910771D01*
X148272547Y-70910771D02*
X148367785Y-70958390D01*
X148367785Y-70958390D02*
X148415404Y-71006009D01*
X148415404Y-71006009D02*
X148463023Y-71101247D01*
X148463023Y-71101247D02*
X148463023Y-71339342D01*
X148463023Y-71339342D02*
X148415404Y-71434580D01*
X148415404Y-71434580D02*
X148367785Y-71482200D01*
X148367785Y-71482200D02*
X148272547Y-71529819D01*
X148272547Y-71529819D02*
X148034452Y-71529819D01*
X148034452Y-71529819D02*
X147939214Y-71482200D01*
X147939214Y-71482200D02*
X147891595Y-71434580D01*
X148233333Y-78454819D02*
X147900000Y-77978628D01*
X147661905Y-78454819D02*
X147661905Y-77454819D01*
X147661905Y-77454819D02*
X148042857Y-77454819D01*
X148042857Y-77454819D02*
X148138095Y-77502438D01*
X148138095Y-77502438D02*
X148185714Y-77550057D01*
X148185714Y-77550057D02*
X148233333Y-77645295D01*
X148233333Y-77645295D02*
X148233333Y-77788152D01*
X148233333Y-77788152D02*
X148185714Y-77883390D01*
X148185714Y-77883390D02*
X148138095Y-77931009D01*
X148138095Y-77931009D02*
X148042857Y-77978628D01*
X148042857Y-77978628D02*
X147661905Y-77978628D01*
X149090476Y-77454819D02*
X148900000Y-77454819D01*
X148900000Y-77454819D02*
X148804762Y-77502438D01*
X148804762Y-77502438D02*
X148757143Y-77550057D01*
X148757143Y-77550057D02*
X148661905Y-77692914D01*
X148661905Y-77692914D02*
X148614286Y-77883390D01*
X148614286Y-77883390D02*
X148614286Y-78264342D01*
X148614286Y-78264342D02*
X148661905Y-78359580D01*
X148661905Y-78359580D02*
X148709524Y-78407200D01*
X148709524Y-78407200D02*
X148804762Y-78454819D01*
X148804762Y-78454819D02*
X148995238Y-78454819D01*
X148995238Y-78454819D02*
X149090476Y-78407200D01*
X149090476Y-78407200D02*
X149138095Y-78359580D01*
X149138095Y-78359580D02*
X149185714Y-78264342D01*
X149185714Y-78264342D02*
X149185714Y-78026247D01*
X149185714Y-78026247D02*
X149138095Y-77931009D01*
X149138095Y-77931009D02*
X149090476Y-77883390D01*
X149090476Y-77883390D02*
X148995238Y-77835771D01*
X148995238Y-77835771D02*
X148804762Y-77835771D01*
X148804762Y-77835771D02*
X148709524Y-77883390D01*
X148709524Y-77883390D02*
X148661905Y-77931009D01*
X148661905Y-77931009D02*
X148614286Y-78026247D01*
X100245142Y-100569580D02*
X100197523Y-100617200D01*
X100197523Y-100617200D02*
X100054666Y-100664819D01*
X100054666Y-100664819D02*
X99959428Y-100664819D01*
X99959428Y-100664819D02*
X99816571Y-100617200D01*
X99816571Y-100617200D02*
X99721333Y-100521961D01*
X99721333Y-100521961D02*
X99673714Y-100426723D01*
X99673714Y-100426723D02*
X99626095Y-100236247D01*
X99626095Y-100236247D02*
X99626095Y-100093390D01*
X99626095Y-100093390D02*
X99673714Y-99902914D01*
X99673714Y-99902914D02*
X99721333Y-99807676D01*
X99721333Y-99807676D02*
X99816571Y-99712438D01*
X99816571Y-99712438D02*
X99959428Y-99664819D01*
X99959428Y-99664819D02*
X100054666Y-99664819D01*
X100054666Y-99664819D02*
X100197523Y-99712438D01*
X100197523Y-99712438D02*
X100245142Y-99760057D01*
X100626095Y-99760057D02*
X100673714Y-99712438D01*
X100673714Y-99712438D02*
X100768952Y-99664819D01*
X100768952Y-99664819D02*
X101007047Y-99664819D01*
X101007047Y-99664819D02*
X101102285Y-99712438D01*
X101102285Y-99712438D02*
X101149904Y-99760057D01*
X101149904Y-99760057D02*
X101197523Y-99855295D01*
X101197523Y-99855295D02*
X101197523Y-99950533D01*
X101197523Y-99950533D02*
X101149904Y-100093390D01*
X101149904Y-100093390D02*
X100578476Y-100664819D01*
X100578476Y-100664819D02*
X101197523Y-100664819D01*
X101816571Y-99664819D02*
X101911809Y-99664819D01*
X101911809Y-99664819D02*
X102007047Y-99712438D01*
X102007047Y-99712438D02*
X102054666Y-99760057D01*
X102054666Y-99760057D02*
X102102285Y-99855295D01*
X102102285Y-99855295D02*
X102149904Y-100045771D01*
X102149904Y-100045771D02*
X102149904Y-100283866D01*
X102149904Y-100283866D02*
X102102285Y-100474342D01*
X102102285Y-100474342D02*
X102054666Y-100569580D01*
X102054666Y-100569580D02*
X102007047Y-100617200D01*
X102007047Y-100617200D02*
X101911809Y-100664819D01*
X101911809Y-100664819D02*
X101816571Y-100664819D01*
X101816571Y-100664819D02*
X101721333Y-100617200D01*
X101721333Y-100617200D02*
X101673714Y-100569580D01*
X101673714Y-100569580D02*
X101626095Y-100474342D01*
X101626095Y-100474342D02*
X101578476Y-100283866D01*
X101578476Y-100283866D02*
X101578476Y-100045771D01*
X101578476Y-100045771D02*
X101626095Y-99855295D01*
X101626095Y-99855295D02*
X101673714Y-99760057D01*
X101673714Y-99760057D02*
X101721333Y-99712438D01*
X101721333Y-99712438D02*
X101816571Y-99664819D01*
X92266666Y-64754819D02*
X92266666Y-65469104D01*
X92266666Y-65469104D02*
X92219047Y-65611961D01*
X92219047Y-65611961D02*
X92123809Y-65707200D01*
X92123809Y-65707200D02*
X91980952Y-65754819D01*
X91980952Y-65754819D02*
X91885714Y-65754819D01*
X92647619Y-64754819D02*
X93314285Y-64754819D01*
X93314285Y-64754819D02*
X92885714Y-65754819D01*
X153191719Y-96916605D02*
X152858386Y-96440414D01*
X152620291Y-96916605D02*
X152620291Y-95916605D01*
X152620291Y-95916605D02*
X153001243Y-95916605D01*
X153001243Y-95916605D02*
X153096481Y-95964224D01*
X153096481Y-95964224D02*
X153144100Y-96011843D01*
X153144100Y-96011843D02*
X153191719Y-96107081D01*
X153191719Y-96107081D02*
X153191719Y-96249938D01*
X153191719Y-96249938D02*
X153144100Y-96345176D01*
X153144100Y-96345176D02*
X153096481Y-96392795D01*
X153096481Y-96392795D02*
X153001243Y-96440414D01*
X153001243Y-96440414D02*
X152620291Y-96440414D01*
X153763148Y-96345176D02*
X153667910Y-96297557D01*
X153667910Y-96297557D02*
X153620291Y-96249938D01*
X153620291Y-96249938D02*
X153572672Y-96154700D01*
X153572672Y-96154700D02*
X153572672Y-96107081D01*
X153572672Y-96107081D02*
X153620291Y-96011843D01*
X153620291Y-96011843D02*
X153667910Y-95964224D01*
X153667910Y-95964224D02*
X153763148Y-95916605D01*
X153763148Y-95916605D02*
X153953624Y-95916605D01*
X153953624Y-95916605D02*
X154048862Y-95964224D01*
X154048862Y-95964224D02*
X154096481Y-96011843D01*
X154096481Y-96011843D02*
X154144100Y-96107081D01*
X154144100Y-96107081D02*
X154144100Y-96154700D01*
X154144100Y-96154700D02*
X154096481Y-96249938D01*
X154096481Y-96249938D02*
X154048862Y-96297557D01*
X154048862Y-96297557D02*
X153953624Y-96345176D01*
X153953624Y-96345176D02*
X153763148Y-96345176D01*
X153763148Y-96345176D02*
X153667910Y-96392795D01*
X153667910Y-96392795D02*
X153620291Y-96440414D01*
X153620291Y-96440414D02*
X153572672Y-96535652D01*
X153572672Y-96535652D02*
X153572672Y-96726128D01*
X153572672Y-96726128D02*
X153620291Y-96821366D01*
X153620291Y-96821366D02*
X153667910Y-96868986D01*
X153667910Y-96868986D02*
X153763148Y-96916605D01*
X153763148Y-96916605D02*
X153953624Y-96916605D01*
X153953624Y-96916605D02*
X154048862Y-96868986D01*
X154048862Y-96868986D02*
X154096481Y-96821366D01*
X154096481Y-96821366D02*
X154144100Y-96726128D01*
X154144100Y-96726128D02*
X154144100Y-96535652D01*
X154144100Y-96535652D02*
X154096481Y-96440414D01*
X154096481Y-96440414D02*
X154048862Y-96392795D01*
X154048862Y-96392795D02*
X153953624Y-96345176D01*
X81057142Y-77389580D02*
X81009523Y-77437200D01*
X81009523Y-77437200D02*
X80866666Y-77484819D01*
X80866666Y-77484819D02*
X80771428Y-77484819D01*
X80771428Y-77484819D02*
X80628571Y-77437200D01*
X80628571Y-77437200D02*
X80533333Y-77341961D01*
X80533333Y-77341961D02*
X80485714Y-77246723D01*
X80485714Y-77246723D02*
X80438095Y-77056247D01*
X80438095Y-77056247D02*
X80438095Y-76913390D01*
X80438095Y-76913390D02*
X80485714Y-76722914D01*
X80485714Y-76722914D02*
X80533333Y-76627676D01*
X80533333Y-76627676D02*
X80628571Y-76532438D01*
X80628571Y-76532438D02*
X80771428Y-76484819D01*
X80771428Y-76484819D02*
X80866666Y-76484819D01*
X80866666Y-76484819D02*
X81009523Y-76532438D01*
X81009523Y-76532438D02*
X81057142Y-76580057D01*
X82009523Y-77484819D02*
X81438095Y-77484819D01*
X81723809Y-77484819D02*
X81723809Y-76484819D01*
X81723809Y-76484819D02*
X81628571Y-76627676D01*
X81628571Y-76627676D02*
X81533333Y-76722914D01*
X81533333Y-76722914D02*
X81438095Y-76770533D01*
X82342857Y-76484819D02*
X83009523Y-76484819D01*
X83009523Y-76484819D02*
X82580952Y-77484819D01*
X154757142Y-94159580D02*
X154709523Y-94207200D01*
X154709523Y-94207200D02*
X154566666Y-94254819D01*
X154566666Y-94254819D02*
X154471428Y-94254819D01*
X154471428Y-94254819D02*
X154328571Y-94207200D01*
X154328571Y-94207200D02*
X154233333Y-94111961D01*
X154233333Y-94111961D02*
X154185714Y-94016723D01*
X154185714Y-94016723D02*
X154138095Y-93826247D01*
X154138095Y-93826247D02*
X154138095Y-93683390D01*
X154138095Y-93683390D02*
X154185714Y-93492914D01*
X154185714Y-93492914D02*
X154233333Y-93397676D01*
X154233333Y-93397676D02*
X154328571Y-93302438D01*
X154328571Y-93302438D02*
X154471428Y-93254819D01*
X154471428Y-93254819D02*
X154566666Y-93254819D01*
X154566666Y-93254819D02*
X154709523Y-93302438D01*
X154709523Y-93302438D02*
X154757142Y-93350057D01*
X155709523Y-94254819D02*
X155138095Y-94254819D01*
X155423809Y-94254819D02*
X155423809Y-93254819D01*
X155423809Y-93254819D02*
X155328571Y-93397676D01*
X155328571Y-93397676D02*
X155233333Y-93492914D01*
X155233333Y-93492914D02*
X155138095Y-93540533D01*
X156661904Y-94254819D02*
X156090476Y-94254819D01*
X156376190Y-94254819D02*
X156376190Y-93254819D01*
X156376190Y-93254819D02*
X156280952Y-93397676D01*
X156280952Y-93397676D02*
X156185714Y-93492914D01*
X156185714Y-93492914D02*
X156090476Y-93540533D01*
X151833333Y-79054819D02*
X151500000Y-78578628D01*
X151261905Y-79054819D02*
X151261905Y-78054819D01*
X151261905Y-78054819D02*
X151642857Y-78054819D01*
X151642857Y-78054819D02*
X151738095Y-78102438D01*
X151738095Y-78102438D02*
X151785714Y-78150057D01*
X151785714Y-78150057D02*
X151833333Y-78245295D01*
X151833333Y-78245295D02*
X151833333Y-78388152D01*
X151833333Y-78388152D02*
X151785714Y-78483390D01*
X151785714Y-78483390D02*
X151738095Y-78531009D01*
X151738095Y-78531009D02*
X151642857Y-78578628D01*
X151642857Y-78578628D02*
X151261905Y-78578628D01*
X152166667Y-78054819D02*
X152785714Y-78054819D01*
X152785714Y-78054819D02*
X152452381Y-78435771D01*
X152452381Y-78435771D02*
X152595238Y-78435771D01*
X152595238Y-78435771D02*
X152690476Y-78483390D01*
X152690476Y-78483390D02*
X152738095Y-78531009D01*
X152738095Y-78531009D02*
X152785714Y-78626247D01*
X152785714Y-78626247D02*
X152785714Y-78864342D01*
X152785714Y-78864342D02*
X152738095Y-78959580D01*
X152738095Y-78959580D02*
X152690476Y-79007200D01*
X152690476Y-79007200D02*
X152595238Y-79054819D01*
X152595238Y-79054819D02*
X152309524Y-79054819D01*
X152309524Y-79054819D02*
X152214286Y-79007200D01*
X152214286Y-79007200D02*
X152166667Y-78959580D01*
X158659580Y-67942857D02*
X158707200Y-67990476D01*
X158707200Y-67990476D02*
X158754819Y-68133333D01*
X158754819Y-68133333D02*
X158754819Y-68228571D01*
X158754819Y-68228571D02*
X158707200Y-68371428D01*
X158707200Y-68371428D02*
X158611961Y-68466666D01*
X158611961Y-68466666D02*
X158516723Y-68514285D01*
X158516723Y-68514285D02*
X158326247Y-68561904D01*
X158326247Y-68561904D02*
X158183390Y-68561904D01*
X158183390Y-68561904D02*
X157992914Y-68514285D01*
X157992914Y-68514285D02*
X157897676Y-68466666D01*
X157897676Y-68466666D02*
X157802438Y-68371428D01*
X157802438Y-68371428D02*
X157754819Y-68228571D01*
X157754819Y-68228571D02*
X157754819Y-68133333D01*
X157754819Y-68133333D02*
X157802438Y-67990476D01*
X157802438Y-67990476D02*
X157850057Y-67942857D01*
X158754819Y-66990476D02*
X158754819Y-67561904D01*
X158754819Y-67276190D02*
X157754819Y-67276190D01*
X157754819Y-67276190D02*
X157897676Y-67371428D01*
X157897676Y-67371428D02*
X157992914Y-67466666D01*
X157992914Y-67466666D02*
X158040533Y-67561904D01*
X158183390Y-66419047D02*
X158135771Y-66514285D01*
X158135771Y-66514285D02*
X158088152Y-66561904D01*
X158088152Y-66561904D02*
X157992914Y-66609523D01*
X157992914Y-66609523D02*
X157945295Y-66609523D01*
X157945295Y-66609523D02*
X157850057Y-66561904D01*
X157850057Y-66561904D02*
X157802438Y-66514285D01*
X157802438Y-66514285D02*
X157754819Y-66419047D01*
X157754819Y-66419047D02*
X157754819Y-66228571D01*
X157754819Y-66228571D02*
X157802438Y-66133333D01*
X157802438Y-66133333D02*
X157850057Y-66085714D01*
X157850057Y-66085714D02*
X157945295Y-66038095D01*
X157945295Y-66038095D02*
X157992914Y-66038095D01*
X157992914Y-66038095D02*
X158088152Y-66085714D01*
X158088152Y-66085714D02*
X158135771Y-66133333D01*
X158135771Y-66133333D02*
X158183390Y-66228571D01*
X158183390Y-66228571D02*
X158183390Y-66419047D01*
X158183390Y-66419047D02*
X158231009Y-66514285D01*
X158231009Y-66514285D02*
X158278628Y-66561904D01*
X158278628Y-66561904D02*
X158373866Y-66609523D01*
X158373866Y-66609523D02*
X158564342Y-66609523D01*
X158564342Y-66609523D02*
X158659580Y-66561904D01*
X158659580Y-66561904D02*
X158707200Y-66514285D01*
X158707200Y-66514285D02*
X158754819Y-66419047D01*
X158754819Y-66419047D02*
X158754819Y-66228571D01*
X158754819Y-66228571D02*
X158707200Y-66133333D01*
X158707200Y-66133333D02*
X158659580Y-66085714D01*
X158659580Y-66085714D02*
X158564342Y-66038095D01*
X158564342Y-66038095D02*
X158373866Y-66038095D01*
X158373866Y-66038095D02*
X158278628Y-66085714D01*
X158278628Y-66085714D02*
X158231009Y-66133333D01*
X158231009Y-66133333D02*
X158183390Y-66228571D01*
X84757142Y-83654819D02*
X84423809Y-83178628D01*
X84185714Y-83654819D02*
X84185714Y-82654819D01*
X84185714Y-82654819D02*
X84566666Y-82654819D01*
X84566666Y-82654819D02*
X84661904Y-82702438D01*
X84661904Y-82702438D02*
X84709523Y-82750057D01*
X84709523Y-82750057D02*
X84757142Y-82845295D01*
X84757142Y-82845295D02*
X84757142Y-82988152D01*
X84757142Y-82988152D02*
X84709523Y-83083390D01*
X84709523Y-83083390D02*
X84661904Y-83131009D01*
X84661904Y-83131009D02*
X84566666Y-83178628D01*
X84566666Y-83178628D02*
X84185714Y-83178628D01*
X85709523Y-83654819D02*
X85138095Y-83654819D01*
X85423809Y-83654819D02*
X85423809Y-82654819D01*
X85423809Y-82654819D02*
X85328571Y-82797676D01*
X85328571Y-82797676D02*
X85233333Y-82892914D01*
X85233333Y-82892914D02*
X85138095Y-82940533D01*
X86090476Y-82750057D02*
X86138095Y-82702438D01*
X86138095Y-82702438D02*
X86233333Y-82654819D01*
X86233333Y-82654819D02*
X86471428Y-82654819D01*
X86471428Y-82654819D02*
X86566666Y-82702438D01*
X86566666Y-82702438D02*
X86614285Y-82750057D01*
X86614285Y-82750057D02*
X86661904Y-82845295D01*
X86661904Y-82845295D02*
X86661904Y-82940533D01*
X86661904Y-82940533D02*
X86614285Y-83083390D01*
X86614285Y-83083390D02*
X86042857Y-83654819D01*
X86042857Y-83654819D02*
X86661904Y-83654819D01*
D12*
X161982056Y-72404761D02*
X162586818Y-72404761D01*
X161316818Y-72828094D02*
X161982056Y-72404761D01*
X161982056Y-72404761D02*
X161316818Y-71981427D01*
X162586818Y-70892856D02*
X162586818Y-71618571D01*
X162586818Y-71255714D02*
X161316818Y-71255714D01*
X161316818Y-71255714D02*
X161498246Y-71376666D01*
X161498246Y-71376666D02*
X161619199Y-71497618D01*
X161619199Y-71497618D02*
X161679675Y-71618571D01*
D11*
X143663095Y-82379819D02*
X143663095Y-83189342D01*
X143663095Y-83189342D02*
X143710714Y-83284580D01*
X143710714Y-83284580D02*
X143758333Y-83332200D01*
X143758333Y-83332200D02*
X143853571Y-83379819D01*
X143853571Y-83379819D02*
X144044047Y-83379819D01*
X144044047Y-83379819D02*
X144139285Y-83332200D01*
X144139285Y-83332200D02*
X144186904Y-83284580D01*
X144186904Y-83284580D02*
X144234523Y-83189342D01*
X144234523Y-83189342D02*
X144234523Y-82379819D01*
X144663095Y-82475057D02*
X144710714Y-82427438D01*
X144710714Y-82427438D02*
X144805952Y-82379819D01*
X144805952Y-82379819D02*
X145044047Y-82379819D01*
X145044047Y-82379819D02*
X145139285Y-82427438D01*
X145139285Y-82427438D02*
X145186904Y-82475057D01*
X145186904Y-82475057D02*
X145234523Y-82570295D01*
X145234523Y-82570295D02*
X145234523Y-82665533D01*
X145234523Y-82665533D02*
X145186904Y-82808390D01*
X145186904Y-82808390D02*
X144615476Y-83379819D01*
X144615476Y-83379819D02*
X145234523Y-83379819D01*
X82981333Y-92274580D02*
X82933714Y-92322200D01*
X82933714Y-92322200D02*
X82790857Y-92369819D01*
X82790857Y-92369819D02*
X82695619Y-92369819D01*
X82695619Y-92369819D02*
X82552762Y-92322200D01*
X82552762Y-92322200D02*
X82457524Y-92226961D01*
X82457524Y-92226961D02*
X82409905Y-92131723D01*
X82409905Y-92131723D02*
X82362286Y-91941247D01*
X82362286Y-91941247D02*
X82362286Y-91798390D01*
X82362286Y-91798390D02*
X82409905Y-91607914D01*
X82409905Y-91607914D02*
X82457524Y-91512676D01*
X82457524Y-91512676D02*
X82552762Y-91417438D01*
X82552762Y-91417438D02*
X82695619Y-91369819D01*
X82695619Y-91369819D02*
X82790857Y-91369819D01*
X82790857Y-91369819D02*
X82933714Y-91417438D01*
X82933714Y-91417438D02*
X82981333Y-91465057D01*
X83933714Y-92369819D02*
X83362286Y-92369819D01*
X83648000Y-92369819D02*
X83648000Y-91369819D01*
X83648000Y-91369819D02*
X83552762Y-91512676D01*
X83552762Y-91512676D02*
X83457524Y-91607914D01*
X83457524Y-91607914D02*
X83362286Y-91655533D01*
X154991595Y-66829819D02*
X154991595Y-67639342D01*
X154991595Y-67639342D02*
X155039214Y-67734580D01*
X155039214Y-67734580D02*
X155086833Y-67782200D01*
X155086833Y-67782200D02*
X155182071Y-67829819D01*
X155182071Y-67829819D02*
X155372547Y-67829819D01*
X155372547Y-67829819D02*
X155467785Y-67782200D01*
X155467785Y-67782200D02*
X155515404Y-67734580D01*
X155515404Y-67734580D02*
X155563023Y-67639342D01*
X155563023Y-67639342D02*
X155563023Y-66829819D01*
X156467785Y-67163152D02*
X156467785Y-67829819D01*
X156229690Y-66782200D02*
X155991595Y-67496485D01*
X155991595Y-67496485D02*
X156610642Y-67496485D01*
X84761333Y-89959580D02*
X84713714Y-90007200D01*
X84713714Y-90007200D02*
X84570857Y-90054819D01*
X84570857Y-90054819D02*
X84475619Y-90054819D01*
X84475619Y-90054819D02*
X84332762Y-90007200D01*
X84332762Y-90007200D02*
X84237524Y-89911961D01*
X84237524Y-89911961D02*
X84189905Y-89816723D01*
X84189905Y-89816723D02*
X84142286Y-89626247D01*
X84142286Y-89626247D02*
X84142286Y-89483390D01*
X84142286Y-89483390D02*
X84189905Y-89292914D01*
X84189905Y-89292914D02*
X84237524Y-89197676D01*
X84237524Y-89197676D02*
X84332762Y-89102438D01*
X84332762Y-89102438D02*
X84475619Y-89054819D01*
X84475619Y-89054819D02*
X84570857Y-89054819D01*
X84570857Y-89054819D02*
X84713714Y-89102438D01*
X84713714Y-89102438D02*
X84761333Y-89150057D01*
X85618476Y-89054819D02*
X85428000Y-89054819D01*
X85428000Y-89054819D02*
X85332762Y-89102438D01*
X85332762Y-89102438D02*
X85285143Y-89150057D01*
X85285143Y-89150057D02*
X85189905Y-89292914D01*
X85189905Y-89292914D02*
X85142286Y-89483390D01*
X85142286Y-89483390D02*
X85142286Y-89864342D01*
X85142286Y-89864342D02*
X85189905Y-89959580D01*
X85189905Y-89959580D02*
X85237524Y-90007200D01*
X85237524Y-90007200D02*
X85332762Y-90054819D01*
X85332762Y-90054819D02*
X85523238Y-90054819D01*
X85523238Y-90054819D02*
X85618476Y-90007200D01*
X85618476Y-90007200D02*
X85666095Y-89959580D01*
X85666095Y-89959580D02*
X85713714Y-89864342D01*
X85713714Y-89864342D02*
X85713714Y-89626247D01*
X85713714Y-89626247D02*
X85666095Y-89531009D01*
X85666095Y-89531009D02*
X85618476Y-89483390D01*
X85618476Y-89483390D02*
X85523238Y-89435771D01*
X85523238Y-89435771D02*
X85332762Y-89435771D01*
X85332762Y-89435771D02*
X85237524Y-89483390D01*
X85237524Y-89483390D02*
X85189905Y-89531009D01*
X85189905Y-89531009D02*
X85142286Y-89626247D01*
X81057142Y-80289580D02*
X81009523Y-80337200D01*
X81009523Y-80337200D02*
X80866666Y-80384819D01*
X80866666Y-80384819D02*
X80771428Y-80384819D01*
X80771428Y-80384819D02*
X80628571Y-80337200D01*
X80628571Y-80337200D02*
X80533333Y-80241961D01*
X80533333Y-80241961D02*
X80485714Y-80146723D01*
X80485714Y-80146723D02*
X80438095Y-79956247D01*
X80438095Y-79956247D02*
X80438095Y-79813390D01*
X80438095Y-79813390D02*
X80485714Y-79622914D01*
X80485714Y-79622914D02*
X80533333Y-79527676D01*
X80533333Y-79527676D02*
X80628571Y-79432438D01*
X80628571Y-79432438D02*
X80771428Y-79384819D01*
X80771428Y-79384819D02*
X80866666Y-79384819D01*
X80866666Y-79384819D02*
X81009523Y-79432438D01*
X81009523Y-79432438D02*
X81057142Y-79480057D01*
X82009523Y-80384819D02*
X81438095Y-80384819D01*
X81723809Y-80384819D02*
X81723809Y-79384819D01*
X81723809Y-79384819D02*
X81628571Y-79527676D01*
X81628571Y-79527676D02*
X81533333Y-79622914D01*
X81533333Y-79622914D02*
X81438095Y-79670533D01*
X82342857Y-79384819D02*
X82961904Y-79384819D01*
X82961904Y-79384819D02*
X82628571Y-79765771D01*
X82628571Y-79765771D02*
X82771428Y-79765771D01*
X82771428Y-79765771D02*
X82866666Y-79813390D01*
X82866666Y-79813390D02*
X82914285Y-79861009D01*
X82914285Y-79861009D02*
X82961904Y-79956247D01*
X82961904Y-79956247D02*
X82961904Y-80194342D01*
X82961904Y-80194342D02*
X82914285Y-80289580D01*
X82914285Y-80289580D02*
X82866666Y-80337200D01*
X82866666Y-80337200D02*
X82771428Y-80384819D01*
X82771428Y-80384819D02*
X82485714Y-80384819D01*
X82485714Y-80384819D02*
X82390476Y-80337200D01*
X82390476Y-80337200D02*
X82342857Y-80289580D01*
D12*
X74876667Y-56904318D02*
X74876667Y-57811461D01*
X74876667Y-57811461D02*
X74816190Y-57992889D01*
X74816190Y-57992889D02*
X74695238Y-58113842D01*
X74695238Y-58113842D02*
X74513809Y-58174318D01*
X74513809Y-58174318D02*
X74392857Y-58174318D01*
X76025714Y-57327651D02*
X76025714Y-58174318D01*
X75723333Y-56843842D02*
X75420952Y-57750984D01*
X75420952Y-57750984D02*
X76207143Y-57750984D01*
D11*
X145008333Y-88149580D02*
X144960714Y-88197200D01*
X144960714Y-88197200D02*
X144817857Y-88244819D01*
X144817857Y-88244819D02*
X144722619Y-88244819D01*
X144722619Y-88244819D02*
X144579762Y-88197200D01*
X144579762Y-88197200D02*
X144484524Y-88101961D01*
X144484524Y-88101961D02*
X144436905Y-88006723D01*
X144436905Y-88006723D02*
X144389286Y-87816247D01*
X144389286Y-87816247D02*
X144389286Y-87673390D01*
X144389286Y-87673390D02*
X144436905Y-87482914D01*
X144436905Y-87482914D02*
X144484524Y-87387676D01*
X144484524Y-87387676D02*
X144579762Y-87292438D01*
X144579762Y-87292438D02*
X144722619Y-87244819D01*
X144722619Y-87244819D02*
X144817857Y-87244819D01*
X144817857Y-87244819D02*
X144960714Y-87292438D01*
X144960714Y-87292438D02*
X145008333Y-87340057D01*
X145484524Y-88244819D02*
X145675000Y-88244819D01*
X145675000Y-88244819D02*
X145770238Y-88197200D01*
X145770238Y-88197200D02*
X145817857Y-88149580D01*
X145817857Y-88149580D02*
X145913095Y-88006723D01*
X145913095Y-88006723D02*
X145960714Y-87816247D01*
X145960714Y-87816247D02*
X145960714Y-87435295D01*
X145960714Y-87435295D02*
X145913095Y-87340057D01*
X145913095Y-87340057D02*
X145865476Y-87292438D01*
X145865476Y-87292438D02*
X145770238Y-87244819D01*
X145770238Y-87244819D02*
X145579762Y-87244819D01*
X145579762Y-87244819D02*
X145484524Y-87292438D01*
X145484524Y-87292438D02*
X145436905Y-87340057D01*
X145436905Y-87340057D02*
X145389286Y-87435295D01*
X145389286Y-87435295D02*
X145389286Y-87673390D01*
X145389286Y-87673390D02*
X145436905Y-87768628D01*
X145436905Y-87768628D02*
X145484524Y-87816247D01*
X145484524Y-87816247D02*
X145579762Y-87863866D01*
X145579762Y-87863866D02*
X145770238Y-87863866D01*
X145770238Y-87863866D02*
X145865476Y-87816247D01*
X145865476Y-87816247D02*
X145913095Y-87768628D01*
X145913095Y-87768628D02*
X145960714Y-87673390D01*
X99011333Y-92454819D02*
X98535143Y-92454819D01*
X98535143Y-92454819D02*
X98535143Y-91454819D01*
X99868476Y-92454819D02*
X99297048Y-92454819D01*
X99582762Y-92454819D02*
X99582762Y-91454819D01*
X99582762Y-91454819D02*
X99487524Y-91597676D01*
X99487524Y-91597676D02*
X99392286Y-91692914D01*
X99392286Y-91692914D02*
X99297048Y-91740533D01*
X144357142Y-76454819D02*
X144023809Y-75978628D01*
X143785714Y-76454819D02*
X143785714Y-75454819D01*
X143785714Y-75454819D02*
X144166666Y-75454819D01*
X144166666Y-75454819D02*
X144261904Y-75502438D01*
X144261904Y-75502438D02*
X144309523Y-75550057D01*
X144309523Y-75550057D02*
X144357142Y-75645295D01*
X144357142Y-75645295D02*
X144357142Y-75788152D01*
X144357142Y-75788152D02*
X144309523Y-75883390D01*
X144309523Y-75883390D02*
X144261904Y-75931009D01*
X144261904Y-75931009D02*
X144166666Y-75978628D01*
X144166666Y-75978628D02*
X143785714Y-75978628D01*
X145309523Y-76454819D02*
X144738095Y-76454819D01*
X145023809Y-76454819D02*
X145023809Y-75454819D01*
X145023809Y-75454819D02*
X144928571Y-75597676D01*
X144928571Y-75597676D02*
X144833333Y-75692914D01*
X144833333Y-75692914D02*
X144738095Y-75740533D01*
X145928571Y-75454819D02*
X146023809Y-75454819D01*
X146023809Y-75454819D02*
X146119047Y-75502438D01*
X146119047Y-75502438D02*
X146166666Y-75550057D01*
X146166666Y-75550057D02*
X146214285Y-75645295D01*
X146214285Y-75645295D02*
X146261904Y-75835771D01*
X146261904Y-75835771D02*
X146261904Y-76073866D01*
X146261904Y-76073866D02*
X146214285Y-76264342D01*
X146214285Y-76264342D02*
X146166666Y-76359580D01*
X146166666Y-76359580D02*
X146119047Y-76407200D01*
X146119047Y-76407200D02*
X146023809Y-76454819D01*
X146023809Y-76454819D02*
X145928571Y-76454819D01*
X145928571Y-76454819D02*
X145833333Y-76407200D01*
X145833333Y-76407200D02*
X145785714Y-76359580D01*
X145785714Y-76359580D02*
X145738095Y-76264342D01*
X145738095Y-76264342D02*
X145690476Y-76073866D01*
X145690476Y-76073866D02*
X145690476Y-75835771D01*
X145690476Y-75835771D02*
X145738095Y-75645295D01*
X145738095Y-75645295D02*
X145785714Y-75550057D01*
X145785714Y-75550057D02*
X145833333Y-75502438D01*
X145833333Y-75502438D02*
X145928571Y-75454819D01*
X102459580Y-63442857D02*
X102507200Y-63490476D01*
X102507200Y-63490476D02*
X102554819Y-63633333D01*
X102554819Y-63633333D02*
X102554819Y-63728571D01*
X102554819Y-63728571D02*
X102507200Y-63871428D01*
X102507200Y-63871428D02*
X102411961Y-63966666D01*
X102411961Y-63966666D02*
X102316723Y-64014285D01*
X102316723Y-64014285D02*
X102126247Y-64061904D01*
X102126247Y-64061904D02*
X101983390Y-64061904D01*
X101983390Y-64061904D02*
X101792914Y-64014285D01*
X101792914Y-64014285D02*
X101697676Y-63966666D01*
X101697676Y-63966666D02*
X101602438Y-63871428D01*
X101602438Y-63871428D02*
X101554819Y-63728571D01*
X101554819Y-63728571D02*
X101554819Y-63633333D01*
X101554819Y-63633333D02*
X101602438Y-63490476D01*
X101602438Y-63490476D02*
X101650057Y-63442857D01*
X102554819Y-62490476D02*
X102554819Y-63061904D01*
X102554819Y-62776190D02*
X101554819Y-62776190D01*
X101554819Y-62776190D02*
X101697676Y-62871428D01*
X101697676Y-62871428D02*
X101792914Y-62966666D01*
X101792914Y-62966666D02*
X101840533Y-63061904D01*
X101554819Y-61585714D02*
X101554819Y-62061904D01*
X101554819Y-62061904D02*
X102031009Y-62109523D01*
X102031009Y-62109523D02*
X101983390Y-62061904D01*
X101983390Y-62061904D02*
X101935771Y-61966666D01*
X101935771Y-61966666D02*
X101935771Y-61728571D01*
X101935771Y-61728571D02*
X101983390Y-61633333D01*
X101983390Y-61633333D02*
X102031009Y-61585714D01*
X102031009Y-61585714D02*
X102126247Y-61538095D01*
X102126247Y-61538095D02*
X102364342Y-61538095D01*
X102364342Y-61538095D02*
X102459580Y-61585714D01*
X102459580Y-61585714D02*
X102507200Y-61633333D01*
X102507200Y-61633333D02*
X102554819Y-61728571D01*
X102554819Y-61728571D02*
X102554819Y-61966666D01*
X102554819Y-61966666D02*
X102507200Y-62061904D01*
X102507200Y-62061904D02*
X102459580Y-62109523D01*
X89041333Y-95779580D02*
X88993714Y-95827200D01*
X88993714Y-95827200D02*
X88850857Y-95874819D01*
X88850857Y-95874819D02*
X88755619Y-95874819D01*
X88755619Y-95874819D02*
X88612762Y-95827200D01*
X88612762Y-95827200D02*
X88517524Y-95731961D01*
X88517524Y-95731961D02*
X88469905Y-95636723D01*
X88469905Y-95636723D02*
X88422286Y-95446247D01*
X88422286Y-95446247D02*
X88422286Y-95303390D01*
X88422286Y-95303390D02*
X88469905Y-95112914D01*
X88469905Y-95112914D02*
X88517524Y-95017676D01*
X88517524Y-95017676D02*
X88612762Y-94922438D01*
X88612762Y-94922438D02*
X88755619Y-94874819D01*
X88755619Y-94874819D02*
X88850857Y-94874819D01*
X88850857Y-94874819D02*
X88993714Y-94922438D01*
X88993714Y-94922438D02*
X89041333Y-94970057D01*
X89422286Y-94970057D02*
X89469905Y-94922438D01*
X89469905Y-94922438D02*
X89565143Y-94874819D01*
X89565143Y-94874819D02*
X89803238Y-94874819D01*
X89803238Y-94874819D02*
X89898476Y-94922438D01*
X89898476Y-94922438D02*
X89946095Y-94970057D01*
X89946095Y-94970057D02*
X89993714Y-95065295D01*
X89993714Y-95065295D02*
X89993714Y-95160533D01*
X89993714Y-95160533D02*
X89946095Y-95303390D01*
X89946095Y-95303390D02*
X89374667Y-95874819D01*
X89374667Y-95874819D02*
X89993714Y-95874819D01*
X154633333Y-59654819D02*
X154300000Y-59178628D01*
X154061905Y-59654819D02*
X154061905Y-58654819D01*
X154061905Y-58654819D02*
X154442857Y-58654819D01*
X154442857Y-58654819D02*
X154538095Y-58702438D01*
X154538095Y-58702438D02*
X154585714Y-58750057D01*
X154585714Y-58750057D02*
X154633333Y-58845295D01*
X154633333Y-58845295D02*
X154633333Y-58988152D01*
X154633333Y-58988152D02*
X154585714Y-59083390D01*
X154585714Y-59083390D02*
X154538095Y-59131009D01*
X154538095Y-59131009D02*
X154442857Y-59178628D01*
X154442857Y-59178628D02*
X154061905Y-59178628D01*
X155109524Y-59654819D02*
X155300000Y-59654819D01*
X155300000Y-59654819D02*
X155395238Y-59607200D01*
X155395238Y-59607200D02*
X155442857Y-59559580D01*
X155442857Y-59559580D02*
X155538095Y-59416723D01*
X155538095Y-59416723D02*
X155585714Y-59226247D01*
X155585714Y-59226247D02*
X155585714Y-58845295D01*
X155585714Y-58845295D02*
X155538095Y-58750057D01*
X155538095Y-58750057D02*
X155490476Y-58702438D01*
X155490476Y-58702438D02*
X155395238Y-58654819D01*
X155395238Y-58654819D02*
X155204762Y-58654819D01*
X155204762Y-58654819D02*
X155109524Y-58702438D01*
X155109524Y-58702438D02*
X155061905Y-58750057D01*
X155061905Y-58750057D02*
X155014286Y-58845295D01*
X155014286Y-58845295D02*
X155014286Y-59083390D01*
X155014286Y-59083390D02*
X155061905Y-59178628D01*
X155061905Y-59178628D02*
X155109524Y-59226247D01*
X155109524Y-59226247D02*
X155204762Y-59273866D01*
X155204762Y-59273866D02*
X155395238Y-59273866D01*
X155395238Y-59273866D02*
X155490476Y-59226247D01*
X155490476Y-59226247D02*
X155538095Y-59178628D01*
X155538095Y-59178628D02*
X155585714Y-59083390D01*
X86496333Y-86274580D02*
X86448714Y-86322200D01*
X86448714Y-86322200D02*
X86305857Y-86369819D01*
X86305857Y-86369819D02*
X86210619Y-86369819D01*
X86210619Y-86369819D02*
X86067762Y-86322200D01*
X86067762Y-86322200D02*
X85972524Y-86226961D01*
X85972524Y-86226961D02*
X85924905Y-86131723D01*
X85924905Y-86131723D02*
X85877286Y-85941247D01*
X85877286Y-85941247D02*
X85877286Y-85798390D01*
X85877286Y-85798390D02*
X85924905Y-85607914D01*
X85924905Y-85607914D02*
X85972524Y-85512676D01*
X85972524Y-85512676D02*
X86067762Y-85417438D01*
X86067762Y-85417438D02*
X86210619Y-85369819D01*
X86210619Y-85369819D02*
X86305857Y-85369819D01*
X86305857Y-85369819D02*
X86448714Y-85417438D01*
X86448714Y-85417438D02*
X86496333Y-85465057D01*
X87401095Y-85369819D02*
X86924905Y-85369819D01*
X86924905Y-85369819D02*
X86877286Y-85846009D01*
X86877286Y-85846009D02*
X86924905Y-85798390D01*
X86924905Y-85798390D02*
X87020143Y-85750771D01*
X87020143Y-85750771D02*
X87258238Y-85750771D01*
X87258238Y-85750771D02*
X87353476Y-85798390D01*
X87353476Y-85798390D02*
X87401095Y-85846009D01*
X87401095Y-85846009D02*
X87448714Y-85941247D01*
X87448714Y-85941247D02*
X87448714Y-86179342D01*
X87448714Y-86179342D02*
X87401095Y-86274580D01*
X87401095Y-86274580D02*
X87353476Y-86322200D01*
X87353476Y-86322200D02*
X87258238Y-86369819D01*
X87258238Y-86369819D02*
X87020143Y-86369819D01*
X87020143Y-86369819D02*
X86924905Y-86322200D01*
X86924905Y-86322200D02*
X86877286Y-86274580D01*
X153957142Y-89359580D02*
X153909523Y-89407200D01*
X153909523Y-89407200D02*
X153766666Y-89454819D01*
X153766666Y-89454819D02*
X153671428Y-89454819D01*
X153671428Y-89454819D02*
X153528571Y-89407200D01*
X153528571Y-89407200D02*
X153433333Y-89311961D01*
X153433333Y-89311961D02*
X153385714Y-89216723D01*
X153385714Y-89216723D02*
X153338095Y-89026247D01*
X153338095Y-89026247D02*
X153338095Y-88883390D01*
X153338095Y-88883390D02*
X153385714Y-88692914D01*
X153385714Y-88692914D02*
X153433333Y-88597676D01*
X153433333Y-88597676D02*
X153528571Y-88502438D01*
X153528571Y-88502438D02*
X153671428Y-88454819D01*
X153671428Y-88454819D02*
X153766666Y-88454819D01*
X153766666Y-88454819D02*
X153909523Y-88502438D01*
X153909523Y-88502438D02*
X153957142Y-88550057D01*
X154909523Y-89454819D02*
X154338095Y-89454819D01*
X154623809Y-89454819D02*
X154623809Y-88454819D01*
X154623809Y-88454819D02*
X154528571Y-88597676D01*
X154528571Y-88597676D02*
X154433333Y-88692914D01*
X154433333Y-88692914D02*
X154338095Y-88740533D01*
X155290476Y-88550057D02*
X155338095Y-88502438D01*
X155338095Y-88502438D02*
X155433333Y-88454819D01*
X155433333Y-88454819D02*
X155671428Y-88454819D01*
X155671428Y-88454819D02*
X155766666Y-88502438D01*
X155766666Y-88502438D02*
X155814285Y-88550057D01*
X155814285Y-88550057D02*
X155861904Y-88645295D01*
X155861904Y-88645295D02*
X155861904Y-88740533D01*
X155861904Y-88740533D02*
X155814285Y-88883390D01*
X155814285Y-88883390D02*
X155242857Y-89454819D01*
X155242857Y-89454819D02*
X155861904Y-89454819D01*
X151783333Y-85409580D02*
X151735714Y-85457200D01*
X151735714Y-85457200D02*
X151592857Y-85504819D01*
X151592857Y-85504819D02*
X151497619Y-85504819D01*
X151497619Y-85504819D02*
X151354762Y-85457200D01*
X151354762Y-85457200D02*
X151259524Y-85361961D01*
X151259524Y-85361961D02*
X151211905Y-85266723D01*
X151211905Y-85266723D02*
X151164286Y-85076247D01*
X151164286Y-85076247D02*
X151164286Y-84933390D01*
X151164286Y-84933390D02*
X151211905Y-84742914D01*
X151211905Y-84742914D02*
X151259524Y-84647676D01*
X151259524Y-84647676D02*
X151354762Y-84552438D01*
X151354762Y-84552438D02*
X151497619Y-84504819D01*
X151497619Y-84504819D02*
X151592857Y-84504819D01*
X151592857Y-84504819D02*
X151735714Y-84552438D01*
X151735714Y-84552438D02*
X151783333Y-84600057D01*
X152354762Y-84933390D02*
X152259524Y-84885771D01*
X152259524Y-84885771D02*
X152211905Y-84838152D01*
X152211905Y-84838152D02*
X152164286Y-84742914D01*
X152164286Y-84742914D02*
X152164286Y-84695295D01*
X152164286Y-84695295D02*
X152211905Y-84600057D01*
X152211905Y-84600057D02*
X152259524Y-84552438D01*
X152259524Y-84552438D02*
X152354762Y-84504819D01*
X152354762Y-84504819D02*
X152545238Y-84504819D01*
X152545238Y-84504819D02*
X152640476Y-84552438D01*
X152640476Y-84552438D02*
X152688095Y-84600057D01*
X152688095Y-84600057D02*
X152735714Y-84695295D01*
X152735714Y-84695295D02*
X152735714Y-84742914D01*
X152735714Y-84742914D02*
X152688095Y-84838152D01*
X152688095Y-84838152D02*
X152640476Y-84885771D01*
X152640476Y-84885771D02*
X152545238Y-84933390D01*
X152545238Y-84933390D02*
X152354762Y-84933390D01*
X152354762Y-84933390D02*
X152259524Y-84981009D01*
X152259524Y-84981009D02*
X152211905Y-85028628D01*
X152211905Y-85028628D02*
X152164286Y-85123866D01*
X152164286Y-85123866D02*
X152164286Y-85314342D01*
X152164286Y-85314342D02*
X152211905Y-85409580D01*
X152211905Y-85409580D02*
X152259524Y-85457200D01*
X152259524Y-85457200D02*
X152354762Y-85504819D01*
X152354762Y-85504819D02*
X152545238Y-85504819D01*
X152545238Y-85504819D02*
X152640476Y-85457200D01*
X152640476Y-85457200D02*
X152688095Y-85409580D01*
X152688095Y-85409580D02*
X152735714Y-85314342D01*
X152735714Y-85314342D02*
X152735714Y-85123866D01*
X152735714Y-85123866D02*
X152688095Y-85028628D01*
X152688095Y-85028628D02*
X152640476Y-84981009D01*
X152640476Y-84981009D02*
X152545238Y-84933390D01*
X92347523Y-104024819D02*
X91871333Y-104024819D01*
X91871333Y-104024819D02*
X91823714Y-104501009D01*
X91823714Y-104501009D02*
X91871333Y-104453390D01*
X91871333Y-104453390D02*
X91966571Y-104405771D01*
X91966571Y-104405771D02*
X92204666Y-104405771D01*
X92204666Y-104405771D02*
X92299904Y-104453390D01*
X92299904Y-104453390D02*
X92347523Y-104501009D01*
X92347523Y-104501009D02*
X92395142Y-104596247D01*
X92395142Y-104596247D02*
X92395142Y-104834342D01*
X92395142Y-104834342D02*
X92347523Y-104929580D01*
X92347523Y-104929580D02*
X92299904Y-104977200D01*
X92299904Y-104977200D02*
X92204666Y-105024819D01*
X92204666Y-105024819D02*
X91966571Y-105024819D01*
X91966571Y-105024819D02*
X91871333Y-104977200D01*
X91871333Y-104977200D02*
X91823714Y-104929580D01*
X92680857Y-104024819D02*
X93014190Y-105024819D01*
X93014190Y-105024819D02*
X93347523Y-104024819D01*
X145333333Y-81754819D02*
X145000000Y-81278628D01*
X144761905Y-81754819D02*
X144761905Y-80754819D01*
X144761905Y-80754819D02*
X145142857Y-80754819D01*
X145142857Y-80754819D02*
X145238095Y-80802438D01*
X145238095Y-80802438D02*
X145285714Y-80850057D01*
X145285714Y-80850057D02*
X145333333Y-80945295D01*
X145333333Y-80945295D02*
X145333333Y-81088152D01*
X145333333Y-81088152D02*
X145285714Y-81183390D01*
X145285714Y-81183390D02*
X145238095Y-81231009D01*
X145238095Y-81231009D02*
X145142857Y-81278628D01*
X145142857Y-81278628D02*
X144761905Y-81278628D01*
X146238095Y-80754819D02*
X145761905Y-80754819D01*
X145761905Y-80754819D02*
X145714286Y-81231009D01*
X145714286Y-81231009D02*
X145761905Y-81183390D01*
X145761905Y-81183390D02*
X145857143Y-81135771D01*
X145857143Y-81135771D02*
X146095238Y-81135771D01*
X146095238Y-81135771D02*
X146190476Y-81183390D01*
X146190476Y-81183390D02*
X146238095Y-81231009D01*
X146238095Y-81231009D02*
X146285714Y-81326247D01*
X146285714Y-81326247D02*
X146285714Y-81564342D01*
X146285714Y-81564342D02*
X146238095Y-81659580D01*
X146238095Y-81659580D02*
X146190476Y-81707200D01*
X146190476Y-81707200D02*
X146095238Y-81754819D01*
X146095238Y-81754819D02*
X145857143Y-81754819D01*
X145857143Y-81754819D02*
X145761905Y-81707200D01*
X145761905Y-81707200D02*
X145714286Y-81659580D01*
X100055142Y-83749580D02*
X100007523Y-83797200D01*
X100007523Y-83797200D02*
X99864666Y-83844819D01*
X99864666Y-83844819D02*
X99769428Y-83844819D01*
X99769428Y-83844819D02*
X99626571Y-83797200D01*
X99626571Y-83797200D02*
X99531333Y-83701961D01*
X99531333Y-83701961D02*
X99483714Y-83606723D01*
X99483714Y-83606723D02*
X99436095Y-83416247D01*
X99436095Y-83416247D02*
X99436095Y-83273390D01*
X99436095Y-83273390D02*
X99483714Y-83082914D01*
X99483714Y-83082914D02*
X99531333Y-82987676D01*
X99531333Y-82987676D02*
X99626571Y-82892438D01*
X99626571Y-82892438D02*
X99769428Y-82844819D01*
X99769428Y-82844819D02*
X99864666Y-82844819D01*
X99864666Y-82844819D02*
X100007523Y-82892438D01*
X100007523Y-82892438D02*
X100055142Y-82940057D01*
X100436095Y-82940057D02*
X100483714Y-82892438D01*
X100483714Y-82892438D02*
X100578952Y-82844819D01*
X100578952Y-82844819D02*
X100817047Y-82844819D01*
X100817047Y-82844819D02*
X100912285Y-82892438D01*
X100912285Y-82892438D02*
X100959904Y-82940057D01*
X100959904Y-82940057D02*
X101007523Y-83035295D01*
X101007523Y-83035295D02*
X101007523Y-83130533D01*
X101007523Y-83130533D02*
X100959904Y-83273390D01*
X100959904Y-83273390D02*
X100388476Y-83844819D01*
X100388476Y-83844819D02*
X101007523Y-83844819D01*
X101959904Y-83844819D02*
X101388476Y-83844819D01*
X101674190Y-83844819D02*
X101674190Y-82844819D01*
X101674190Y-82844819D02*
X101578952Y-82987676D01*
X101578952Y-82987676D02*
X101483714Y-83082914D01*
X101483714Y-83082914D02*
X101388476Y-83130533D01*
X102359580Y-70742857D02*
X102407200Y-70790476D01*
X102407200Y-70790476D02*
X102454819Y-70933333D01*
X102454819Y-70933333D02*
X102454819Y-71028571D01*
X102454819Y-71028571D02*
X102407200Y-71171428D01*
X102407200Y-71171428D02*
X102311961Y-71266666D01*
X102311961Y-71266666D02*
X102216723Y-71314285D01*
X102216723Y-71314285D02*
X102026247Y-71361904D01*
X102026247Y-71361904D02*
X101883390Y-71361904D01*
X101883390Y-71361904D02*
X101692914Y-71314285D01*
X101692914Y-71314285D02*
X101597676Y-71266666D01*
X101597676Y-71266666D02*
X101502438Y-71171428D01*
X101502438Y-71171428D02*
X101454819Y-71028571D01*
X101454819Y-71028571D02*
X101454819Y-70933333D01*
X101454819Y-70933333D02*
X101502438Y-70790476D01*
X101502438Y-70790476D02*
X101550057Y-70742857D01*
X102454819Y-69790476D02*
X102454819Y-70361904D01*
X102454819Y-70076190D02*
X101454819Y-70076190D01*
X101454819Y-70076190D02*
X101597676Y-70171428D01*
X101597676Y-70171428D02*
X101692914Y-70266666D01*
X101692914Y-70266666D02*
X101740533Y-70361904D01*
X101788152Y-68933333D02*
X102454819Y-68933333D01*
X101407200Y-69171428D02*
X102121485Y-69409523D01*
X102121485Y-69409523D02*
X102121485Y-68790476D01*
X80957142Y-74289580D02*
X80909523Y-74337200D01*
X80909523Y-74337200D02*
X80766666Y-74384819D01*
X80766666Y-74384819D02*
X80671428Y-74384819D01*
X80671428Y-74384819D02*
X80528571Y-74337200D01*
X80528571Y-74337200D02*
X80433333Y-74241961D01*
X80433333Y-74241961D02*
X80385714Y-74146723D01*
X80385714Y-74146723D02*
X80338095Y-73956247D01*
X80338095Y-73956247D02*
X80338095Y-73813390D01*
X80338095Y-73813390D02*
X80385714Y-73622914D01*
X80385714Y-73622914D02*
X80433333Y-73527676D01*
X80433333Y-73527676D02*
X80528571Y-73432438D01*
X80528571Y-73432438D02*
X80671428Y-73384819D01*
X80671428Y-73384819D02*
X80766666Y-73384819D01*
X80766666Y-73384819D02*
X80909523Y-73432438D01*
X80909523Y-73432438D02*
X80957142Y-73480057D01*
X81909523Y-74384819D02*
X81338095Y-74384819D01*
X81623809Y-74384819D02*
X81623809Y-73384819D01*
X81623809Y-73384819D02*
X81528571Y-73527676D01*
X81528571Y-73527676D02*
X81433333Y-73622914D01*
X81433333Y-73622914D02*
X81338095Y-73670533D01*
X82766666Y-73384819D02*
X82576190Y-73384819D01*
X82576190Y-73384819D02*
X82480952Y-73432438D01*
X82480952Y-73432438D02*
X82433333Y-73480057D01*
X82433333Y-73480057D02*
X82338095Y-73622914D01*
X82338095Y-73622914D02*
X82290476Y-73813390D01*
X82290476Y-73813390D02*
X82290476Y-74194342D01*
X82290476Y-74194342D02*
X82338095Y-74289580D01*
X82338095Y-74289580D02*
X82385714Y-74337200D01*
X82385714Y-74337200D02*
X82480952Y-74384819D01*
X82480952Y-74384819D02*
X82671428Y-74384819D01*
X82671428Y-74384819D02*
X82766666Y-74337200D01*
X82766666Y-74337200D02*
X82814285Y-74289580D01*
X82814285Y-74289580D02*
X82861904Y-74194342D01*
X82861904Y-74194342D02*
X82861904Y-73956247D01*
X82861904Y-73956247D02*
X82814285Y-73861009D01*
X82814285Y-73861009D02*
X82766666Y-73813390D01*
X82766666Y-73813390D02*
X82671428Y-73765771D01*
X82671428Y-73765771D02*
X82480952Y-73765771D01*
X82480952Y-73765771D02*
X82385714Y-73813390D01*
X82385714Y-73813390D02*
X82338095Y-73861009D01*
X82338095Y-73861009D02*
X82290476Y-73956247D01*
D12*
X147415766Y-92887904D02*
X147415766Y-93915999D01*
X147415766Y-93915999D02*
X147476243Y-94036951D01*
X147476243Y-94036951D02*
X147536719Y-94097428D01*
X147536719Y-94097428D02*
X147657671Y-94157904D01*
X147657671Y-94157904D02*
X147899576Y-94157904D01*
X147899576Y-94157904D02*
X148020528Y-94097428D01*
X148020528Y-94097428D02*
X148081005Y-94036951D01*
X148081005Y-94036951D02*
X148141481Y-93915999D01*
X148141481Y-93915999D02*
X148141481Y-92887904D01*
X148625290Y-92887904D02*
X149471957Y-92887904D01*
X149471957Y-92887904D02*
X148927671Y-94157904D01*
X143880766Y-97825904D02*
X143880766Y-98853999D01*
X143880766Y-98853999D02*
X143941243Y-98974951D01*
X143941243Y-98974951D02*
X144001719Y-99035428D01*
X144001719Y-99035428D02*
X144122671Y-99095904D01*
X144122671Y-99095904D02*
X144364576Y-99095904D01*
X144364576Y-99095904D02*
X144485528Y-99035428D01*
X144485528Y-99035428D02*
X144546005Y-98974951D01*
X144546005Y-98974951D02*
X144606481Y-98853999D01*
X144606481Y-98853999D02*
X144606481Y-97825904D01*
X145755528Y-97825904D02*
X145513623Y-97825904D01*
X145513623Y-97825904D02*
X145392671Y-97886380D01*
X145392671Y-97886380D02*
X145332195Y-97946856D01*
X145332195Y-97946856D02*
X145211242Y-98128285D01*
X145211242Y-98128285D02*
X145150766Y-98370189D01*
X145150766Y-98370189D02*
X145150766Y-98853999D01*
X145150766Y-98853999D02*
X145211242Y-98974951D01*
X145211242Y-98974951D02*
X145271719Y-99035428D01*
X145271719Y-99035428D02*
X145392671Y-99095904D01*
X145392671Y-99095904D02*
X145634576Y-99095904D01*
X145634576Y-99095904D02*
X145755528Y-99035428D01*
X145755528Y-99035428D02*
X145816004Y-98974951D01*
X145816004Y-98974951D02*
X145876481Y-98853999D01*
X145876481Y-98853999D02*
X145876481Y-98551618D01*
X145876481Y-98551618D02*
X145816004Y-98430666D01*
X145816004Y-98430666D02*
X145755528Y-98370189D01*
X145755528Y-98370189D02*
X145634576Y-98309713D01*
X145634576Y-98309713D02*
X145392671Y-98309713D01*
X145392671Y-98309713D02*
X145271719Y-98370189D01*
X145271719Y-98370189D02*
X145211242Y-98430666D01*
X145211242Y-98430666D02*
X145150766Y-98551618D01*
D11*
X84991333Y-94654819D02*
X84658000Y-94178628D01*
X84419905Y-94654819D02*
X84419905Y-93654819D01*
X84419905Y-93654819D02*
X84800857Y-93654819D01*
X84800857Y-93654819D02*
X84896095Y-93702438D01*
X84896095Y-93702438D02*
X84943714Y-93750057D01*
X84943714Y-93750057D02*
X84991333Y-93845295D01*
X84991333Y-93845295D02*
X84991333Y-93988152D01*
X84991333Y-93988152D02*
X84943714Y-94083390D01*
X84943714Y-94083390D02*
X84896095Y-94131009D01*
X84896095Y-94131009D02*
X84800857Y-94178628D01*
X84800857Y-94178628D02*
X84419905Y-94178628D01*
X85943714Y-94654819D02*
X85372286Y-94654819D01*
X85658000Y-94654819D02*
X85658000Y-93654819D01*
X85658000Y-93654819D02*
X85562762Y-93797676D01*
X85562762Y-93797676D02*
X85467524Y-93892914D01*
X85467524Y-93892914D02*
X85372286Y-93940533D01*
X144637919Y-90338005D02*
X144304586Y-89861814D01*
X144066491Y-90338005D02*
X144066491Y-89338005D01*
X144066491Y-89338005D02*
X144447443Y-89338005D01*
X144447443Y-89338005D02*
X144542681Y-89385624D01*
X144542681Y-89385624D02*
X144590300Y-89433243D01*
X144590300Y-89433243D02*
X144637919Y-89528481D01*
X144637919Y-89528481D02*
X144637919Y-89671338D01*
X144637919Y-89671338D02*
X144590300Y-89766576D01*
X144590300Y-89766576D02*
X144542681Y-89814195D01*
X144542681Y-89814195D02*
X144447443Y-89861814D01*
X144447443Y-89861814D02*
X144066491Y-89861814D01*
X144971253Y-89338005D02*
X145637919Y-89338005D01*
X145637919Y-89338005D02*
X145209348Y-90338005D01*
X158659580Y-76942857D02*
X158707200Y-76990476D01*
X158707200Y-76990476D02*
X158754819Y-77133333D01*
X158754819Y-77133333D02*
X158754819Y-77228571D01*
X158754819Y-77228571D02*
X158707200Y-77371428D01*
X158707200Y-77371428D02*
X158611961Y-77466666D01*
X158611961Y-77466666D02*
X158516723Y-77514285D01*
X158516723Y-77514285D02*
X158326247Y-77561904D01*
X158326247Y-77561904D02*
X158183390Y-77561904D01*
X158183390Y-77561904D02*
X157992914Y-77514285D01*
X157992914Y-77514285D02*
X157897676Y-77466666D01*
X157897676Y-77466666D02*
X157802438Y-77371428D01*
X157802438Y-77371428D02*
X157754819Y-77228571D01*
X157754819Y-77228571D02*
X157754819Y-77133333D01*
X157754819Y-77133333D02*
X157802438Y-76990476D01*
X157802438Y-76990476D02*
X157850057Y-76942857D01*
X158754819Y-75990476D02*
X158754819Y-76561904D01*
X158754819Y-76276190D02*
X157754819Y-76276190D01*
X157754819Y-76276190D02*
X157897676Y-76371428D01*
X157897676Y-76371428D02*
X157992914Y-76466666D01*
X157992914Y-76466666D02*
X158040533Y-76561904D01*
X157754819Y-75371428D02*
X157754819Y-75276190D01*
X157754819Y-75276190D02*
X157802438Y-75180952D01*
X157802438Y-75180952D02*
X157850057Y-75133333D01*
X157850057Y-75133333D02*
X157945295Y-75085714D01*
X157945295Y-75085714D02*
X158135771Y-75038095D01*
X158135771Y-75038095D02*
X158373866Y-75038095D01*
X158373866Y-75038095D02*
X158564342Y-75085714D01*
X158564342Y-75085714D02*
X158659580Y-75133333D01*
X158659580Y-75133333D02*
X158707200Y-75180952D01*
X158707200Y-75180952D02*
X158754819Y-75276190D01*
X158754819Y-75276190D02*
X158754819Y-75371428D01*
X158754819Y-75371428D02*
X158707200Y-75466666D01*
X158707200Y-75466666D02*
X158659580Y-75514285D01*
X158659580Y-75514285D02*
X158564342Y-75561904D01*
X158564342Y-75561904D02*
X158373866Y-75609523D01*
X158373866Y-75609523D02*
X158135771Y-75609523D01*
X158135771Y-75609523D02*
X157945295Y-75561904D01*
X157945295Y-75561904D02*
X157850057Y-75514285D01*
X157850057Y-75514285D02*
X157802438Y-75466666D01*
X157802438Y-75466666D02*
X157754819Y-75371428D01*
X101871333Y-103364819D02*
X101538000Y-102888628D01*
X101299905Y-103364819D02*
X101299905Y-102364819D01*
X101299905Y-102364819D02*
X101680857Y-102364819D01*
X101680857Y-102364819D02*
X101776095Y-102412438D01*
X101776095Y-102412438D02*
X101823714Y-102460057D01*
X101823714Y-102460057D02*
X101871333Y-102555295D01*
X101871333Y-102555295D02*
X101871333Y-102698152D01*
X101871333Y-102698152D02*
X101823714Y-102793390D01*
X101823714Y-102793390D02*
X101776095Y-102841009D01*
X101776095Y-102841009D02*
X101680857Y-102888628D01*
X101680857Y-102888628D02*
X101299905Y-102888628D01*
X102252286Y-102460057D02*
X102299905Y-102412438D01*
X102299905Y-102412438D02*
X102395143Y-102364819D01*
X102395143Y-102364819D02*
X102633238Y-102364819D01*
X102633238Y-102364819D02*
X102728476Y-102412438D01*
X102728476Y-102412438D02*
X102776095Y-102460057D01*
X102776095Y-102460057D02*
X102823714Y-102555295D01*
X102823714Y-102555295D02*
X102823714Y-102650533D01*
X102823714Y-102650533D02*
X102776095Y-102793390D01*
X102776095Y-102793390D02*
X102204667Y-103364819D01*
X102204667Y-103364819D02*
X102823714Y-103364819D01*
X100111333Y-87279580D02*
X100063714Y-87327200D01*
X100063714Y-87327200D02*
X99920857Y-87374819D01*
X99920857Y-87374819D02*
X99825619Y-87374819D01*
X99825619Y-87374819D02*
X99682762Y-87327200D01*
X99682762Y-87327200D02*
X99587524Y-87231961D01*
X99587524Y-87231961D02*
X99539905Y-87136723D01*
X99539905Y-87136723D02*
X99492286Y-86946247D01*
X99492286Y-86946247D02*
X99492286Y-86803390D01*
X99492286Y-86803390D02*
X99539905Y-86612914D01*
X99539905Y-86612914D02*
X99587524Y-86517676D01*
X99587524Y-86517676D02*
X99682762Y-86422438D01*
X99682762Y-86422438D02*
X99825619Y-86374819D01*
X99825619Y-86374819D02*
X99920857Y-86374819D01*
X99920857Y-86374819D02*
X100063714Y-86422438D01*
X100063714Y-86422438D02*
X100111333Y-86470057D01*
X100444667Y-86374819D02*
X101111333Y-86374819D01*
X101111333Y-86374819D02*
X100682762Y-87374819D01*
X78366666Y-70054819D02*
X78366666Y-70769104D01*
X78366666Y-70769104D02*
X78319047Y-70911961D01*
X78319047Y-70911961D02*
X78223809Y-71007200D01*
X78223809Y-71007200D02*
X78080952Y-71054819D01*
X78080952Y-71054819D02*
X77985714Y-71054819D01*
X78795238Y-70150057D02*
X78842857Y-70102438D01*
X78842857Y-70102438D02*
X78938095Y-70054819D01*
X78938095Y-70054819D02*
X79176190Y-70054819D01*
X79176190Y-70054819D02*
X79271428Y-70102438D01*
X79271428Y-70102438D02*
X79319047Y-70150057D01*
X79319047Y-70150057D02*
X79366666Y-70245295D01*
X79366666Y-70245295D02*
X79366666Y-70340533D01*
X79366666Y-70340533D02*
X79319047Y-70483390D01*
X79319047Y-70483390D02*
X78747619Y-71054819D01*
X78747619Y-71054819D02*
X79366666Y-71054819D01*
X86251333Y-98229580D02*
X86203714Y-98277200D01*
X86203714Y-98277200D02*
X86060857Y-98324819D01*
X86060857Y-98324819D02*
X85965619Y-98324819D01*
X85965619Y-98324819D02*
X85822762Y-98277200D01*
X85822762Y-98277200D02*
X85727524Y-98181961D01*
X85727524Y-98181961D02*
X85679905Y-98086723D01*
X85679905Y-98086723D02*
X85632286Y-97896247D01*
X85632286Y-97896247D02*
X85632286Y-97753390D01*
X85632286Y-97753390D02*
X85679905Y-97562914D01*
X85679905Y-97562914D02*
X85727524Y-97467676D01*
X85727524Y-97467676D02*
X85822762Y-97372438D01*
X85822762Y-97372438D02*
X85965619Y-97324819D01*
X85965619Y-97324819D02*
X86060857Y-97324819D01*
X86060857Y-97324819D02*
X86203714Y-97372438D01*
X86203714Y-97372438D02*
X86251333Y-97420057D01*
X87108476Y-97658152D02*
X87108476Y-98324819D01*
X86870381Y-97277200D02*
X86632286Y-97991485D01*
X86632286Y-97991485D02*
X87251333Y-97991485D01*
G36*
X87422947Y-87813949D02*
G01*
X87556304Y-87813949D01*
X87556304Y-88400132D01*
X87555093Y-88455253D01*
X87551461Y-88505943D01*
X87544163Y-88559481D01*
X87531787Y-88613283D01*
X87521866Y-88642909D01*
X87498128Y-88690821D01*
X87465658Y-88733439D01*
X87429464Y-88766877D01*
X87397790Y-88789211D01*
X87349476Y-88813895D01*
X87301466Y-88829708D01*
X87248103Y-88840121D01*
X87198103Y-88844749D01*
X87162585Y-88845631D01*
X87111357Y-88843905D01*
X87056149Y-88837529D01*
X87005849Y-88826454D01*
X86954375Y-88808044D01*
X86931042Y-88796538D01*
X86889307Y-88769244D01*
X86850019Y-88731969D01*
X86818845Y-88687739D01*
X86802571Y-88654389D01*
X86785794Y-88603602D01*
X86775047Y-88552175D01*
X86768756Y-88502905D01*
X86765161Y-88448844D01*
X86764225Y-88400132D01*
X86764225Y-87813949D01*
X86897337Y-87813949D01*
X86897337Y-88401842D01*
X86898506Y-88456534D01*
X86902704Y-88510882D01*
X86911076Y-88561622D01*
X86921761Y-88597480D01*
X86944991Y-88640540D01*
X86981242Y-88678117D01*
X87005536Y-88694445D01*
X87053908Y-88715133D01*
X87104705Y-88725709D01*
X87150861Y-88728394D01*
X87203028Y-88726025D01*
X87256379Y-88717269D01*
X87307449Y-88699363D01*
X87352275Y-88669147D01*
X87360421Y-88660983D01*
X87387776Y-88619508D01*
X87405301Y-88570469D01*
X87415559Y-88518966D01*
X87420749Y-88469370D01*
X87422886Y-88413704D01*
X87422947Y-88401842D01*
X87422947Y-87813949D01*
G37*
G36*
X88187916Y-88830000D02*
G01*
X88064329Y-88830000D01*
X88064329Y-88038164D01*
X88026891Y-88070587D01*
X87985694Y-88100309D01*
X87947093Y-88124626D01*
X87903210Y-88149394D01*
X87858300Y-88171790D01*
X87816911Y-88189106D01*
X87816911Y-88064054D01*
X87861075Y-88041926D01*
X87908484Y-88014262D01*
X87952627Y-87984064D01*
X87993504Y-87951331D01*
X87998384Y-87947062D01*
X88034379Y-87913005D01*
X88068086Y-87875312D01*
X88097109Y-87834201D01*
X88108293Y-87813949D01*
X88187916Y-87813949D01*
X88187916Y-88830000D01*
G37*
X87600000Y-89354819D02*
X87600000Y-89592914D01*
X87361905Y-89497676D02*
X87600000Y-89592914D01*
X87600000Y-89592914D02*
X87838095Y-89497676D01*
X87457143Y-89783390D02*
X87600000Y-89592914D01*
X87600000Y-89592914D02*
X87742857Y-89783390D01*
X152208333Y-88204819D02*
X151875000Y-87728628D01*
X151636905Y-88204819D02*
X151636905Y-87204819D01*
X151636905Y-87204819D02*
X152017857Y-87204819D01*
X152017857Y-87204819D02*
X152113095Y-87252438D01*
X152113095Y-87252438D02*
X152160714Y-87300057D01*
X152160714Y-87300057D02*
X152208333Y-87395295D01*
X152208333Y-87395295D02*
X152208333Y-87538152D01*
X152208333Y-87538152D02*
X152160714Y-87633390D01*
X152160714Y-87633390D02*
X152113095Y-87681009D01*
X152113095Y-87681009D02*
X152017857Y-87728628D01*
X152017857Y-87728628D02*
X151636905Y-87728628D01*
X153065476Y-87538152D02*
X153065476Y-88204819D01*
X152827381Y-87157200D02*
X152589286Y-87871485D01*
X152589286Y-87871485D02*
X153208333Y-87871485D01*
X100145142Y-97309580D02*
X100097523Y-97357200D01*
X100097523Y-97357200D02*
X99954666Y-97404819D01*
X99954666Y-97404819D02*
X99859428Y-97404819D01*
X99859428Y-97404819D02*
X99716571Y-97357200D01*
X99716571Y-97357200D02*
X99621333Y-97261961D01*
X99621333Y-97261961D02*
X99573714Y-97166723D01*
X99573714Y-97166723D02*
X99526095Y-96976247D01*
X99526095Y-96976247D02*
X99526095Y-96833390D01*
X99526095Y-96833390D02*
X99573714Y-96642914D01*
X99573714Y-96642914D02*
X99621333Y-96547676D01*
X99621333Y-96547676D02*
X99716571Y-96452438D01*
X99716571Y-96452438D02*
X99859428Y-96404819D01*
X99859428Y-96404819D02*
X99954666Y-96404819D01*
X99954666Y-96404819D02*
X100097523Y-96452438D01*
X100097523Y-96452438D02*
X100145142Y-96500057D01*
X101097523Y-97404819D02*
X100526095Y-97404819D01*
X100811809Y-97404819D02*
X100811809Y-96404819D01*
X100811809Y-96404819D02*
X100716571Y-96547676D01*
X100716571Y-96547676D02*
X100621333Y-96642914D01*
X100621333Y-96642914D02*
X100526095Y-96690533D01*
X101573714Y-97404819D02*
X101764190Y-97404819D01*
X101764190Y-97404819D02*
X101859428Y-97357200D01*
X101859428Y-97357200D02*
X101907047Y-97309580D01*
X101907047Y-97309580D02*
X102002285Y-97166723D01*
X102002285Y-97166723D02*
X102049904Y-96976247D01*
X102049904Y-96976247D02*
X102049904Y-96595295D01*
X102049904Y-96595295D02*
X102002285Y-96500057D01*
X102002285Y-96500057D02*
X101954666Y-96452438D01*
X101954666Y-96452438D02*
X101859428Y-96404819D01*
X101859428Y-96404819D02*
X101668952Y-96404819D01*
X101668952Y-96404819D02*
X101573714Y-96452438D01*
X101573714Y-96452438D02*
X101526095Y-96500057D01*
X101526095Y-96500057D02*
X101478476Y-96595295D01*
X101478476Y-96595295D02*
X101478476Y-96833390D01*
X101478476Y-96833390D02*
X101526095Y-96928628D01*
X101526095Y-96928628D02*
X101573714Y-96976247D01*
X101573714Y-96976247D02*
X101668952Y-97023866D01*
X101668952Y-97023866D02*
X101859428Y-97023866D01*
X101859428Y-97023866D02*
X101954666Y-96976247D01*
X101954666Y-96976247D02*
X102002285Y-96928628D01*
X102002285Y-96928628D02*
X102049904Y-96833390D01*
X89033333Y-88759580D02*
X88985714Y-88807200D01*
X88985714Y-88807200D02*
X88842857Y-88854819D01*
X88842857Y-88854819D02*
X88747619Y-88854819D01*
X88747619Y-88854819D02*
X88604762Y-88807200D01*
X88604762Y-88807200D02*
X88509524Y-88711961D01*
X88509524Y-88711961D02*
X88461905Y-88616723D01*
X88461905Y-88616723D02*
X88414286Y-88426247D01*
X88414286Y-88426247D02*
X88414286Y-88283390D01*
X88414286Y-88283390D02*
X88461905Y-88092914D01*
X88461905Y-88092914D02*
X88509524Y-87997676D01*
X88509524Y-87997676D02*
X88604762Y-87902438D01*
X88604762Y-87902438D02*
X88747619Y-87854819D01*
X88747619Y-87854819D02*
X88842857Y-87854819D01*
X88842857Y-87854819D02*
X88985714Y-87902438D01*
X88985714Y-87902438D02*
X89033333Y-87950057D01*
X89366667Y-87854819D02*
X89985714Y-87854819D01*
X89985714Y-87854819D02*
X89652381Y-88235771D01*
X89652381Y-88235771D02*
X89795238Y-88235771D01*
X89795238Y-88235771D02*
X89890476Y-88283390D01*
X89890476Y-88283390D02*
X89938095Y-88331009D01*
X89938095Y-88331009D02*
X89985714Y-88426247D01*
X89985714Y-88426247D02*
X89985714Y-88664342D01*
X89985714Y-88664342D02*
X89938095Y-88759580D01*
X89938095Y-88759580D02*
X89890476Y-88807200D01*
X89890476Y-88807200D02*
X89795238Y-88854819D01*
X89795238Y-88854819D02*
X89509524Y-88854819D01*
X89509524Y-88854819D02*
X89414286Y-88807200D01*
X89414286Y-88807200D02*
X89366667Y-88759580D01*
D13*
X103140000Y-57500000D02*
X103140000Y-105500000D01*
X104780000Y-72600000D02*
X104780000Y-73600000D01*
X104780000Y-72600000D02*
X107580000Y-72600000D01*
X104780000Y-95400000D02*
X104780000Y-94400000D01*
X104780000Y-95400000D02*
X107580000Y-95400000D01*
X106640000Y-109000000D02*
X139640000Y-109000000D01*
X107580000Y-72600000D02*
X107580000Y-73600000D01*
X107580000Y-95400000D02*
X107580000Y-94400000D01*
X138700000Y-72600000D02*
X138700000Y-73600000D01*
X138700000Y-72600000D02*
X141580000Y-72600000D01*
X138700000Y-95400000D02*
X138700000Y-94400000D01*
X138700000Y-95400000D02*
X141580000Y-95400000D01*
X139640000Y-54000000D02*
X106640000Y-54000000D01*
X141580000Y-72600000D02*
X141580000Y-73600000D01*
X141580000Y-95400000D02*
X141580000Y-94400000D01*
X143140000Y-105500000D02*
X143140000Y-57500000D01*
X103140000Y-57500000D02*
G75*
G02*
X106640000Y-54000000I3499999J1D01*
G01*
X106640000Y-109000000D02*
G75*
G02*
X103140000Y-105500000I-1J3499999D01*
G01*
X139640000Y-54000000D02*
G75*
G02*
X143140000Y-57500000I0J-3500000D01*
G01*
X143140000Y-105500000D02*
G75*
G02*
X139640000Y-109000000I-3500000J0D01*
G01*
X82036359Y-81120000D02*
X82343641Y-81120000D01*
X82036359Y-81880000D02*
X82343641Y-81880000D01*
D14*
X150703500Y-70625000D02*
X154403500Y-70625000D01*
X150703500Y-77125000D02*
X150703500Y-70625000D01*
X154403500Y-70625000D02*
X154403500Y-77125000D01*
X154403500Y-77125000D02*
X150703500Y-77125000D01*
X156228500Y-77375000D02*
X154753500Y-77375000D01*
D15*
X165050000Y-53880000D02*
X156750000Y-53880000D01*
X156750000Y-64040000D01*
X165050000Y-64040000D01*
X165050000Y-53880000D01*
D13*
X146291359Y-78420000D02*
X146598641Y-78420000D01*
X146291359Y-79180000D02*
X146598641Y-79180000D01*
X97359252Y-99055000D02*
X95936748Y-99055000D01*
X97359252Y-101775000D02*
X95936748Y-101775000D01*
D14*
X154550000Y-85800000D02*
X154550000Y-84000000D01*
X157000000Y-80900000D02*
X164650000Y-80900000D01*
X164650000Y-80900000D02*
X164650000Y-85800000D01*
X164650000Y-85800000D02*
X154550000Y-85800000D01*
D10*
X83790300Y-47113000D02*
X83790300Y-53693973D01*
X83790300Y-56286027D02*
X83790300Y-57747901D01*
X83790300Y-58592099D02*
X83790300Y-74332099D01*
X83790300Y-72666027D02*
X83790300Y-73487901D01*
X83790300Y-74332099D02*
X83790300Y-80387000D01*
X83790300Y-80387000D02*
X100833700Y-80387000D01*
X100833700Y-47113000D02*
X83790300Y-47113000D01*
X100833700Y-53693973D02*
X100833700Y-47113000D01*
X100833700Y-57747901D02*
X100833700Y-56286027D01*
X100833700Y-70073973D02*
X100833700Y-58592099D01*
X100833700Y-74332099D02*
X100833700Y-70073973D01*
X100833700Y-80387000D02*
X100833700Y-74332099D01*
D16*
X85840000Y-73410000D02*
G75*
G02*
X85078000Y-73410000I-381000J0D01*
G01*
X85078000Y-73410000D02*
G75*
G02*
X85840000Y-73410000I381000J0D01*
G01*
D13*
X151536586Y-96308145D02*
X151536586Y-96615427D01*
X152296586Y-96308145D02*
X152296586Y-96615427D01*
X81840580Y-75090000D02*
X81559420Y-75090000D01*
X81840580Y-76110000D02*
X81559420Y-76110000D01*
X152258606Y-93310186D02*
X152539766Y-93310186D01*
X152258606Y-94330186D02*
X152539766Y-94330186D01*
X151520000Y-80436359D02*
X151520000Y-80743641D01*
X152280000Y-80436359D02*
X152280000Y-80743641D01*
X157840000Y-70692164D02*
X157840000Y-70907836D01*
X158560000Y-70692164D02*
X158560000Y-70907836D01*
X82046359Y-82720000D02*
X82353641Y-82720000D01*
X82046359Y-83480000D02*
X82353641Y-83480000D01*
D14*
X154550000Y-91800000D02*
X154550000Y-90000000D01*
X157000000Y-86900000D02*
X164650000Y-86900000D01*
X164650000Y-86900000D02*
X164650000Y-91800000D01*
X164650000Y-91800000D02*
X154550000Y-91800000D01*
X159562500Y-66100000D02*
X160612500Y-66100000D01*
X159562500Y-77500000D02*
X159562500Y-66100000D01*
X160612500Y-77500000D02*
X159562500Y-77500000D01*
D15*
X162012500Y-63800000D02*
X162012500Y-63800000D01*
X162012500Y-63900000D02*
X162012500Y-63900000D01*
D14*
X163412500Y-66100000D02*
X164462500Y-66100000D01*
X164412500Y-77500000D02*
X163412500Y-77500000D01*
X164462500Y-66100000D02*
X164412500Y-77500000D01*
D15*
X162012500Y-63800000D02*
G75*
G02*
X162012500Y-63900000I0J-50000D01*
G01*
X162012500Y-63900000D02*
G75*
G02*
X162012500Y-63800000I0J50000D01*
G01*
D13*
X146657500Y-80040000D02*
X146657500Y-80300000D01*
X146657500Y-80040000D02*
X146917500Y-80040000D01*
X150677500Y-80040000D02*
X150417500Y-80040000D01*
X150677500Y-80040000D02*
X150677500Y-80300000D01*
X150677500Y-85460000D02*
X150417500Y-85460000D01*
X150677500Y-85460000D02*
X150677500Y-85200000D01*
D15*
X146657500Y-85820000D02*
X146297500Y-85460000D01*
X146657500Y-85460000D01*
X146657500Y-85820000D01*
G36*
X146657500Y-85820000D02*
G01*
X146297500Y-85460000D01*
X146657500Y-85460000D01*
X146657500Y-85820000D01*
G37*
D13*
X85538580Y-91405000D02*
X85257420Y-91405000D01*
X85538580Y-92425000D02*
X85257420Y-92425000D01*
D15*
X87823000Y-98685000D02*
X79523000Y-98685000D01*
X79523000Y-108845000D01*
X87823000Y-108845000D01*
X87823000Y-98685000D01*
D13*
X153003500Y-66540000D02*
X150003500Y-66540000D01*
X153003500Y-69760000D02*
X150003500Y-69760000D01*
X153543500Y-69920000D02*
X153543500Y-69440000D01*
X154023500Y-69440000D01*
X153543500Y-69920000D01*
G36*
X153543500Y-69920000D02*
G01*
X153543500Y-69440000D01*
X154023500Y-69440000D01*
X153543500Y-69920000D01*
G37*
X86313000Y-89507164D02*
X86313000Y-89722836D01*
X87033000Y-89507164D02*
X87033000Y-89722836D01*
D15*
X165150000Y-98720000D02*
X156850000Y-98720000D01*
X156850000Y-108880000D01*
X165150000Y-108880000D01*
X165150000Y-98720000D01*
D13*
X81840580Y-77990000D02*
X81559420Y-77990000D01*
X81840580Y-79010000D02*
X81559420Y-79010000D01*
D14*
X71100000Y-60704000D02*
X71100000Y-60704000D01*
X71300000Y-60704000D02*
X71300000Y-60704000D01*
D15*
X72440000Y-47714000D02*
X72440000Y-58214000D01*
X72440000Y-61214000D02*
X72440000Y-65214000D01*
X78160000Y-47714000D02*
X72440000Y-47714000D01*
X78160000Y-58214000D02*
X78160000Y-47714000D01*
X78160000Y-61214000D02*
X78160000Y-65214000D01*
D14*
X71100000Y-60704000D02*
G75*
G02*
X71300000Y-60704000I100000J0D01*
G01*
X71300000Y-60704000D02*
G75*
G02*
X71100000Y-60704000I-100000J0D01*
G01*
D13*
X147352836Y-87340000D02*
X147137164Y-87340000D01*
X147352836Y-88060000D02*
X147137164Y-88060000D01*
X93263000Y-89505000D02*
X93263000Y-89955000D01*
X93263000Y-89505000D02*
X98083000Y-89505000D01*
X93263000Y-94325000D02*
X93263000Y-93875000D01*
X93263000Y-94325000D02*
X98083000Y-94325000D01*
X98083000Y-89505000D02*
X98083000Y-89955000D01*
X98083000Y-94325000D02*
X98083000Y-93875000D01*
X146520000Y-76853641D02*
X146520000Y-76546359D01*
X147280000Y-76853641D02*
X147280000Y-76546359D01*
X101590000Y-59940580D02*
X101590000Y-59659420D01*
X102610000Y-59940580D02*
X102610000Y-59659420D01*
X91085164Y-95055000D02*
X91300836Y-95055000D01*
X91085164Y-95775000D02*
X91300836Y-95775000D01*
X151090000Y-58447936D02*
X151090000Y-60002064D01*
X155910000Y-58447936D02*
X155910000Y-60002064D01*
X89451748Y-85005000D02*
X90874252Y-85005000D01*
X89451748Y-86825000D02*
X90874252Y-86825000D01*
X151812986Y-90887366D02*
X151812986Y-90606206D01*
X152832986Y-90887366D02*
X152832986Y-90606206D01*
X151550000Y-83157836D02*
X151550000Y-82942164D01*
X152270000Y-83157836D02*
X152270000Y-82942164D01*
X94788000Y-103480000D02*
X94788000Y-105750000D01*
X94788000Y-105750000D02*
X98673000Y-105750000D01*
X98673000Y-103480000D02*
X94788000Y-103480000D01*
X144020000Y-79146359D02*
X144020000Y-79453641D01*
X144780000Y-79146359D02*
X144780000Y-79453641D01*
X97309252Y-82055000D02*
X95886748Y-82055000D01*
X97309252Y-84775000D02*
X95886748Y-84775000D01*
X101590000Y-66859420D02*
X101590000Y-67140580D01*
X102610000Y-66859420D02*
X102610000Y-67140580D01*
X81740580Y-71990000D02*
X81459420Y-71990000D01*
X81740580Y-73010000D02*
X81459420Y-73010000D01*
D14*
X145883386Y-91733586D02*
X150883386Y-91733586D01*
X145883386Y-95433586D02*
X145883386Y-91733586D01*
X150883386Y-91733586D02*
X150883386Y-95433586D01*
X150883386Y-95433586D02*
X145883386Y-95433586D01*
X151233386Y-89908586D02*
X151233386Y-91383586D01*
X147608386Y-98266586D02*
X149208386Y-98266586D01*
X147608386Y-100266586D02*
X147608386Y-98266586D01*
X149208386Y-98266586D02*
X149208386Y-100266586D01*
X149208386Y-100266586D02*
X147608386Y-100266586D01*
X150408386Y-100516586D02*
X149558386Y-100516586D01*
D13*
X86293000Y-94368641D02*
X86293000Y-94061359D01*
X87053000Y-94368641D02*
X87053000Y-94061359D01*
X144500786Y-91713227D02*
X144500786Y-91405945D01*
X145260786Y-91713227D02*
X145260786Y-91405945D01*
X157852500Y-73007836D02*
X157852500Y-72792164D01*
X158572500Y-73007836D02*
X158572500Y-72792164D01*
X99993000Y-102968641D02*
X99993000Y-102661359D01*
X100753000Y-102968641D02*
X100753000Y-102661359D01*
X97334252Y-85555000D02*
X95911748Y-85555000D01*
X97334252Y-88275000D02*
X95911748Y-88275000D01*
D10*
X73125200Y-71880441D02*
X73125200Y-75519559D01*
X75287441Y-76824200D02*
X76274800Y-76824200D01*
X76274800Y-70575800D02*
X75287441Y-70575800D01*
X76274800Y-71537060D02*
X76274800Y-70575800D01*
X76274800Y-76824200D02*
X76274800Y-75862940D01*
D16*
X76853201Y-77459200D02*
G75*
G02*
X76091201Y-77459200I-381000J0D01*
G01*
X76091201Y-77459200D02*
G75*
G02*
X76853201Y-77459200I381000J0D01*
G01*
D13*
X89206748Y-96960000D02*
X90629252Y-96960000D01*
X89206748Y-98780000D02*
X90629252Y-98780000D01*
D10*
X88163600Y-89489174D02*
X88163600Y-90045526D01*
X88163600Y-93784222D02*
X88163600Y-94340574D01*
X88163600Y-94340574D02*
X89220915Y-94340574D01*
X89220915Y-89489174D02*
X88163600Y-89489174D01*
X91475085Y-94340574D02*
X92532400Y-94340574D01*
X92532400Y-89489174D02*
X91475085Y-89489174D01*
X92532400Y-90045526D02*
X92532400Y-89489174D01*
X92532400Y-94340574D02*
X92532400Y-93784222D01*
D13*
X150236359Y-87320000D02*
X150543641Y-87320000D01*
X150236359Y-88080000D02*
X150543641Y-88080000D01*
X97359252Y-95555000D02*
X95936748Y-95555000D01*
X97359252Y-98275000D02*
X95936748Y-98275000D01*
D14*
X154550000Y-97800000D02*
X154550000Y-96000000D01*
X157000000Y-92900000D02*
X164650000Y-92900000D01*
X164650000Y-92900000D02*
X164650000Y-97800000D01*
X164650000Y-97800000D02*
X154550000Y-97800000D01*
D13*
X91045164Y-88055000D02*
X91260836Y-88055000D01*
X91045164Y-88775000D02*
X91260836Y-88775000D01*
D17*
X157000000Y-84000000D03*
D18*
X159500000Y-84000000D03*
X162000000Y-84000000D03*
D17*
X157000000Y-90000000D03*
D18*
X159500000Y-90000000D03*
X162000000Y-90000000D03*
D17*
X157000000Y-96000000D03*
D18*
X159500000Y-96000000D03*
X162000000Y-96000000D03*
%LPC*%
D19*
X106640000Y-57500000D03*
X106640000Y-105500000D03*
X139640000Y-57500000D03*
X139640000Y-105500000D03*
D20*
X104600000Y-74200000D03*
X107680000Y-74200000D03*
X104600000Y-74600000D03*
X107680000Y-74600000D03*
X104600000Y-75000000D03*
X107680000Y-75000000D03*
X104600000Y-75400000D03*
X107680000Y-75400000D03*
X104600000Y-75800000D03*
X107680000Y-75800000D03*
X104600000Y-76200000D03*
X107680000Y-76200000D03*
X104600000Y-76600000D03*
X107680000Y-76600000D03*
X104600000Y-77000000D03*
X107680000Y-77000000D03*
X104600000Y-77400000D03*
X107680000Y-77400000D03*
X104600000Y-77800000D03*
X107680000Y-77800000D03*
X104600000Y-78200000D03*
X107680000Y-78200000D03*
X104600000Y-78600000D03*
X107680000Y-78600000D03*
X104600000Y-79000000D03*
X107680000Y-79000000D03*
X104600000Y-79400000D03*
X107680000Y-79400000D03*
X104600000Y-79800000D03*
X107680000Y-79800000D03*
X104600000Y-80200000D03*
X107680000Y-80200000D03*
X104600000Y-80600000D03*
X107680000Y-80600000D03*
X104600000Y-81000000D03*
X107680000Y-81000000D03*
X104600000Y-81400000D03*
X107680000Y-81400000D03*
X104600000Y-81800000D03*
X107680000Y-81800000D03*
X104600000Y-82200000D03*
X107680000Y-82200000D03*
X104600000Y-82600000D03*
X107680000Y-82600000D03*
X104600000Y-83000000D03*
X107680000Y-83000000D03*
X104600000Y-83400000D03*
X107680000Y-83400000D03*
X104600000Y-83800000D03*
X107680000Y-83800000D03*
X104600000Y-84200000D03*
X107680000Y-84200000D03*
X104600000Y-84600000D03*
X107680000Y-84600000D03*
X104600000Y-85000000D03*
X107680000Y-85000000D03*
X104600000Y-85400000D03*
X107680000Y-85400000D03*
X104600000Y-85800000D03*
X107680000Y-85800000D03*
X104600000Y-86200000D03*
X107680000Y-86200000D03*
X104600000Y-86600000D03*
X107680000Y-86600000D03*
X104600000Y-87000000D03*
X107680000Y-87000000D03*
X104600000Y-87400000D03*
X107680000Y-87400000D03*
X104600000Y-87800000D03*
X107680000Y-87800000D03*
X104600000Y-88200000D03*
X107680000Y-88200000D03*
X104600000Y-88600000D03*
X107680000Y-88600000D03*
X104600000Y-89000000D03*
X107680000Y-89000000D03*
X104600000Y-89400000D03*
X107680000Y-89400000D03*
X104600000Y-89800000D03*
X107680000Y-89800000D03*
X104600000Y-90200000D03*
X107680000Y-90200000D03*
X104600000Y-90600000D03*
X107680000Y-90600000D03*
X104600000Y-91000000D03*
X107680000Y-91000000D03*
X104600000Y-91400000D03*
X107680000Y-91400000D03*
X104600000Y-91800000D03*
X107680000Y-91800000D03*
X104600000Y-92200000D03*
X107680000Y-92200000D03*
X104600000Y-92600000D03*
X107680000Y-92600000D03*
X104600000Y-93000000D03*
X107680000Y-93000000D03*
X104600000Y-93400000D03*
X107680000Y-93400000D03*
X104600000Y-93800000D03*
X107680000Y-93800000D03*
X138600000Y-74200000D03*
X141680000Y-74200000D03*
X138600000Y-74600000D03*
X141680000Y-74600000D03*
X138600000Y-75000000D03*
X141680000Y-75000000D03*
X138600000Y-75400000D03*
X141680000Y-75400000D03*
X138600000Y-75800000D03*
X141680000Y-75800000D03*
X138600000Y-76200000D03*
X141680000Y-76200000D03*
X138600000Y-76600000D03*
X141680000Y-76600000D03*
X138600000Y-77000000D03*
X141680000Y-77000000D03*
X138600000Y-77400000D03*
X141680000Y-77400000D03*
X138600000Y-77800000D03*
X141680000Y-77800000D03*
X138600000Y-78200000D03*
X141680000Y-78200000D03*
X138600000Y-78600000D03*
X141680000Y-78600000D03*
X138600000Y-79000000D03*
X141680000Y-79000000D03*
X138600000Y-79400000D03*
X141680000Y-79400000D03*
X138600000Y-79800000D03*
X141680000Y-79800000D03*
X138600000Y-80200000D03*
X141680000Y-80200000D03*
X138600000Y-80600000D03*
X141680000Y-80600000D03*
X138600000Y-81000000D03*
X141680000Y-81000000D03*
X138600000Y-81400000D03*
X141680000Y-81400000D03*
X138600000Y-81800000D03*
X141680000Y-81800000D03*
X138600000Y-82200000D03*
X141680000Y-82200000D03*
X138600000Y-82600000D03*
X141680000Y-82600000D03*
X138600000Y-83000000D03*
X141680000Y-83000000D03*
X138600000Y-83400000D03*
X141680000Y-83400000D03*
X138600000Y-83800000D03*
X141680000Y-83800000D03*
X138600000Y-84200000D03*
X141680000Y-84200000D03*
X138600000Y-84600000D03*
X141680000Y-84600000D03*
X138600000Y-85000000D03*
X141680000Y-85000000D03*
X138600000Y-85400000D03*
X141680000Y-85400000D03*
X138600000Y-85800000D03*
X141680000Y-85800000D03*
X138600000Y-86200000D03*
X141680000Y-86200000D03*
X138600000Y-86600000D03*
X141680000Y-86600000D03*
X138600000Y-87000000D03*
X141680000Y-87000000D03*
X138600000Y-87400000D03*
X141680000Y-87400000D03*
X138600000Y-87800000D03*
X141680000Y-87800000D03*
X138600000Y-88200000D03*
X141680000Y-88200000D03*
X138600000Y-88600000D03*
X141680000Y-88600000D03*
X138600000Y-89000000D03*
X141680000Y-89000000D03*
X138600000Y-89400000D03*
X141680000Y-89400000D03*
X138600000Y-89800000D03*
X141680000Y-89800000D03*
X138600000Y-90200000D03*
X141680000Y-90200000D03*
X138600000Y-90600000D03*
X141680000Y-90600000D03*
X138600000Y-91000000D03*
X141680000Y-91000000D03*
X138600000Y-91400000D03*
X141680000Y-91400000D03*
X138600000Y-91800000D03*
X141680000Y-91800000D03*
X138600000Y-92200000D03*
X141680000Y-92200000D03*
X138600000Y-92600000D03*
X141680000Y-92600000D03*
X138600000Y-93000000D03*
X141680000Y-93000000D03*
X138600000Y-93400000D03*
X141680000Y-93400000D03*
X138600000Y-93800000D03*
X141680000Y-93800000D03*
D21*
X81680000Y-81500000D03*
X82700000Y-81500000D03*
D22*
X156000000Y-79000000D03*
D23*
X155491500Y-76800000D03*
X155491500Y-76150000D03*
X155491500Y-75500000D03*
X155491500Y-74850000D03*
X155491500Y-74200000D03*
X155491500Y-73550000D03*
X155491500Y-72900000D03*
X155491500Y-72250000D03*
X155491500Y-71600000D03*
X155491500Y-70950000D03*
X149615500Y-70950000D03*
X149615500Y-71600000D03*
X149615500Y-72250000D03*
X149615500Y-72900000D03*
X149615500Y-73550000D03*
X149615500Y-74200000D03*
X149615500Y-74850000D03*
X149615500Y-75500000D03*
X149615500Y-76150000D03*
X149615500Y-76800000D03*
D24*
X160900000Y-56420000D03*
X160900000Y-61500000D03*
D21*
X145935000Y-78800000D03*
X146955000Y-78800000D03*
D25*
X98123000Y-100415000D03*
X95173000Y-100415000D03*
D17*
X157000000Y-84000000D03*
D18*
X159500000Y-84000000D03*
X162000000Y-84000000D03*
D26*
X87237000Y-73410000D03*
X89267000Y-73410000D03*
X91297000Y-73410000D03*
X93327000Y-73410000D03*
X95357000Y-73410000D03*
X97387000Y-73410000D03*
X86280500Y-75950000D03*
X88310500Y-75950000D03*
X90340500Y-75950000D03*
X94410500Y-75950000D03*
X96440500Y-75950000D03*
X98470500Y-75950000D03*
X86280500Y-78490000D03*
X88820500Y-78490000D03*
X95930508Y-78490000D03*
X98470508Y-78490000D03*
X86724000Y-66300000D03*
X97900000Y-66300000D03*
X86724000Y-64830000D03*
X97900000Y-64830000D03*
D27*
X98662000Y-58170000D03*
X85962000Y-58170000D03*
D28*
X100377000Y-54990000D03*
X84247000Y-54990000D03*
D29*
X151916586Y-95951786D03*
X151916586Y-96971786D03*
D30*
X82475000Y-75600000D03*
X80925000Y-75600000D03*
D31*
X151624186Y-93820186D03*
X153174186Y-93820186D03*
D29*
X151900000Y-80080000D03*
X151900000Y-81100000D03*
D32*
X158200000Y-70320000D03*
X158200000Y-71280000D03*
D21*
X81690000Y-83100000D03*
X82710000Y-83100000D03*
D17*
X157000000Y-90000000D03*
D18*
X159500000Y-90000000D03*
X162000000Y-90000000D03*
D33*
X162012500Y-67050000D03*
X162012500Y-76550000D03*
D34*
X144975000Y-104000000D03*
X145568109Y-102568109D03*
X145568109Y-105431891D03*
X147000000Y-101975000D03*
D35*
X147000000Y-104000000D03*
D34*
X147000000Y-106025000D03*
X148431891Y-102568109D03*
X148431891Y-105431891D03*
X149025000Y-104000000D03*
D36*
X147005000Y-85000000D03*
D37*
X147917500Y-85137500D03*
X148417500Y-85137500D03*
X148917500Y-85137500D03*
X149417500Y-85137500D03*
D36*
X150330000Y-85000000D03*
X150330000Y-84500000D03*
X150330000Y-84000000D03*
X150330000Y-83500000D03*
X150330000Y-83000000D03*
X150330000Y-82500000D03*
X150330000Y-82000000D03*
X150330000Y-81500000D03*
X150330000Y-81000000D03*
X150330000Y-80500000D03*
D37*
X149417500Y-80362500D03*
X148917500Y-80362500D03*
X148417500Y-80362500D03*
X147917500Y-80362500D03*
D36*
X147005000Y-80500000D03*
X147005000Y-81000000D03*
X147005000Y-81500000D03*
X147005000Y-82000000D03*
X147005000Y-82500000D03*
X147005000Y-83000000D03*
X147005000Y-83500000D03*
X147005000Y-84000000D03*
X147005000Y-84500000D03*
D30*
X86173000Y-91915000D03*
X84623000Y-91915000D03*
D24*
X83673000Y-101225000D03*
X83673000Y-106305000D03*
D38*
X152953500Y-69125000D03*
X152953500Y-68475000D03*
X152953500Y-67825000D03*
X152953500Y-67175000D03*
X150053500Y-67175000D03*
X150053500Y-67825000D03*
X150053500Y-68475000D03*
X150053500Y-69125000D03*
D39*
X151503500Y-68150000D03*
D34*
X144975000Y-59000000D03*
X145568109Y-57568109D03*
X145568109Y-60431891D03*
X147000000Y-56975000D03*
D35*
X147000000Y-59000000D03*
D34*
X147000000Y-61025000D03*
X148431891Y-57568109D03*
X148431891Y-60431891D03*
X149025000Y-59000000D03*
D22*
X70400000Y-104300000D03*
D32*
X86673000Y-89135000D03*
X86673000Y-90095000D03*
D24*
X161000000Y-101260000D03*
X161000000Y-106340000D03*
D30*
X82475000Y-78500000D03*
X80925000Y-78500000D03*
D40*
X75300000Y-60204000D03*
X75300000Y-62204000D03*
X75300000Y-64204000D03*
X75300000Y-66204000D03*
D41*
X78020000Y-66474000D03*
X78020000Y-59474000D03*
X72580000Y-66474000D03*
X72580000Y-59474000D03*
D42*
X147725000Y-87700000D03*
X146765000Y-87700000D03*
D43*
X94488000Y-91915000D03*
X96858000Y-91915000D03*
D44*
X146900000Y-77210000D03*
X146900000Y-76190000D03*
D45*
X102100000Y-60575000D03*
X102100000Y-59025000D03*
D46*
X90713000Y-95415000D03*
X91673000Y-95415000D03*
D47*
X153500000Y-57750000D03*
X153500000Y-60700000D03*
D48*
X88688000Y-85915000D03*
X91638000Y-85915000D03*
D45*
X152322986Y-91521786D03*
X152322986Y-89971786D03*
D49*
X151910000Y-83530000D03*
X151910000Y-82570000D03*
D22*
X140000000Y-65000000D03*
D50*
X95673000Y-104615000D03*
X98473000Y-104615000D03*
D29*
X144400000Y-78790000D03*
X144400000Y-79810000D03*
D25*
X98073000Y-83415000D03*
X95123000Y-83415000D03*
D51*
X102100000Y-66225000D03*
X102100000Y-67775000D03*
D30*
X82375000Y-72500000D03*
X80825000Y-72500000D03*
D52*
X150658386Y-90645586D03*
X150008386Y-90645586D03*
X149358386Y-90645586D03*
X148708386Y-90645586D03*
X148058386Y-90645586D03*
X147408386Y-90645586D03*
X146758386Y-90645586D03*
X146108386Y-90645586D03*
X146108386Y-96521586D03*
X146758386Y-96521586D03*
X147408386Y-96521586D03*
X148058386Y-96521586D03*
X148708386Y-96521586D03*
X149358386Y-96521586D03*
X150008386Y-96521586D03*
X150658386Y-96521586D03*
D53*
X149983386Y-100016586D03*
X149983386Y-99516586D03*
X149983386Y-99016586D03*
X149983386Y-98516586D03*
X146833386Y-98516586D03*
X146833386Y-99016586D03*
X146833386Y-99516586D03*
X146833386Y-100016586D03*
D44*
X86673000Y-94725000D03*
X86673000Y-93705000D03*
D34*
X73975000Y-81500000D03*
X74568109Y-80068109D03*
X74568109Y-82931891D03*
X76000000Y-79475000D03*
D35*
X76000000Y-81500000D03*
D34*
X76000000Y-83525000D03*
X77431891Y-80068109D03*
X77431891Y-82931891D03*
X78025000Y-81500000D03*
D44*
X144880786Y-92069586D03*
X144880786Y-91049586D03*
D49*
X158212500Y-73380000D03*
X158212500Y-72420000D03*
D44*
X100373000Y-103325000D03*
X100373000Y-102305000D03*
D25*
X98098000Y-86915000D03*
X95148000Y-86915000D03*
D54*
X76472201Y-75200000D03*
X76472201Y-74199999D03*
X76472201Y-73200001D03*
X76472201Y-72200000D03*
D55*
X74002201Y-76499999D03*
X74002201Y-70900001D03*
D48*
X88443000Y-97870000D03*
X91393000Y-97870000D03*
D56*
X88772999Y-90414496D03*
D57*
X88772999Y-90914622D03*
X88772999Y-91414748D03*
X88772999Y-91914874D03*
X88772999Y-92415000D03*
X88772999Y-92915126D03*
D58*
X88772999Y-93415252D03*
D59*
X89597811Y-93739874D03*
X90097937Y-93739874D03*
X90598063Y-93739874D03*
X91098189Y-93739874D03*
D60*
X91923001Y-93415252D03*
D57*
X91923001Y-92915126D03*
X91923001Y-92415000D03*
X91923001Y-91914874D03*
X91923001Y-91414748D03*
X91923001Y-90914622D03*
D61*
X91923001Y-90414496D03*
D59*
X91098189Y-90089874D03*
X90598063Y-90089874D03*
X90097937Y-90089874D03*
X89597811Y-90089874D03*
D62*
X90348000Y-91914874D03*
D21*
X149880000Y-87700000D03*
X150900000Y-87700000D03*
D25*
X98123000Y-96915000D03*
X95173000Y-96915000D03*
D17*
X157000000Y-96000000D03*
D18*
X159500000Y-96000000D03*
X162000000Y-96000000D03*
D46*
X90673000Y-88415000D03*
X91633000Y-88415000D03*
%LPD*%
M02*
