%TF.GenerationSoftware,KiCad,Pcbnew,8.0.8*%
%TF.CreationDate,2025-07-30T13:34:18+02:00*%
%TF.ProjectId,overlord,6f766572-6c6f-4726-942e-6b696361645f,rev?*%
%TF.SameCoordinates,Original*%
%TF.FileFunction,Drillmap*%
%TF.FilePolarity,Positive*%
%FSLAX45Y45*%
G04 Gerber Fmt 4.5, Leading zero omitted, Abs format (unit mm)*
G04 Created by KiCad (PCBNEW 8.0.8) date 2025-07-30 13:34:18*
%MOMM*%
%LPD*%
G01*
G04 APERTURE LIST*
%ADD10C,0.100000*%
%ADD11C,0.200000*%
%ADD12C,0.135000*%
%ADD13C,0.157480*%
%ADD14C,0.160000*%
%ADD15C,0.270000*%
%ADD16C,0.325120*%
G04 APERTURE END LIST*
D10*
X16299736Y-5283984D02*
G75*
G02*
X16599689Y-5578722I4J-299996D01*
G01*
X6790000Y-5580000D02*
X6790000Y-10700000D01*
X6790000Y-5580000D02*
G75*
G02*
X7090000Y-5280000I300000J0D01*
G01*
X16597868Y-10707868D02*
X16600000Y-5590000D01*
X7090000Y-11000000D02*
G75*
G02*
X6790000Y-10700000I0J300000D01*
G01*
X7090000Y-5280000D02*
X16299737Y-5283984D01*
X7090000Y-11000000D02*
X16297868Y-11007868D01*
X16597868Y-10707868D02*
G75*
G02*
X16297868Y-11007868I-299998J-2D01*
G01*
X16600000Y-5590000D02*
X16599690Y-5578722D01*
D11*
D10*
X7803490Y-7303490D02*
X7836510Y-7336510D01*
X7836510Y-7303490D02*
X7803490Y-7336510D01*
X7823490Y-7553490D02*
X7856510Y-7586510D01*
X7856510Y-7553490D02*
X7823490Y-7586510D01*
X7923490Y-7243490D02*
X7956510Y-7276510D01*
X7956510Y-7243490D02*
X7923490Y-7276510D01*
X7943490Y-7543490D02*
X7976510Y-7576510D01*
X7976510Y-7543490D02*
X7943490Y-7576510D01*
X7943490Y-7833490D02*
X7976510Y-7866510D01*
X7976510Y-7833490D02*
X7943490Y-7866510D01*
X8023490Y-8133490D02*
X8056510Y-8166510D01*
X8056510Y-8133490D02*
X8023490Y-8166510D01*
X8023490Y-8293490D02*
X8056510Y-8326510D01*
X8056510Y-8293490D02*
X8023490Y-8326510D01*
X8353490Y-8293490D02*
X8386510Y-8326510D01*
X8386510Y-8293490D02*
X8353490Y-8326510D01*
X8413490Y-7683490D02*
X8446510Y-7716510D01*
X8446510Y-7683490D02*
X8413490Y-7716510D01*
X8453290Y-8948490D02*
X8486310Y-8981510D01*
X8486310Y-8948490D02*
X8453290Y-8981510D01*
X8453290Y-9418490D02*
X8486310Y-9451510D01*
X8486310Y-9418490D02*
X8453290Y-9451510D01*
X8720290Y-9242490D02*
X8753310Y-9275510D01*
X8753310Y-9242490D02*
X8720290Y-9275510D01*
X8729290Y-9101490D02*
X8762310Y-9134510D01*
X8762310Y-9101490D02*
X8729290Y-9134510D01*
X8970790Y-9174977D02*
X9003810Y-9207997D01*
X9003810Y-9174977D02*
X8970790Y-9207997D01*
X9018290Y-9099990D02*
X9051310Y-9133010D01*
X9051310Y-9099990D02*
X9018290Y-9133010D01*
X9020790Y-9249990D02*
X9053810Y-9283010D01*
X9053810Y-9249990D02*
X9020790Y-9283010D01*
X9065790Y-9174990D02*
X9098810Y-9208010D01*
X9098810Y-9174990D02*
X9065790Y-9208010D01*
X9140790Y-9954990D02*
X9173810Y-9988010D01*
X9173810Y-9954990D02*
X9140790Y-9988010D01*
X9145790Y-10074990D02*
X9178810Y-10108010D01*
X9178810Y-10074990D02*
X9145790Y-10108010D01*
X9155790Y-8372490D02*
X9188810Y-8405510D01*
X9188810Y-8372490D02*
X9155790Y-8405510D01*
X9158290Y-8237490D02*
X9191310Y-8270510D01*
X9191310Y-8237490D02*
X9158290Y-8270510D01*
X9283290Y-9537490D02*
X9316310Y-9570510D01*
X9316310Y-9537490D02*
X9283290Y-9570510D01*
X9300790Y-9009990D02*
X9333810Y-9043010D01*
X9333810Y-9009990D02*
X9300790Y-9043010D01*
X9300790Y-9309990D02*
X9333810Y-9343010D01*
X9333810Y-9309990D02*
X9300790Y-9343010D01*
X9350790Y-8209990D02*
X9383810Y-8243010D01*
X9383810Y-8209990D02*
X9350790Y-8243010D01*
X9350790Y-8309990D02*
X9383810Y-8343010D01*
X9383810Y-8309990D02*
X9350790Y-8343010D01*
X9350790Y-8409990D02*
X9383810Y-8443010D01*
X9383810Y-8409990D02*
X9350790Y-8443010D01*
X9350790Y-8509990D02*
X9383810Y-8543010D01*
X9383810Y-8509990D02*
X9350790Y-8543010D01*
X9350790Y-8609990D02*
X9383810Y-8643010D01*
X9383810Y-8609990D02*
X9350790Y-8643010D01*
X9350790Y-8709990D02*
X9383810Y-8743010D01*
X9383810Y-8709990D02*
X9350790Y-8743010D01*
X9350790Y-8809990D02*
X9383810Y-8843010D01*
X9383810Y-8809990D02*
X9350790Y-8843010D01*
X9350790Y-9609990D02*
X9383810Y-9643010D01*
X9383810Y-9609990D02*
X9350790Y-9643010D01*
X9350790Y-9709990D02*
X9383810Y-9743010D01*
X9383810Y-9709990D02*
X9350790Y-9743010D01*
X9350790Y-9809990D02*
X9383810Y-9843010D01*
X9383810Y-9809990D02*
X9350790Y-9843010D01*
X9350790Y-9909990D02*
X9383810Y-9943010D01*
X9383810Y-9909990D02*
X9350790Y-9943010D01*
X9350790Y-10009990D02*
X9383810Y-10043010D01*
X9383810Y-10009990D02*
X9350790Y-10043010D01*
X9350790Y-10109990D02*
X9383810Y-10143010D01*
X9383810Y-10109990D02*
X9350790Y-10143010D01*
X9943490Y-9313490D02*
X9976510Y-9346510D01*
X9976510Y-9313490D02*
X9943490Y-9346510D01*
X9945790Y-9479990D02*
X9978810Y-9513010D01*
X9978810Y-9479990D02*
X9945790Y-9513010D01*
X9949547Y-7336001D02*
X9982567Y-7369021D01*
X9982567Y-7336001D02*
X9949547Y-7369021D01*
X9953490Y-8473490D02*
X9986510Y-8506510D01*
X9986510Y-8473490D02*
X9953490Y-8506510D01*
X9963490Y-8843490D02*
X9996510Y-8876510D01*
X9996510Y-8843490D02*
X9963490Y-8876510D01*
X10003490Y-7671700D02*
X10036510Y-7704720D01*
X10036510Y-7671700D02*
X10003490Y-7704720D01*
X10016001Y-7269547D02*
X10049021Y-7302567D01*
X10049021Y-7269547D02*
X10016001Y-7302567D01*
X10150263Y-7950263D02*
X10183283Y-7983283D01*
X10183283Y-7950263D02*
X10150263Y-7983283D01*
X10193490Y-5743490D02*
X10226510Y-5776510D01*
X10226510Y-5743490D02*
X10193490Y-5776510D01*
X10216500Y-7373490D02*
X10249520Y-7406510D01*
X10249520Y-7373490D02*
X10216500Y-7406510D01*
X10216717Y-8016717D02*
X10249737Y-8049737D01*
X10249737Y-8016717D02*
X10216717Y-8049737D01*
X10235405Y-7835405D02*
X10268425Y-7868425D01*
X10268425Y-7835405D02*
X10235405Y-7868425D01*
X10244790Y-8303490D02*
X10277810Y-8336510D01*
X10277810Y-8303490D02*
X10244790Y-8336510D01*
X10246790Y-8442990D02*
X10279810Y-8476010D01*
X10279810Y-8442990D02*
X10246790Y-8476010D01*
X10248790Y-8563990D02*
X10281810Y-8597010D01*
X10281810Y-8563990D02*
X10248790Y-8597010D01*
X10248790Y-8682990D02*
X10281810Y-8716010D01*
X10281810Y-8682990D02*
X10248790Y-8716010D01*
X10250790Y-8802490D02*
X10283810Y-8835510D01*
X10283810Y-8802490D02*
X10250790Y-8835510D01*
X10250790Y-9227490D02*
X10283810Y-9260510D01*
X10283810Y-9227490D02*
X10250790Y-9260510D01*
X10250790Y-9492490D02*
X10283810Y-9525510D01*
X10283810Y-9492490D02*
X10250790Y-9525510D01*
X10250790Y-9827490D02*
X10283810Y-9860510D01*
X10283810Y-9827490D02*
X10250790Y-9860510D01*
X10250790Y-10139990D02*
X10283810Y-10173010D01*
X10283810Y-10139990D02*
X10250790Y-10173010D01*
X10310480Y-7373490D02*
X10343500Y-7406510D01*
X10343500Y-7373490D02*
X10310480Y-7406510D01*
X10313490Y-8133490D02*
X10346510Y-8166510D01*
X10346510Y-8133490D02*
X10313490Y-8166510D01*
X10338790Y-8008990D02*
X10371810Y-8042010D01*
X10371810Y-8008990D02*
X10338790Y-8042010D01*
X10339790Y-7842990D02*
X10372810Y-7876010D01*
X10372810Y-7842990D02*
X10339790Y-7876010D01*
X10353490Y-6083490D02*
X10386510Y-6116510D01*
X10386510Y-6083490D02*
X10353490Y-6116510D01*
X10363490Y-6783490D02*
X10396510Y-6816510D01*
X10396510Y-6783490D02*
X10363490Y-6816510D01*
X10463490Y-6653490D02*
X10496510Y-6686510D01*
X10496510Y-6653490D02*
X10463490Y-6686510D01*
X10543490Y-7443490D02*
X10576510Y-7476510D01*
X10576510Y-7443490D02*
X10543490Y-7476510D01*
X10543490Y-7733490D02*
X10576510Y-7766510D01*
X10576510Y-7733490D02*
X10543490Y-7766510D01*
X10543490Y-8653490D02*
X10576510Y-8686510D01*
X10576510Y-8653490D02*
X10543490Y-8686510D01*
X10553490Y-8173490D02*
X10586510Y-8206510D01*
X10586510Y-8173490D02*
X10553490Y-8206510D01*
X10553490Y-8343490D02*
X10586510Y-8376510D01*
X10586510Y-8343490D02*
X10553490Y-8376510D01*
X10563490Y-8083490D02*
X10596510Y-8116510D01*
X10596510Y-8083490D02*
X10563490Y-8116510D01*
X10563490Y-8453490D02*
X10596510Y-8486510D01*
X10596510Y-8453490D02*
X10563490Y-8486510D01*
X10593490Y-8253490D02*
X10626510Y-8286510D01*
X10626510Y-8253490D02*
X10593490Y-8286510D01*
X10603490Y-7643490D02*
X10636510Y-7676510D01*
X10636510Y-7643490D02*
X10603490Y-7676510D01*
X10619790Y-7805990D02*
X10652810Y-7839010D01*
X10652810Y-7805990D02*
X10619790Y-7839010D01*
X10623490Y-8853490D02*
X10656510Y-8886510D01*
X10656510Y-8853490D02*
X10623490Y-8886510D01*
X10633790Y-9083990D02*
X10666810Y-9117010D01*
X10666810Y-9083990D02*
X10633790Y-9117010D01*
X10643490Y-7123490D02*
X10676510Y-7156510D01*
X10676510Y-7123490D02*
X10643490Y-7156510D01*
X10653490Y-8183490D02*
X10686510Y-8216510D01*
X10686510Y-8183490D02*
X10653490Y-8216510D01*
X10663490Y-7723490D02*
X10696510Y-7756510D01*
X10696510Y-7723490D02*
X10663490Y-7756510D01*
X10853490Y-7343490D02*
X10886510Y-7376510D01*
X10886510Y-7343490D02*
X10853490Y-7376510D01*
X10853490Y-8403490D02*
X10886510Y-8436510D01*
X10886510Y-8403490D02*
X10853490Y-8436510D01*
X10863490Y-8593490D02*
X10896510Y-8626510D01*
X10896510Y-8593490D02*
X10863490Y-8626510D01*
X10873490Y-8003490D02*
X10906510Y-8036510D01*
X10906510Y-8003490D02*
X10873490Y-8036510D01*
X10886500Y-7783490D02*
X10919520Y-7816510D01*
X10919520Y-7783490D02*
X10886500Y-7816510D01*
X10896790Y-9322990D02*
X10929810Y-9356010D01*
X10929810Y-9322990D02*
X10896790Y-9356010D01*
X10923490Y-7493490D02*
X10956510Y-7526510D01*
X10956510Y-7493490D02*
X10923490Y-7526510D01*
X10953490Y-8683490D02*
X10986510Y-8716510D01*
X10986510Y-8683490D02*
X10953490Y-8716510D01*
X10963490Y-8533490D02*
X10996510Y-8566510D01*
X10996510Y-8533490D02*
X10963490Y-8566510D01*
X10973490Y-8003490D02*
X11006510Y-8036510D01*
X11006510Y-8003490D02*
X10973490Y-8036510D01*
X10973490Y-8433490D02*
X11006510Y-8466510D01*
X11006510Y-8433490D02*
X10973490Y-8466510D01*
X10980480Y-7783490D02*
X11013500Y-7816510D01*
X11013500Y-7783490D02*
X10980480Y-7816510D01*
X11073490Y-8003490D02*
X11106510Y-8036510D01*
X11106510Y-8003490D02*
X11073490Y-8036510D01*
X11163490Y-8003490D02*
X11196510Y-8036510D01*
X11196510Y-8003490D02*
X11163490Y-8036510D01*
X13693790Y-8650990D02*
X13726810Y-8684010D01*
X13726810Y-8650990D02*
X13693790Y-8684010D01*
X13703790Y-9084990D02*
X13736810Y-9118010D01*
X13736810Y-9084990D02*
X13703790Y-9118010D01*
X13703790Y-9202990D02*
X13736810Y-9236010D01*
X13736810Y-9202990D02*
X13703790Y-9236010D01*
X13704790Y-9319990D02*
X13737810Y-9353010D01*
X13737810Y-9319990D02*
X13704790Y-9353010D01*
X13705790Y-8488990D02*
X13738810Y-8522010D01*
X13738810Y-8488990D02*
X13705790Y-8522010D01*
X13705790Y-8844990D02*
X13738810Y-8878010D01*
X13738810Y-8844990D02*
X13705790Y-8878010D01*
X13705790Y-8964990D02*
X13738810Y-8998010D01*
X13738810Y-8964990D02*
X13705790Y-8998010D01*
X13706790Y-7760990D02*
X13739810Y-7794010D01*
X13739810Y-7760990D02*
X13706790Y-7794010D01*
X13707790Y-8123990D02*
X13740810Y-8157010D01*
X13740810Y-8123990D02*
X13707790Y-8157010D01*
X13708790Y-7881990D02*
X13741810Y-7915010D01*
X13741810Y-7881990D02*
X13708790Y-7915010D01*
X13712790Y-7975990D02*
X13745810Y-8009010D01*
X13745810Y-7975990D02*
X13712790Y-8009010D01*
X13973490Y-7523490D02*
X14006510Y-7556510D01*
X14006510Y-7523490D02*
X13973490Y-7556510D01*
X13975790Y-8723990D02*
X14008810Y-8757010D01*
X14008810Y-8723990D02*
X13975790Y-8757010D01*
X13988790Y-7735990D02*
X14021810Y-7769010D01*
X14021810Y-7735990D02*
X13988790Y-7769010D01*
X14010790Y-8247990D02*
X14043810Y-8281010D01*
X14043810Y-8247990D02*
X14010790Y-8281010D01*
X14278790Y-9200990D02*
X14311810Y-9234010D01*
X14311810Y-9200990D02*
X14278790Y-9234010D01*
X14279790Y-8963990D02*
X14312810Y-8997010D01*
X14312810Y-8963990D02*
X14279790Y-8997010D01*
X14280790Y-8721990D02*
X14313810Y-8755010D01*
X14313810Y-8721990D02*
X14280790Y-8755010D01*
X14280790Y-9080990D02*
X14313810Y-9114010D01*
X14313810Y-9080990D02*
X14280790Y-9114010D01*
X14281790Y-8606990D02*
X14314810Y-8640010D01*
X14314810Y-8606990D02*
X14281790Y-8640010D01*
X14282790Y-8363990D02*
X14315810Y-8397010D01*
X14315810Y-8363990D02*
X14282790Y-8397010D01*
X14283790Y-8845990D02*
X14316810Y-8879010D01*
X14316810Y-8845990D02*
X14283790Y-8879010D01*
X14283790Y-9325990D02*
X14316810Y-9359010D01*
X14316810Y-9325990D02*
X14283790Y-9359010D01*
X14286790Y-8111990D02*
X14319810Y-8145010D01*
X14319810Y-8111990D02*
X14286790Y-8145010D01*
X14289790Y-7526990D02*
X14322810Y-7560010D01*
X14322810Y-7526990D02*
X14289790Y-7560010D01*
X14296790Y-7765990D02*
X14329810Y-7799010D01*
X14329810Y-7765990D02*
X14296790Y-7799010D01*
X14297790Y-7874990D02*
X14330810Y-7908010D01*
X14330810Y-7874990D02*
X14297790Y-7908010D01*
X14298790Y-7967990D02*
X14331810Y-8001010D01*
X14331810Y-7967990D02*
X14298790Y-8001010D01*
X14403490Y-8053490D02*
X14436510Y-8086510D01*
X14436510Y-8053490D02*
X14403490Y-8086510D01*
X14443490Y-7753490D02*
X14476510Y-7786510D01*
X14476510Y-7753490D02*
X14443490Y-7786510D01*
X14463949Y-9672849D02*
X14496969Y-9705869D01*
X14496969Y-9672849D02*
X14463949Y-9705869D01*
X14469029Y-9289309D02*
X14502049Y-9322329D01*
X14502049Y-9289309D02*
X14469029Y-9322329D01*
X14533490Y-7203490D02*
X14566510Y-7236510D01*
X14566510Y-7203490D02*
X14533490Y-7236510D01*
X14533490Y-7453490D02*
X14566510Y-7486510D01*
X14566510Y-7453490D02*
X14533490Y-7486510D01*
X14543490Y-7353490D02*
X14576510Y-7386510D01*
X14576510Y-7353490D02*
X14543490Y-7386510D01*
X14563490Y-10053490D02*
X14596510Y-10086510D01*
X14596510Y-10053490D02*
X14563490Y-10086510D01*
X14573490Y-8433490D02*
X14606510Y-8466510D01*
X14606510Y-8433490D02*
X14573490Y-8466510D01*
X14655990Y-8633490D02*
X14689010Y-8666510D01*
X14689010Y-8633490D02*
X14655990Y-8666510D01*
X14767990Y-7863490D02*
X14801010Y-7896510D01*
X14801010Y-7863490D02*
X14767990Y-7896510D01*
X14778840Y-7210990D02*
X14811860Y-7244010D01*
X14811860Y-7210990D02*
X14778840Y-7244010D01*
X14783490Y-7673490D02*
X14816510Y-7706510D01*
X14816510Y-7673490D02*
X14783490Y-7706510D01*
X14820490Y-8628490D02*
X14853510Y-8661510D01*
X14853510Y-8628490D02*
X14820490Y-8661510D01*
X14823490Y-8343490D02*
X14856510Y-8376510D01*
X14856510Y-8343490D02*
X14823490Y-8376510D01*
X14833490Y-9213490D02*
X14866510Y-9246510D01*
X14866510Y-9213490D02*
X14833490Y-9246510D01*
X14838840Y-6820990D02*
X14871860Y-6854010D01*
X14871860Y-6820990D02*
X14838840Y-6854010D01*
X14848840Y-6690990D02*
X14881860Y-6724010D01*
X14881860Y-6690990D02*
X14848840Y-6724010D01*
X14853490Y-6973490D02*
X14886510Y-7006510D01*
X14886510Y-6973490D02*
X14853490Y-7006510D01*
X14876490Y-7890490D02*
X14909510Y-7923510D01*
X14909510Y-7890490D02*
X14876490Y-7923510D01*
X14923490Y-8913490D02*
X14956510Y-8946510D01*
X14956510Y-8913490D02*
X14923490Y-8946510D01*
X14965990Y-7788490D02*
X14999010Y-7821510D01*
X14999010Y-7788490D02*
X14965990Y-7821510D01*
X14983490Y-9433490D02*
X15016510Y-9466510D01*
X15016510Y-9433490D02*
X14983490Y-9466510D01*
X14988840Y-6560990D02*
X15021860Y-6594010D01*
X15021860Y-6560990D02*
X14988840Y-6594010D01*
X15013490Y-8603490D02*
X15046510Y-8636510D01*
X15046510Y-8603490D02*
X15013490Y-8636510D01*
X15013490Y-9213490D02*
X15046510Y-9246510D01*
X15046510Y-9213490D02*
X15013490Y-9246510D01*
X15021490Y-7906490D02*
X15054510Y-7939510D01*
X15054510Y-7906490D02*
X15021490Y-7939510D01*
X15078629Y-9787149D02*
X15111649Y-9820169D01*
X15111649Y-9787149D02*
X15078629Y-9820169D01*
X15103490Y-7283490D02*
X15136510Y-7316510D01*
X15136510Y-7283490D02*
X15103490Y-7316510D01*
X15117490Y-7905490D02*
X15150510Y-7938510D01*
X15150510Y-7905490D02*
X15117490Y-7938510D01*
X15133490Y-6723490D02*
X15166510Y-6756510D01*
X15166510Y-6723490D02*
X15133490Y-6756510D01*
X15133490Y-6873490D02*
X15166510Y-6906510D01*
X15166510Y-6873490D02*
X15133490Y-6906510D01*
X15183490Y-5903490D02*
X15216510Y-5936510D01*
X15216510Y-5903490D02*
X15183490Y-5936510D01*
X15272490Y-8234490D02*
X15305510Y-8267510D01*
X15305510Y-8234490D02*
X15272490Y-8267510D01*
X15273490Y-7988490D02*
X15306510Y-8021510D01*
X15306510Y-7988490D02*
X15273490Y-8021510D01*
X15283490Y-8093490D02*
X15316510Y-8126510D01*
X15316510Y-8093490D02*
X15283490Y-8126510D01*
X15309769Y-9106429D02*
X15342789Y-9139449D01*
X15342789Y-9106429D02*
X15309769Y-9139449D01*
X15314849Y-8999749D02*
X15347869Y-9032769D01*
X15347869Y-8999749D02*
X15314849Y-9032769D01*
X15323490Y-5903490D02*
X15356510Y-5936510D01*
X15356510Y-5903490D02*
X15323490Y-5936510D01*
X15428840Y-6700990D02*
X15461860Y-6734010D01*
X15461860Y-6700990D02*
X15428840Y-6734010D01*
X15428840Y-6830990D02*
X15461860Y-6864010D01*
X15461860Y-6830990D02*
X15428840Y-6864010D01*
X15508840Y-6980990D02*
X15541860Y-7014010D01*
X15541860Y-6980990D02*
X15508840Y-7014010D01*
X15593490Y-6763490D02*
X15626510Y-6796510D01*
X15626510Y-6763490D02*
X15593490Y-6796510D01*
X15678840Y-7600990D02*
X15711860Y-7634010D01*
X15711860Y-7600990D02*
X15678840Y-7634010D01*
X15803490Y-6913490D02*
X15836510Y-6946510D01*
X15836510Y-6913490D02*
X15803490Y-6946510D01*
X15803490Y-7423490D02*
X15836510Y-7456510D01*
X15836510Y-7423490D02*
X15803490Y-7456510D01*
X7422500Y-8150000D02*
G75*
G02*
X7372500Y-8150000I-25000J0D01*
G01*
X7372500Y-8150000D02*
G75*
G02*
X7422500Y-8150000I25000J0D01*
G01*
X7481811Y-8006811D02*
G75*
G02*
X7431811Y-8006811I-25000J0D01*
G01*
X7431811Y-8006811D02*
G75*
G02*
X7481811Y-8006811I25000J0D01*
G01*
X7481811Y-8293189D02*
G75*
G02*
X7431811Y-8293189I-25000J0D01*
G01*
X7431811Y-8293189D02*
G75*
G02*
X7481811Y-8293189I25000J0D01*
G01*
X7625000Y-7947500D02*
G75*
G02*
X7575000Y-7947500I-25000J0D01*
G01*
X7575000Y-7947500D02*
G75*
G02*
X7625000Y-7947500I25000J0D01*
G01*
X7625000Y-8352500D02*
G75*
G02*
X7575000Y-8352500I-25000J0D01*
G01*
X7575000Y-8352500D02*
G75*
G02*
X7625000Y-8352500I25000J0D01*
G01*
X7768189Y-8006811D02*
G75*
G02*
X7718189Y-8006811I-25000J0D01*
G01*
X7718189Y-8006811D02*
G75*
G02*
X7768189Y-8006811I25000J0D01*
G01*
X7768189Y-8293189D02*
G75*
G02*
X7718189Y-8293189I-25000J0D01*
G01*
X7718189Y-8293189D02*
G75*
G02*
X7768189Y-8293189I25000J0D01*
G01*
X7827500Y-8150000D02*
G75*
G02*
X7777500Y-8150000I-25000J0D01*
G01*
X7777500Y-8150000D02*
G75*
G02*
X7827500Y-8150000I25000J0D01*
G01*
X14522500Y-5900000D02*
G75*
G02*
X14472500Y-5900000I-25000J0D01*
G01*
X14472500Y-5900000D02*
G75*
G02*
X14522500Y-5900000I25000J0D01*
G01*
X14522500Y-10400000D02*
G75*
G02*
X14472500Y-10400000I-25000J0D01*
G01*
X14472500Y-10400000D02*
G75*
G02*
X14522500Y-10400000I25000J0D01*
G01*
X14581811Y-5756811D02*
G75*
G02*
X14531811Y-5756811I-25000J0D01*
G01*
X14531811Y-5756811D02*
G75*
G02*
X14581811Y-5756811I25000J0D01*
G01*
X14581811Y-6043189D02*
G75*
G02*
X14531811Y-6043189I-25000J0D01*
G01*
X14531811Y-6043189D02*
G75*
G02*
X14581811Y-6043189I25000J0D01*
G01*
X14581811Y-10256811D02*
G75*
G02*
X14531811Y-10256811I-25000J0D01*
G01*
X14531811Y-10256811D02*
G75*
G02*
X14581811Y-10256811I25000J0D01*
G01*
X14581811Y-10543189D02*
G75*
G02*
X14531811Y-10543189I-25000J0D01*
G01*
X14531811Y-10543189D02*
G75*
G02*
X14581811Y-10543189I25000J0D01*
G01*
X14725000Y-5697500D02*
G75*
G02*
X14675000Y-5697500I-25000J0D01*
G01*
X14675000Y-5697500D02*
G75*
G02*
X14725000Y-5697500I25000J0D01*
G01*
X14725000Y-6102500D02*
G75*
G02*
X14675000Y-6102500I-25000J0D01*
G01*
X14675000Y-6102500D02*
G75*
G02*
X14725000Y-6102500I25000J0D01*
G01*
X14725000Y-10197500D02*
G75*
G02*
X14675000Y-10197500I-25000J0D01*
G01*
X14675000Y-10197500D02*
G75*
G02*
X14725000Y-10197500I25000J0D01*
G01*
X14725000Y-10602500D02*
G75*
G02*
X14675000Y-10602500I-25000J0D01*
G01*
X14675000Y-10602500D02*
G75*
G02*
X14725000Y-10602500I25000J0D01*
G01*
X14868189Y-5756811D02*
G75*
G02*
X14818189Y-5756811I-25000J0D01*
G01*
X14818189Y-5756811D02*
G75*
G02*
X14868189Y-5756811I25000J0D01*
G01*
X14868189Y-6043189D02*
G75*
G02*
X14818189Y-6043189I-25000J0D01*
G01*
X14818189Y-6043189D02*
G75*
G02*
X14868189Y-6043189I25000J0D01*
G01*
X14868189Y-10256811D02*
G75*
G02*
X14818189Y-10256811I-25000J0D01*
G01*
X14818189Y-10256811D02*
G75*
G02*
X14868189Y-10256811I25000J0D01*
G01*
X14868189Y-10543189D02*
G75*
G02*
X14818189Y-10543189I-25000J0D01*
G01*
X14818189Y-10543189D02*
G75*
G02*
X14868189Y-10543189I25000J0D01*
G01*
X14927500Y-5900000D02*
G75*
G02*
X14877500Y-5900000I-25000J0D01*
G01*
X14877500Y-5900000D02*
G75*
G02*
X14927500Y-5900000I25000J0D01*
G01*
X14927500Y-10400000D02*
G75*
G02*
X14877500Y-10400000I-25000J0D01*
G01*
X14877500Y-10400000D02*
G75*
G02*
X14927500Y-10400000I25000J0D01*
G01*
X15700000Y-8360000D02*
X15700000Y-8440000D01*
X15660000Y-8400000D02*
X15740000Y-8400000D01*
X15700000Y-8960000D02*
X15700000Y-9040000D01*
X15660000Y-9000000D02*
X15740000Y-9000000D01*
X15700000Y-9560000D02*
X15700000Y-9640000D01*
X15660000Y-9600000D02*
X15740000Y-9600000D01*
X15950000Y-8360000D02*
X15950000Y-8440000D01*
X15910000Y-8400000D02*
X15990000Y-8400000D01*
X15950000Y-8960000D02*
X15950000Y-9040000D01*
X15910000Y-9000000D02*
X15990000Y-9000000D01*
X15950000Y-9560000D02*
X15950000Y-9640000D01*
X15910000Y-9600000D02*
X15990000Y-9600000D01*
X16200000Y-8360000D02*
X16200000Y-8440000D01*
X16160000Y-8400000D02*
X16240000Y-8400000D01*
X16200000Y-8960000D02*
X16200000Y-9040000D01*
X16160000Y-9000000D02*
X16240000Y-9000000D01*
X16200000Y-9560000D02*
X16200000Y-9640000D01*
X16160000Y-9600000D02*
X16240000Y-9600000D01*
X8659481Y-7626431D02*
X8659481Y-7563569D01*
X8596619Y-7563569D01*
X8596619Y-7626431D01*
X8659481Y-7626431D01*
X8659481Y-7880431D02*
X8659481Y-7817569D01*
X8596619Y-7817569D01*
X8596619Y-7880431D01*
X8659481Y-7880431D01*
X8703831Y-6514431D02*
X8703831Y-6451569D01*
X8640969Y-6451569D01*
X8640969Y-6514431D01*
X8703831Y-6514431D01*
X8703831Y-6661431D02*
X8703831Y-6598569D01*
X8640969Y-6598569D01*
X8640969Y-6661431D01*
X8703831Y-6661431D01*
X8755131Y-7372431D02*
X8755131Y-7309569D01*
X8692269Y-7309569D01*
X8692269Y-7372431D01*
X8755131Y-7372431D01*
X8862481Y-7626431D02*
X8862481Y-7563569D01*
X8799619Y-7563569D01*
X8799619Y-7626431D01*
X8862481Y-7626431D01*
X8913481Y-7880431D02*
X8913481Y-7817569D01*
X8850619Y-7817569D01*
X8850619Y-7880431D01*
X8913481Y-7880431D01*
X8958131Y-7372431D02*
X8958131Y-7309569D01*
X8895269Y-7309569D01*
X8895269Y-7372431D01*
X8958131Y-7372431D01*
X9065481Y-7626431D02*
X9065481Y-7563569D01*
X9002619Y-7563569D01*
X9002619Y-7626431D01*
X9065481Y-7626431D01*
X9161131Y-7372431D02*
X9161131Y-7309569D01*
X9098269Y-7309569D01*
X9098269Y-7372431D01*
X9161131Y-7372431D01*
X9364131Y-7372431D02*
X9364131Y-7309569D01*
X9301269Y-7309569D01*
X9301269Y-7372431D01*
X9364131Y-7372431D01*
X9472481Y-7626431D02*
X9472481Y-7563569D01*
X9409619Y-7563569D01*
X9409619Y-7626431D01*
X9472481Y-7626431D01*
X9567131Y-7372431D02*
X9567131Y-7309569D01*
X9504269Y-7309569D01*
X9504269Y-7372431D01*
X9567131Y-7372431D01*
X9624482Y-7880431D02*
X9624482Y-7817569D01*
X9561620Y-7817569D01*
X9561620Y-7880431D01*
X9624482Y-7880431D01*
X9675481Y-7626431D02*
X9675481Y-7563569D01*
X9612619Y-7563569D01*
X9612619Y-7626431D01*
X9675481Y-7626431D01*
X9770131Y-7372431D02*
X9770131Y-7309569D01*
X9707269Y-7309569D01*
X9707269Y-7372431D01*
X9770131Y-7372431D01*
X9821431Y-6514431D02*
X9821431Y-6451569D01*
X9758569Y-6451569D01*
X9758569Y-6514431D01*
X9821431Y-6514431D01*
X9821431Y-6661431D02*
X9821431Y-6598569D01*
X9758569Y-6598569D01*
X9758569Y-6661431D01*
X9821431Y-6661431D01*
X9878481Y-7626431D02*
X9878481Y-7563569D01*
X9815619Y-7563569D01*
X9815619Y-7626431D01*
X9878481Y-7626431D01*
X9878482Y-7880431D02*
X9878482Y-7817569D01*
X9815620Y-7817569D01*
X9815620Y-7880431D01*
X9878482Y-7880431D01*
X7530000Y-6066400D02*
X7576000Y-6020400D01*
X7530000Y-5974400D01*
X7484000Y-6020400D01*
X7530000Y-6066400D01*
X7530000Y-6266400D02*
X7576000Y-6220400D01*
X7530000Y-6174400D01*
X7484000Y-6220400D01*
X7530000Y-6266400D01*
X7530000Y-6466400D02*
X7576000Y-6420400D01*
X7530000Y-6374400D01*
X7484000Y-6420400D01*
X7530000Y-6466400D01*
X7530000Y-6666400D02*
X7576000Y-6620400D01*
X7530000Y-6574400D01*
X7484000Y-6620400D01*
X7530000Y-6666400D01*
D12*
X7190500Y-5879900D02*
X7325500Y-6014900D01*
X7325500Y-5879900D02*
X7190500Y-6014900D01*
X7325500Y-5947400D02*
G75*
G02*
X7190500Y-5947400I-67500J0D01*
G01*
X7190500Y-5947400D02*
G75*
G02*
X7325500Y-5947400I67500J0D01*
G01*
X7190500Y-6579900D02*
X7325500Y-6714900D01*
X7325500Y-6579900D02*
X7190500Y-6714900D01*
X7325500Y-6647400D02*
G75*
G02*
X7190500Y-6647400I-67500J0D01*
G01*
X7190500Y-6647400D02*
G75*
G02*
X7325500Y-6647400I67500J0D01*
G01*
X7734500Y-5879900D02*
X7869500Y-6014900D01*
X7869500Y-5879900D02*
X7734500Y-6014900D01*
X7869500Y-5947400D02*
G75*
G02*
X7734500Y-5947400I-67500J0D01*
G01*
X7734500Y-5947400D02*
G75*
G02*
X7869500Y-5947400I67500J0D01*
G01*
X7734500Y-6579900D02*
X7869500Y-6714900D01*
X7869500Y-6579900D02*
X7734500Y-6714900D01*
X7869500Y-6647400D02*
G75*
G02*
X7734500Y-6647400I-67500J0D01*
G01*
X7734500Y-6647400D02*
G75*
G02*
X7869500Y-6647400I67500J0D01*
G01*
D13*
X8345960Y-5420260D02*
X8503440Y-5577740D01*
X8503440Y-5420260D02*
X8345960Y-5577740D01*
X8424700Y-5420260D02*
X8424700Y-5577740D01*
X8345960Y-5499000D02*
X8503440Y-5499000D01*
X9958960Y-5420260D02*
X10116440Y-5577740D01*
X10116440Y-5420260D02*
X9958960Y-5577740D01*
X10037700Y-5420260D02*
X10037700Y-5577740D01*
X9958960Y-5499000D02*
X10116440Y-5499000D01*
D14*
X8287300Y-10042500D02*
X8447300Y-10202500D01*
X8447300Y-10042500D02*
X8287300Y-10202500D01*
X8423869Y-10179069D02*
X8423869Y-10065931D01*
X8310731Y-10065931D01*
X8310731Y-10179069D01*
X8423869Y-10179069D01*
X8287300Y-10550500D02*
X8447300Y-10710500D01*
X8447300Y-10550500D02*
X8287300Y-10710500D01*
X8423869Y-10687069D02*
X8423869Y-10573931D01*
X8310731Y-10573931D01*
X8310731Y-10687069D01*
X8423869Y-10687069D01*
X16010000Y-5562000D02*
X16170000Y-5722000D01*
X16170000Y-5562000D02*
X16010000Y-5722000D01*
X16146569Y-5698569D02*
X16146569Y-5585431D01*
X16033431Y-5585431D01*
X16033431Y-5698569D01*
X16146569Y-5698569D01*
X16010000Y-6070000D02*
X16170000Y-6230000D01*
X16170000Y-6070000D02*
X16010000Y-6230000D01*
X16146569Y-6206569D02*
X16146569Y-6093431D01*
X16033431Y-6093431D01*
X16033431Y-6206569D01*
X16146569Y-6206569D01*
X16020000Y-10046000D02*
X16180000Y-10206000D01*
X16180000Y-10046000D02*
X16020000Y-10206000D01*
X16156569Y-10182569D02*
X16156569Y-10069431D01*
X16043431Y-10069431D01*
X16043431Y-10182569D01*
X16156569Y-10182569D01*
X16020000Y-10554000D02*
X16180000Y-10714000D01*
X16180000Y-10554000D02*
X16020000Y-10714000D01*
X16156569Y-10690569D02*
X16156569Y-10577431D01*
X16043431Y-10577431D01*
X16043431Y-10690569D01*
X16156569Y-10690569D01*
D15*
X7465000Y-8015000D02*
X7735000Y-8285000D01*
X7735000Y-8015000D02*
X7465000Y-8285000D01*
X7600000Y-8285000D02*
X7735000Y-8150000D01*
X7600000Y-8015000D01*
X7465000Y-8150000D01*
X7600000Y-8285000D01*
X14565000Y-5765000D02*
X14835000Y-6035000D01*
X14835000Y-5765000D02*
X14565000Y-6035000D01*
X14700000Y-6035000D02*
X14835000Y-5900000D01*
X14700000Y-5765000D01*
X14565000Y-5900000D01*
X14700000Y-6035000D01*
X14565000Y-10265000D02*
X14835000Y-10535000D01*
X14835000Y-10265000D02*
X14565000Y-10535000D01*
X14700000Y-10535000D02*
X14835000Y-10400000D01*
X14700000Y-10265000D01*
X14565000Y-10400000D01*
X14700000Y-10535000D01*
D16*
X8596200Y-5654440D02*
X8596200Y-5979560D01*
X8433640Y-5817000D02*
X8758760Y-5817000D01*
X8758760Y-5817000D02*
G75*
G02*
X8433640Y-5817000I-162560J0D01*
G01*
X8433640Y-5817000D02*
G75*
G02*
X8758760Y-5817000I162560J0D01*
G01*
X9866200Y-5654440D02*
X9866200Y-5979560D01*
X9703640Y-5817000D02*
X10028760Y-5817000D01*
X10028760Y-5817000D02*
G75*
G02*
X9703640Y-5817000I-162560J0D01*
G01*
X9703640Y-5817000D02*
G75*
G02*
X10028760Y-5817000I162560J0D01*
G01*
D11*
X7045777Y-11324352D02*
X7045777Y-11124352D01*
X7045777Y-11124352D02*
X7093396Y-11124352D01*
X7093396Y-11124352D02*
X7121967Y-11133876D01*
X7121967Y-11133876D02*
X7141015Y-11152923D01*
X7141015Y-11152923D02*
X7150539Y-11171971D01*
X7150539Y-11171971D02*
X7160062Y-11210066D01*
X7160062Y-11210066D02*
X7160062Y-11238637D01*
X7160062Y-11238637D02*
X7150539Y-11276733D01*
X7150539Y-11276733D02*
X7141015Y-11295780D01*
X7141015Y-11295780D02*
X7121967Y-11314828D01*
X7121967Y-11314828D02*
X7093396Y-11324352D01*
X7093396Y-11324352D02*
X7045777Y-11324352D01*
X7245777Y-11324352D02*
X7245777Y-11191018D01*
X7245777Y-11229114D02*
X7255301Y-11210066D01*
X7255301Y-11210066D02*
X7264824Y-11200542D01*
X7264824Y-11200542D02*
X7283872Y-11191018D01*
X7283872Y-11191018D02*
X7302920Y-11191018D01*
X7369586Y-11324352D02*
X7369586Y-11191018D01*
X7369586Y-11124352D02*
X7360062Y-11133876D01*
X7360062Y-11133876D02*
X7369586Y-11143399D01*
X7369586Y-11143399D02*
X7379110Y-11133876D01*
X7379110Y-11133876D02*
X7369586Y-11124352D01*
X7369586Y-11124352D02*
X7369586Y-11143399D01*
X7493396Y-11324352D02*
X7474348Y-11314828D01*
X7474348Y-11314828D02*
X7464824Y-11295780D01*
X7464824Y-11295780D02*
X7464824Y-11124352D01*
X7598158Y-11324352D02*
X7579110Y-11314828D01*
X7579110Y-11314828D02*
X7569586Y-11295780D01*
X7569586Y-11295780D02*
X7569586Y-11124352D01*
X7826729Y-11324352D02*
X7826729Y-11124352D01*
X7826729Y-11124352D02*
X7893396Y-11267209D01*
X7893396Y-11267209D02*
X7960062Y-11124352D01*
X7960062Y-11124352D02*
X7960062Y-11324352D01*
X8141015Y-11324352D02*
X8141015Y-11219590D01*
X8141015Y-11219590D02*
X8131491Y-11200542D01*
X8131491Y-11200542D02*
X8112443Y-11191018D01*
X8112443Y-11191018D02*
X8074348Y-11191018D01*
X8074348Y-11191018D02*
X8055301Y-11200542D01*
X8141015Y-11314828D02*
X8121967Y-11324352D01*
X8121967Y-11324352D02*
X8074348Y-11324352D01*
X8074348Y-11324352D02*
X8055301Y-11314828D01*
X8055301Y-11314828D02*
X8045777Y-11295780D01*
X8045777Y-11295780D02*
X8045777Y-11276733D01*
X8045777Y-11276733D02*
X8055301Y-11257685D01*
X8055301Y-11257685D02*
X8074348Y-11248161D01*
X8074348Y-11248161D02*
X8121967Y-11248161D01*
X8121967Y-11248161D02*
X8141015Y-11238637D01*
X8236253Y-11191018D02*
X8236253Y-11391018D01*
X8236253Y-11200542D02*
X8255301Y-11191018D01*
X8255301Y-11191018D02*
X8293396Y-11191018D01*
X8293396Y-11191018D02*
X8312443Y-11200542D01*
X8312443Y-11200542D02*
X8321967Y-11210066D01*
X8321967Y-11210066D02*
X8331491Y-11229114D01*
X8331491Y-11229114D02*
X8331491Y-11286256D01*
X8331491Y-11286256D02*
X8321967Y-11305304D01*
X8321967Y-11305304D02*
X8312443Y-11314828D01*
X8312443Y-11314828D02*
X8293396Y-11324352D01*
X8293396Y-11324352D02*
X8255301Y-11324352D01*
X8255301Y-11324352D02*
X8236253Y-11314828D01*
X8417205Y-11305304D02*
X8426729Y-11314828D01*
X8426729Y-11314828D02*
X8417205Y-11324352D01*
X8417205Y-11324352D02*
X8407682Y-11314828D01*
X8407682Y-11314828D02*
X8417205Y-11305304D01*
X8417205Y-11305304D02*
X8417205Y-11324352D01*
X8417205Y-11200542D02*
X8426729Y-11210066D01*
X8426729Y-11210066D02*
X8417205Y-11219590D01*
X8417205Y-11219590D02*
X8407682Y-11210066D01*
X8407682Y-11210066D02*
X8417205Y-11200542D01*
X8417205Y-11200542D02*
X8417205Y-11219590D01*
D10*
X6751980Y-11636358D02*
X6785000Y-11669378D01*
X6785000Y-11636358D02*
X6751980Y-11669378D01*
D11*
X7083872Y-11544352D02*
X7102920Y-11544352D01*
X7102920Y-11544352D02*
X7121967Y-11553876D01*
X7121967Y-11553876D02*
X7131491Y-11563399D01*
X7131491Y-11563399D02*
X7141015Y-11582447D01*
X7141015Y-11582447D02*
X7150539Y-11620542D01*
X7150539Y-11620542D02*
X7150539Y-11668161D01*
X7150539Y-11668161D02*
X7141015Y-11706256D01*
X7141015Y-11706256D02*
X7131491Y-11725304D01*
X7131491Y-11725304D02*
X7121967Y-11734828D01*
X7121967Y-11734828D02*
X7102920Y-11744352D01*
X7102920Y-11744352D02*
X7083872Y-11744352D01*
X7083872Y-11744352D02*
X7064824Y-11734828D01*
X7064824Y-11734828D02*
X7055301Y-11725304D01*
X7055301Y-11725304D02*
X7045777Y-11706256D01*
X7045777Y-11706256D02*
X7036253Y-11668161D01*
X7036253Y-11668161D02*
X7036253Y-11620542D01*
X7036253Y-11620542D02*
X7045777Y-11582447D01*
X7045777Y-11582447D02*
X7055301Y-11563399D01*
X7055301Y-11563399D02*
X7064824Y-11553876D01*
X7064824Y-11553876D02*
X7083872Y-11544352D01*
X7236253Y-11725304D02*
X7245777Y-11734828D01*
X7245777Y-11734828D02*
X7236253Y-11744352D01*
X7236253Y-11744352D02*
X7226729Y-11734828D01*
X7226729Y-11734828D02*
X7236253Y-11725304D01*
X7236253Y-11725304D02*
X7236253Y-11744352D01*
X7312443Y-11544352D02*
X7436253Y-11544352D01*
X7436253Y-11544352D02*
X7369586Y-11620542D01*
X7369586Y-11620542D02*
X7398158Y-11620542D01*
X7398158Y-11620542D02*
X7417205Y-11630066D01*
X7417205Y-11630066D02*
X7426729Y-11639590D01*
X7426729Y-11639590D02*
X7436253Y-11658637D01*
X7436253Y-11658637D02*
X7436253Y-11706256D01*
X7436253Y-11706256D02*
X7426729Y-11725304D01*
X7426729Y-11725304D02*
X7417205Y-11734828D01*
X7417205Y-11734828D02*
X7398158Y-11744352D01*
X7398158Y-11744352D02*
X7341015Y-11744352D01*
X7341015Y-11744352D02*
X7321967Y-11734828D01*
X7321967Y-11734828D02*
X7312443Y-11725304D01*
X7502920Y-11544352D02*
X7626729Y-11544352D01*
X7626729Y-11544352D02*
X7560062Y-11620542D01*
X7560062Y-11620542D02*
X7588634Y-11620542D01*
X7588634Y-11620542D02*
X7607682Y-11630066D01*
X7607682Y-11630066D02*
X7617205Y-11639590D01*
X7617205Y-11639590D02*
X7626729Y-11658637D01*
X7626729Y-11658637D02*
X7626729Y-11706256D01*
X7626729Y-11706256D02*
X7617205Y-11725304D01*
X7617205Y-11725304D02*
X7607682Y-11734828D01*
X7607682Y-11734828D02*
X7588634Y-11744352D01*
X7588634Y-11744352D02*
X7531491Y-11744352D01*
X7531491Y-11744352D02*
X7512443Y-11734828D01*
X7512443Y-11734828D02*
X7502920Y-11725304D01*
X7750539Y-11544352D02*
X7769586Y-11544352D01*
X7769586Y-11544352D02*
X7788634Y-11553876D01*
X7788634Y-11553876D02*
X7798158Y-11563399D01*
X7798158Y-11563399D02*
X7807682Y-11582447D01*
X7807682Y-11582447D02*
X7817205Y-11620542D01*
X7817205Y-11620542D02*
X7817205Y-11668161D01*
X7817205Y-11668161D02*
X7807682Y-11706256D01*
X7807682Y-11706256D02*
X7798158Y-11725304D01*
X7798158Y-11725304D02*
X7788634Y-11734828D01*
X7788634Y-11734828D02*
X7769586Y-11744352D01*
X7769586Y-11744352D02*
X7750539Y-11744352D01*
X7750539Y-11744352D02*
X7731491Y-11734828D01*
X7731491Y-11734828D02*
X7721967Y-11725304D01*
X7721967Y-11725304D02*
X7712443Y-11706256D01*
X7712443Y-11706256D02*
X7702920Y-11668161D01*
X7702920Y-11668161D02*
X7702920Y-11620542D01*
X7702920Y-11620542D02*
X7712443Y-11582447D01*
X7712443Y-11582447D02*
X7721967Y-11563399D01*
X7721967Y-11563399D02*
X7731491Y-11553876D01*
X7731491Y-11553876D02*
X7750539Y-11544352D01*
X7902920Y-11744352D02*
X7902920Y-11611018D01*
X7902920Y-11630066D02*
X7912443Y-11620542D01*
X7912443Y-11620542D02*
X7931491Y-11611018D01*
X7931491Y-11611018D02*
X7960063Y-11611018D01*
X7960063Y-11611018D02*
X7979110Y-11620542D01*
X7979110Y-11620542D02*
X7988634Y-11639590D01*
X7988634Y-11639590D02*
X7988634Y-11744352D01*
X7988634Y-11639590D02*
X7998158Y-11620542D01*
X7998158Y-11620542D02*
X8017205Y-11611018D01*
X8017205Y-11611018D02*
X8045777Y-11611018D01*
X8045777Y-11611018D02*
X8064824Y-11620542D01*
X8064824Y-11620542D02*
X8074348Y-11639590D01*
X8074348Y-11639590D02*
X8074348Y-11744352D01*
X8169586Y-11744352D02*
X8169586Y-11611018D01*
X8169586Y-11630066D02*
X8179110Y-11620542D01*
X8179110Y-11620542D02*
X8198158Y-11611018D01*
X8198158Y-11611018D02*
X8226729Y-11611018D01*
X8226729Y-11611018D02*
X8245777Y-11620542D01*
X8245777Y-11620542D02*
X8255301Y-11639590D01*
X8255301Y-11639590D02*
X8255301Y-11744352D01*
X8255301Y-11639590D02*
X8264824Y-11620542D01*
X8264824Y-11620542D02*
X8283872Y-11611018D01*
X8283872Y-11611018D02*
X8312443Y-11611018D01*
X8312443Y-11611018D02*
X8331491Y-11620542D01*
X8331491Y-11620542D02*
X8341015Y-11639590D01*
X8341015Y-11639590D02*
X8341015Y-11744352D01*
X8731491Y-11534828D02*
X8560063Y-11791971D01*
X8988634Y-11544352D02*
X9007682Y-11544352D01*
X9007682Y-11544352D02*
X9026729Y-11553876D01*
X9026729Y-11553876D02*
X9036253Y-11563399D01*
X9036253Y-11563399D02*
X9045777Y-11582447D01*
X9045777Y-11582447D02*
X9055301Y-11620542D01*
X9055301Y-11620542D02*
X9055301Y-11668161D01*
X9055301Y-11668161D02*
X9045777Y-11706256D01*
X9045777Y-11706256D02*
X9036253Y-11725304D01*
X9036253Y-11725304D02*
X9026729Y-11734828D01*
X9026729Y-11734828D02*
X9007682Y-11744352D01*
X9007682Y-11744352D02*
X8988634Y-11744352D01*
X8988634Y-11744352D02*
X8969587Y-11734828D01*
X8969587Y-11734828D02*
X8960063Y-11725304D01*
X8960063Y-11725304D02*
X8950539Y-11706256D01*
X8950539Y-11706256D02*
X8941015Y-11668161D01*
X8941015Y-11668161D02*
X8941015Y-11620542D01*
X8941015Y-11620542D02*
X8950539Y-11582447D01*
X8950539Y-11582447D02*
X8960063Y-11563399D01*
X8960063Y-11563399D02*
X8969587Y-11553876D01*
X8969587Y-11553876D02*
X8988634Y-11544352D01*
X9141015Y-11725304D02*
X9150539Y-11734828D01*
X9150539Y-11734828D02*
X9141015Y-11744352D01*
X9141015Y-11744352D02*
X9131491Y-11734828D01*
X9131491Y-11734828D02*
X9141015Y-11725304D01*
X9141015Y-11725304D02*
X9141015Y-11744352D01*
X9274348Y-11544352D02*
X9293396Y-11544352D01*
X9293396Y-11544352D02*
X9312444Y-11553876D01*
X9312444Y-11553876D02*
X9321968Y-11563399D01*
X9321968Y-11563399D02*
X9331491Y-11582447D01*
X9331491Y-11582447D02*
X9341015Y-11620542D01*
X9341015Y-11620542D02*
X9341015Y-11668161D01*
X9341015Y-11668161D02*
X9331491Y-11706256D01*
X9331491Y-11706256D02*
X9321968Y-11725304D01*
X9321968Y-11725304D02*
X9312444Y-11734828D01*
X9312444Y-11734828D02*
X9293396Y-11744352D01*
X9293396Y-11744352D02*
X9274348Y-11744352D01*
X9274348Y-11744352D02*
X9255301Y-11734828D01*
X9255301Y-11734828D02*
X9245777Y-11725304D01*
X9245777Y-11725304D02*
X9236253Y-11706256D01*
X9236253Y-11706256D02*
X9226729Y-11668161D01*
X9226729Y-11668161D02*
X9226729Y-11620542D01*
X9226729Y-11620542D02*
X9236253Y-11582447D01*
X9236253Y-11582447D02*
X9245777Y-11563399D01*
X9245777Y-11563399D02*
X9255301Y-11553876D01*
X9255301Y-11553876D02*
X9274348Y-11544352D01*
X9531491Y-11744352D02*
X9417206Y-11744352D01*
X9474348Y-11744352D02*
X9474348Y-11544352D01*
X9474348Y-11544352D02*
X9455301Y-11572923D01*
X9455301Y-11572923D02*
X9436253Y-11591971D01*
X9436253Y-11591971D02*
X9417206Y-11601495D01*
X9598158Y-11544352D02*
X9721968Y-11544352D01*
X9721968Y-11544352D02*
X9655301Y-11620542D01*
X9655301Y-11620542D02*
X9683872Y-11620542D01*
X9683872Y-11620542D02*
X9702920Y-11630066D01*
X9702920Y-11630066D02*
X9712444Y-11639590D01*
X9712444Y-11639590D02*
X9721968Y-11658637D01*
X9721968Y-11658637D02*
X9721968Y-11706256D01*
X9721968Y-11706256D02*
X9712444Y-11725304D01*
X9712444Y-11725304D02*
X9702920Y-11734828D01*
X9702920Y-11734828D02*
X9683872Y-11744352D01*
X9683872Y-11744352D02*
X9626729Y-11744352D01*
X9626729Y-11744352D02*
X9607682Y-11734828D01*
X9607682Y-11734828D02*
X9598158Y-11725304D01*
X9845777Y-11544352D02*
X9864825Y-11544352D01*
X9864825Y-11544352D02*
X9883872Y-11553876D01*
X9883872Y-11553876D02*
X9893396Y-11563399D01*
X9893396Y-11563399D02*
X9902920Y-11582447D01*
X9902920Y-11582447D02*
X9912444Y-11620542D01*
X9912444Y-11620542D02*
X9912444Y-11668161D01*
X9912444Y-11668161D02*
X9902920Y-11706256D01*
X9902920Y-11706256D02*
X9893396Y-11725304D01*
X9893396Y-11725304D02*
X9883872Y-11734828D01*
X9883872Y-11734828D02*
X9864825Y-11744352D01*
X9864825Y-11744352D02*
X9845777Y-11744352D01*
X9845777Y-11744352D02*
X9826729Y-11734828D01*
X9826729Y-11734828D02*
X9817206Y-11725304D01*
X9817206Y-11725304D02*
X9807682Y-11706256D01*
X9807682Y-11706256D02*
X9798158Y-11668161D01*
X9798158Y-11668161D02*
X9798158Y-11620542D01*
X9798158Y-11620542D02*
X9807682Y-11582447D01*
X9807682Y-11582447D02*
X9817206Y-11563399D01*
X9817206Y-11563399D02*
X9826729Y-11553876D01*
X9826729Y-11553876D02*
X9845777Y-11544352D01*
X9988634Y-11544352D02*
X9988634Y-11582447D01*
X10064825Y-11544352D02*
X10064825Y-11582447D01*
X10360063Y-11820542D02*
X10350539Y-11811018D01*
X10350539Y-11811018D02*
X10331491Y-11782447D01*
X10331491Y-11782447D02*
X10321968Y-11763399D01*
X10321968Y-11763399D02*
X10312444Y-11734828D01*
X10312444Y-11734828D02*
X10302920Y-11687209D01*
X10302920Y-11687209D02*
X10302920Y-11649114D01*
X10302920Y-11649114D02*
X10312444Y-11601495D01*
X10312444Y-11601495D02*
X10321968Y-11572923D01*
X10321968Y-11572923D02*
X10331491Y-11553876D01*
X10331491Y-11553876D02*
X10350539Y-11525304D01*
X10350539Y-11525304D02*
X10360063Y-11515780D01*
X10541015Y-11744352D02*
X10426730Y-11744352D01*
X10483872Y-11744352D02*
X10483872Y-11544352D01*
X10483872Y-11544352D02*
X10464825Y-11572923D01*
X10464825Y-11572923D02*
X10445777Y-11591971D01*
X10445777Y-11591971D02*
X10426730Y-11601495D01*
X10712444Y-11544352D02*
X10674349Y-11544352D01*
X10674349Y-11544352D02*
X10655301Y-11553876D01*
X10655301Y-11553876D02*
X10645777Y-11563399D01*
X10645777Y-11563399D02*
X10626730Y-11591971D01*
X10626730Y-11591971D02*
X10617206Y-11630066D01*
X10617206Y-11630066D02*
X10617206Y-11706256D01*
X10617206Y-11706256D02*
X10626730Y-11725304D01*
X10626730Y-11725304D02*
X10636253Y-11734828D01*
X10636253Y-11734828D02*
X10655301Y-11744352D01*
X10655301Y-11744352D02*
X10693396Y-11744352D01*
X10693396Y-11744352D02*
X10712444Y-11734828D01*
X10712444Y-11734828D02*
X10721968Y-11725304D01*
X10721968Y-11725304D02*
X10731491Y-11706256D01*
X10731491Y-11706256D02*
X10731491Y-11658637D01*
X10731491Y-11658637D02*
X10721968Y-11639590D01*
X10721968Y-11639590D02*
X10712444Y-11630066D01*
X10712444Y-11630066D02*
X10693396Y-11620542D01*
X10693396Y-11620542D02*
X10655301Y-11620542D01*
X10655301Y-11620542D02*
X10636253Y-11630066D01*
X10636253Y-11630066D02*
X10626730Y-11639590D01*
X10626730Y-11639590D02*
X10617206Y-11658637D01*
X10845777Y-11630066D02*
X10826730Y-11620542D01*
X10826730Y-11620542D02*
X10817206Y-11611018D01*
X10817206Y-11611018D02*
X10807682Y-11591971D01*
X10807682Y-11591971D02*
X10807682Y-11582447D01*
X10807682Y-11582447D02*
X10817206Y-11563399D01*
X10817206Y-11563399D02*
X10826730Y-11553876D01*
X10826730Y-11553876D02*
X10845777Y-11544352D01*
X10845777Y-11544352D02*
X10883872Y-11544352D01*
X10883872Y-11544352D02*
X10902920Y-11553876D01*
X10902920Y-11553876D02*
X10912444Y-11563399D01*
X10912444Y-11563399D02*
X10921968Y-11582447D01*
X10921968Y-11582447D02*
X10921968Y-11591971D01*
X10921968Y-11591971D02*
X10912444Y-11611018D01*
X10912444Y-11611018D02*
X10902920Y-11620542D01*
X10902920Y-11620542D02*
X10883872Y-11630066D01*
X10883872Y-11630066D02*
X10845777Y-11630066D01*
X10845777Y-11630066D02*
X10826730Y-11639590D01*
X10826730Y-11639590D02*
X10817206Y-11649114D01*
X10817206Y-11649114D02*
X10807682Y-11668161D01*
X10807682Y-11668161D02*
X10807682Y-11706256D01*
X10807682Y-11706256D02*
X10817206Y-11725304D01*
X10817206Y-11725304D02*
X10826730Y-11734828D01*
X10826730Y-11734828D02*
X10845777Y-11744352D01*
X10845777Y-11744352D02*
X10883872Y-11744352D01*
X10883872Y-11744352D02*
X10902920Y-11734828D01*
X10902920Y-11734828D02*
X10912444Y-11725304D01*
X10912444Y-11725304D02*
X10921968Y-11706256D01*
X10921968Y-11706256D02*
X10921968Y-11668161D01*
X10921968Y-11668161D02*
X10912444Y-11649114D01*
X10912444Y-11649114D02*
X10902920Y-11639590D01*
X10902920Y-11639590D02*
X10883872Y-11630066D01*
X11160063Y-11744352D02*
X11160063Y-11544352D01*
X11245777Y-11744352D02*
X11245777Y-11639590D01*
X11245777Y-11639590D02*
X11236253Y-11620542D01*
X11236253Y-11620542D02*
X11217206Y-11611018D01*
X11217206Y-11611018D02*
X11188634Y-11611018D01*
X11188634Y-11611018D02*
X11169587Y-11620542D01*
X11169587Y-11620542D02*
X11160063Y-11630066D01*
X11369587Y-11744352D02*
X11350539Y-11734828D01*
X11350539Y-11734828D02*
X11341015Y-11725304D01*
X11341015Y-11725304D02*
X11331491Y-11706256D01*
X11331491Y-11706256D02*
X11331491Y-11649114D01*
X11331491Y-11649114D02*
X11341015Y-11630066D01*
X11341015Y-11630066D02*
X11350539Y-11620542D01*
X11350539Y-11620542D02*
X11369587Y-11611018D01*
X11369587Y-11611018D02*
X11398158Y-11611018D01*
X11398158Y-11611018D02*
X11417206Y-11620542D01*
X11417206Y-11620542D02*
X11426730Y-11630066D01*
X11426730Y-11630066D02*
X11436253Y-11649114D01*
X11436253Y-11649114D02*
X11436253Y-11706256D01*
X11436253Y-11706256D02*
X11426730Y-11725304D01*
X11426730Y-11725304D02*
X11417206Y-11734828D01*
X11417206Y-11734828D02*
X11398158Y-11744352D01*
X11398158Y-11744352D02*
X11369587Y-11744352D01*
X11550539Y-11744352D02*
X11531491Y-11734828D01*
X11531491Y-11734828D02*
X11521968Y-11715780D01*
X11521968Y-11715780D02*
X11521968Y-11544352D01*
X11702920Y-11734828D02*
X11683872Y-11744352D01*
X11683872Y-11744352D02*
X11645777Y-11744352D01*
X11645777Y-11744352D02*
X11626730Y-11734828D01*
X11626730Y-11734828D02*
X11617206Y-11715780D01*
X11617206Y-11715780D02*
X11617206Y-11639590D01*
X11617206Y-11639590D02*
X11626730Y-11620542D01*
X11626730Y-11620542D02*
X11645777Y-11611018D01*
X11645777Y-11611018D02*
X11683872Y-11611018D01*
X11683872Y-11611018D02*
X11702920Y-11620542D01*
X11702920Y-11620542D02*
X11712444Y-11639590D01*
X11712444Y-11639590D02*
X11712444Y-11658637D01*
X11712444Y-11658637D02*
X11617206Y-11677685D01*
X11788634Y-11734828D02*
X11807682Y-11744352D01*
X11807682Y-11744352D02*
X11845777Y-11744352D01*
X11845777Y-11744352D02*
X11864825Y-11734828D01*
X11864825Y-11734828D02*
X11874349Y-11715780D01*
X11874349Y-11715780D02*
X11874349Y-11706256D01*
X11874349Y-11706256D02*
X11864825Y-11687209D01*
X11864825Y-11687209D02*
X11845777Y-11677685D01*
X11845777Y-11677685D02*
X11817206Y-11677685D01*
X11817206Y-11677685D02*
X11798158Y-11668161D01*
X11798158Y-11668161D02*
X11788634Y-11649114D01*
X11788634Y-11649114D02*
X11788634Y-11639590D01*
X11788634Y-11639590D02*
X11798158Y-11620542D01*
X11798158Y-11620542D02*
X11817206Y-11611018D01*
X11817206Y-11611018D02*
X11845777Y-11611018D01*
X11845777Y-11611018D02*
X11864825Y-11620542D01*
X11941015Y-11820542D02*
X11950539Y-11811018D01*
X11950539Y-11811018D02*
X11969587Y-11782447D01*
X11969587Y-11782447D02*
X11979111Y-11763399D01*
X11979111Y-11763399D02*
X11988634Y-11734828D01*
X11988634Y-11734828D02*
X11998158Y-11687209D01*
X11998158Y-11687209D02*
X11998158Y-11649114D01*
X11998158Y-11649114D02*
X11988634Y-11601495D01*
X11988634Y-11601495D02*
X11979111Y-11572923D01*
X11979111Y-11572923D02*
X11969587Y-11553876D01*
X11969587Y-11553876D02*
X11950539Y-11525304D01*
X11950539Y-11525304D02*
X11941015Y-11515780D01*
D10*
X6785000Y-11916868D02*
G75*
G02*
X6735000Y-11916868I-25000J0D01*
G01*
X6735000Y-11916868D02*
G75*
G02*
X6785000Y-11916868I25000J0D01*
G01*
D11*
X7083872Y-11808352D02*
X7102920Y-11808352D01*
X7102920Y-11808352D02*
X7121967Y-11817876D01*
X7121967Y-11817876D02*
X7131491Y-11827399D01*
X7131491Y-11827399D02*
X7141015Y-11846447D01*
X7141015Y-11846447D02*
X7150539Y-11884542D01*
X7150539Y-11884542D02*
X7150539Y-11932161D01*
X7150539Y-11932161D02*
X7141015Y-11970256D01*
X7141015Y-11970256D02*
X7131491Y-11989304D01*
X7131491Y-11989304D02*
X7121967Y-11998828D01*
X7121967Y-11998828D02*
X7102920Y-12008352D01*
X7102920Y-12008352D02*
X7083872Y-12008352D01*
X7083872Y-12008352D02*
X7064824Y-11998828D01*
X7064824Y-11998828D02*
X7055301Y-11989304D01*
X7055301Y-11989304D02*
X7045777Y-11970256D01*
X7045777Y-11970256D02*
X7036253Y-11932161D01*
X7036253Y-11932161D02*
X7036253Y-11884542D01*
X7036253Y-11884542D02*
X7045777Y-11846447D01*
X7045777Y-11846447D02*
X7055301Y-11827399D01*
X7055301Y-11827399D02*
X7064824Y-11817876D01*
X7064824Y-11817876D02*
X7083872Y-11808352D01*
X7236253Y-11989304D02*
X7245777Y-11998828D01*
X7245777Y-11998828D02*
X7236253Y-12008352D01*
X7236253Y-12008352D02*
X7226729Y-11998828D01*
X7226729Y-11998828D02*
X7236253Y-11989304D01*
X7236253Y-11989304D02*
X7236253Y-12008352D01*
X7426729Y-11808352D02*
X7331491Y-11808352D01*
X7331491Y-11808352D02*
X7321967Y-11903590D01*
X7321967Y-11903590D02*
X7331491Y-11894066D01*
X7331491Y-11894066D02*
X7350539Y-11884542D01*
X7350539Y-11884542D02*
X7398158Y-11884542D01*
X7398158Y-11884542D02*
X7417205Y-11894066D01*
X7417205Y-11894066D02*
X7426729Y-11903590D01*
X7426729Y-11903590D02*
X7436253Y-11922637D01*
X7436253Y-11922637D02*
X7436253Y-11970256D01*
X7436253Y-11970256D02*
X7426729Y-11989304D01*
X7426729Y-11989304D02*
X7417205Y-11998828D01*
X7417205Y-11998828D02*
X7398158Y-12008352D01*
X7398158Y-12008352D02*
X7350539Y-12008352D01*
X7350539Y-12008352D02*
X7331491Y-11998828D01*
X7331491Y-11998828D02*
X7321967Y-11989304D01*
X7560062Y-11808352D02*
X7579110Y-11808352D01*
X7579110Y-11808352D02*
X7598158Y-11817876D01*
X7598158Y-11817876D02*
X7607682Y-11827399D01*
X7607682Y-11827399D02*
X7617205Y-11846447D01*
X7617205Y-11846447D02*
X7626729Y-11884542D01*
X7626729Y-11884542D02*
X7626729Y-11932161D01*
X7626729Y-11932161D02*
X7617205Y-11970256D01*
X7617205Y-11970256D02*
X7607682Y-11989304D01*
X7607682Y-11989304D02*
X7598158Y-11998828D01*
X7598158Y-11998828D02*
X7579110Y-12008352D01*
X7579110Y-12008352D02*
X7560062Y-12008352D01*
X7560062Y-12008352D02*
X7541015Y-11998828D01*
X7541015Y-11998828D02*
X7531491Y-11989304D01*
X7531491Y-11989304D02*
X7521967Y-11970256D01*
X7521967Y-11970256D02*
X7512443Y-11932161D01*
X7512443Y-11932161D02*
X7512443Y-11884542D01*
X7512443Y-11884542D02*
X7521967Y-11846447D01*
X7521967Y-11846447D02*
X7531491Y-11827399D01*
X7531491Y-11827399D02*
X7541015Y-11817876D01*
X7541015Y-11817876D02*
X7560062Y-11808352D01*
X7750539Y-11808352D02*
X7769586Y-11808352D01*
X7769586Y-11808352D02*
X7788634Y-11817876D01*
X7788634Y-11817876D02*
X7798158Y-11827399D01*
X7798158Y-11827399D02*
X7807682Y-11846447D01*
X7807682Y-11846447D02*
X7817205Y-11884542D01*
X7817205Y-11884542D02*
X7817205Y-11932161D01*
X7817205Y-11932161D02*
X7807682Y-11970256D01*
X7807682Y-11970256D02*
X7798158Y-11989304D01*
X7798158Y-11989304D02*
X7788634Y-11998828D01*
X7788634Y-11998828D02*
X7769586Y-12008352D01*
X7769586Y-12008352D02*
X7750539Y-12008352D01*
X7750539Y-12008352D02*
X7731491Y-11998828D01*
X7731491Y-11998828D02*
X7721967Y-11989304D01*
X7721967Y-11989304D02*
X7712443Y-11970256D01*
X7712443Y-11970256D02*
X7702920Y-11932161D01*
X7702920Y-11932161D02*
X7702920Y-11884542D01*
X7702920Y-11884542D02*
X7712443Y-11846447D01*
X7712443Y-11846447D02*
X7721967Y-11827399D01*
X7721967Y-11827399D02*
X7731491Y-11817876D01*
X7731491Y-11817876D02*
X7750539Y-11808352D01*
X7902920Y-12008352D02*
X7902920Y-11875018D01*
X7902920Y-11894066D02*
X7912443Y-11884542D01*
X7912443Y-11884542D02*
X7931491Y-11875018D01*
X7931491Y-11875018D02*
X7960063Y-11875018D01*
X7960063Y-11875018D02*
X7979110Y-11884542D01*
X7979110Y-11884542D02*
X7988634Y-11903590D01*
X7988634Y-11903590D02*
X7988634Y-12008352D01*
X7988634Y-11903590D02*
X7998158Y-11884542D01*
X7998158Y-11884542D02*
X8017205Y-11875018D01*
X8017205Y-11875018D02*
X8045777Y-11875018D01*
X8045777Y-11875018D02*
X8064824Y-11884542D01*
X8064824Y-11884542D02*
X8074348Y-11903590D01*
X8074348Y-11903590D02*
X8074348Y-12008352D01*
X8169586Y-12008352D02*
X8169586Y-11875018D01*
X8169586Y-11894066D02*
X8179110Y-11884542D01*
X8179110Y-11884542D02*
X8198158Y-11875018D01*
X8198158Y-11875018D02*
X8226729Y-11875018D01*
X8226729Y-11875018D02*
X8245777Y-11884542D01*
X8245777Y-11884542D02*
X8255301Y-11903590D01*
X8255301Y-11903590D02*
X8255301Y-12008352D01*
X8255301Y-11903590D02*
X8264824Y-11884542D01*
X8264824Y-11884542D02*
X8283872Y-11875018D01*
X8283872Y-11875018D02*
X8312443Y-11875018D01*
X8312443Y-11875018D02*
X8331491Y-11884542D01*
X8331491Y-11884542D02*
X8341015Y-11903590D01*
X8341015Y-11903590D02*
X8341015Y-12008352D01*
X8731491Y-11798828D02*
X8560063Y-12055971D01*
X8988634Y-11808352D02*
X9007682Y-11808352D01*
X9007682Y-11808352D02*
X9026729Y-11817876D01*
X9026729Y-11817876D02*
X9036253Y-11827399D01*
X9036253Y-11827399D02*
X9045777Y-11846447D01*
X9045777Y-11846447D02*
X9055301Y-11884542D01*
X9055301Y-11884542D02*
X9055301Y-11932161D01*
X9055301Y-11932161D02*
X9045777Y-11970256D01*
X9045777Y-11970256D02*
X9036253Y-11989304D01*
X9036253Y-11989304D02*
X9026729Y-11998828D01*
X9026729Y-11998828D02*
X9007682Y-12008352D01*
X9007682Y-12008352D02*
X8988634Y-12008352D01*
X8988634Y-12008352D02*
X8969587Y-11998828D01*
X8969587Y-11998828D02*
X8960063Y-11989304D01*
X8960063Y-11989304D02*
X8950539Y-11970256D01*
X8950539Y-11970256D02*
X8941015Y-11932161D01*
X8941015Y-11932161D02*
X8941015Y-11884542D01*
X8941015Y-11884542D02*
X8950539Y-11846447D01*
X8950539Y-11846447D02*
X8960063Y-11827399D01*
X8960063Y-11827399D02*
X8969587Y-11817876D01*
X8969587Y-11817876D02*
X8988634Y-11808352D01*
X9141015Y-11989304D02*
X9150539Y-11998828D01*
X9150539Y-11998828D02*
X9141015Y-12008352D01*
X9141015Y-12008352D02*
X9131491Y-11998828D01*
X9131491Y-11998828D02*
X9141015Y-11989304D01*
X9141015Y-11989304D02*
X9141015Y-12008352D01*
X9274348Y-11808352D02*
X9293396Y-11808352D01*
X9293396Y-11808352D02*
X9312444Y-11817876D01*
X9312444Y-11817876D02*
X9321968Y-11827399D01*
X9321968Y-11827399D02*
X9331491Y-11846447D01*
X9331491Y-11846447D02*
X9341015Y-11884542D01*
X9341015Y-11884542D02*
X9341015Y-11932161D01*
X9341015Y-11932161D02*
X9331491Y-11970256D01*
X9331491Y-11970256D02*
X9321968Y-11989304D01*
X9321968Y-11989304D02*
X9312444Y-11998828D01*
X9312444Y-11998828D02*
X9293396Y-12008352D01*
X9293396Y-12008352D02*
X9274348Y-12008352D01*
X9274348Y-12008352D02*
X9255301Y-11998828D01*
X9255301Y-11998828D02*
X9245777Y-11989304D01*
X9245777Y-11989304D02*
X9236253Y-11970256D01*
X9236253Y-11970256D02*
X9226729Y-11932161D01*
X9226729Y-11932161D02*
X9226729Y-11884542D01*
X9226729Y-11884542D02*
X9236253Y-11846447D01*
X9236253Y-11846447D02*
X9245777Y-11827399D01*
X9245777Y-11827399D02*
X9255301Y-11817876D01*
X9255301Y-11817876D02*
X9274348Y-11808352D01*
X9531491Y-12008352D02*
X9417206Y-12008352D01*
X9474348Y-12008352D02*
X9474348Y-11808352D01*
X9474348Y-11808352D02*
X9455301Y-11836923D01*
X9455301Y-11836923D02*
X9436253Y-11855971D01*
X9436253Y-11855971D02*
X9417206Y-11865495D01*
X9626729Y-12008352D02*
X9664825Y-12008352D01*
X9664825Y-12008352D02*
X9683872Y-11998828D01*
X9683872Y-11998828D02*
X9693396Y-11989304D01*
X9693396Y-11989304D02*
X9712444Y-11960733D01*
X9712444Y-11960733D02*
X9721968Y-11922637D01*
X9721968Y-11922637D02*
X9721968Y-11846447D01*
X9721968Y-11846447D02*
X9712444Y-11827399D01*
X9712444Y-11827399D02*
X9702920Y-11817876D01*
X9702920Y-11817876D02*
X9683872Y-11808352D01*
X9683872Y-11808352D02*
X9645777Y-11808352D01*
X9645777Y-11808352D02*
X9626729Y-11817876D01*
X9626729Y-11817876D02*
X9617206Y-11827399D01*
X9617206Y-11827399D02*
X9607682Y-11846447D01*
X9607682Y-11846447D02*
X9607682Y-11894066D01*
X9607682Y-11894066D02*
X9617206Y-11913114D01*
X9617206Y-11913114D02*
X9626729Y-11922637D01*
X9626729Y-11922637D02*
X9645777Y-11932161D01*
X9645777Y-11932161D02*
X9683872Y-11932161D01*
X9683872Y-11932161D02*
X9702920Y-11922637D01*
X9702920Y-11922637D02*
X9712444Y-11913114D01*
X9712444Y-11913114D02*
X9721968Y-11894066D01*
X9788634Y-11808352D02*
X9921968Y-11808352D01*
X9921968Y-11808352D02*
X9836253Y-12008352D01*
X9988634Y-11808352D02*
X9988634Y-11846447D01*
X10064825Y-11808352D02*
X10064825Y-11846447D01*
X10360063Y-12084542D02*
X10350539Y-12075018D01*
X10350539Y-12075018D02*
X10331491Y-12046447D01*
X10331491Y-12046447D02*
X10321968Y-12027399D01*
X10321968Y-12027399D02*
X10312444Y-11998828D01*
X10312444Y-11998828D02*
X10302920Y-11951209D01*
X10302920Y-11951209D02*
X10302920Y-11913114D01*
X10302920Y-11913114D02*
X10312444Y-11865495D01*
X10312444Y-11865495D02*
X10321968Y-11836923D01*
X10321968Y-11836923D02*
X10331491Y-11817876D01*
X10331491Y-11817876D02*
X10350539Y-11789304D01*
X10350539Y-11789304D02*
X10360063Y-11779780D01*
X10426730Y-11827399D02*
X10436253Y-11817876D01*
X10436253Y-11817876D02*
X10455301Y-11808352D01*
X10455301Y-11808352D02*
X10502920Y-11808352D01*
X10502920Y-11808352D02*
X10521968Y-11817876D01*
X10521968Y-11817876D02*
X10531491Y-11827399D01*
X10531491Y-11827399D02*
X10541015Y-11846447D01*
X10541015Y-11846447D02*
X10541015Y-11865495D01*
X10541015Y-11865495D02*
X10531491Y-11894066D01*
X10531491Y-11894066D02*
X10417206Y-12008352D01*
X10417206Y-12008352D02*
X10541015Y-12008352D01*
X10712444Y-11875018D02*
X10712444Y-12008352D01*
X10664825Y-11798828D02*
X10617206Y-11941685D01*
X10617206Y-11941685D02*
X10741015Y-11941685D01*
X10969587Y-12008352D02*
X10969587Y-11808352D01*
X11055301Y-12008352D02*
X11055301Y-11903590D01*
X11055301Y-11903590D02*
X11045777Y-11884542D01*
X11045777Y-11884542D02*
X11026730Y-11875018D01*
X11026730Y-11875018D02*
X10998158Y-11875018D01*
X10998158Y-11875018D02*
X10979111Y-11884542D01*
X10979111Y-11884542D02*
X10969587Y-11894066D01*
X11179111Y-12008352D02*
X11160063Y-11998828D01*
X11160063Y-11998828D02*
X11150539Y-11989304D01*
X11150539Y-11989304D02*
X11141015Y-11970256D01*
X11141015Y-11970256D02*
X11141015Y-11913114D01*
X11141015Y-11913114D02*
X11150539Y-11894066D01*
X11150539Y-11894066D02*
X11160063Y-11884542D01*
X11160063Y-11884542D02*
X11179111Y-11875018D01*
X11179111Y-11875018D02*
X11207682Y-11875018D01*
X11207682Y-11875018D02*
X11226730Y-11884542D01*
X11226730Y-11884542D02*
X11236253Y-11894066D01*
X11236253Y-11894066D02*
X11245777Y-11913114D01*
X11245777Y-11913114D02*
X11245777Y-11970256D01*
X11245777Y-11970256D02*
X11236253Y-11989304D01*
X11236253Y-11989304D02*
X11226730Y-11998828D01*
X11226730Y-11998828D02*
X11207682Y-12008352D01*
X11207682Y-12008352D02*
X11179111Y-12008352D01*
X11360063Y-12008352D02*
X11341015Y-11998828D01*
X11341015Y-11998828D02*
X11331491Y-11979780D01*
X11331491Y-11979780D02*
X11331491Y-11808352D01*
X11512444Y-11998828D02*
X11493396Y-12008352D01*
X11493396Y-12008352D02*
X11455301Y-12008352D01*
X11455301Y-12008352D02*
X11436253Y-11998828D01*
X11436253Y-11998828D02*
X11426730Y-11979780D01*
X11426730Y-11979780D02*
X11426730Y-11903590D01*
X11426730Y-11903590D02*
X11436253Y-11884542D01*
X11436253Y-11884542D02*
X11455301Y-11875018D01*
X11455301Y-11875018D02*
X11493396Y-11875018D01*
X11493396Y-11875018D02*
X11512444Y-11884542D01*
X11512444Y-11884542D02*
X11521968Y-11903590D01*
X11521968Y-11903590D02*
X11521968Y-11922637D01*
X11521968Y-11922637D02*
X11426730Y-11941685D01*
X11598158Y-11998828D02*
X11617206Y-12008352D01*
X11617206Y-12008352D02*
X11655301Y-12008352D01*
X11655301Y-12008352D02*
X11674349Y-11998828D01*
X11674349Y-11998828D02*
X11683872Y-11979780D01*
X11683872Y-11979780D02*
X11683872Y-11970256D01*
X11683872Y-11970256D02*
X11674349Y-11951209D01*
X11674349Y-11951209D02*
X11655301Y-11941685D01*
X11655301Y-11941685D02*
X11626730Y-11941685D01*
X11626730Y-11941685D02*
X11607682Y-11932161D01*
X11607682Y-11932161D02*
X11598158Y-11913114D01*
X11598158Y-11913114D02*
X11598158Y-11903590D01*
X11598158Y-11903590D02*
X11607682Y-11884542D01*
X11607682Y-11884542D02*
X11626730Y-11875018D01*
X11626730Y-11875018D02*
X11655301Y-11875018D01*
X11655301Y-11875018D02*
X11674349Y-11884542D01*
X11750539Y-12084542D02*
X11760063Y-12075018D01*
X11760063Y-12075018D02*
X11779111Y-12046447D01*
X11779111Y-12046447D02*
X11788634Y-12027399D01*
X11788634Y-12027399D02*
X11798158Y-11998828D01*
X11798158Y-11998828D02*
X11807682Y-11951209D01*
X11807682Y-11951209D02*
X11807682Y-11913114D01*
X11807682Y-11913114D02*
X11798158Y-11865495D01*
X11798158Y-11865495D02*
X11788634Y-11836923D01*
X11788634Y-11836923D02*
X11779111Y-11817876D01*
X11779111Y-11817876D02*
X11760063Y-11789304D01*
X11760063Y-11789304D02*
X11750539Y-11779780D01*
D10*
X6745000Y-12140868D02*
X6745000Y-12220868D01*
X6705000Y-12180868D02*
X6785000Y-12180868D01*
D11*
X7083872Y-12072352D02*
X7102920Y-12072352D01*
X7102920Y-12072352D02*
X7121967Y-12081876D01*
X7121967Y-12081876D02*
X7131491Y-12091399D01*
X7131491Y-12091399D02*
X7141015Y-12110447D01*
X7141015Y-12110447D02*
X7150539Y-12148542D01*
X7150539Y-12148542D02*
X7150539Y-12196161D01*
X7150539Y-12196161D02*
X7141015Y-12234256D01*
X7141015Y-12234256D02*
X7131491Y-12253304D01*
X7131491Y-12253304D02*
X7121967Y-12262828D01*
X7121967Y-12262828D02*
X7102920Y-12272352D01*
X7102920Y-12272352D02*
X7083872Y-12272352D01*
X7083872Y-12272352D02*
X7064824Y-12262828D01*
X7064824Y-12262828D02*
X7055301Y-12253304D01*
X7055301Y-12253304D02*
X7045777Y-12234256D01*
X7045777Y-12234256D02*
X7036253Y-12196161D01*
X7036253Y-12196161D02*
X7036253Y-12148542D01*
X7036253Y-12148542D02*
X7045777Y-12110447D01*
X7045777Y-12110447D02*
X7055301Y-12091399D01*
X7055301Y-12091399D02*
X7064824Y-12081876D01*
X7064824Y-12081876D02*
X7083872Y-12072352D01*
X7236253Y-12253304D02*
X7245777Y-12262828D01*
X7245777Y-12262828D02*
X7236253Y-12272352D01*
X7236253Y-12272352D02*
X7226729Y-12262828D01*
X7226729Y-12262828D02*
X7236253Y-12253304D01*
X7236253Y-12253304D02*
X7236253Y-12272352D01*
X7360062Y-12158066D02*
X7341015Y-12148542D01*
X7341015Y-12148542D02*
X7331491Y-12139018D01*
X7331491Y-12139018D02*
X7321967Y-12119971D01*
X7321967Y-12119971D02*
X7321967Y-12110447D01*
X7321967Y-12110447D02*
X7331491Y-12091399D01*
X7331491Y-12091399D02*
X7341015Y-12081876D01*
X7341015Y-12081876D02*
X7360062Y-12072352D01*
X7360062Y-12072352D02*
X7398158Y-12072352D01*
X7398158Y-12072352D02*
X7417205Y-12081876D01*
X7417205Y-12081876D02*
X7426729Y-12091399D01*
X7426729Y-12091399D02*
X7436253Y-12110447D01*
X7436253Y-12110447D02*
X7436253Y-12119971D01*
X7436253Y-12119971D02*
X7426729Y-12139018D01*
X7426729Y-12139018D02*
X7417205Y-12148542D01*
X7417205Y-12148542D02*
X7398158Y-12158066D01*
X7398158Y-12158066D02*
X7360062Y-12158066D01*
X7360062Y-12158066D02*
X7341015Y-12167590D01*
X7341015Y-12167590D02*
X7331491Y-12177114D01*
X7331491Y-12177114D02*
X7321967Y-12196161D01*
X7321967Y-12196161D02*
X7321967Y-12234256D01*
X7321967Y-12234256D02*
X7331491Y-12253304D01*
X7331491Y-12253304D02*
X7341015Y-12262828D01*
X7341015Y-12262828D02*
X7360062Y-12272352D01*
X7360062Y-12272352D02*
X7398158Y-12272352D01*
X7398158Y-12272352D02*
X7417205Y-12262828D01*
X7417205Y-12262828D02*
X7426729Y-12253304D01*
X7426729Y-12253304D02*
X7436253Y-12234256D01*
X7436253Y-12234256D02*
X7436253Y-12196161D01*
X7436253Y-12196161D02*
X7426729Y-12177114D01*
X7426729Y-12177114D02*
X7417205Y-12167590D01*
X7417205Y-12167590D02*
X7398158Y-12158066D01*
X7560062Y-12072352D02*
X7579110Y-12072352D01*
X7579110Y-12072352D02*
X7598158Y-12081876D01*
X7598158Y-12081876D02*
X7607682Y-12091399D01*
X7607682Y-12091399D02*
X7617205Y-12110447D01*
X7617205Y-12110447D02*
X7626729Y-12148542D01*
X7626729Y-12148542D02*
X7626729Y-12196161D01*
X7626729Y-12196161D02*
X7617205Y-12234256D01*
X7617205Y-12234256D02*
X7607682Y-12253304D01*
X7607682Y-12253304D02*
X7598158Y-12262828D01*
X7598158Y-12262828D02*
X7579110Y-12272352D01*
X7579110Y-12272352D02*
X7560062Y-12272352D01*
X7560062Y-12272352D02*
X7541015Y-12262828D01*
X7541015Y-12262828D02*
X7531491Y-12253304D01*
X7531491Y-12253304D02*
X7521967Y-12234256D01*
X7521967Y-12234256D02*
X7512443Y-12196161D01*
X7512443Y-12196161D02*
X7512443Y-12148542D01*
X7512443Y-12148542D02*
X7521967Y-12110447D01*
X7521967Y-12110447D02*
X7531491Y-12091399D01*
X7531491Y-12091399D02*
X7541015Y-12081876D01*
X7541015Y-12081876D02*
X7560062Y-12072352D01*
X7750539Y-12072352D02*
X7769586Y-12072352D01*
X7769586Y-12072352D02*
X7788634Y-12081876D01*
X7788634Y-12081876D02*
X7798158Y-12091399D01*
X7798158Y-12091399D02*
X7807682Y-12110447D01*
X7807682Y-12110447D02*
X7817205Y-12148542D01*
X7817205Y-12148542D02*
X7817205Y-12196161D01*
X7817205Y-12196161D02*
X7807682Y-12234256D01*
X7807682Y-12234256D02*
X7798158Y-12253304D01*
X7798158Y-12253304D02*
X7788634Y-12262828D01*
X7788634Y-12262828D02*
X7769586Y-12272352D01*
X7769586Y-12272352D02*
X7750539Y-12272352D01*
X7750539Y-12272352D02*
X7731491Y-12262828D01*
X7731491Y-12262828D02*
X7721967Y-12253304D01*
X7721967Y-12253304D02*
X7712443Y-12234256D01*
X7712443Y-12234256D02*
X7702920Y-12196161D01*
X7702920Y-12196161D02*
X7702920Y-12148542D01*
X7702920Y-12148542D02*
X7712443Y-12110447D01*
X7712443Y-12110447D02*
X7721967Y-12091399D01*
X7721967Y-12091399D02*
X7731491Y-12081876D01*
X7731491Y-12081876D02*
X7750539Y-12072352D01*
X7902920Y-12272352D02*
X7902920Y-12139018D01*
X7902920Y-12158066D02*
X7912443Y-12148542D01*
X7912443Y-12148542D02*
X7931491Y-12139018D01*
X7931491Y-12139018D02*
X7960063Y-12139018D01*
X7960063Y-12139018D02*
X7979110Y-12148542D01*
X7979110Y-12148542D02*
X7988634Y-12167590D01*
X7988634Y-12167590D02*
X7988634Y-12272352D01*
X7988634Y-12167590D02*
X7998158Y-12148542D01*
X7998158Y-12148542D02*
X8017205Y-12139018D01*
X8017205Y-12139018D02*
X8045777Y-12139018D01*
X8045777Y-12139018D02*
X8064824Y-12148542D01*
X8064824Y-12148542D02*
X8074348Y-12167590D01*
X8074348Y-12167590D02*
X8074348Y-12272352D01*
X8169586Y-12272352D02*
X8169586Y-12139018D01*
X8169586Y-12158066D02*
X8179110Y-12148542D01*
X8179110Y-12148542D02*
X8198158Y-12139018D01*
X8198158Y-12139018D02*
X8226729Y-12139018D01*
X8226729Y-12139018D02*
X8245777Y-12148542D01*
X8245777Y-12148542D02*
X8255301Y-12167590D01*
X8255301Y-12167590D02*
X8255301Y-12272352D01*
X8255301Y-12167590D02*
X8264824Y-12148542D01*
X8264824Y-12148542D02*
X8283872Y-12139018D01*
X8283872Y-12139018D02*
X8312443Y-12139018D01*
X8312443Y-12139018D02*
X8331491Y-12148542D01*
X8331491Y-12148542D02*
X8341015Y-12167590D01*
X8341015Y-12167590D02*
X8341015Y-12272352D01*
X8731491Y-12062828D02*
X8560063Y-12319971D01*
X8988634Y-12072352D02*
X9007682Y-12072352D01*
X9007682Y-12072352D02*
X9026729Y-12081876D01*
X9026729Y-12081876D02*
X9036253Y-12091399D01*
X9036253Y-12091399D02*
X9045777Y-12110447D01*
X9045777Y-12110447D02*
X9055301Y-12148542D01*
X9055301Y-12148542D02*
X9055301Y-12196161D01*
X9055301Y-12196161D02*
X9045777Y-12234256D01*
X9045777Y-12234256D02*
X9036253Y-12253304D01*
X9036253Y-12253304D02*
X9026729Y-12262828D01*
X9026729Y-12262828D02*
X9007682Y-12272352D01*
X9007682Y-12272352D02*
X8988634Y-12272352D01*
X8988634Y-12272352D02*
X8969587Y-12262828D01*
X8969587Y-12262828D02*
X8960063Y-12253304D01*
X8960063Y-12253304D02*
X8950539Y-12234256D01*
X8950539Y-12234256D02*
X8941015Y-12196161D01*
X8941015Y-12196161D02*
X8941015Y-12148542D01*
X8941015Y-12148542D02*
X8950539Y-12110447D01*
X8950539Y-12110447D02*
X8960063Y-12091399D01*
X8960063Y-12091399D02*
X8969587Y-12081876D01*
X8969587Y-12081876D02*
X8988634Y-12072352D01*
X9141015Y-12253304D02*
X9150539Y-12262828D01*
X9150539Y-12262828D02*
X9141015Y-12272352D01*
X9141015Y-12272352D02*
X9131491Y-12262828D01*
X9131491Y-12262828D02*
X9141015Y-12253304D01*
X9141015Y-12253304D02*
X9141015Y-12272352D01*
X9274348Y-12072352D02*
X9293396Y-12072352D01*
X9293396Y-12072352D02*
X9312444Y-12081876D01*
X9312444Y-12081876D02*
X9321968Y-12091399D01*
X9321968Y-12091399D02*
X9331491Y-12110447D01*
X9331491Y-12110447D02*
X9341015Y-12148542D01*
X9341015Y-12148542D02*
X9341015Y-12196161D01*
X9341015Y-12196161D02*
X9331491Y-12234256D01*
X9331491Y-12234256D02*
X9321968Y-12253304D01*
X9321968Y-12253304D02*
X9312444Y-12262828D01*
X9312444Y-12262828D02*
X9293396Y-12272352D01*
X9293396Y-12272352D02*
X9274348Y-12272352D01*
X9274348Y-12272352D02*
X9255301Y-12262828D01*
X9255301Y-12262828D02*
X9245777Y-12253304D01*
X9245777Y-12253304D02*
X9236253Y-12234256D01*
X9236253Y-12234256D02*
X9226729Y-12196161D01*
X9226729Y-12196161D02*
X9226729Y-12148542D01*
X9226729Y-12148542D02*
X9236253Y-12110447D01*
X9236253Y-12110447D02*
X9245777Y-12091399D01*
X9245777Y-12091399D02*
X9255301Y-12081876D01*
X9255301Y-12081876D02*
X9274348Y-12072352D01*
X9407682Y-12072352D02*
X9531491Y-12072352D01*
X9531491Y-12072352D02*
X9464825Y-12148542D01*
X9464825Y-12148542D02*
X9493396Y-12148542D01*
X9493396Y-12148542D02*
X9512444Y-12158066D01*
X9512444Y-12158066D02*
X9521968Y-12167590D01*
X9521968Y-12167590D02*
X9531491Y-12186637D01*
X9531491Y-12186637D02*
X9531491Y-12234256D01*
X9531491Y-12234256D02*
X9521968Y-12253304D01*
X9521968Y-12253304D02*
X9512444Y-12262828D01*
X9512444Y-12262828D02*
X9493396Y-12272352D01*
X9493396Y-12272352D02*
X9436253Y-12272352D01*
X9436253Y-12272352D02*
X9417206Y-12262828D01*
X9417206Y-12262828D02*
X9407682Y-12253304D01*
X9721968Y-12272352D02*
X9607682Y-12272352D01*
X9664825Y-12272352D02*
X9664825Y-12072352D01*
X9664825Y-12072352D02*
X9645777Y-12100923D01*
X9645777Y-12100923D02*
X9626729Y-12119971D01*
X9626729Y-12119971D02*
X9607682Y-12129495D01*
X9902920Y-12072352D02*
X9807682Y-12072352D01*
X9807682Y-12072352D02*
X9798158Y-12167590D01*
X9798158Y-12167590D02*
X9807682Y-12158066D01*
X9807682Y-12158066D02*
X9826729Y-12148542D01*
X9826729Y-12148542D02*
X9874349Y-12148542D01*
X9874349Y-12148542D02*
X9893396Y-12158066D01*
X9893396Y-12158066D02*
X9902920Y-12167590D01*
X9902920Y-12167590D02*
X9912444Y-12186637D01*
X9912444Y-12186637D02*
X9912444Y-12234256D01*
X9912444Y-12234256D02*
X9902920Y-12253304D01*
X9902920Y-12253304D02*
X9893396Y-12262828D01*
X9893396Y-12262828D02*
X9874349Y-12272352D01*
X9874349Y-12272352D02*
X9826729Y-12272352D01*
X9826729Y-12272352D02*
X9807682Y-12262828D01*
X9807682Y-12262828D02*
X9798158Y-12253304D01*
X9988634Y-12072352D02*
X9988634Y-12110447D01*
X10064825Y-12072352D02*
X10064825Y-12110447D01*
X10360063Y-12348542D02*
X10350539Y-12339018D01*
X10350539Y-12339018D02*
X10331491Y-12310447D01*
X10331491Y-12310447D02*
X10321968Y-12291399D01*
X10321968Y-12291399D02*
X10312444Y-12262828D01*
X10312444Y-12262828D02*
X10302920Y-12215209D01*
X10302920Y-12215209D02*
X10302920Y-12177114D01*
X10302920Y-12177114D02*
X10312444Y-12129495D01*
X10312444Y-12129495D02*
X10321968Y-12100923D01*
X10321968Y-12100923D02*
X10331491Y-12081876D01*
X10331491Y-12081876D02*
X10350539Y-12053304D01*
X10350539Y-12053304D02*
X10360063Y-12043780D01*
X10445777Y-12272352D02*
X10483872Y-12272352D01*
X10483872Y-12272352D02*
X10502920Y-12262828D01*
X10502920Y-12262828D02*
X10512444Y-12253304D01*
X10512444Y-12253304D02*
X10531491Y-12224733D01*
X10531491Y-12224733D02*
X10541015Y-12186637D01*
X10541015Y-12186637D02*
X10541015Y-12110447D01*
X10541015Y-12110447D02*
X10531491Y-12091399D01*
X10531491Y-12091399D02*
X10521968Y-12081876D01*
X10521968Y-12081876D02*
X10502920Y-12072352D01*
X10502920Y-12072352D02*
X10464825Y-12072352D01*
X10464825Y-12072352D02*
X10445777Y-12081876D01*
X10445777Y-12081876D02*
X10436253Y-12091399D01*
X10436253Y-12091399D02*
X10426730Y-12110447D01*
X10426730Y-12110447D02*
X10426730Y-12158066D01*
X10426730Y-12158066D02*
X10436253Y-12177114D01*
X10436253Y-12177114D02*
X10445777Y-12186637D01*
X10445777Y-12186637D02*
X10464825Y-12196161D01*
X10464825Y-12196161D02*
X10502920Y-12196161D01*
X10502920Y-12196161D02*
X10521968Y-12186637D01*
X10521968Y-12186637D02*
X10531491Y-12177114D01*
X10531491Y-12177114D02*
X10541015Y-12158066D01*
X10779111Y-12272352D02*
X10779111Y-12072352D01*
X10864825Y-12272352D02*
X10864825Y-12167590D01*
X10864825Y-12167590D02*
X10855301Y-12148542D01*
X10855301Y-12148542D02*
X10836253Y-12139018D01*
X10836253Y-12139018D02*
X10807682Y-12139018D01*
X10807682Y-12139018D02*
X10788634Y-12148542D01*
X10788634Y-12148542D02*
X10779111Y-12158066D01*
X10988634Y-12272352D02*
X10969587Y-12262828D01*
X10969587Y-12262828D02*
X10960063Y-12253304D01*
X10960063Y-12253304D02*
X10950539Y-12234256D01*
X10950539Y-12234256D02*
X10950539Y-12177114D01*
X10950539Y-12177114D02*
X10960063Y-12158066D01*
X10960063Y-12158066D02*
X10969587Y-12148542D01*
X10969587Y-12148542D02*
X10988634Y-12139018D01*
X10988634Y-12139018D02*
X11017206Y-12139018D01*
X11017206Y-12139018D02*
X11036253Y-12148542D01*
X11036253Y-12148542D02*
X11045777Y-12158066D01*
X11045777Y-12158066D02*
X11055301Y-12177114D01*
X11055301Y-12177114D02*
X11055301Y-12234256D01*
X11055301Y-12234256D02*
X11045777Y-12253304D01*
X11045777Y-12253304D02*
X11036253Y-12262828D01*
X11036253Y-12262828D02*
X11017206Y-12272352D01*
X11017206Y-12272352D02*
X10988634Y-12272352D01*
X11169587Y-12272352D02*
X11150539Y-12262828D01*
X11150539Y-12262828D02*
X11141015Y-12243780D01*
X11141015Y-12243780D02*
X11141015Y-12072352D01*
X11321968Y-12262828D02*
X11302920Y-12272352D01*
X11302920Y-12272352D02*
X11264825Y-12272352D01*
X11264825Y-12272352D02*
X11245777Y-12262828D01*
X11245777Y-12262828D02*
X11236253Y-12243780D01*
X11236253Y-12243780D02*
X11236253Y-12167590D01*
X11236253Y-12167590D02*
X11245777Y-12148542D01*
X11245777Y-12148542D02*
X11264825Y-12139018D01*
X11264825Y-12139018D02*
X11302920Y-12139018D01*
X11302920Y-12139018D02*
X11321968Y-12148542D01*
X11321968Y-12148542D02*
X11331491Y-12167590D01*
X11331491Y-12167590D02*
X11331491Y-12186637D01*
X11331491Y-12186637D02*
X11236253Y-12205685D01*
X11407682Y-12262828D02*
X11426730Y-12272352D01*
X11426730Y-12272352D02*
X11464825Y-12272352D01*
X11464825Y-12272352D02*
X11483872Y-12262828D01*
X11483872Y-12262828D02*
X11493396Y-12243780D01*
X11493396Y-12243780D02*
X11493396Y-12234256D01*
X11493396Y-12234256D02*
X11483872Y-12215209D01*
X11483872Y-12215209D02*
X11464825Y-12205685D01*
X11464825Y-12205685D02*
X11436253Y-12205685D01*
X11436253Y-12205685D02*
X11417206Y-12196161D01*
X11417206Y-12196161D02*
X11407682Y-12177114D01*
X11407682Y-12177114D02*
X11407682Y-12167590D01*
X11407682Y-12167590D02*
X11417206Y-12148542D01*
X11417206Y-12148542D02*
X11436253Y-12139018D01*
X11436253Y-12139018D02*
X11464825Y-12139018D01*
X11464825Y-12139018D02*
X11483872Y-12148542D01*
X11560063Y-12348542D02*
X11569587Y-12339018D01*
X11569587Y-12339018D02*
X11588634Y-12310447D01*
X11588634Y-12310447D02*
X11598158Y-12291399D01*
X11598158Y-12291399D02*
X11607682Y-12262828D01*
X11607682Y-12262828D02*
X11617206Y-12215209D01*
X11617206Y-12215209D02*
X11617206Y-12177114D01*
X11617206Y-12177114D02*
X11607682Y-12129495D01*
X11607682Y-12129495D02*
X11598158Y-12100923D01*
X11598158Y-12100923D02*
X11588634Y-12081876D01*
X11588634Y-12081876D02*
X11569587Y-12053304D01*
X11569587Y-12053304D02*
X11560063Y-12043780D01*
D10*
X6771981Y-12476299D02*
X6771981Y-12413437D01*
X6709119Y-12413437D01*
X6709119Y-12476299D01*
X6771981Y-12476299D01*
D11*
X7083872Y-12336352D02*
X7102920Y-12336352D01*
X7102920Y-12336352D02*
X7121967Y-12345876D01*
X7121967Y-12345876D02*
X7131491Y-12355399D01*
X7131491Y-12355399D02*
X7141015Y-12374447D01*
X7141015Y-12374447D02*
X7150539Y-12412542D01*
X7150539Y-12412542D02*
X7150539Y-12460161D01*
X7150539Y-12460161D02*
X7141015Y-12498256D01*
X7141015Y-12498256D02*
X7131491Y-12517304D01*
X7131491Y-12517304D02*
X7121967Y-12526828D01*
X7121967Y-12526828D02*
X7102920Y-12536352D01*
X7102920Y-12536352D02*
X7083872Y-12536352D01*
X7083872Y-12536352D02*
X7064824Y-12526828D01*
X7064824Y-12526828D02*
X7055301Y-12517304D01*
X7055301Y-12517304D02*
X7045777Y-12498256D01*
X7045777Y-12498256D02*
X7036253Y-12460161D01*
X7036253Y-12460161D02*
X7036253Y-12412542D01*
X7036253Y-12412542D02*
X7045777Y-12374447D01*
X7045777Y-12374447D02*
X7055301Y-12355399D01*
X7055301Y-12355399D02*
X7064824Y-12345876D01*
X7064824Y-12345876D02*
X7083872Y-12336352D01*
X7236253Y-12517304D02*
X7245777Y-12526828D01*
X7245777Y-12526828D02*
X7236253Y-12536352D01*
X7236253Y-12536352D02*
X7226729Y-12526828D01*
X7226729Y-12526828D02*
X7236253Y-12517304D01*
X7236253Y-12517304D02*
X7236253Y-12536352D01*
X7360062Y-12422066D02*
X7341015Y-12412542D01*
X7341015Y-12412542D02*
X7331491Y-12403018D01*
X7331491Y-12403018D02*
X7321967Y-12383971D01*
X7321967Y-12383971D02*
X7321967Y-12374447D01*
X7321967Y-12374447D02*
X7331491Y-12355399D01*
X7331491Y-12355399D02*
X7341015Y-12345876D01*
X7341015Y-12345876D02*
X7360062Y-12336352D01*
X7360062Y-12336352D02*
X7398158Y-12336352D01*
X7398158Y-12336352D02*
X7417205Y-12345876D01*
X7417205Y-12345876D02*
X7426729Y-12355399D01*
X7426729Y-12355399D02*
X7436253Y-12374447D01*
X7436253Y-12374447D02*
X7436253Y-12383971D01*
X7436253Y-12383971D02*
X7426729Y-12403018D01*
X7426729Y-12403018D02*
X7417205Y-12412542D01*
X7417205Y-12412542D02*
X7398158Y-12422066D01*
X7398158Y-12422066D02*
X7360062Y-12422066D01*
X7360062Y-12422066D02*
X7341015Y-12431590D01*
X7341015Y-12431590D02*
X7331491Y-12441114D01*
X7331491Y-12441114D02*
X7321967Y-12460161D01*
X7321967Y-12460161D02*
X7321967Y-12498256D01*
X7321967Y-12498256D02*
X7331491Y-12517304D01*
X7331491Y-12517304D02*
X7341015Y-12526828D01*
X7341015Y-12526828D02*
X7360062Y-12536352D01*
X7360062Y-12536352D02*
X7398158Y-12536352D01*
X7398158Y-12536352D02*
X7417205Y-12526828D01*
X7417205Y-12526828D02*
X7426729Y-12517304D01*
X7426729Y-12517304D02*
X7436253Y-12498256D01*
X7436253Y-12498256D02*
X7436253Y-12460161D01*
X7436253Y-12460161D02*
X7426729Y-12441114D01*
X7426729Y-12441114D02*
X7417205Y-12431590D01*
X7417205Y-12431590D02*
X7398158Y-12422066D01*
X7550539Y-12422066D02*
X7531491Y-12412542D01*
X7531491Y-12412542D02*
X7521967Y-12403018D01*
X7521967Y-12403018D02*
X7512443Y-12383971D01*
X7512443Y-12383971D02*
X7512443Y-12374447D01*
X7512443Y-12374447D02*
X7521967Y-12355399D01*
X7521967Y-12355399D02*
X7531491Y-12345876D01*
X7531491Y-12345876D02*
X7550539Y-12336352D01*
X7550539Y-12336352D02*
X7588634Y-12336352D01*
X7588634Y-12336352D02*
X7607682Y-12345876D01*
X7607682Y-12345876D02*
X7617205Y-12355399D01*
X7617205Y-12355399D02*
X7626729Y-12374447D01*
X7626729Y-12374447D02*
X7626729Y-12383971D01*
X7626729Y-12383971D02*
X7617205Y-12403018D01*
X7617205Y-12403018D02*
X7607682Y-12412542D01*
X7607682Y-12412542D02*
X7588634Y-12422066D01*
X7588634Y-12422066D02*
X7550539Y-12422066D01*
X7550539Y-12422066D02*
X7531491Y-12431590D01*
X7531491Y-12431590D02*
X7521967Y-12441114D01*
X7521967Y-12441114D02*
X7512443Y-12460161D01*
X7512443Y-12460161D02*
X7512443Y-12498256D01*
X7512443Y-12498256D02*
X7521967Y-12517304D01*
X7521967Y-12517304D02*
X7531491Y-12526828D01*
X7531491Y-12526828D02*
X7550539Y-12536352D01*
X7550539Y-12536352D02*
X7588634Y-12536352D01*
X7588634Y-12536352D02*
X7607682Y-12526828D01*
X7607682Y-12526828D02*
X7617205Y-12517304D01*
X7617205Y-12517304D02*
X7626729Y-12498256D01*
X7626729Y-12498256D02*
X7626729Y-12460161D01*
X7626729Y-12460161D02*
X7617205Y-12441114D01*
X7617205Y-12441114D02*
X7607682Y-12431590D01*
X7607682Y-12431590D02*
X7588634Y-12422066D01*
X7721967Y-12536352D02*
X7760062Y-12536352D01*
X7760062Y-12536352D02*
X7779110Y-12526828D01*
X7779110Y-12526828D02*
X7788634Y-12517304D01*
X7788634Y-12517304D02*
X7807682Y-12488733D01*
X7807682Y-12488733D02*
X7817205Y-12450637D01*
X7817205Y-12450637D02*
X7817205Y-12374447D01*
X7817205Y-12374447D02*
X7807682Y-12355399D01*
X7807682Y-12355399D02*
X7798158Y-12345876D01*
X7798158Y-12345876D02*
X7779110Y-12336352D01*
X7779110Y-12336352D02*
X7741015Y-12336352D01*
X7741015Y-12336352D02*
X7721967Y-12345876D01*
X7721967Y-12345876D02*
X7712443Y-12355399D01*
X7712443Y-12355399D02*
X7702920Y-12374447D01*
X7702920Y-12374447D02*
X7702920Y-12422066D01*
X7702920Y-12422066D02*
X7712443Y-12441114D01*
X7712443Y-12441114D02*
X7721967Y-12450637D01*
X7721967Y-12450637D02*
X7741015Y-12460161D01*
X7741015Y-12460161D02*
X7779110Y-12460161D01*
X7779110Y-12460161D02*
X7798158Y-12450637D01*
X7798158Y-12450637D02*
X7807682Y-12441114D01*
X7807682Y-12441114D02*
X7817205Y-12422066D01*
X7902920Y-12536352D02*
X7902920Y-12403018D01*
X7902920Y-12422066D02*
X7912443Y-12412542D01*
X7912443Y-12412542D02*
X7931491Y-12403018D01*
X7931491Y-12403018D02*
X7960063Y-12403018D01*
X7960063Y-12403018D02*
X7979110Y-12412542D01*
X7979110Y-12412542D02*
X7988634Y-12431590D01*
X7988634Y-12431590D02*
X7988634Y-12536352D01*
X7988634Y-12431590D02*
X7998158Y-12412542D01*
X7998158Y-12412542D02*
X8017205Y-12403018D01*
X8017205Y-12403018D02*
X8045777Y-12403018D01*
X8045777Y-12403018D02*
X8064824Y-12412542D01*
X8064824Y-12412542D02*
X8074348Y-12431590D01*
X8074348Y-12431590D02*
X8074348Y-12536352D01*
X8169586Y-12536352D02*
X8169586Y-12403018D01*
X8169586Y-12422066D02*
X8179110Y-12412542D01*
X8179110Y-12412542D02*
X8198158Y-12403018D01*
X8198158Y-12403018D02*
X8226729Y-12403018D01*
X8226729Y-12403018D02*
X8245777Y-12412542D01*
X8245777Y-12412542D02*
X8255301Y-12431590D01*
X8255301Y-12431590D02*
X8255301Y-12536352D01*
X8255301Y-12431590D02*
X8264824Y-12412542D01*
X8264824Y-12412542D02*
X8283872Y-12403018D01*
X8283872Y-12403018D02*
X8312443Y-12403018D01*
X8312443Y-12403018D02*
X8331491Y-12412542D01*
X8331491Y-12412542D02*
X8341015Y-12431590D01*
X8341015Y-12431590D02*
X8341015Y-12536352D01*
X8731491Y-12326828D02*
X8560063Y-12583971D01*
X8988634Y-12336352D02*
X9007682Y-12336352D01*
X9007682Y-12336352D02*
X9026729Y-12345876D01*
X9026729Y-12345876D02*
X9036253Y-12355399D01*
X9036253Y-12355399D02*
X9045777Y-12374447D01*
X9045777Y-12374447D02*
X9055301Y-12412542D01*
X9055301Y-12412542D02*
X9055301Y-12460161D01*
X9055301Y-12460161D02*
X9045777Y-12498256D01*
X9045777Y-12498256D02*
X9036253Y-12517304D01*
X9036253Y-12517304D02*
X9026729Y-12526828D01*
X9026729Y-12526828D02*
X9007682Y-12536352D01*
X9007682Y-12536352D02*
X8988634Y-12536352D01*
X8988634Y-12536352D02*
X8969587Y-12526828D01*
X8969587Y-12526828D02*
X8960063Y-12517304D01*
X8960063Y-12517304D02*
X8950539Y-12498256D01*
X8950539Y-12498256D02*
X8941015Y-12460161D01*
X8941015Y-12460161D02*
X8941015Y-12412542D01*
X8941015Y-12412542D02*
X8950539Y-12374447D01*
X8950539Y-12374447D02*
X8960063Y-12355399D01*
X8960063Y-12355399D02*
X8969587Y-12345876D01*
X8969587Y-12345876D02*
X8988634Y-12336352D01*
X9141015Y-12517304D02*
X9150539Y-12526828D01*
X9150539Y-12526828D02*
X9141015Y-12536352D01*
X9141015Y-12536352D02*
X9131491Y-12526828D01*
X9131491Y-12526828D02*
X9141015Y-12517304D01*
X9141015Y-12517304D02*
X9141015Y-12536352D01*
X9274348Y-12336352D02*
X9293396Y-12336352D01*
X9293396Y-12336352D02*
X9312444Y-12345876D01*
X9312444Y-12345876D02*
X9321968Y-12355399D01*
X9321968Y-12355399D02*
X9331491Y-12374447D01*
X9331491Y-12374447D02*
X9341015Y-12412542D01*
X9341015Y-12412542D02*
X9341015Y-12460161D01*
X9341015Y-12460161D02*
X9331491Y-12498256D01*
X9331491Y-12498256D02*
X9321968Y-12517304D01*
X9321968Y-12517304D02*
X9312444Y-12526828D01*
X9312444Y-12526828D02*
X9293396Y-12536352D01*
X9293396Y-12536352D02*
X9274348Y-12536352D01*
X9274348Y-12536352D02*
X9255301Y-12526828D01*
X9255301Y-12526828D02*
X9245777Y-12517304D01*
X9245777Y-12517304D02*
X9236253Y-12498256D01*
X9236253Y-12498256D02*
X9226729Y-12460161D01*
X9226729Y-12460161D02*
X9226729Y-12412542D01*
X9226729Y-12412542D02*
X9236253Y-12374447D01*
X9236253Y-12374447D02*
X9245777Y-12355399D01*
X9245777Y-12355399D02*
X9255301Y-12345876D01*
X9255301Y-12345876D02*
X9274348Y-12336352D01*
X9407682Y-12336352D02*
X9531491Y-12336352D01*
X9531491Y-12336352D02*
X9464825Y-12412542D01*
X9464825Y-12412542D02*
X9493396Y-12412542D01*
X9493396Y-12412542D02*
X9512444Y-12422066D01*
X9512444Y-12422066D02*
X9521968Y-12431590D01*
X9521968Y-12431590D02*
X9531491Y-12450637D01*
X9531491Y-12450637D02*
X9531491Y-12498256D01*
X9531491Y-12498256D02*
X9521968Y-12517304D01*
X9521968Y-12517304D02*
X9512444Y-12526828D01*
X9512444Y-12526828D02*
X9493396Y-12536352D01*
X9493396Y-12536352D02*
X9436253Y-12536352D01*
X9436253Y-12536352D02*
X9417206Y-12526828D01*
X9417206Y-12526828D02*
X9407682Y-12517304D01*
X9712444Y-12336352D02*
X9617206Y-12336352D01*
X9617206Y-12336352D02*
X9607682Y-12431590D01*
X9607682Y-12431590D02*
X9617206Y-12422066D01*
X9617206Y-12422066D02*
X9636253Y-12412542D01*
X9636253Y-12412542D02*
X9683872Y-12412542D01*
X9683872Y-12412542D02*
X9702920Y-12422066D01*
X9702920Y-12422066D02*
X9712444Y-12431590D01*
X9712444Y-12431590D02*
X9721968Y-12450637D01*
X9721968Y-12450637D02*
X9721968Y-12498256D01*
X9721968Y-12498256D02*
X9712444Y-12517304D01*
X9712444Y-12517304D02*
X9702920Y-12526828D01*
X9702920Y-12526828D02*
X9683872Y-12536352D01*
X9683872Y-12536352D02*
X9636253Y-12536352D01*
X9636253Y-12536352D02*
X9617206Y-12526828D01*
X9617206Y-12526828D02*
X9607682Y-12517304D01*
X9845777Y-12336352D02*
X9864825Y-12336352D01*
X9864825Y-12336352D02*
X9883872Y-12345876D01*
X9883872Y-12345876D02*
X9893396Y-12355399D01*
X9893396Y-12355399D02*
X9902920Y-12374447D01*
X9902920Y-12374447D02*
X9912444Y-12412542D01*
X9912444Y-12412542D02*
X9912444Y-12460161D01*
X9912444Y-12460161D02*
X9902920Y-12498256D01*
X9902920Y-12498256D02*
X9893396Y-12517304D01*
X9893396Y-12517304D02*
X9883872Y-12526828D01*
X9883872Y-12526828D02*
X9864825Y-12536352D01*
X9864825Y-12536352D02*
X9845777Y-12536352D01*
X9845777Y-12536352D02*
X9826729Y-12526828D01*
X9826729Y-12526828D02*
X9817206Y-12517304D01*
X9817206Y-12517304D02*
X9807682Y-12498256D01*
X9807682Y-12498256D02*
X9798158Y-12460161D01*
X9798158Y-12460161D02*
X9798158Y-12412542D01*
X9798158Y-12412542D02*
X9807682Y-12374447D01*
X9807682Y-12374447D02*
X9817206Y-12355399D01*
X9817206Y-12355399D02*
X9826729Y-12345876D01*
X9826729Y-12345876D02*
X9845777Y-12336352D01*
X9988634Y-12336352D02*
X9988634Y-12374447D01*
X10064825Y-12336352D02*
X10064825Y-12374447D01*
X10360063Y-12612542D02*
X10350539Y-12603018D01*
X10350539Y-12603018D02*
X10331491Y-12574447D01*
X10331491Y-12574447D02*
X10321968Y-12555399D01*
X10321968Y-12555399D02*
X10312444Y-12526828D01*
X10312444Y-12526828D02*
X10302920Y-12479209D01*
X10302920Y-12479209D02*
X10302920Y-12441114D01*
X10302920Y-12441114D02*
X10312444Y-12393495D01*
X10312444Y-12393495D02*
X10321968Y-12364923D01*
X10321968Y-12364923D02*
X10331491Y-12345876D01*
X10331491Y-12345876D02*
X10350539Y-12317304D01*
X10350539Y-12317304D02*
X10360063Y-12307780D01*
X10426730Y-12355399D02*
X10436253Y-12345876D01*
X10436253Y-12345876D02*
X10455301Y-12336352D01*
X10455301Y-12336352D02*
X10502920Y-12336352D01*
X10502920Y-12336352D02*
X10521968Y-12345876D01*
X10521968Y-12345876D02*
X10531491Y-12355399D01*
X10531491Y-12355399D02*
X10541015Y-12374447D01*
X10541015Y-12374447D02*
X10541015Y-12393495D01*
X10541015Y-12393495D02*
X10531491Y-12422066D01*
X10531491Y-12422066D02*
X10417206Y-12536352D01*
X10417206Y-12536352D02*
X10541015Y-12536352D01*
X10664825Y-12336352D02*
X10683872Y-12336352D01*
X10683872Y-12336352D02*
X10702920Y-12345876D01*
X10702920Y-12345876D02*
X10712444Y-12355399D01*
X10712444Y-12355399D02*
X10721968Y-12374447D01*
X10721968Y-12374447D02*
X10731491Y-12412542D01*
X10731491Y-12412542D02*
X10731491Y-12460161D01*
X10731491Y-12460161D02*
X10721968Y-12498256D01*
X10721968Y-12498256D02*
X10712444Y-12517304D01*
X10712444Y-12517304D02*
X10702920Y-12526828D01*
X10702920Y-12526828D02*
X10683872Y-12536352D01*
X10683872Y-12536352D02*
X10664825Y-12536352D01*
X10664825Y-12536352D02*
X10645777Y-12526828D01*
X10645777Y-12526828D02*
X10636253Y-12517304D01*
X10636253Y-12517304D02*
X10626730Y-12498256D01*
X10626730Y-12498256D02*
X10617206Y-12460161D01*
X10617206Y-12460161D02*
X10617206Y-12412542D01*
X10617206Y-12412542D02*
X10626730Y-12374447D01*
X10626730Y-12374447D02*
X10636253Y-12355399D01*
X10636253Y-12355399D02*
X10645777Y-12345876D01*
X10645777Y-12345876D02*
X10664825Y-12336352D01*
X10969587Y-12536352D02*
X10969587Y-12336352D01*
X11055301Y-12536352D02*
X11055301Y-12431590D01*
X11055301Y-12431590D02*
X11045777Y-12412542D01*
X11045777Y-12412542D02*
X11026730Y-12403018D01*
X11026730Y-12403018D02*
X10998158Y-12403018D01*
X10998158Y-12403018D02*
X10979111Y-12412542D01*
X10979111Y-12412542D02*
X10969587Y-12422066D01*
X11179111Y-12536352D02*
X11160063Y-12526828D01*
X11160063Y-12526828D02*
X11150539Y-12517304D01*
X11150539Y-12517304D02*
X11141015Y-12498256D01*
X11141015Y-12498256D02*
X11141015Y-12441114D01*
X11141015Y-12441114D02*
X11150539Y-12422066D01*
X11150539Y-12422066D02*
X11160063Y-12412542D01*
X11160063Y-12412542D02*
X11179111Y-12403018D01*
X11179111Y-12403018D02*
X11207682Y-12403018D01*
X11207682Y-12403018D02*
X11226730Y-12412542D01*
X11226730Y-12412542D02*
X11236253Y-12422066D01*
X11236253Y-12422066D02*
X11245777Y-12441114D01*
X11245777Y-12441114D02*
X11245777Y-12498256D01*
X11245777Y-12498256D02*
X11236253Y-12517304D01*
X11236253Y-12517304D02*
X11226730Y-12526828D01*
X11226730Y-12526828D02*
X11207682Y-12536352D01*
X11207682Y-12536352D02*
X11179111Y-12536352D01*
X11360063Y-12536352D02*
X11341015Y-12526828D01*
X11341015Y-12526828D02*
X11331491Y-12507780D01*
X11331491Y-12507780D02*
X11331491Y-12336352D01*
X11512444Y-12526828D02*
X11493396Y-12536352D01*
X11493396Y-12536352D02*
X11455301Y-12536352D01*
X11455301Y-12536352D02*
X11436253Y-12526828D01*
X11436253Y-12526828D02*
X11426730Y-12507780D01*
X11426730Y-12507780D02*
X11426730Y-12431590D01*
X11426730Y-12431590D02*
X11436253Y-12412542D01*
X11436253Y-12412542D02*
X11455301Y-12403018D01*
X11455301Y-12403018D02*
X11493396Y-12403018D01*
X11493396Y-12403018D02*
X11512444Y-12412542D01*
X11512444Y-12412542D02*
X11521968Y-12431590D01*
X11521968Y-12431590D02*
X11521968Y-12450637D01*
X11521968Y-12450637D02*
X11426730Y-12469685D01*
X11598158Y-12526828D02*
X11617206Y-12536352D01*
X11617206Y-12536352D02*
X11655301Y-12536352D01*
X11655301Y-12536352D02*
X11674349Y-12526828D01*
X11674349Y-12526828D02*
X11683872Y-12507780D01*
X11683872Y-12507780D02*
X11683872Y-12498256D01*
X11683872Y-12498256D02*
X11674349Y-12479209D01*
X11674349Y-12479209D02*
X11655301Y-12469685D01*
X11655301Y-12469685D02*
X11626730Y-12469685D01*
X11626730Y-12469685D02*
X11607682Y-12460161D01*
X11607682Y-12460161D02*
X11598158Y-12441114D01*
X11598158Y-12441114D02*
X11598158Y-12431590D01*
X11598158Y-12431590D02*
X11607682Y-12412542D01*
X11607682Y-12412542D02*
X11626730Y-12403018D01*
X11626730Y-12403018D02*
X11655301Y-12403018D01*
X11655301Y-12403018D02*
X11674349Y-12412542D01*
X11750539Y-12612542D02*
X11760063Y-12603018D01*
X11760063Y-12603018D02*
X11779111Y-12574447D01*
X11779111Y-12574447D02*
X11788634Y-12555399D01*
X11788634Y-12555399D02*
X11798158Y-12526828D01*
X11798158Y-12526828D02*
X11807682Y-12479209D01*
X11807682Y-12479209D02*
X11807682Y-12441114D01*
X11807682Y-12441114D02*
X11798158Y-12393495D01*
X11798158Y-12393495D02*
X11788634Y-12364923D01*
X11788634Y-12364923D02*
X11779111Y-12345876D01*
X11779111Y-12345876D02*
X11760063Y-12317304D01*
X11760063Y-12317304D02*
X11750539Y-12307780D01*
D10*
X6739000Y-12754868D02*
X6785000Y-12708868D01*
X6739000Y-12662868D01*
X6693000Y-12708868D01*
X6739000Y-12754868D01*
D11*
X7083872Y-12600352D02*
X7102920Y-12600352D01*
X7102920Y-12600352D02*
X7121967Y-12609876D01*
X7121967Y-12609876D02*
X7131491Y-12619399D01*
X7131491Y-12619399D02*
X7141015Y-12638447D01*
X7141015Y-12638447D02*
X7150539Y-12676542D01*
X7150539Y-12676542D02*
X7150539Y-12724161D01*
X7150539Y-12724161D02*
X7141015Y-12762256D01*
X7141015Y-12762256D02*
X7131491Y-12781304D01*
X7131491Y-12781304D02*
X7121967Y-12790828D01*
X7121967Y-12790828D02*
X7102920Y-12800352D01*
X7102920Y-12800352D02*
X7083872Y-12800352D01*
X7083872Y-12800352D02*
X7064824Y-12790828D01*
X7064824Y-12790828D02*
X7055301Y-12781304D01*
X7055301Y-12781304D02*
X7045777Y-12762256D01*
X7045777Y-12762256D02*
X7036253Y-12724161D01*
X7036253Y-12724161D02*
X7036253Y-12676542D01*
X7036253Y-12676542D02*
X7045777Y-12638447D01*
X7045777Y-12638447D02*
X7055301Y-12619399D01*
X7055301Y-12619399D02*
X7064824Y-12609876D01*
X7064824Y-12609876D02*
X7083872Y-12600352D01*
X7236253Y-12781304D02*
X7245777Y-12790828D01*
X7245777Y-12790828D02*
X7236253Y-12800352D01*
X7236253Y-12800352D02*
X7226729Y-12790828D01*
X7226729Y-12790828D02*
X7236253Y-12781304D01*
X7236253Y-12781304D02*
X7236253Y-12800352D01*
X7341015Y-12800352D02*
X7379110Y-12800352D01*
X7379110Y-12800352D02*
X7398158Y-12790828D01*
X7398158Y-12790828D02*
X7407682Y-12781304D01*
X7407682Y-12781304D02*
X7426729Y-12752733D01*
X7426729Y-12752733D02*
X7436253Y-12714637D01*
X7436253Y-12714637D02*
X7436253Y-12638447D01*
X7436253Y-12638447D02*
X7426729Y-12619399D01*
X7426729Y-12619399D02*
X7417205Y-12609876D01*
X7417205Y-12609876D02*
X7398158Y-12600352D01*
X7398158Y-12600352D02*
X7360062Y-12600352D01*
X7360062Y-12600352D02*
X7341015Y-12609876D01*
X7341015Y-12609876D02*
X7331491Y-12619399D01*
X7331491Y-12619399D02*
X7321967Y-12638447D01*
X7321967Y-12638447D02*
X7321967Y-12686066D01*
X7321967Y-12686066D02*
X7331491Y-12705114D01*
X7331491Y-12705114D02*
X7341015Y-12714637D01*
X7341015Y-12714637D02*
X7360062Y-12724161D01*
X7360062Y-12724161D02*
X7398158Y-12724161D01*
X7398158Y-12724161D02*
X7417205Y-12714637D01*
X7417205Y-12714637D02*
X7426729Y-12705114D01*
X7426729Y-12705114D02*
X7436253Y-12686066D01*
X7512443Y-12619399D02*
X7521967Y-12609876D01*
X7521967Y-12609876D02*
X7541015Y-12600352D01*
X7541015Y-12600352D02*
X7588634Y-12600352D01*
X7588634Y-12600352D02*
X7607682Y-12609876D01*
X7607682Y-12609876D02*
X7617205Y-12619399D01*
X7617205Y-12619399D02*
X7626729Y-12638447D01*
X7626729Y-12638447D02*
X7626729Y-12657495D01*
X7626729Y-12657495D02*
X7617205Y-12686066D01*
X7617205Y-12686066D02*
X7502920Y-12800352D01*
X7502920Y-12800352D02*
X7626729Y-12800352D01*
X7750539Y-12600352D02*
X7769586Y-12600352D01*
X7769586Y-12600352D02*
X7788634Y-12609876D01*
X7788634Y-12609876D02*
X7798158Y-12619399D01*
X7798158Y-12619399D02*
X7807682Y-12638447D01*
X7807682Y-12638447D02*
X7817205Y-12676542D01*
X7817205Y-12676542D02*
X7817205Y-12724161D01*
X7817205Y-12724161D02*
X7807682Y-12762256D01*
X7807682Y-12762256D02*
X7798158Y-12781304D01*
X7798158Y-12781304D02*
X7788634Y-12790828D01*
X7788634Y-12790828D02*
X7769586Y-12800352D01*
X7769586Y-12800352D02*
X7750539Y-12800352D01*
X7750539Y-12800352D02*
X7731491Y-12790828D01*
X7731491Y-12790828D02*
X7721967Y-12781304D01*
X7721967Y-12781304D02*
X7712443Y-12762256D01*
X7712443Y-12762256D02*
X7702920Y-12724161D01*
X7702920Y-12724161D02*
X7702920Y-12676542D01*
X7702920Y-12676542D02*
X7712443Y-12638447D01*
X7712443Y-12638447D02*
X7721967Y-12619399D01*
X7721967Y-12619399D02*
X7731491Y-12609876D01*
X7731491Y-12609876D02*
X7750539Y-12600352D01*
X7902920Y-12800352D02*
X7902920Y-12667018D01*
X7902920Y-12686066D02*
X7912443Y-12676542D01*
X7912443Y-12676542D02*
X7931491Y-12667018D01*
X7931491Y-12667018D02*
X7960063Y-12667018D01*
X7960063Y-12667018D02*
X7979110Y-12676542D01*
X7979110Y-12676542D02*
X7988634Y-12695590D01*
X7988634Y-12695590D02*
X7988634Y-12800352D01*
X7988634Y-12695590D02*
X7998158Y-12676542D01*
X7998158Y-12676542D02*
X8017205Y-12667018D01*
X8017205Y-12667018D02*
X8045777Y-12667018D01*
X8045777Y-12667018D02*
X8064824Y-12676542D01*
X8064824Y-12676542D02*
X8074348Y-12695590D01*
X8074348Y-12695590D02*
X8074348Y-12800352D01*
X8169586Y-12800352D02*
X8169586Y-12667018D01*
X8169586Y-12686066D02*
X8179110Y-12676542D01*
X8179110Y-12676542D02*
X8198158Y-12667018D01*
X8198158Y-12667018D02*
X8226729Y-12667018D01*
X8226729Y-12667018D02*
X8245777Y-12676542D01*
X8245777Y-12676542D02*
X8255301Y-12695590D01*
X8255301Y-12695590D02*
X8255301Y-12800352D01*
X8255301Y-12695590D02*
X8264824Y-12676542D01*
X8264824Y-12676542D02*
X8283872Y-12667018D01*
X8283872Y-12667018D02*
X8312443Y-12667018D01*
X8312443Y-12667018D02*
X8331491Y-12676542D01*
X8331491Y-12676542D02*
X8341015Y-12695590D01*
X8341015Y-12695590D02*
X8341015Y-12800352D01*
X8731491Y-12590828D02*
X8560063Y-12847971D01*
X8988634Y-12600352D02*
X9007682Y-12600352D01*
X9007682Y-12600352D02*
X9026729Y-12609876D01*
X9026729Y-12609876D02*
X9036253Y-12619399D01*
X9036253Y-12619399D02*
X9045777Y-12638447D01*
X9045777Y-12638447D02*
X9055301Y-12676542D01*
X9055301Y-12676542D02*
X9055301Y-12724161D01*
X9055301Y-12724161D02*
X9045777Y-12762256D01*
X9045777Y-12762256D02*
X9036253Y-12781304D01*
X9036253Y-12781304D02*
X9026729Y-12790828D01*
X9026729Y-12790828D02*
X9007682Y-12800352D01*
X9007682Y-12800352D02*
X8988634Y-12800352D01*
X8988634Y-12800352D02*
X8969587Y-12790828D01*
X8969587Y-12790828D02*
X8960063Y-12781304D01*
X8960063Y-12781304D02*
X8950539Y-12762256D01*
X8950539Y-12762256D02*
X8941015Y-12724161D01*
X8941015Y-12724161D02*
X8941015Y-12676542D01*
X8941015Y-12676542D02*
X8950539Y-12638447D01*
X8950539Y-12638447D02*
X8960063Y-12619399D01*
X8960063Y-12619399D02*
X8969587Y-12609876D01*
X8969587Y-12609876D02*
X8988634Y-12600352D01*
X9141015Y-12781304D02*
X9150539Y-12790828D01*
X9150539Y-12790828D02*
X9141015Y-12800352D01*
X9141015Y-12800352D02*
X9131491Y-12790828D01*
X9131491Y-12790828D02*
X9141015Y-12781304D01*
X9141015Y-12781304D02*
X9141015Y-12800352D01*
X9274348Y-12600352D02*
X9293396Y-12600352D01*
X9293396Y-12600352D02*
X9312444Y-12609876D01*
X9312444Y-12609876D02*
X9321968Y-12619399D01*
X9321968Y-12619399D02*
X9331491Y-12638447D01*
X9331491Y-12638447D02*
X9341015Y-12676542D01*
X9341015Y-12676542D02*
X9341015Y-12724161D01*
X9341015Y-12724161D02*
X9331491Y-12762256D01*
X9331491Y-12762256D02*
X9321968Y-12781304D01*
X9321968Y-12781304D02*
X9312444Y-12790828D01*
X9312444Y-12790828D02*
X9293396Y-12800352D01*
X9293396Y-12800352D02*
X9274348Y-12800352D01*
X9274348Y-12800352D02*
X9255301Y-12790828D01*
X9255301Y-12790828D02*
X9245777Y-12781304D01*
X9245777Y-12781304D02*
X9236253Y-12762256D01*
X9236253Y-12762256D02*
X9226729Y-12724161D01*
X9226729Y-12724161D02*
X9226729Y-12676542D01*
X9226729Y-12676542D02*
X9236253Y-12638447D01*
X9236253Y-12638447D02*
X9245777Y-12619399D01*
X9245777Y-12619399D02*
X9255301Y-12609876D01*
X9255301Y-12609876D02*
X9274348Y-12600352D01*
X9407682Y-12600352D02*
X9531491Y-12600352D01*
X9531491Y-12600352D02*
X9464825Y-12676542D01*
X9464825Y-12676542D02*
X9493396Y-12676542D01*
X9493396Y-12676542D02*
X9512444Y-12686066D01*
X9512444Y-12686066D02*
X9521968Y-12695590D01*
X9521968Y-12695590D02*
X9531491Y-12714637D01*
X9531491Y-12714637D02*
X9531491Y-12762256D01*
X9531491Y-12762256D02*
X9521968Y-12781304D01*
X9521968Y-12781304D02*
X9512444Y-12790828D01*
X9512444Y-12790828D02*
X9493396Y-12800352D01*
X9493396Y-12800352D02*
X9436253Y-12800352D01*
X9436253Y-12800352D02*
X9417206Y-12790828D01*
X9417206Y-12790828D02*
X9407682Y-12781304D01*
X9702920Y-12600352D02*
X9664825Y-12600352D01*
X9664825Y-12600352D02*
X9645777Y-12609876D01*
X9645777Y-12609876D02*
X9636253Y-12619399D01*
X9636253Y-12619399D02*
X9617206Y-12647971D01*
X9617206Y-12647971D02*
X9607682Y-12686066D01*
X9607682Y-12686066D02*
X9607682Y-12762256D01*
X9607682Y-12762256D02*
X9617206Y-12781304D01*
X9617206Y-12781304D02*
X9626729Y-12790828D01*
X9626729Y-12790828D02*
X9645777Y-12800352D01*
X9645777Y-12800352D02*
X9683872Y-12800352D01*
X9683872Y-12800352D02*
X9702920Y-12790828D01*
X9702920Y-12790828D02*
X9712444Y-12781304D01*
X9712444Y-12781304D02*
X9721968Y-12762256D01*
X9721968Y-12762256D02*
X9721968Y-12714637D01*
X9721968Y-12714637D02*
X9712444Y-12695590D01*
X9712444Y-12695590D02*
X9702920Y-12686066D01*
X9702920Y-12686066D02*
X9683872Y-12676542D01*
X9683872Y-12676542D02*
X9645777Y-12676542D01*
X9645777Y-12676542D02*
X9626729Y-12686066D01*
X9626729Y-12686066D02*
X9617206Y-12695590D01*
X9617206Y-12695590D02*
X9607682Y-12714637D01*
X9798158Y-12619399D02*
X9807682Y-12609876D01*
X9807682Y-12609876D02*
X9826729Y-12600352D01*
X9826729Y-12600352D02*
X9874349Y-12600352D01*
X9874349Y-12600352D02*
X9893396Y-12609876D01*
X9893396Y-12609876D02*
X9902920Y-12619399D01*
X9902920Y-12619399D02*
X9912444Y-12638447D01*
X9912444Y-12638447D02*
X9912444Y-12657495D01*
X9912444Y-12657495D02*
X9902920Y-12686066D01*
X9902920Y-12686066D02*
X9788634Y-12800352D01*
X9788634Y-12800352D02*
X9912444Y-12800352D01*
X9988634Y-12600352D02*
X9988634Y-12638447D01*
X10064825Y-12600352D02*
X10064825Y-12638447D01*
X10360063Y-12876542D02*
X10350539Y-12867018D01*
X10350539Y-12867018D02*
X10331491Y-12838447D01*
X10331491Y-12838447D02*
X10321968Y-12819399D01*
X10321968Y-12819399D02*
X10312444Y-12790828D01*
X10312444Y-12790828D02*
X10302920Y-12743209D01*
X10302920Y-12743209D02*
X10302920Y-12705114D01*
X10302920Y-12705114D02*
X10312444Y-12657495D01*
X10312444Y-12657495D02*
X10321968Y-12628923D01*
X10321968Y-12628923D02*
X10331491Y-12609876D01*
X10331491Y-12609876D02*
X10350539Y-12581304D01*
X10350539Y-12581304D02*
X10360063Y-12571780D01*
X10521968Y-12667018D02*
X10521968Y-12800352D01*
X10474349Y-12590828D02*
X10426730Y-12733685D01*
X10426730Y-12733685D02*
X10550539Y-12733685D01*
X10779111Y-12800352D02*
X10779111Y-12600352D01*
X10864825Y-12800352D02*
X10864825Y-12695590D01*
X10864825Y-12695590D02*
X10855301Y-12676542D01*
X10855301Y-12676542D02*
X10836253Y-12667018D01*
X10836253Y-12667018D02*
X10807682Y-12667018D01*
X10807682Y-12667018D02*
X10788634Y-12676542D01*
X10788634Y-12676542D02*
X10779111Y-12686066D01*
X10988634Y-12800352D02*
X10969587Y-12790828D01*
X10969587Y-12790828D02*
X10960063Y-12781304D01*
X10960063Y-12781304D02*
X10950539Y-12762256D01*
X10950539Y-12762256D02*
X10950539Y-12705114D01*
X10950539Y-12705114D02*
X10960063Y-12686066D01*
X10960063Y-12686066D02*
X10969587Y-12676542D01*
X10969587Y-12676542D02*
X10988634Y-12667018D01*
X10988634Y-12667018D02*
X11017206Y-12667018D01*
X11017206Y-12667018D02*
X11036253Y-12676542D01*
X11036253Y-12676542D02*
X11045777Y-12686066D01*
X11045777Y-12686066D02*
X11055301Y-12705114D01*
X11055301Y-12705114D02*
X11055301Y-12762256D01*
X11055301Y-12762256D02*
X11045777Y-12781304D01*
X11045777Y-12781304D02*
X11036253Y-12790828D01*
X11036253Y-12790828D02*
X11017206Y-12800352D01*
X11017206Y-12800352D02*
X10988634Y-12800352D01*
X11169587Y-12800352D02*
X11150539Y-12790828D01*
X11150539Y-12790828D02*
X11141015Y-12771780D01*
X11141015Y-12771780D02*
X11141015Y-12600352D01*
X11321968Y-12790828D02*
X11302920Y-12800352D01*
X11302920Y-12800352D02*
X11264825Y-12800352D01*
X11264825Y-12800352D02*
X11245777Y-12790828D01*
X11245777Y-12790828D02*
X11236253Y-12771780D01*
X11236253Y-12771780D02*
X11236253Y-12695590D01*
X11236253Y-12695590D02*
X11245777Y-12676542D01*
X11245777Y-12676542D02*
X11264825Y-12667018D01*
X11264825Y-12667018D02*
X11302920Y-12667018D01*
X11302920Y-12667018D02*
X11321968Y-12676542D01*
X11321968Y-12676542D02*
X11331491Y-12695590D01*
X11331491Y-12695590D02*
X11331491Y-12714637D01*
X11331491Y-12714637D02*
X11236253Y-12733685D01*
X11407682Y-12790828D02*
X11426730Y-12800352D01*
X11426730Y-12800352D02*
X11464825Y-12800352D01*
X11464825Y-12800352D02*
X11483872Y-12790828D01*
X11483872Y-12790828D02*
X11493396Y-12771780D01*
X11493396Y-12771780D02*
X11493396Y-12762256D01*
X11493396Y-12762256D02*
X11483872Y-12743209D01*
X11483872Y-12743209D02*
X11464825Y-12733685D01*
X11464825Y-12733685D02*
X11436253Y-12733685D01*
X11436253Y-12733685D02*
X11417206Y-12724161D01*
X11417206Y-12724161D02*
X11407682Y-12705114D01*
X11407682Y-12705114D02*
X11407682Y-12695590D01*
X11407682Y-12695590D02*
X11417206Y-12676542D01*
X11417206Y-12676542D02*
X11436253Y-12667018D01*
X11436253Y-12667018D02*
X11464825Y-12667018D01*
X11464825Y-12667018D02*
X11483872Y-12676542D01*
X11560063Y-12876542D02*
X11569587Y-12867018D01*
X11569587Y-12867018D02*
X11588634Y-12838447D01*
X11588634Y-12838447D02*
X11598158Y-12819399D01*
X11598158Y-12819399D02*
X11607682Y-12790828D01*
X11607682Y-12790828D02*
X11617206Y-12743209D01*
X11617206Y-12743209D02*
X11617206Y-12705114D01*
X11617206Y-12705114D02*
X11607682Y-12657495D01*
X11607682Y-12657495D02*
X11598158Y-12628923D01*
X11598158Y-12628923D02*
X11588634Y-12609876D01*
X11588634Y-12609876D02*
X11569587Y-12581304D01*
X11569587Y-12581304D02*
X11560063Y-12571780D01*
D12*
X6650000Y-12905368D02*
X6785000Y-13040368D01*
X6785000Y-12905368D02*
X6650000Y-13040368D01*
X6785000Y-12972868D02*
G75*
G02*
X6650000Y-12972868I-67500J0D01*
G01*
X6650000Y-12972868D02*
G75*
G02*
X6785000Y-12972868I67500J0D01*
G01*
D11*
X7150539Y-13064352D02*
X7036253Y-13064352D01*
X7093396Y-13064352D02*
X7093396Y-12864352D01*
X7093396Y-12864352D02*
X7074348Y-12892923D01*
X7074348Y-12892923D02*
X7055301Y-12911971D01*
X7055301Y-12911971D02*
X7036253Y-12921495D01*
X7236253Y-13045304D02*
X7245777Y-13054828D01*
X7245777Y-13054828D02*
X7236253Y-13064352D01*
X7236253Y-13064352D02*
X7226729Y-13054828D01*
X7226729Y-13054828D02*
X7236253Y-13045304D01*
X7236253Y-13045304D02*
X7236253Y-13064352D01*
X7312443Y-12864352D02*
X7436253Y-12864352D01*
X7436253Y-12864352D02*
X7369586Y-12940542D01*
X7369586Y-12940542D02*
X7398158Y-12940542D01*
X7398158Y-12940542D02*
X7417205Y-12950066D01*
X7417205Y-12950066D02*
X7426729Y-12959590D01*
X7426729Y-12959590D02*
X7436253Y-12978637D01*
X7436253Y-12978637D02*
X7436253Y-13026256D01*
X7436253Y-13026256D02*
X7426729Y-13045304D01*
X7426729Y-13045304D02*
X7417205Y-13054828D01*
X7417205Y-13054828D02*
X7398158Y-13064352D01*
X7398158Y-13064352D02*
X7341015Y-13064352D01*
X7341015Y-13064352D02*
X7321967Y-13054828D01*
X7321967Y-13054828D02*
X7312443Y-13045304D01*
X7617205Y-12864352D02*
X7521967Y-12864352D01*
X7521967Y-12864352D02*
X7512443Y-12959590D01*
X7512443Y-12959590D02*
X7521967Y-12950066D01*
X7521967Y-12950066D02*
X7541015Y-12940542D01*
X7541015Y-12940542D02*
X7588634Y-12940542D01*
X7588634Y-12940542D02*
X7607682Y-12950066D01*
X7607682Y-12950066D02*
X7617205Y-12959590D01*
X7617205Y-12959590D02*
X7626729Y-12978637D01*
X7626729Y-12978637D02*
X7626729Y-13026256D01*
X7626729Y-13026256D02*
X7617205Y-13045304D01*
X7617205Y-13045304D02*
X7607682Y-13054828D01*
X7607682Y-13054828D02*
X7588634Y-13064352D01*
X7588634Y-13064352D02*
X7541015Y-13064352D01*
X7541015Y-13064352D02*
X7521967Y-13054828D01*
X7521967Y-13054828D02*
X7512443Y-13045304D01*
X7750539Y-12864352D02*
X7769586Y-12864352D01*
X7769586Y-12864352D02*
X7788634Y-12873876D01*
X7788634Y-12873876D02*
X7798158Y-12883399D01*
X7798158Y-12883399D02*
X7807682Y-12902447D01*
X7807682Y-12902447D02*
X7817205Y-12940542D01*
X7817205Y-12940542D02*
X7817205Y-12988161D01*
X7817205Y-12988161D02*
X7807682Y-13026256D01*
X7807682Y-13026256D02*
X7798158Y-13045304D01*
X7798158Y-13045304D02*
X7788634Y-13054828D01*
X7788634Y-13054828D02*
X7769586Y-13064352D01*
X7769586Y-13064352D02*
X7750539Y-13064352D01*
X7750539Y-13064352D02*
X7731491Y-13054828D01*
X7731491Y-13054828D02*
X7721967Y-13045304D01*
X7721967Y-13045304D02*
X7712443Y-13026256D01*
X7712443Y-13026256D02*
X7702920Y-12988161D01*
X7702920Y-12988161D02*
X7702920Y-12940542D01*
X7702920Y-12940542D02*
X7712443Y-12902447D01*
X7712443Y-12902447D02*
X7721967Y-12883399D01*
X7721967Y-12883399D02*
X7731491Y-12873876D01*
X7731491Y-12873876D02*
X7750539Y-12864352D01*
X7902920Y-13064352D02*
X7902920Y-12931018D01*
X7902920Y-12950066D02*
X7912443Y-12940542D01*
X7912443Y-12940542D02*
X7931491Y-12931018D01*
X7931491Y-12931018D02*
X7960063Y-12931018D01*
X7960063Y-12931018D02*
X7979110Y-12940542D01*
X7979110Y-12940542D02*
X7988634Y-12959590D01*
X7988634Y-12959590D02*
X7988634Y-13064352D01*
X7988634Y-12959590D02*
X7998158Y-12940542D01*
X7998158Y-12940542D02*
X8017205Y-12931018D01*
X8017205Y-12931018D02*
X8045777Y-12931018D01*
X8045777Y-12931018D02*
X8064824Y-12940542D01*
X8064824Y-12940542D02*
X8074348Y-12959590D01*
X8074348Y-12959590D02*
X8074348Y-13064352D01*
X8169586Y-13064352D02*
X8169586Y-12931018D01*
X8169586Y-12950066D02*
X8179110Y-12940542D01*
X8179110Y-12940542D02*
X8198158Y-12931018D01*
X8198158Y-12931018D02*
X8226729Y-12931018D01*
X8226729Y-12931018D02*
X8245777Y-12940542D01*
X8245777Y-12940542D02*
X8255301Y-12959590D01*
X8255301Y-12959590D02*
X8255301Y-13064352D01*
X8255301Y-12959590D02*
X8264824Y-12940542D01*
X8264824Y-12940542D02*
X8283872Y-12931018D01*
X8283872Y-12931018D02*
X8312443Y-12931018D01*
X8312443Y-12931018D02*
X8331491Y-12940542D01*
X8331491Y-12940542D02*
X8341015Y-12959590D01*
X8341015Y-12959590D02*
X8341015Y-13064352D01*
X8731491Y-12854828D02*
X8560063Y-13111971D01*
X8988634Y-12864352D02*
X9007682Y-12864352D01*
X9007682Y-12864352D02*
X9026729Y-12873876D01*
X9026729Y-12873876D02*
X9036253Y-12883399D01*
X9036253Y-12883399D02*
X9045777Y-12902447D01*
X9045777Y-12902447D02*
X9055301Y-12940542D01*
X9055301Y-12940542D02*
X9055301Y-12988161D01*
X9055301Y-12988161D02*
X9045777Y-13026256D01*
X9045777Y-13026256D02*
X9036253Y-13045304D01*
X9036253Y-13045304D02*
X9026729Y-13054828D01*
X9026729Y-13054828D02*
X9007682Y-13064352D01*
X9007682Y-13064352D02*
X8988634Y-13064352D01*
X8988634Y-13064352D02*
X8969587Y-13054828D01*
X8969587Y-13054828D02*
X8960063Y-13045304D01*
X8960063Y-13045304D02*
X8950539Y-13026256D01*
X8950539Y-13026256D02*
X8941015Y-12988161D01*
X8941015Y-12988161D02*
X8941015Y-12940542D01*
X8941015Y-12940542D02*
X8950539Y-12902447D01*
X8950539Y-12902447D02*
X8960063Y-12883399D01*
X8960063Y-12883399D02*
X8969587Y-12873876D01*
X8969587Y-12873876D02*
X8988634Y-12864352D01*
X9141015Y-13045304D02*
X9150539Y-13054828D01*
X9150539Y-13054828D02*
X9141015Y-13064352D01*
X9141015Y-13064352D02*
X9131491Y-13054828D01*
X9131491Y-13054828D02*
X9141015Y-13045304D01*
X9141015Y-13045304D02*
X9141015Y-13064352D01*
X9274348Y-12864352D02*
X9293396Y-12864352D01*
X9293396Y-12864352D02*
X9312444Y-12873876D01*
X9312444Y-12873876D02*
X9321968Y-12883399D01*
X9321968Y-12883399D02*
X9331491Y-12902447D01*
X9331491Y-12902447D02*
X9341015Y-12940542D01*
X9341015Y-12940542D02*
X9341015Y-12988161D01*
X9341015Y-12988161D02*
X9331491Y-13026256D01*
X9331491Y-13026256D02*
X9321968Y-13045304D01*
X9321968Y-13045304D02*
X9312444Y-13054828D01*
X9312444Y-13054828D02*
X9293396Y-13064352D01*
X9293396Y-13064352D02*
X9274348Y-13064352D01*
X9274348Y-13064352D02*
X9255301Y-13054828D01*
X9255301Y-13054828D02*
X9245777Y-13045304D01*
X9245777Y-13045304D02*
X9236253Y-13026256D01*
X9236253Y-13026256D02*
X9226729Y-12988161D01*
X9226729Y-12988161D02*
X9226729Y-12940542D01*
X9226729Y-12940542D02*
X9236253Y-12902447D01*
X9236253Y-12902447D02*
X9245777Y-12883399D01*
X9245777Y-12883399D02*
X9255301Y-12873876D01*
X9255301Y-12873876D02*
X9274348Y-12864352D01*
X9521968Y-12864352D02*
X9426729Y-12864352D01*
X9426729Y-12864352D02*
X9417206Y-12959590D01*
X9417206Y-12959590D02*
X9426729Y-12950066D01*
X9426729Y-12950066D02*
X9445777Y-12940542D01*
X9445777Y-12940542D02*
X9493396Y-12940542D01*
X9493396Y-12940542D02*
X9512444Y-12950066D01*
X9512444Y-12950066D02*
X9521968Y-12959590D01*
X9521968Y-12959590D02*
X9531491Y-12978637D01*
X9531491Y-12978637D02*
X9531491Y-13026256D01*
X9531491Y-13026256D02*
X9521968Y-13045304D01*
X9521968Y-13045304D02*
X9512444Y-13054828D01*
X9512444Y-13054828D02*
X9493396Y-13064352D01*
X9493396Y-13064352D02*
X9445777Y-13064352D01*
X9445777Y-13064352D02*
X9426729Y-13054828D01*
X9426729Y-13054828D02*
X9417206Y-13045304D01*
X9598158Y-12864352D02*
X9721968Y-12864352D01*
X9721968Y-12864352D02*
X9655301Y-12940542D01*
X9655301Y-12940542D02*
X9683872Y-12940542D01*
X9683872Y-12940542D02*
X9702920Y-12950066D01*
X9702920Y-12950066D02*
X9712444Y-12959590D01*
X9712444Y-12959590D02*
X9721968Y-12978637D01*
X9721968Y-12978637D02*
X9721968Y-13026256D01*
X9721968Y-13026256D02*
X9712444Y-13045304D01*
X9712444Y-13045304D02*
X9702920Y-13054828D01*
X9702920Y-13054828D02*
X9683872Y-13064352D01*
X9683872Y-13064352D02*
X9626729Y-13064352D01*
X9626729Y-13064352D02*
X9607682Y-13054828D01*
X9607682Y-13054828D02*
X9598158Y-13045304D01*
X9912444Y-13064352D02*
X9798158Y-13064352D01*
X9855301Y-13064352D02*
X9855301Y-12864352D01*
X9855301Y-12864352D02*
X9836253Y-12892923D01*
X9836253Y-12892923D02*
X9817206Y-12911971D01*
X9817206Y-12911971D02*
X9798158Y-12921495D01*
X9988634Y-12864352D02*
X9988634Y-12902447D01*
X10064825Y-12864352D02*
X10064825Y-12902447D01*
X10360063Y-13140542D02*
X10350539Y-13131018D01*
X10350539Y-13131018D02*
X10331491Y-13102447D01*
X10331491Y-13102447D02*
X10321968Y-13083399D01*
X10321968Y-13083399D02*
X10312444Y-13054828D01*
X10312444Y-13054828D02*
X10302920Y-13007209D01*
X10302920Y-13007209D02*
X10302920Y-12969114D01*
X10302920Y-12969114D02*
X10312444Y-12921495D01*
X10312444Y-12921495D02*
X10321968Y-12892923D01*
X10321968Y-12892923D02*
X10331491Y-12873876D01*
X10331491Y-12873876D02*
X10350539Y-12845304D01*
X10350539Y-12845304D02*
X10360063Y-12835780D01*
X10521968Y-12931018D02*
X10521968Y-13064352D01*
X10474349Y-12854828D02*
X10426730Y-12997685D01*
X10426730Y-12997685D02*
X10550539Y-12997685D01*
X10779111Y-13064352D02*
X10779111Y-12864352D01*
X10864825Y-13064352D02*
X10864825Y-12959590D01*
X10864825Y-12959590D02*
X10855301Y-12940542D01*
X10855301Y-12940542D02*
X10836253Y-12931018D01*
X10836253Y-12931018D02*
X10807682Y-12931018D01*
X10807682Y-12931018D02*
X10788634Y-12940542D01*
X10788634Y-12940542D02*
X10779111Y-12950066D01*
X10988634Y-13064352D02*
X10969587Y-13054828D01*
X10969587Y-13054828D02*
X10960063Y-13045304D01*
X10960063Y-13045304D02*
X10950539Y-13026256D01*
X10950539Y-13026256D02*
X10950539Y-12969114D01*
X10950539Y-12969114D02*
X10960063Y-12950066D01*
X10960063Y-12950066D02*
X10969587Y-12940542D01*
X10969587Y-12940542D02*
X10988634Y-12931018D01*
X10988634Y-12931018D02*
X11017206Y-12931018D01*
X11017206Y-12931018D02*
X11036253Y-12940542D01*
X11036253Y-12940542D02*
X11045777Y-12950066D01*
X11045777Y-12950066D02*
X11055301Y-12969114D01*
X11055301Y-12969114D02*
X11055301Y-13026256D01*
X11055301Y-13026256D02*
X11045777Y-13045304D01*
X11045777Y-13045304D02*
X11036253Y-13054828D01*
X11036253Y-13054828D02*
X11017206Y-13064352D01*
X11017206Y-13064352D02*
X10988634Y-13064352D01*
X11169587Y-13064352D02*
X11150539Y-13054828D01*
X11150539Y-13054828D02*
X11141015Y-13035780D01*
X11141015Y-13035780D02*
X11141015Y-12864352D01*
X11321968Y-13054828D02*
X11302920Y-13064352D01*
X11302920Y-13064352D02*
X11264825Y-13064352D01*
X11264825Y-13064352D02*
X11245777Y-13054828D01*
X11245777Y-13054828D02*
X11236253Y-13035780D01*
X11236253Y-13035780D02*
X11236253Y-12959590D01*
X11236253Y-12959590D02*
X11245777Y-12940542D01*
X11245777Y-12940542D02*
X11264825Y-12931018D01*
X11264825Y-12931018D02*
X11302920Y-12931018D01*
X11302920Y-12931018D02*
X11321968Y-12940542D01*
X11321968Y-12940542D02*
X11331491Y-12959590D01*
X11331491Y-12959590D02*
X11331491Y-12978637D01*
X11331491Y-12978637D02*
X11236253Y-12997685D01*
X11407682Y-13054828D02*
X11426730Y-13064352D01*
X11426730Y-13064352D02*
X11464825Y-13064352D01*
X11464825Y-13064352D02*
X11483872Y-13054828D01*
X11483872Y-13054828D02*
X11493396Y-13035780D01*
X11493396Y-13035780D02*
X11493396Y-13026256D01*
X11493396Y-13026256D02*
X11483872Y-13007209D01*
X11483872Y-13007209D02*
X11464825Y-12997685D01*
X11464825Y-12997685D02*
X11436253Y-12997685D01*
X11436253Y-12997685D02*
X11417206Y-12988161D01*
X11417206Y-12988161D02*
X11407682Y-12969114D01*
X11407682Y-12969114D02*
X11407682Y-12959590D01*
X11407682Y-12959590D02*
X11417206Y-12940542D01*
X11417206Y-12940542D02*
X11436253Y-12931018D01*
X11436253Y-12931018D02*
X11464825Y-12931018D01*
X11464825Y-12931018D02*
X11483872Y-12940542D01*
X11560063Y-13140542D02*
X11569587Y-13131018D01*
X11569587Y-13131018D02*
X11588634Y-13102447D01*
X11588634Y-13102447D02*
X11598158Y-13083399D01*
X11598158Y-13083399D02*
X11607682Y-13054828D01*
X11607682Y-13054828D02*
X11617206Y-13007209D01*
X11617206Y-13007209D02*
X11617206Y-12969114D01*
X11617206Y-12969114D02*
X11607682Y-12921495D01*
X11607682Y-12921495D02*
X11598158Y-12892923D01*
X11598158Y-12892923D02*
X11588634Y-12873876D01*
X11588634Y-12873876D02*
X11569587Y-12845304D01*
X11569587Y-12845304D02*
X11560063Y-12835780D01*
D13*
X6627520Y-13158128D02*
X6785000Y-13315608D01*
X6785000Y-13158128D02*
X6627520Y-13315608D01*
X6706260Y-13158128D02*
X6706260Y-13315608D01*
X6627520Y-13236868D02*
X6785000Y-13236868D01*
D11*
X7150539Y-13328352D02*
X7036253Y-13328352D01*
X7093396Y-13328352D02*
X7093396Y-13128352D01*
X7093396Y-13128352D02*
X7074348Y-13156923D01*
X7074348Y-13156923D02*
X7055301Y-13175971D01*
X7055301Y-13175971D02*
X7036253Y-13185495D01*
X7236253Y-13309304D02*
X7245777Y-13318828D01*
X7245777Y-13318828D02*
X7236253Y-13328352D01*
X7236253Y-13328352D02*
X7226729Y-13318828D01*
X7226729Y-13318828D02*
X7236253Y-13309304D01*
X7236253Y-13309304D02*
X7236253Y-13328352D01*
X7426729Y-13128352D02*
X7331491Y-13128352D01*
X7331491Y-13128352D02*
X7321967Y-13223590D01*
X7321967Y-13223590D02*
X7331491Y-13214066D01*
X7331491Y-13214066D02*
X7350539Y-13204542D01*
X7350539Y-13204542D02*
X7398158Y-13204542D01*
X7398158Y-13204542D02*
X7417205Y-13214066D01*
X7417205Y-13214066D02*
X7426729Y-13223590D01*
X7426729Y-13223590D02*
X7436253Y-13242637D01*
X7436253Y-13242637D02*
X7436253Y-13290256D01*
X7436253Y-13290256D02*
X7426729Y-13309304D01*
X7426729Y-13309304D02*
X7417205Y-13318828D01*
X7417205Y-13318828D02*
X7398158Y-13328352D01*
X7398158Y-13328352D02*
X7350539Y-13328352D01*
X7350539Y-13328352D02*
X7331491Y-13318828D01*
X7331491Y-13318828D02*
X7321967Y-13309304D01*
X7502920Y-13128352D02*
X7636253Y-13128352D01*
X7636253Y-13128352D02*
X7550539Y-13328352D01*
X7807682Y-13128352D02*
X7712443Y-13128352D01*
X7712443Y-13128352D02*
X7702920Y-13223590D01*
X7702920Y-13223590D02*
X7712443Y-13214066D01*
X7712443Y-13214066D02*
X7731491Y-13204542D01*
X7731491Y-13204542D02*
X7779110Y-13204542D01*
X7779110Y-13204542D02*
X7798158Y-13214066D01*
X7798158Y-13214066D02*
X7807682Y-13223590D01*
X7807682Y-13223590D02*
X7817205Y-13242637D01*
X7817205Y-13242637D02*
X7817205Y-13290256D01*
X7817205Y-13290256D02*
X7807682Y-13309304D01*
X7807682Y-13309304D02*
X7798158Y-13318828D01*
X7798158Y-13318828D02*
X7779110Y-13328352D01*
X7779110Y-13328352D02*
X7731491Y-13328352D01*
X7731491Y-13328352D02*
X7712443Y-13318828D01*
X7712443Y-13318828D02*
X7702920Y-13309304D01*
X7902920Y-13328352D02*
X7902920Y-13195018D01*
X7902920Y-13214066D02*
X7912443Y-13204542D01*
X7912443Y-13204542D02*
X7931491Y-13195018D01*
X7931491Y-13195018D02*
X7960063Y-13195018D01*
X7960063Y-13195018D02*
X7979110Y-13204542D01*
X7979110Y-13204542D02*
X7988634Y-13223590D01*
X7988634Y-13223590D02*
X7988634Y-13328352D01*
X7988634Y-13223590D02*
X7998158Y-13204542D01*
X7998158Y-13204542D02*
X8017205Y-13195018D01*
X8017205Y-13195018D02*
X8045777Y-13195018D01*
X8045777Y-13195018D02*
X8064824Y-13204542D01*
X8064824Y-13204542D02*
X8074348Y-13223590D01*
X8074348Y-13223590D02*
X8074348Y-13328352D01*
X8169586Y-13328352D02*
X8169586Y-13195018D01*
X8169586Y-13214066D02*
X8179110Y-13204542D01*
X8179110Y-13204542D02*
X8198158Y-13195018D01*
X8198158Y-13195018D02*
X8226729Y-13195018D01*
X8226729Y-13195018D02*
X8245777Y-13204542D01*
X8245777Y-13204542D02*
X8255301Y-13223590D01*
X8255301Y-13223590D02*
X8255301Y-13328352D01*
X8255301Y-13223590D02*
X8264824Y-13204542D01*
X8264824Y-13204542D02*
X8283872Y-13195018D01*
X8283872Y-13195018D02*
X8312443Y-13195018D01*
X8312443Y-13195018D02*
X8331491Y-13204542D01*
X8331491Y-13204542D02*
X8341015Y-13223590D01*
X8341015Y-13223590D02*
X8341015Y-13328352D01*
X8731491Y-13118828D02*
X8560063Y-13375971D01*
X8988634Y-13128352D02*
X9007682Y-13128352D01*
X9007682Y-13128352D02*
X9026729Y-13137876D01*
X9026729Y-13137876D02*
X9036253Y-13147399D01*
X9036253Y-13147399D02*
X9045777Y-13166447D01*
X9045777Y-13166447D02*
X9055301Y-13204542D01*
X9055301Y-13204542D02*
X9055301Y-13252161D01*
X9055301Y-13252161D02*
X9045777Y-13290256D01*
X9045777Y-13290256D02*
X9036253Y-13309304D01*
X9036253Y-13309304D02*
X9026729Y-13318828D01*
X9026729Y-13318828D02*
X9007682Y-13328352D01*
X9007682Y-13328352D02*
X8988634Y-13328352D01*
X8988634Y-13328352D02*
X8969587Y-13318828D01*
X8969587Y-13318828D02*
X8960063Y-13309304D01*
X8960063Y-13309304D02*
X8950539Y-13290256D01*
X8950539Y-13290256D02*
X8941015Y-13252161D01*
X8941015Y-13252161D02*
X8941015Y-13204542D01*
X8941015Y-13204542D02*
X8950539Y-13166447D01*
X8950539Y-13166447D02*
X8960063Y-13147399D01*
X8960063Y-13147399D02*
X8969587Y-13137876D01*
X8969587Y-13137876D02*
X8988634Y-13128352D01*
X9141015Y-13309304D02*
X9150539Y-13318828D01*
X9150539Y-13318828D02*
X9141015Y-13328352D01*
X9141015Y-13328352D02*
X9131491Y-13318828D01*
X9131491Y-13318828D02*
X9141015Y-13309304D01*
X9141015Y-13309304D02*
X9141015Y-13328352D01*
X9274348Y-13128352D02*
X9293396Y-13128352D01*
X9293396Y-13128352D02*
X9312444Y-13137876D01*
X9312444Y-13137876D02*
X9321968Y-13147399D01*
X9321968Y-13147399D02*
X9331491Y-13166447D01*
X9331491Y-13166447D02*
X9341015Y-13204542D01*
X9341015Y-13204542D02*
X9341015Y-13252161D01*
X9341015Y-13252161D02*
X9331491Y-13290256D01*
X9331491Y-13290256D02*
X9321968Y-13309304D01*
X9321968Y-13309304D02*
X9312444Y-13318828D01*
X9312444Y-13318828D02*
X9293396Y-13328352D01*
X9293396Y-13328352D02*
X9274348Y-13328352D01*
X9274348Y-13328352D02*
X9255301Y-13318828D01*
X9255301Y-13318828D02*
X9245777Y-13309304D01*
X9245777Y-13309304D02*
X9236253Y-13290256D01*
X9236253Y-13290256D02*
X9226729Y-13252161D01*
X9226729Y-13252161D02*
X9226729Y-13204542D01*
X9226729Y-13204542D02*
X9236253Y-13166447D01*
X9236253Y-13166447D02*
X9245777Y-13147399D01*
X9245777Y-13147399D02*
X9255301Y-13137876D01*
X9255301Y-13137876D02*
X9274348Y-13128352D01*
X9512444Y-13128352D02*
X9474348Y-13128352D01*
X9474348Y-13128352D02*
X9455301Y-13137876D01*
X9455301Y-13137876D02*
X9445777Y-13147399D01*
X9445777Y-13147399D02*
X9426729Y-13175971D01*
X9426729Y-13175971D02*
X9417206Y-13214066D01*
X9417206Y-13214066D02*
X9417206Y-13290256D01*
X9417206Y-13290256D02*
X9426729Y-13309304D01*
X9426729Y-13309304D02*
X9436253Y-13318828D01*
X9436253Y-13318828D02*
X9455301Y-13328352D01*
X9455301Y-13328352D02*
X9493396Y-13328352D01*
X9493396Y-13328352D02*
X9512444Y-13318828D01*
X9512444Y-13318828D02*
X9521968Y-13309304D01*
X9521968Y-13309304D02*
X9531491Y-13290256D01*
X9531491Y-13290256D02*
X9531491Y-13242637D01*
X9531491Y-13242637D02*
X9521968Y-13223590D01*
X9521968Y-13223590D02*
X9512444Y-13214066D01*
X9512444Y-13214066D02*
X9493396Y-13204542D01*
X9493396Y-13204542D02*
X9455301Y-13204542D01*
X9455301Y-13204542D02*
X9436253Y-13214066D01*
X9436253Y-13214066D02*
X9426729Y-13223590D01*
X9426729Y-13223590D02*
X9417206Y-13242637D01*
X9607682Y-13147399D02*
X9617206Y-13137876D01*
X9617206Y-13137876D02*
X9636253Y-13128352D01*
X9636253Y-13128352D02*
X9683872Y-13128352D01*
X9683872Y-13128352D02*
X9702920Y-13137876D01*
X9702920Y-13137876D02*
X9712444Y-13147399D01*
X9712444Y-13147399D02*
X9721968Y-13166447D01*
X9721968Y-13166447D02*
X9721968Y-13185495D01*
X9721968Y-13185495D02*
X9712444Y-13214066D01*
X9712444Y-13214066D02*
X9598158Y-13328352D01*
X9598158Y-13328352D02*
X9721968Y-13328352D01*
X9845777Y-13128352D02*
X9864825Y-13128352D01*
X9864825Y-13128352D02*
X9883872Y-13137876D01*
X9883872Y-13137876D02*
X9893396Y-13147399D01*
X9893396Y-13147399D02*
X9902920Y-13166447D01*
X9902920Y-13166447D02*
X9912444Y-13204542D01*
X9912444Y-13204542D02*
X9912444Y-13252161D01*
X9912444Y-13252161D02*
X9902920Y-13290256D01*
X9902920Y-13290256D02*
X9893396Y-13309304D01*
X9893396Y-13309304D02*
X9883872Y-13318828D01*
X9883872Y-13318828D02*
X9864825Y-13328352D01*
X9864825Y-13328352D02*
X9845777Y-13328352D01*
X9845777Y-13328352D02*
X9826729Y-13318828D01*
X9826729Y-13318828D02*
X9817206Y-13309304D01*
X9817206Y-13309304D02*
X9807682Y-13290256D01*
X9807682Y-13290256D02*
X9798158Y-13252161D01*
X9798158Y-13252161D02*
X9798158Y-13204542D01*
X9798158Y-13204542D02*
X9807682Y-13166447D01*
X9807682Y-13166447D02*
X9817206Y-13147399D01*
X9817206Y-13147399D02*
X9826729Y-13137876D01*
X9826729Y-13137876D02*
X9845777Y-13128352D01*
X9988634Y-13128352D02*
X9988634Y-13166447D01*
X10064825Y-13128352D02*
X10064825Y-13166447D01*
X10360063Y-13404542D02*
X10350539Y-13395018D01*
X10350539Y-13395018D02*
X10331491Y-13366447D01*
X10331491Y-13366447D02*
X10321968Y-13347399D01*
X10321968Y-13347399D02*
X10312444Y-13318828D01*
X10312444Y-13318828D02*
X10302920Y-13271209D01*
X10302920Y-13271209D02*
X10302920Y-13233114D01*
X10302920Y-13233114D02*
X10312444Y-13185495D01*
X10312444Y-13185495D02*
X10321968Y-13156923D01*
X10321968Y-13156923D02*
X10331491Y-13137876D01*
X10331491Y-13137876D02*
X10350539Y-13109304D01*
X10350539Y-13109304D02*
X10360063Y-13099780D01*
X10426730Y-13147399D02*
X10436253Y-13137876D01*
X10436253Y-13137876D02*
X10455301Y-13128352D01*
X10455301Y-13128352D02*
X10502920Y-13128352D01*
X10502920Y-13128352D02*
X10521968Y-13137876D01*
X10521968Y-13137876D02*
X10531491Y-13147399D01*
X10531491Y-13147399D02*
X10541015Y-13166447D01*
X10541015Y-13166447D02*
X10541015Y-13185495D01*
X10541015Y-13185495D02*
X10531491Y-13214066D01*
X10531491Y-13214066D02*
X10417206Y-13328352D01*
X10417206Y-13328352D02*
X10541015Y-13328352D01*
X10779111Y-13328352D02*
X10779111Y-13128352D01*
X10864825Y-13328352D02*
X10864825Y-13223590D01*
X10864825Y-13223590D02*
X10855301Y-13204542D01*
X10855301Y-13204542D02*
X10836253Y-13195018D01*
X10836253Y-13195018D02*
X10807682Y-13195018D01*
X10807682Y-13195018D02*
X10788634Y-13204542D01*
X10788634Y-13204542D02*
X10779111Y-13214066D01*
X10988634Y-13328352D02*
X10969587Y-13318828D01*
X10969587Y-13318828D02*
X10960063Y-13309304D01*
X10960063Y-13309304D02*
X10950539Y-13290256D01*
X10950539Y-13290256D02*
X10950539Y-13233114D01*
X10950539Y-13233114D02*
X10960063Y-13214066D01*
X10960063Y-13214066D02*
X10969587Y-13204542D01*
X10969587Y-13204542D02*
X10988634Y-13195018D01*
X10988634Y-13195018D02*
X11017206Y-13195018D01*
X11017206Y-13195018D02*
X11036253Y-13204542D01*
X11036253Y-13204542D02*
X11045777Y-13214066D01*
X11045777Y-13214066D02*
X11055301Y-13233114D01*
X11055301Y-13233114D02*
X11055301Y-13290256D01*
X11055301Y-13290256D02*
X11045777Y-13309304D01*
X11045777Y-13309304D02*
X11036253Y-13318828D01*
X11036253Y-13318828D02*
X11017206Y-13328352D01*
X11017206Y-13328352D02*
X10988634Y-13328352D01*
X11169587Y-13328352D02*
X11150539Y-13318828D01*
X11150539Y-13318828D02*
X11141015Y-13299780D01*
X11141015Y-13299780D02*
X11141015Y-13128352D01*
X11321968Y-13318828D02*
X11302920Y-13328352D01*
X11302920Y-13328352D02*
X11264825Y-13328352D01*
X11264825Y-13328352D02*
X11245777Y-13318828D01*
X11245777Y-13318828D02*
X11236253Y-13299780D01*
X11236253Y-13299780D02*
X11236253Y-13223590D01*
X11236253Y-13223590D02*
X11245777Y-13204542D01*
X11245777Y-13204542D02*
X11264825Y-13195018D01*
X11264825Y-13195018D02*
X11302920Y-13195018D01*
X11302920Y-13195018D02*
X11321968Y-13204542D01*
X11321968Y-13204542D02*
X11331491Y-13223590D01*
X11331491Y-13223590D02*
X11331491Y-13242637D01*
X11331491Y-13242637D02*
X11236253Y-13261685D01*
X11407682Y-13318828D02*
X11426730Y-13328352D01*
X11426730Y-13328352D02*
X11464825Y-13328352D01*
X11464825Y-13328352D02*
X11483872Y-13318828D01*
X11483872Y-13318828D02*
X11493396Y-13299780D01*
X11493396Y-13299780D02*
X11493396Y-13290256D01*
X11493396Y-13290256D02*
X11483872Y-13271209D01*
X11483872Y-13271209D02*
X11464825Y-13261685D01*
X11464825Y-13261685D02*
X11436253Y-13261685D01*
X11436253Y-13261685D02*
X11417206Y-13252161D01*
X11417206Y-13252161D02*
X11407682Y-13233114D01*
X11407682Y-13233114D02*
X11407682Y-13223590D01*
X11407682Y-13223590D02*
X11417206Y-13204542D01*
X11417206Y-13204542D02*
X11436253Y-13195018D01*
X11436253Y-13195018D02*
X11464825Y-13195018D01*
X11464825Y-13195018D02*
X11483872Y-13204542D01*
X11560063Y-13404542D02*
X11569587Y-13395018D01*
X11569587Y-13395018D02*
X11588634Y-13366447D01*
X11588634Y-13366447D02*
X11598158Y-13347399D01*
X11598158Y-13347399D02*
X11607682Y-13318828D01*
X11607682Y-13318828D02*
X11617206Y-13271209D01*
X11617206Y-13271209D02*
X11617206Y-13233114D01*
X11617206Y-13233114D02*
X11607682Y-13185495D01*
X11607682Y-13185495D02*
X11598158Y-13156923D01*
X11598158Y-13156923D02*
X11588634Y-13137876D01*
X11588634Y-13137876D02*
X11569587Y-13109304D01*
X11569587Y-13109304D02*
X11560063Y-13099780D01*
D14*
X6625000Y-13434348D02*
X6785000Y-13594348D01*
X6785000Y-13434348D02*
X6625000Y-13594348D01*
X6761569Y-13570917D02*
X6761569Y-13457779D01*
X6648431Y-13457779D01*
X6648431Y-13570917D01*
X6761569Y-13570917D01*
D11*
X7150539Y-13605832D02*
X7036253Y-13605832D01*
X7093396Y-13605832D02*
X7093396Y-13405832D01*
X7093396Y-13405832D02*
X7074348Y-13434403D01*
X7074348Y-13434403D02*
X7055301Y-13453451D01*
X7055301Y-13453451D02*
X7036253Y-13462975D01*
X7236253Y-13586784D02*
X7245777Y-13596308D01*
X7245777Y-13596308D02*
X7236253Y-13605832D01*
X7236253Y-13605832D02*
X7226729Y-13596308D01*
X7226729Y-13596308D02*
X7236253Y-13586784D01*
X7236253Y-13586784D02*
X7236253Y-13605832D01*
X7417205Y-13405832D02*
X7379110Y-13405832D01*
X7379110Y-13405832D02*
X7360062Y-13415356D01*
X7360062Y-13415356D02*
X7350539Y-13424879D01*
X7350539Y-13424879D02*
X7331491Y-13453451D01*
X7331491Y-13453451D02*
X7321967Y-13491546D01*
X7321967Y-13491546D02*
X7321967Y-13567736D01*
X7321967Y-13567736D02*
X7331491Y-13586784D01*
X7331491Y-13586784D02*
X7341015Y-13596308D01*
X7341015Y-13596308D02*
X7360062Y-13605832D01*
X7360062Y-13605832D02*
X7398158Y-13605832D01*
X7398158Y-13605832D02*
X7417205Y-13596308D01*
X7417205Y-13596308D02*
X7426729Y-13586784D01*
X7426729Y-13586784D02*
X7436253Y-13567736D01*
X7436253Y-13567736D02*
X7436253Y-13520117D01*
X7436253Y-13520117D02*
X7426729Y-13501070D01*
X7426729Y-13501070D02*
X7417205Y-13491546D01*
X7417205Y-13491546D02*
X7398158Y-13482022D01*
X7398158Y-13482022D02*
X7360062Y-13482022D01*
X7360062Y-13482022D02*
X7341015Y-13491546D01*
X7341015Y-13491546D02*
X7331491Y-13501070D01*
X7331491Y-13501070D02*
X7321967Y-13520117D01*
X7560062Y-13405832D02*
X7579110Y-13405832D01*
X7579110Y-13405832D02*
X7598158Y-13415356D01*
X7598158Y-13415356D02*
X7607682Y-13424879D01*
X7607682Y-13424879D02*
X7617205Y-13443927D01*
X7617205Y-13443927D02*
X7626729Y-13482022D01*
X7626729Y-13482022D02*
X7626729Y-13529641D01*
X7626729Y-13529641D02*
X7617205Y-13567736D01*
X7617205Y-13567736D02*
X7607682Y-13586784D01*
X7607682Y-13586784D02*
X7598158Y-13596308D01*
X7598158Y-13596308D02*
X7579110Y-13605832D01*
X7579110Y-13605832D02*
X7560062Y-13605832D01*
X7560062Y-13605832D02*
X7541015Y-13596308D01*
X7541015Y-13596308D02*
X7531491Y-13586784D01*
X7531491Y-13586784D02*
X7521967Y-13567736D01*
X7521967Y-13567736D02*
X7512443Y-13529641D01*
X7512443Y-13529641D02*
X7512443Y-13482022D01*
X7512443Y-13482022D02*
X7521967Y-13443927D01*
X7521967Y-13443927D02*
X7531491Y-13424879D01*
X7531491Y-13424879D02*
X7541015Y-13415356D01*
X7541015Y-13415356D02*
X7560062Y-13405832D01*
X7750539Y-13405832D02*
X7769586Y-13405832D01*
X7769586Y-13405832D02*
X7788634Y-13415356D01*
X7788634Y-13415356D02*
X7798158Y-13424879D01*
X7798158Y-13424879D02*
X7807682Y-13443927D01*
X7807682Y-13443927D02*
X7817205Y-13482022D01*
X7817205Y-13482022D02*
X7817205Y-13529641D01*
X7817205Y-13529641D02*
X7807682Y-13567736D01*
X7807682Y-13567736D02*
X7798158Y-13586784D01*
X7798158Y-13586784D02*
X7788634Y-13596308D01*
X7788634Y-13596308D02*
X7769586Y-13605832D01*
X7769586Y-13605832D02*
X7750539Y-13605832D01*
X7750539Y-13605832D02*
X7731491Y-13596308D01*
X7731491Y-13596308D02*
X7721967Y-13586784D01*
X7721967Y-13586784D02*
X7712443Y-13567736D01*
X7712443Y-13567736D02*
X7702920Y-13529641D01*
X7702920Y-13529641D02*
X7702920Y-13482022D01*
X7702920Y-13482022D02*
X7712443Y-13443927D01*
X7712443Y-13443927D02*
X7721967Y-13424879D01*
X7721967Y-13424879D02*
X7731491Y-13415356D01*
X7731491Y-13415356D02*
X7750539Y-13405832D01*
X7902920Y-13605832D02*
X7902920Y-13472498D01*
X7902920Y-13491546D02*
X7912443Y-13482022D01*
X7912443Y-13482022D02*
X7931491Y-13472498D01*
X7931491Y-13472498D02*
X7960063Y-13472498D01*
X7960063Y-13472498D02*
X7979110Y-13482022D01*
X7979110Y-13482022D02*
X7988634Y-13501070D01*
X7988634Y-13501070D02*
X7988634Y-13605832D01*
X7988634Y-13501070D02*
X7998158Y-13482022D01*
X7998158Y-13482022D02*
X8017205Y-13472498D01*
X8017205Y-13472498D02*
X8045777Y-13472498D01*
X8045777Y-13472498D02*
X8064824Y-13482022D01*
X8064824Y-13482022D02*
X8074348Y-13501070D01*
X8074348Y-13501070D02*
X8074348Y-13605832D01*
X8169586Y-13605832D02*
X8169586Y-13472498D01*
X8169586Y-13491546D02*
X8179110Y-13482022D01*
X8179110Y-13482022D02*
X8198158Y-13472498D01*
X8198158Y-13472498D02*
X8226729Y-13472498D01*
X8226729Y-13472498D02*
X8245777Y-13482022D01*
X8245777Y-13482022D02*
X8255301Y-13501070D01*
X8255301Y-13501070D02*
X8255301Y-13605832D01*
X8255301Y-13501070D02*
X8264824Y-13482022D01*
X8264824Y-13482022D02*
X8283872Y-13472498D01*
X8283872Y-13472498D02*
X8312443Y-13472498D01*
X8312443Y-13472498D02*
X8331491Y-13482022D01*
X8331491Y-13482022D02*
X8341015Y-13501070D01*
X8341015Y-13501070D02*
X8341015Y-13605832D01*
X8731491Y-13396308D02*
X8560063Y-13653451D01*
X8988634Y-13405832D02*
X9007682Y-13405832D01*
X9007682Y-13405832D02*
X9026729Y-13415356D01*
X9026729Y-13415356D02*
X9036253Y-13424879D01*
X9036253Y-13424879D02*
X9045777Y-13443927D01*
X9045777Y-13443927D02*
X9055301Y-13482022D01*
X9055301Y-13482022D02*
X9055301Y-13529641D01*
X9055301Y-13529641D02*
X9045777Y-13567736D01*
X9045777Y-13567736D02*
X9036253Y-13586784D01*
X9036253Y-13586784D02*
X9026729Y-13596308D01*
X9026729Y-13596308D02*
X9007682Y-13605832D01*
X9007682Y-13605832D02*
X8988634Y-13605832D01*
X8988634Y-13605832D02*
X8969587Y-13596308D01*
X8969587Y-13596308D02*
X8960063Y-13586784D01*
X8960063Y-13586784D02*
X8950539Y-13567736D01*
X8950539Y-13567736D02*
X8941015Y-13529641D01*
X8941015Y-13529641D02*
X8941015Y-13482022D01*
X8941015Y-13482022D02*
X8950539Y-13443927D01*
X8950539Y-13443927D02*
X8960063Y-13424879D01*
X8960063Y-13424879D02*
X8969587Y-13415356D01*
X8969587Y-13415356D02*
X8988634Y-13405832D01*
X9141015Y-13586784D02*
X9150539Y-13596308D01*
X9150539Y-13596308D02*
X9141015Y-13605832D01*
X9141015Y-13605832D02*
X9131491Y-13596308D01*
X9131491Y-13596308D02*
X9141015Y-13586784D01*
X9141015Y-13586784D02*
X9141015Y-13605832D01*
X9274348Y-13405832D02*
X9293396Y-13405832D01*
X9293396Y-13405832D02*
X9312444Y-13415356D01*
X9312444Y-13415356D02*
X9321968Y-13424879D01*
X9321968Y-13424879D02*
X9331491Y-13443927D01*
X9331491Y-13443927D02*
X9341015Y-13482022D01*
X9341015Y-13482022D02*
X9341015Y-13529641D01*
X9341015Y-13529641D02*
X9331491Y-13567736D01*
X9331491Y-13567736D02*
X9321968Y-13586784D01*
X9321968Y-13586784D02*
X9312444Y-13596308D01*
X9312444Y-13596308D02*
X9293396Y-13605832D01*
X9293396Y-13605832D02*
X9274348Y-13605832D01*
X9274348Y-13605832D02*
X9255301Y-13596308D01*
X9255301Y-13596308D02*
X9245777Y-13586784D01*
X9245777Y-13586784D02*
X9236253Y-13567736D01*
X9236253Y-13567736D02*
X9226729Y-13529641D01*
X9226729Y-13529641D02*
X9226729Y-13482022D01*
X9226729Y-13482022D02*
X9236253Y-13443927D01*
X9236253Y-13443927D02*
X9245777Y-13424879D01*
X9245777Y-13424879D02*
X9255301Y-13415356D01*
X9255301Y-13415356D02*
X9274348Y-13405832D01*
X9512444Y-13405832D02*
X9474348Y-13405832D01*
X9474348Y-13405832D02*
X9455301Y-13415356D01*
X9455301Y-13415356D02*
X9445777Y-13424879D01*
X9445777Y-13424879D02*
X9426729Y-13453451D01*
X9426729Y-13453451D02*
X9417206Y-13491546D01*
X9417206Y-13491546D02*
X9417206Y-13567736D01*
X9417206Y-13567736D02*
X9426729Y-13586784D01*
X9426729Y-13586784D02*
X9436253Y-13596308D01*
X9436253Y-13596308D02*
X9455301Y-13605832D01*
X9455301Y-13605832D02*
X9493396Y-13605832D01*
X9493396Y-13605832D02*
X9512444Y-13596308D01*
X9512444Y-13596308D02*
X9521968Y-13586784D01*
X9521968Y-13586784D02*
X9531491Y-13567736D01*
X9531491Y-13567736D02*
X9531491Y-13520117D01*
X9531491Y-13520117D02*
X9521968Y-13501070D01*
X9521968Y-13501070D02*
X9512444Y-13491546D01*
X9512444Y-13491546D02*
X9493396Y-13482022D01*
X9493396Y-13482022D02*
X9455301Y-13482022D01*
X9455301Y-13482022D02*
X9436253Y-13491546D01*
X9436253Y-13491546D02*
X9426729Y-13501070D01*
X9426729Y-13501070D02*
X9417206Y-13520117D01*
X9598158Y-13405832D02*
X9721968Y-13405832D01*
X9721968Y-13405832D02*
X9655301Y-13482022D01*
X9655301Y-13482022D02*
X9683872Y-13482022D01*
X9683872Y-13482022D02*
X9702920Y-13491546D01*
X9702920Y-13491546D02*
X9712444Y-13501070D01*
X9712444Y-13501070D02*
X9721968Y-13520117D01*
X9721968Y-13520117D02*
X9721968Y-13567736D01*
X9721968Y-13567736D02*
X9712444Y-13586784D01*
X9712444Y-13586784D02*
X9702920Y-13596308D01*
X9702920Y-13596308D02*
X9683872Y-13605832D01*
X9683872Y-13605832D02*
X9626729Y-13605832D01*
X9626729Y-13605832D02*
X9607682Y-13596308D01*
X9607682Y-13596308D02*
X9598158Y-13586784D01*
X9845777Y-13405832D02*
X9864825Y-13405832D01*
X9864825Y-13405832D02*
X9883872Y-13415356D01*
X9883872Y-13415356D02*
X9893396Y-13424879D01*
X9893396Y-13424879D02*
X9902920Y-13443927D01*
X9902920Y-13443927D02*
X9912444Y-13482022D01*
X9912444Y-13482022D02*
X9912444Y-13529641D01*
X9912444Y-13529641D02*
X9902920Y-13567736D01*
X9902920Y-13567736D02*
X9893396Y-13586784D01*
X9893396Y-13586784D02*
X9883872Y-13596308D01*
X9883872Y-13596308D02*
X9864825Y-13605832D01*
X9864825Y-13605832D02*
X9845777Y-13605832D01*
X9845777Y-13605832D02*
X9826729Y-13596308D01*
X9826729Y-13596308D02*
X9817206Y-13586784D01*
X9817206Y-13586784D02*
X9807682Y-13567736D01*
X9807682Y-13567736D02*
X9798158Y-13529641D01*
X9798158Y-13529641D02*
X9798158Y-13482022D01*
X9798158Y-13482022D02*
X9807682Y-13443927D01*
X9807682Y-13443927D02*
X9817206Y-13424879D01*
X9817206Y-13424879D02*
X9826729Y-13415356D01*
X9826729Y-13415356D02*
X9845777Y-13405832D01*
X9988634Y-13405832D02*
X9988634Y-13443927D01*
X10064825Y-13405832D02*
X10064825Y-13443927D01*
X10360063Y-13682022D02*
X10350539Y-13672498D01*
X10350539Y-13672498D02*
X10331491Y-13643927D01*
X10331491Y-13643927D02*
X10321968Y-13624879D01*
X10321968Y-13624879D02*
X10312444Y-13596308D01*
X10312444Y-13596308D02*
X10302920Y-13548689D01*
X10302920Y-13548689D02*
X10302920Y-13510594D01*
X10302920Y-13510594D02*
X10312444Y-13462975D01*
X10312444Y-13462975D02*
X10321968Y-13434403D01*
X10321968Y-13434403D02*
X10331491Y-13415356D01*
X10331491Y-13415356D02*
X10350539Y-13386784D01*
X10350539Y-13386784D02*
X10360063Y-13377260D01*
X10521968Y-13405832D02*
X10483872Y-13405832D01*
X10483872Y-13405832D02*
X10464825Y-13415356D01*
X10464825Y-13415356D02*
X10455301Y-13424879D01*
X10455301Y-13424879D02*
X10436253Y-13453451D01*
X10436253Y-13453451D02*
X10426730Y-13491546D01*
X10426730Y-13491546D02*
X10426730Y-13567736D01*
X10426730Y-13567736D02*
X10436253Y-13586784D01*
X10436253Y-13586784D02*
X10445777Y-13596308D01*
X10445777Y-13596308D02*
X10464825Y-13605832D01*
X10464825Y-13605832D02*
X10502920Y-13605832D01*
X10502920Y-13605832D02*
X10521968Y-13596308D01*
X10521968Y-13596308D02*
X10531491Y-13586784D01*
X10531491Y-13586784D02*
X10541015Y-13567736D01*
X10541015Y-13567736D02*
X10541015Y-13520117D01*
X10541015Y-13520117D02*
X10531491Y-13501070D01*
X10531491Y-13501070D02*
X10521968Y-13491546D01*
X10521968Y-13491546D02*
X10502920Y-13482022D01*
X10502920Y-13482022D02*
X10464825Y-13482022D01*
X10464825Y-13482022D02*
X10445777Y-13491546D01*
X10445777Y-13491546D02*
X10436253Y-13501070D01*
X10436253Y-13501070D02*
X10426730Y-13520117D01*
X10779111Y-13605832D02*
X10779111Y-13405832D01*
X10864825Y-13605832D02*
X10864825Y-13501070D01*
X10864825Y-13501070D02*
X10855301Y-13482022D01*
X10855301Y-13482022D02*
X10836253Y-13472498D01*
X10836253Y-13472498D02*
X10807682Y-13472498D01*
X10807682Y-13472498D02*
X10788634Y-13482022D01*
X10788634Y-13482022D02*
X10779111Y-13491546D01*
X10988634Y-13605832D02*
X10969587Y-13596308D01*
X10969587Y-13596308D02*
X10960063Y-13586784D01*
X10960063Y-13586784D02*
X10950539Y-13567736D01*
X10950539Y-13567736D02*
X10950539Y-13510594D01*
X10950539Y-13510594D02*
X10960063Y-13491546D01*
X10960063Y-13491546D02*
X10969587Y-13482022D01*
X10969587Y-13482022D02*
X10988634Y-13472498D01*
X10988634Y-13472498D02*
X11017206Y-13472498D01*
X11017206Y-13472498D02*
X11036253Y-13482022D01*
X11036253Y-13482022D02*
X11045777Y-13491546D01*
X11045777Y-13491546D02*
X11055301Y-13510594D01*
X11055301Y-13510594D02*
X11055301Y-13567736D01*
X11055301Y-13567736D02*
X11045777Y-13586784D01*
X11045777Y-13586784D02*
X11036253Y-13596308D01*
X11036253Y-13596308D02*
X11017206Y-13605832D01*
X11017206Y-13605832D02*
X10988634Y-13605832D01*
X11169587Y-13605832D02*
X11150539Y-13596308D01*
X11150539Y-13596308D02*
X11141015Y-13577260D01*
X11141015Y-13577260D02*
X11141015Y-13405832D01*
X11321968Y-13596308D02*
X11302920Y-13605832D01*
X11302920Y-13605832D02*
X11264825Y-13605832D01*
X11264825Y-13605832D02*
X11245777Y-13596308D01*
X11245777Y-13596308D02*
X11236253Y-13577260D01*
X11236253Y-13577260D02*
X11236253Y-13501070D01*
X11236253Y-13501070D02*
X11245777Y-13482022D01*
X11245777Y-13482022D02*
X11264825Y-13472498D01*
X11264825Y-13472498D02*
X11302920Y-13472498D01*
X11302920Y-13472498D02*
X11321968Y-13482022D01*
X11321968Y-13482022D02*
X11331491Y-13501070D01*
X11331491Y-13501070D02*
X11331491Y-13520117D01*
X11331491Y-13520117D02*
X11236253Y-13539165D01*
X11407682Y-13596308D02*
X11426730Y-13605832D01*
X11426730Y-13605832D02*
X11464825Y-13605832D01*
X11464825Y-13605832D02*
X11483872Y-13596308D01*
X11483872Y-13596308D02*
X11493396Y-13577260D01*
X11493396Y-13577260D02*
X11493396Y-13567736D01*
X11493396Y-13567736D02*
X11483872Y-13548689D01*
X11483872Y-13548689D02*
X11464825Y-13539165D01*
X11464825Y-13539165D02*
X11436253Y-13539165D01*
X11436253Y-13539165D02*
X11417206Y-13529641D01*
X11417206Y-13529641D02*
X11407682Y-13510594D01*
X11407682Y-13510594D02*
X11407682Y-13501070D01*
X11407682Y-13501070D02*
X11417206Y-13482022D01*
X11417206Y-13482022D02*
X11436253Y-13472498D01*
X11436253Y-13472498D02*
X11464825Y-13472498D01*
X11464825Y-13472498D02*
X11483872Y-13482022D01*
X11560063Y-13682022D02*
X11569587Y-13672498D01*
X11569587Y-13672498D02*
X11588634Y-13643927D01*
X11588634Y-13643927D02*
X11598158Y-13624879D01*
X11598158Y-13624879D02*
X11607682Y-13596308D01*
X11607682Y-13596308D02*
X11617206Y-13548689D01*
X11617206Y-13548689D02*
X11617206Y-13510594D01*
X11617206Y-13510594D02*
X11607682Y-13462975D01*
X11607682Y-13462975D02*
X11598158Y-13434403D01*
X11598158Y-13434403D02*
X11588634Y-13415356D01*
X11588634Y-13415356D02*
X11569587Y-13386784D01*
X11569587Y-13386784D02*
X11560063Y-13377260D01*
X6585000Y-13694348D02*
X6785000Y-13894348D01*
X6785000Y-13694348D02*
X6585000Y-13894348D01*
X6685000Y-13894348D02*
X6785000Y-13794348D01*
X6685000Y-13694348D01*
X6585000Y-13794348D01*
X6685000Y-13894348D01*
X7036253Y-13704879D02*
X7045777Y-13695356D01*
X7045777Y-13695356D02*
X7064824Y-13685832D01*
X7064824Y-13685832D02*
X7112443Y-13685832D01*
X7112443Y-13685832D02*
X7131491Y-13695356D01*
X7131491Y-13695356D02*
X7141015Y-13704879D01*
X7141015Y-13704879D02*
X7150539Y-13723927D01*
X7150539Y-13723927D02*
X7150539Y-13742975D01*
X7150539Y-13742975D02*
X7141015Y-13771546D01*
X7141015Y-13771546D02*
X7026729Y-13885832D01*
X7026729Y-13885832D02*
X7150539Y-13885832D01*
X7236253Y-13866784D02*
X7245777Y-13876308D01*
X7245777Y-13876308D02*
X7236253Y-13885832D01*
X7236253Y-13885832D02*
X7226729Y-13876308D01*
X7226729Y-13876308D02*
X7236253Y-13866784D01*
X7236253Y-13866784D02*
X7236253Y-13885832D01*
X7312443Y-13685832D02*
X7445777Y-13685832D01*
X7445777Y-13685832D02*
X7360062Y-13885832D01*
X7560062Y-13685832D02*
X7579110Y-13685832D01*
X7579110Y-13685832D02*
X7598158Y-13695356D01*
X7598158Y-13695356D02*
X7607682Y-13704879D01*
X7607682Y-13704879D02*
X7617205Y-13723927D01*
X7617205Y-13723927D02*
X7626729Y-13762022D01*
X7626729Y-13762022D02*
X7626729Y-13809641D01*
X7626729Y-13809641D02*
X7617205Y-13847736D01*
X7617205Y-13847736D02*
X7607682Y-13866784D01*
X7607682Y-13866784D02*
X7598158Y-13876308D01*
X7598158Y-13876308D02*
X7579110Y-13885832D01*
X7579110Y-13885832D02*
X7560062Y-13885832D01*
X7560062Y-13885832D02*
X7541015Y-13876308D01*
X7541015Y-13876308D02*
X7531491Y-13866784D01*
X7531491Y-13866784D02*
X7521967Y-13847736D01*
X7521967Y-13847736D02*
X7512443Y-13809641D01*
X7512443Y-13809641D02*
X7512443Y-13762022D01*
X7512443Y-13762022D02*
X7521967Y-13723927D01*
X7521967Y-13723927D02*
X7531491Y-13704879D01*
X7531491Y-13704879D02*
X7541015Y-13695356D01*
X7541015Y-13695356D02*
X7560062Y-13685832D01*
X7750539Y-13685832D02*
X7769586Y-13685832D01*
X7769586Y-13685832D02*
X7788634Y-13695356D01*
X7788634Y-13695356D02*
X7798158Y-13704879D01*
X7798158Y-13704879D02*
X7807682Y-13723927D01*
X7807682Y-13723927D02*
X7817205Y-13762022D01*
X7817205Y-13762022D02*
X7817205Y-13809641D01*
X7817205Y-13809641D02*
X7807682Y-13847736D01*
X7807682Y-13847736D02*
X7798158Y-13866784D01*
X7798158Y-13866784D02*
X7788634Y-13876308D01*
X7788634Y-13876308D02*
X7769586Y-13885832D01*
X7769586Y-13885832D02*
X7750539Y-13885832D01*
X7750539Y-13885832D02*
X7731491Y-13876308D01*
X7731491Y-13876308D02*
X7721967Y-13866784D01*
X7721967Y-13866784D02*
X7712443Y-13847736D01*
X7712443Y-13847736D02*
X7702920Y-13809641D01*
X7702920Y-13809641D02*
X7702920Y-13762022D01*
X7702920Y-13762022D02*
X7712443Y-13723927D01*
X7712443Y-13723927D02*
X7721967Y-13704879D01*
X7721967Y-13704879D02*
X7731491Y-13695356D01*
X7731491Y-13695356D02*
X7750539Y-13685832D01*
X7902920Y-13885832D02*
X7902920Y-13752498D01*
X7902920Y-13771546D02*
X7912443Y-13762022D01*
X7912443Y-13762022D02*
X7931491Y-13752498D01*
X7931491Y-13752498D02*
X7960063Y-13752498D01*
X7960063Y-13752498D02*
X7979110Y-13762022D01*
X7979110Y-13762022D02*
X7988634Y-13781070D01*
X7988634Y-13781070D02*
X7988634Y-13885832D01*
X7988634Y-13781070D02*
X7998158Y-13762022D01*
X7998158Y-13762022D02*
X8017205Y-13752498D01*
X8017205Y-13752498D02*
X8045777Y-13752498D01*
X8045777Y-13752498D02*
X8064824Y-13762022D01*
X8064824Y-13762022D02*
X8074348Y-13781070D01*
X8074348Y-13781070D02*
X8074348Y-13885832D01*
X8169586Y-13885832D02*
X8169586Y-13752498D01*
X8169586Y-13771546D02*
X8179110Y-13762022D01*
X8179110Y-13762022D02*
X8198158Y-13752498D01*
X8198158Y-13752498D02*
X8226729Y-13752498D01*
X8226729Y-13752498D02*
X8245777Y-13762022D01*
X8245777Y-13762022D02*
X8255301Y-13781070D01*
X8255301Y-13781070D02*
X8255301Y-13885832D01*
X8255301Y-13781070D02*
X8264824Y-13762022D01*
X8264824Y-13762022D02*
X8283872Y-13752498D01*
X8283872Y-13752498D02*
X8312443Y-13752498D01*
X8312443Y-13752498D02*
X8331491Y-13762022D01*
X8331491Y-13762022D02*
X8341015Y-13781070D01*
X8341015Y-13781070D02*
X8341015Y-13885832D01*
X8731491Y-13676308D02*
X8560063Y-13933451D01*
X8988634Y-13685832D02*
X9007682Y-13685832D01*
X9007682Y-13685832D02*
X9026729Y-13695356D01*
X9026729Y-13695356D02*
X9036253Y-13704879D01*
X9036253Y-13704879D02*
X9045777Y-13723927D01*
X9045777Y-13723927D02*
X9055301Y-13762022D01*
X9055301Y-13762022D02*
X9055301Y-13809641D01*
X9055301Y-13809641D02*
X9045777Y-13847736D01*
X9045777Y-13847736D02*
X9036253Y-13866784D01*
X9036253Y-13866784D02*
X9026729Y-13876308D01*
X9026729Y-13876308D02*
X9007682Y-13885832D01*
X9007682Y-13885832D02*
X8988634Y-13885832D01*
X8988634Y-13885832D02*
X8969587Y-13876308D01*
X8969587Y-13876308D02*
X8960063Y-13866784D01*
X8960063Y-13866784D02*
X8950539Y-13847736D01*
X8950539Y-13847736D02*
X8941015Y-13809641D01*
X8941015Y-13809641D02*
X8941015Y-13762022D01*
X8941015Y-13762022D02*
X8950539Y-13723927D01*
X8950539Y-13723927D02*
X8960063Y-13704879D01*
X8960063Y-13704879D02*
X8969587Y-13695356D01*
X8969587Y-13695356D02*
X8988634Y-13685832D01*
X9141015Y-13866784D02*
X9150539Y-13876308D01*
X9150539Y-13876308D02*
X9141015Y-13885832D01*
X9141015Y-13885832D02*
X9131491Y-13876308D01*
X9131491Y-13876308D02*
X9141015Y-13866784D01*
X9141015Y-13866784D02*
X9141015Y-13885832D01*
X9341015Y-13885832D02*
X9226729Y-13885832D01*
X9283872Y-13885832D02*
X9283872Y-13685832D01*
X9283872Y-13685832D02*
X9264825Y-13714403D01*
X9264825Y-13714403D02*
X9245777Y-13733451D01*
X9245777Y-13733451D02*
X9226729Y-13742975D01*
X9464825Y-13685832D02*
X9483872Y-13685832D01*
X9483872Y-13685832D02*
X9502920Y-13695356D01*
X9502920Y-13695356D02*
X9512444Y-13704879D01*
X9512444Y-13704879D02*
X9521968Y-13723927D01*
X9521968Y-13723927D02*
X9531491Y-13762022D01*
X9531491Y-13762022D02*
X9531491Y-13809641D01*
X9531491Y-13809641D02*
X9521968Y-13847736D01*
X9521968Y-13847736D02*
X9512444Y-13866784D01*
X9512444Y-13866784D02*
X9502920Y-13876308D01*
X9502920Y-13876308D02*
X9483872Y-13885832D01*
X9483872Y-13885832D02*
X9464825Y-13885832D01*
X9464825Y-13885832D02*
X9445777Y-13876308D01*
X9445777Y-13876308D02*
X9436253Y-13866784D01*
X9436253Y-13866784D02*
X9426729Y-13847736D01*
X9426729Y-13847736D02*
X9417206Y-13809641D01*
X9417206Y-13809641D02*
X9417206Y-13762022D01*
X9417206Y-13762022D02*
X9426729Y-13723927D01*
X9426729Y-13723927D02*
X9436253Y-13704879D01*
X9436253Y-13704879D02*
X9445777Y-13695356D01*
X9445777Y-13695356D02*
X9464825Y-13685832D01*
X9702920Y-13685832D02*
X9664825Y-13685832D01*
X9664825Y-13685832D02*
X9645777Y-13695356D01*
X9645777Y-13695356D02*
X9636253Y-13704879D01*
X9636253Y-13704879D02*
X9617206Y-13733451D01*
X9617206Y-13733451D02*
X9607682Y-13771546D01*
X9607682Y-13771546D02*
X9607682Y-13847736D01*
X9607682Y-13847736D02*
X9617206Y-13866784D01*
X9617206Y-13866784D02*
X9626729Y-13876308D01*
X9626729Y-13876308D02*
X9645777Y-13885832D01*
X9645777Y-13885832D02*
X9683872Y-13885832D01*
X9683872Y-13885832D02*
X9702920Y-13876308D01*
X9702920Y-13876308D02*
X9712444Y-13866784D01*
X9712444Y-13866784D02*
X9721968Y-13847736D01*
X9721968Y-13847736D02*
X9721968Y-13800117D01*
X9721968Y-13800117D02*
X9712444Y-13781070D01*
X9712444Y-13781070D02*
X9702920Y-13771546D01*
X9702920Y-13771546D02*
X9683872Y-13762022D01*
X9683872Y-13762022D02*
X9645777Y-13762022D01*
X9645777Y-13762022D02*
X9626729Y-13771546D01*
X9626729Y-13771546D02*
X9617206Y-13781070D01*
X9617206Y-13781070D02*
X9607682Y-13800117D01*
X9788634Y-13685832D02*
X9912444Y-13685832D01*
X9912444Y-13685832D02*
X9845777Y-13762022D01*
X9845777Y-13762022D02*
X9874349Y-13762022D01*
X9874349Y-13762022D02*
X9893396Y-13771546D01*
X9893396Y-13771546D02*
X9902920Y-13781070D01*
X9902920Y-13781070D02*
X9912444Y-13800117D01*
X9912444Y-13800117D02*
X9912444Y-13847736D01*
X9912444Y-13847736D02*
X9902920Y-13866784D01*
X9902920Y-13866784D02*
X9893396Y-13876308D01*
X9893396Y-13876308D02*
X9874349Y-13885832D01*
X9874349Y-13885832D02*
X9817206Y-13885832D01*
X9817206Y-13885832D02*
X9798158Y-13876308D01*
X9798158Y-13876308D02*
X9788634Y-13866784D01*
X9988634Y-13685832D02*
X9988634Y-13723927D01*
X10064825Y-13685832D02*
X10064825Y-13723927D01*
X10360063Y-13962022D02*
X10350539Y-13952498D01*
X10350539Y-13952498D02*
X10331491Y-13923927D01*
X10331491Y-13923927D02*
X10321968Y-13904879D01*
X10321968Y-13904879D02*
X10312444Y-13876308D01*
X10312444Y-13876308D02*
X10302920Y-13828689D01*
X10302920Y-13828689D02*
X10302920Y-13790594D01*
X10302920Y-13790594D02*
X10312444Y-13742975D01*
X10312444Y-13742975D02*
X10321968Y-13714403D01*
X10321968Y-13714403D02*
X10331491Y-13695356D01*
X10331491Y-13695356D02*
X10350539Y-13666784D01*
X10350539Y-13666784D02*
X10360063Y-13657260D01*
X10417206Y-13685832D02*
X10541015Y-13685832D01*
X10541015Y-13685832D02*
X10474349Y-13762022D01*
X10474349Y-13762022D02*
X10502920Y-13762022D01*
X10502920Y-13762022D02*
X10521968Y-13771546D01*
X10521968Y-13771546D02*
X10531491Y-13781070D01*
X10531491Y-13781070D02*
X10541015Y-13800117D01*
X10541015Y-13800117D02*
X10541015Y-13847736D01*
X10541015Y-13847736D02*
X10531491Y-13866784D01*
X10531491Y-13866784D02*
X10521968Y-13876308D01*
X10521968Y-13876308D02*
X10502920Y-13885832D01*
X10502920Y-13885832D02*
X10445777Y-13885832D01*
X10445777Y-13885832D02*
X10426730Y-13876308D01*
X10426730Y-13876308D02*
X10417206Y-13866784D01*
X10779111Y-13885832D02*
X10779111Y-13685832D01*
X10864825Y-13885832D02*
X10864825Y-13781070D01*
X10864825Y-13781070D02*
X10855301Y-13762022D01*
X10855301Y-13762022D02*
X10836253Y-13752498D01*
X10836253Y-13752498D02*
X10807682Y-13752498D01*
X10807682Y-13752498D02*
X10788634Y-13762022D01*
X10788634Y-13762022D02*
X10779111Y-13771546D01*
X10988634Y-13885832D02*
X10969587Y-13876308D01*
X10969587Y-13876308D02*
X10960063Y-13866784D01*
X10960063Y-13866784D02*
X10950539Y-13847736D01*
X10950539Y-13847736D02*
X10950539Y-13790594D01*
X10950539Y-13790594D02*
X10960063Y-13771546D01*
X10960063Y-13771546D02*
X10969587Y-13762022D01*
X10969587Y-13762022D02*
X10988634Y-13752498D01*
X10988634Y-13752498D02*
X11017206Y-13752498D01*
X11017206Y-13752498D02*
X11036253Y-13762022D01*
X11036253Y-13762022D02*
X11045777Y-13771546D01*
X11045777Y-13771546D02*
X11055301Y-13790594D01*
X11055301Y-13790594D02*
X11055301Y-13847736D01*
X11055301Y-13847736D02*
X11045777Y-13866784D01*
X11045777Y-13866784D02*
X11036253Y-13876308D01*
X11036253Y-13876308D02*
X11017206Y-13885832D01*
X11017206Y-13885832D02*
X10988634Y-13885832D01*
X11169587Y-13885832D02*
X11150539Y-13876308D01*
X11150539Y-13876308D02*
X11141015Y-13857260D01*
X11141015Y-13857260D02*
X11141015Y-13685832D01*
X11321968Y-13876308D02*
X11302920Y-13885832D01*
X11302920Y-13885832D02*
X11264825Y-13885832D01*
X11264825Y-13885832D02*
X11245777Y-13876308D01*
X11245777Y-13876308D02*
X11236253Y-13857260D01*
X11236253Y-13857260D02*
X11236253Y-13781070D01*
X11236253Y-13781070D02*
X11245777Y-13762022D01*
X11245777Y-13762022D02*
X11264825Y-13752498D01*
X11264825Y-13752498D02*
X11302920Y-13752498D01*
X11302920Y-13752498D02*
X11321968Y-13762022D01*
X11321968Y-13762022D02*
X11331491Y-13781070D01*
X11331491Y-13781070D02*
X11331491Y-13800117D01*
X11331491Y-13800117D02*
X11236253Y-13819165D01*
X11407682Y-13876308D02*
X11426730Y-13885832D01*
X11426730Y-13885832D02*
X11464825Y-13885832D01*
X11464825Y-13885832D02*
X11483872Y-13876308D01*
X11483872Y-13876308D02*
X11493396Y-13857260D01*
X11493396Y-13857260D02*
X11493396Y-13847736D01*
X11493396Y-13847736D02*
X11483872Y-13828689D01*
X11483872Y-13828689D02*
X11464825Y-13819165D01*
X11464825Y-13819165D02*
X11436253Y-13819165D01*
X11436253Y-13819165D02*
X11417206Y-13809641D01*
X11417206Y-13809641D02*
X11407682Y-13790594D01*
X11407682Y-13790594D02*
X11407682Y-13781070D01*
X11407682Y-13781070D02*
X11417206Y-13762022D01*
X11417206Y-13762022D02*
X11436253Y-13752498D01*
X11436253Y-13752498D02*
X11464825Y-13752498D01*
X11464825Y-13752498D02*
X11483872Y-13762022D01*
X11560063Y-13962022D02*
X11569587Y-13952498D01*
X11569587Y-13952498D02*
X11588634Y-13923927D01*
X11588634Y-13923927D02*
X11598158Y-13904879D01*
X11598158Y-13904879D02*
X11607682Y-13876308D01*
X11607682Y-13876308D02*
X11617206Y-13828689D01*
X11617206Y-13828689D02*
X11617206Y-13790594D01*
X11617206Y-13790594D02*
X11607682Y-13742975D01*
X11607682Y-13742975D02*
X11598158Y-13714403D01*
X11598158Y-13714403D02*
X11588634Y-13695356D01*
X11588634Y-13695356D02*
X11569587Y-13666784D01*
X11569587Y-13666784D02*
X11560063Y-13657260D01*
X6685000Y-14014348D02*
X6685000Y-14214348D01*
X6585000Y-14114348D02*
X6785000Y-14114348D01*
X6785000Y-14114348D02*
G75*
G02*
X6585000Y-14114348I-100000J0D01*
G01*
X6585000Y-14114348D02*
G75*
G02*
X6785000Y-14114348I100000J0D01*
G01*
X7026729Y-14005832D02*
X7150539Y-14005832D01*
X7150539Y-14005832D02*
X7083872Y-14082022D01*
X7083872Y-14082022D02*
X7112443Y-14082022D01*
X7112443Y-14082022D02*
X7131491Y-14091546D01*
X7131491Y-14091546D02*
X7141015Y-14101070D01*
X7141015Y-14101070D02*
X7150539Y-14120117D01*
X7150539Y-14120117D02*
X7150539Y-14167736D01*
X7150539Y-14167736D02*
X7141015Y-14186784D01*
X7141015Y-14186784D02*
X7131491Y-14196308D01*
X7131491Y-14196308D02*
X7112443Y-14205832D01*
X7112443Y-14205832D02*
X7055301Y-14205832D01*
X7055301Y-14205832D02*
X7036253Y-14196308D01*
X7036253Y-14196308D02*
X7026729Y-14186784D01*
X7236253Y-14186784D02*
X7245777Y-14196308D01*
X7245777Y-14196308D02*
X7236253Y-14205832D01*
X7236253Y-14205832D02*
X7226729Y-14196308D01*
X7226729Y-14196308D02*
X7236253Y-14186784D01*
X7236253Y-14186784D02*
X7236253Y-14205832D01*
X7321967Y-14024879D02*
X7331491Y-14015356D01*
X7331491Y-14015356D02*
X7350539Y-14005832D01*
X7350539Y-14005832D02*
X7398158Y-14005832D01*
X7398158Y-14005832D02*
X7417205Y-14015356D01*
X7417205Y-14015356D02*
X7426729Y-14024879D01*
X7426729Y-14024879D02*
X7436253Y-14043927D01*
X7436253Y-14043927D02*
X7436253Y-14062975D01*
X7436253Y-14062975D02*
X7426729Y-14091546D01*
X7426729Y-14091546D02*
X7312443Y-14205832D01*
X7312443Y-14205832D02*
X7436253Y-14205832D01*
X7617205Y-14005832D02*
X7521967Y-14005832D01*
X7521967Y-14005832D02*
X7512443Y-14101070D01*
X7512443Y-14101070D02*
X7521967Y-14091546D01*
X7521967Y-14091546D02*
X7541015Y-14082022D01*
X7541015Y-14082022D02*
X7588634Y-14082022D01*
X7588634Y-14082022D02*
X7607682Y-14091546D01*
X7607682Y-14091546D02*
X7617205Y-14101070D01*
X7617205Y-14101070D02*
X7626729Y-14120117D01*
X7626729Y-14120117D02*
X7626729Y-14167736D01*
X7626729Y-14167736D02*
X7617205Y-14186784D01*
X7617205Y-14186784D02*
X7607682Y-14196308D01*
X7607682Y-14196308D02*
X7588634Y-14205832D01*
X7588634Y-14205832D02*
X7541015Y-14205832D01*
X7541015Y-14205832D02*
X7521967Y-14196308D01*
X7521967Y-14196308D02*
X7512443Y-14186784D01*
X7817205Y-14205832D02*
X7702920Y-14205832D01*
X7760062Y-14205832D02*
X7760062Y-14005832D01*
X7760062Y-14005832D02*
X7741015Y-14034403D01*
X7741015Y-14034403D02*
X7721967Y-14053451D01*
X7721967Y-14053451D02*
X7702920Y-14062975D01*
X7902920Y-14205832D02*
X7902920Y-14072498D01*
X7902920Y-14091546D02*
X7912443Y-14082022D01*
X7912443Y-14082022D02*
X7931491Y-14072498D01*
X7931491Y-14072498D02*
X7960063Y-14072498D01*
X7960063Y-14072498D02*
X7979110Y-14082022D01*
X7979110Y-14082022D02*
X7988634Y-14101070D01*
X7988634Y-14101070D02*
X7988634Y-14205832D01*
X7988634Y-14101070D02*
X7998158Y-14082022D01*
X7998158Y-14082022D02*
X8017205Y-14072498D01*
X8017205Y-14072498D02*
X8045777Y-14072498D01*
X8045777Y-14072498D02*
X8064824Y-14082022D01*
X8064824Y-14082022D02*
X8074348Y-14101070D01*
X8074348Y-14101070D02*
X8074348Y-14205832D01*
X8169586Y-14205832D02*
X8169586Y-14072498D01*
X8169586Y-14091546D02*
X8179110Y-14082022D01*
X8179110Y-14082022D02*
X8198158Y-14072498D01*
X8198158Y-14072498D02*
X8226729Y-14072498D01*
X8226729Y-14072498D02*
X8245777Y-14082022D01*
X8245777Y-14082022D02*
X8255301Y-14101070D01*
X8255301Y-14101070D02*
X8255301Y-14205832D01*
X8255301Y-14101070D02*
X8264824Y-14082022D01*
X8264824Y-14082022D02*
X8283872Y-14072498D01*
X8283872Y-14072498D02*
X8312443Y-14072498D01*
X8312443Y-14072498D02*
X8331491Y-14082022D01*
X8331491Y-14082022D02*
X8341015Y-14101070D01*
X8341015Y-14101070D02*
X8341015Y-14205832D01*
X8731491Y-13996308D02*
X8560063Y-14253451D01*
X8988634Y-14005832D02*
X9007682Y-14005832D01*
X9007682Y-14005832D02*
X9026729Y-14015356D01*
X9026729Y-14015356D02*
X9036253Y-14024879D01*
X9036253Y-14024879D02*
X9045777Y-14043927D01*
X9045777Y-14043927D02*
X9055301Y-14082022D01*
X9055301Y-14082022D02*
X9055301Y-14129641D01*
X9055301Y-14129641D02*
X9045777Y-14167736D01*
X9045777Y-14167736D02*
X9036253Y-14186784D01*
X9036253Y-14186784D02*
X9026729Y-14196308D01*
X9026729Y-14196308D02*
X9007682Y-14205832D01*
X9007682Y-14205832D02*
X8988634Y-14205832D01*
X8988634Y-14205832D02*
X8969587Y-14196308D01*
X8969587Y-14196308D02*
X8960063Y-14186784D01*
X8960063Y-14186784D02*
X8950539Y-14167736D01*
X8950539Y-14167736D02*
X8941015Y-14129641D01*
X8941015Y-14129641D02*
X8941015Y-14082022D01*
X8941015Y-14082022D02*
X8950539Y-14043927D01*
X8950539Y-14043927D02*
X8960063Y-14024879D01*
X8960063Y-14024879D02*
X8969587Y-14015356D01*
X8969587Y-14015356D02*
X8988634Y-14005832D01*
X9141015Y-14186784D02*
X9150539Y-14196308D01*
X9150539Y-14196308D02*
X9141015Y-14205832D01*
X9141015Y-14205832D02*
X9131491Y-14196308D01*
X9131491Y-14196308D02*
X9141015Y-14186784D01*
X9141015Y-14186784D02*
X9141015Y-14205832D01*
X9341015Y-14205832D02*
X9226729Y-14205832D01*
X9283872Y-14205832D02*
X9283872Y-14005832D01*
X9283872Y-14005832D02*
X9264825Y-14034403D01*
X9264825Y-14034403D02*
X9245777Y-14053451D01*
X9245777Y-14053451D02*
X9226729Y-14062975D01*
X9417206Y-14024879D02*
X9426729Y-14015356D01*
X9426729Y-14015356D02*
X9445777Y-14005832D01*
X9445777Y-14005832D02*
X9493396Y-14005832D01*
X9493396Y-14005832D02*
X9512444Y-14015356D01*
X9512444Y-14015356D02*
X9521968Y-14024879D01*
X9521968Y-14024879D02*
X9531491Y-14043927D01*
X9531491Y-14043927D02*
X9531491Y-14062975D01*
X9531491Y-14062975D02*
X9521968Y-14091546D01*
X9521968Y-14091546D02*
X9407682Y-14205832D01*
X9407682Y-14205832D02*
X9531491Y-14205832D01*
X9645777Y-14091546D02*
X9626729Y-14082022D01*
X9626729Y-14082022D02*
X9617206Y-14072498D01*
X9617206Y-14072498D02*
X9607682Y-14053451D01*
X9607682Y-14053451D02*
X9607682Y-14043927D01*
X9607682Y-14043927D02*
X9617206Y-14024879D01*
X9617206Y-14024879D02*
X9626729Y-14015356D01*
X9626729Y-14015356D02*
X9645777Y-14005832D01*
X9645777Y-14005832D02*
X9683872Y-14005832D01*
X9683872Y-14005832D02*
X9702920Y-14015356D01*
X9702920Y-14015356D02*
X9712444Y-14024879D01*
X9712444Y-14024879D02*
X9721968Y-14043927D01*
X9721968Y-14043927D02*
X9721968Y-14053451D01*
X9721968Y-14053451D02*
X9712444Y-14072498D01*
X9712444Y-14072498D02*
X9702920Y-14082022D01*
X9702920Y-14082022D02*
X9683872Y-14091546D01*
X9683872Y-14091546D02*
X9645777Y-14091546D01*
X9645777Y-14091546D02*
X9626729Y-14101070D01*
X9626729Y-14101070D02*
X9617206Y-14110594D01*
X9617206Y-14110594D02*
X9607682Y-14129641D01*
X9607682Y-14129641D02*
X9607682Y-14167736D01*
X9607682Y-14167736D02*
X9617206Y-14186784D01*
X9617206Y-14186784D02*
X9626729Y-14196308D01*
X9626729Y-14196308D02*
X9645777Y-14205832D01*
X9645777Y-14205832D02*
X9683872Y-14205832D01*
X9683872Y-14205832D02*
X9702920Y-14196308D01*
X9702920Y-14196308D02*
X9712444Y-14186784D01*
X9712444Y-14186784D02*
X9721968Y-14167736D01*
X9721968Y-14167736D02*
X9721968Y-14129641D01*
X9721968Y-14129641D02*
X9712444Y-14110594D01*
X9712444Y-14110594D02*
X9702920Y-14101070D01*
X9702920Y-14101070D02*
X9683872Y-14091546D01*
X9845777Y-14005832D02*
X9864825Y-14005832D01*
X9864825Y-14005832D02*
X9883872Y-14015356D01*
X9883872Y-14015356D02*
X9893396Y-14024879D01*
X9893396Y-14024879D02*
X9902920Y-14043927D01*
X9902920Y-14043927D02*
X9912444Y-14082022D01*
X9912444Y-14082022D02*
X9912444Y-14129641D01*
X9912444Y-14129641D02*
X9902920Y-14167736D01*
X9902920Y-14167736D02*
X9893396Y-14186784D01*
X9893396Y-14186784D02*
X9883872Y-14196308D01*
X9883872Y-14196308D02*
X9864825Y-14205832D01*
X9864825Y-14205832D02*
X9845777Y-14205832D01*
X9845777Y-14205832D02*
X9826729Y-14196308D01*
X9826729Y-14196308D02*
X9817206Y-14186784D01*
X9817206Y-14186784D02*
X9807682Y-14167736D01*
X9807682Y-14167736D02*
X9798158Y-14129641D01*
X9798158Y-14129641D02*
X9798158Y-14082022D01*
X9798158Y-14082022D02*
X9807682Y-14043927D01*
X9807682Y-14043927D02*
X9817206Y-14024879D01*
X9817206Y-14024879D02*
X9826729Y-14015356D01*
X9826729Y-14015356D02*
X9845777Y-14005832D01*
X9988634Y-14005832D02*
X9988634Y-14043927D01*
X10064825Y-14005832D02*
X10064825Y-14043927D01*
X10360063Y-14282022D02*
X10350539Y-14272498D01*
X10350539Y-14272498D02*
X10331491Y-14243927D01*
X10331491Y-14243927D02*
X10321968Y-14224879D01*
X10321968Y-14224879D02*
X10312444Y-14196308D01*
X10312444Y-14196308D02*
X10302920Y-14148689D01*
X10302920Y-14148689D02*
X10302920Y-14110594D01*
X10302920Y-14110594D02*
X10312444Y-14062975D01*
X10312444Y-14062975D02*
X10321968Y-14034403D01*
X10321968Y-14034403D02*
X10331491Y-14015356D01*
X10331491Y-14015356D02*
X10350539Y-13986784D01*
X10350539Y-13986784D02*
X10360063Y-13977260D01*
X10426730Y-14024879D02*
X10436253Y-14015356D01*
X10436253Y-14015356D02*
X10455301Y-14005832D01*
X10455301Y-14005832D02*
X10502920Y-14005832D01*
X10502920Y-14005832D02*
X10521968Y-14015356D01*
X10521968Y-14015356D02*
X10531491Y-14024879D01*
X10531491Y-14024879D02*
X10541015Y-14043927D01*
X10541015Y-14043927D02*
X10541015Y-14062975D01*
X10541015Y-14062975D02*
X10531491Y-14091546D01*
X10531491Y-14091546D02*
X10417206Y-14205832D01*
X10417206Y-14205832D02*
X10541015Y-14205832D01*
X10779111Y-14205832D02*
X10779111Y-14005832D01*
X10864825Y-14205832D02*
X10864825Y-14101070D01*
X10864825Y-14101070D02*
X10855301Y-14082022D01*
X10855301Y-14082022D02*
X10836253Y-14072498D01*
X10836253Y-14072498D02*
X10807682Y-14072498D01*
X10807682Y-14072498D02*
X10788634Y-14082022D01*
X10788634Y-14082022D02*
X10779111Y-14091546D01*
X10988634Y-14205832D02*
X10969587Y-14196308D01*
X10969587Y-14196308D02*
X10960063Y-14186784D01*
X10960063Y-14186784D02*
X10950539Y-14167736D01*
X10950539Y-14167736D02*
X10950539Y-14110594D01*
X10950539Y-14110594D02*
X10960063Y-14091546D01*
X10960063Y-14091546D02*
X10969587Y-14082022D01*
X10969587Y-14082022D02*
X10988634Y-14072498D01*
X10988634Y-14072498D02*
X11017206Y-14072498D01*
X11017206Y-14072498D02*
X11036253Y-14082022D01*
X11036253Y-14082022D02*
X11045777Y-14091546D01*
X11045777Y-14091546D02*
X11055301Y-14110594D01*
X11055301Y-14110594D02*
X11055301Y-14167736D01*
X11055301Y-14167736D02*
X11045777Y-14186784D01*
X11045777Y-14186784D02*
X11036253Y-14196308D01*
X11036253Y-14196308D02*
X11017206Y-14205832D01*
X11017206Y-14205832D02*
X10988634Y-14205832D01*
X11169587Y-14205832D02*
X11150539Y-14196308D01*
X11150539Y-14196308D02*
X11141015Y-14177260D01*
X11141015Y-14177260D02*
X11141015Y-14005832D01*
X11321968Y-14196308D02*
X11302920Y-14205832D01*
X11302920Y-14205832D02*
X11264825Y-14205832D01*
X11264825Y-14205832D02*
X11245777Y-14196308D01*
X11245777Y-14196308D02*
X11236253Y-14177260D01*
X11236253Y-14177260D02*
X11236253Y-14101070D01*
X11236253Y-14101070D02*
X11245777Y-14082022D01*
X11245777Y-14082022D02*
X11264825Y-14072498D01*
X11264825Y-14072498D02*
X11302920Y-14072498D01*
X11302920Y-14072498D02*
X11321968Y-14082022D01*
X11321968Y-14082022D02*
X11331491Y-14101070D01*
X11331491Y-14101070D02*
X11331491Y-14120117D01*
X11331491Y-14120117D02*
X11236253Y-14139165D01*
X11407682Y-14196308D02*
X11426730Y-14205832D01*
X11426730Y-14205832D02*
X11464825Y-14205832D01*
X11464825Y-14205832D02*
X11483872Y-14196308D01*
X11483872Y-14196308D02*
X11493396Y-14177260D01*
X11493396Y-14177260D02*
X11493396Y-14167736D01*
X11493396Y-14167736D02*
X11483872Y-14148689D01*
X11483872Y-14148689D02*
X11464825Y-14139165D01*
X11464825Y-14139165D02*
X11436253Y-14139165D01*
X11436253Y-14139165D02*
X11417206Y-14129641D01*
X11417206Y-14129641D02*
X11407682Y-14110594D01*
X11407682Y-14110594D02*
X11407682Y-14101070D01*
X11407682Y-14101070D02*
X11417206Y-14082022D01*
X11417206Y-14082022D02*
X11436253Y-14072498D01*
X11436253Y-14072498D02*
X11464825Y-14072498D01*
X11464825Y-14072498D02*
X11483872Y-14082022D01*
X11560063Y-14282022D02*
X11569587Y-14272498D01*
X11569587Y-14272498D02*
X11588634Y-14243927D01*
X11588634Y-14243927D02*
X11598158Y-14224879D01*
X11598158Y-14224879D02*
X11607682Y-14196308D01*
X11607682Y-14196308D02*
X11617206Y-14148689D01*
X11617206Y-14148689D02*
X11617206Y-14110594D01*
X11617206Y-14110594D02*
X11607682Y-14062975D01*
X11607682Y-14062975D02*
X11598158Y-14034403D01*
X11598158Y-14034403D02*
X11588634Y-14015356D01*
X11588634Y-14015356D02*
X11569587Y-13986784D01*
X11569587Y-13986784D02*
X11560063Y-13977260D01*
M02*
